G04 DesignSpark PCB Gerber Version 13.0 Build *
%FSLAX35Y35*%
%MOMM*%
%ADD74C,0.01270*%
%ADD27C,0.02540*%
%ADD76C,0.05080*%
%ADD75C,0.07620*%
%ADD28C,0.08890*%
%ADD73C,0.11430*%
%ADD10C,0.12700*%
%ADD72C,0.15240*%
%ADD13C,0.25400*%
%ADD29C,0.45720*%
X0Y0D02*
D02*
D10*
X400000Y1905000D02*
Y180000D01*
X1895000D01*
Y1905000D01*
X400000D01*
X479200Y2110800D02*
X745900D01*
Y2009200D01*
X479200D01*
Y2110800D01*
X790000Y1290000D02*
Y1120000D01*
X1675000D01*
Y1290000D01*
X790000D01*
X863600Y3264640D02*
X865940Y3259960D01*
X872930Y3247300D01*
X877160Y3239610D01*
X879000Y3226280D01*
X891280Y3212970D01*
X908550Y3202970D01*
X922290Y3195190D01*
X948720Y3188690D01*
X968000Y3177850D01*
X986070Y3158540D01*
X997050Y3141860D01*
X1004940Y3118200D01*
X1009790Y3096790D01*
X1005810Y3077320D01*
X996930Y3054070D01*
X989090Y3035750D01*
X983060Y3017690D01*
X976800Y3004670D01*
X980740Y2978580D01*
X995460Y2956250D01*
X1016140Y2940700D01*
X1035490Y2925740D01*
X1051550Y2912600D01*
X1066370Y2900310D01*
X1082230Y2884450D01*
X1098890Y2871770D01*
X1109550Y2858990D01*
X1124160Y2842940D01*
X1139160Y2814540D01*
X1143970Y2803710D01*
X1144920Y2802130D01*
X1142730Y2801930D01*
X1127770Y2796000D01*
X1117560Y2786160D01*
X1111950Y2777240D01*
X1104810Y2766870D01*
X1100110Y2751290D01*
X1101270Y2737790D01*
X1101540Y2730420D01*
X1094920Y2728310D01*
X1090680Y2723850D01*
X1082680Y2717530D01*
X1076540Y2711280D01*
X1070400Y2702780D01*
X1068650Y2697370D01*
X1060900Y2696870D01*
X1052420Y2697190D01*
X1035610Y2698090D01*
X1023680Y2699290D01*
X1010990Y2701760D01*
X998850Y2705950D01*
X994440Y2710260D01*
X990440Y2716030D01*
X989210Y2720190D01*
X990320Y2736210D01*
X988380Y2748530D01*
X985640Y2762770D01*
X977850Y2774180D01*
X964020Y2788520D01*
X950140Y2794800D01*
X943820Y2799990D01*
X951470Y2805920D01*
X962760Y2815350D01*
X972450Y2824450D01*
X980550Y2830210D01*
X990240Y2840980D01*
X992640Y2851860D01*
X988630Y2862420D01*
X927880Y2919460D01*
X916640Y2928940D01*
X897160Y2930990D01*
X817060Y2930080D01*
X759300Y2930380D01*
X749700Y2931850D01*
X743460Y2940170D01*
X734650Y2951430D01*
X726220Y2969120D01*
X718270Y2986690D01*
X713350Y3001650D01*
X713550Y3021620D01*
X715300Y3034850D01*
X722240Y3049790D01*
X731250Y3059140D01*
X741650Y3066610D01*
X764420Y3070610D01*
X778500Y3071410D01*
X796170Y3079800D01*
X810670Y3104310D01*
X818870Y3127950D01*
X827570Y3150570D01*
X832180Y3172010D01*
X827740Y3195240D01*
X825030Y3222900D01*
X823920Y3242970D01*
X1080800Y2009200D02*
X814100D01*
Y2110800D01*
X1080800D01*
Y2009200D01*
X1093240Y3071470D02*
X1083830Y3070600D01*
X1080880Y3059950D01*
X1086170Y3047670D01*
X1093160Y3038090D01*
X1099990Y3031260D01*
X1105780Y3026680D01*
X1113210Y3025150D01*
X1121410Y3027840D01*
X1125650Y3036130D01*
X1118600Y3048390D01*
X1108340Y3061000D01*
X1100510Y3070500D01*
X1093240Y3071470D01*
X1159640Y2779490D02*
X1175110Y2776690D01*
X1180800Y2773460D01*
X1187150Y2766960D01*
X1197720Y2755670D01*
X1205920Y2751880D01*
X1215470Y2757350D01*
X1225760Y2762650D01*
X1235880Y2765360D01*
X1247970Y2766840D01*
X1258200Y2764210D01*
X1266380Y2761110D01*
X1274440Y2753310D01*
X1278000Y2743040D01*
X1278440Y2731330D01*
X1275870Y2718460D01*
X1267670Y2698560D01*
X1277000Y2688090D01*
X1281890Y2682650D01*
X1287530Y2675750D01*
X1291250Y2669690D01*
X1293880Y2662130D01*
X1294710Y2655160D01*
X1294170Y2647780D01*
X1292270Y2639580D01*
X1287170Y2633290D01*
X1280310Y2627580D01*
X1270830Y2623870D01*
X1256930Y2622880D01*
X1243800Y2624460D01*
X1223010Y2630310D01*
X1218400Y2615540D01*
X1214140Y2607730D01*
X1209810Y2602350D01*
X1205120Y2597370D01*
X1198340Y2592870D01*
X1190310Y2589710D01*
X1181600Y2588590D01*
X1171850Y2590130D01*
X1165030Y2593650D01*
X1156090Y2600880D01*
X1149980Y2609500D01*
X1148400Y2617030D01*
X1148270Y2625910D01*
X1148660Y2634990D01*
X1149540Y2645860D01*
X1132570Y2644960D01*
X1121740Y2644580D01*
X1113290Y2645260D01*
X1104100Y2649910D01*
X1098660Y2654370D01*
X1094790Y2660450D01*
X1092190Y2666910D01*
X1091010Y2674830D01*
X1091260Y2681720D01*
X1094480Y2687920D01*
X1101740Y2695110D01*
X1109330Y2702130D01*
X1116690Y2705420D01*
X1121840Y2707600D01*
X1134510Y2706540D01*
X1132190Y2723070D01*
X1129710Y2736700D01*
X1130010Y2747770D01*
X1131000Y2758640D01*
X1134830Y2765380D01*
X1139660Y2771900D01*
X1153880Y2778590D01*
X1159640Y2779490D01*
X1196610Y3094490D02*
X1189860Y3094790D01*
X1182040Y3089730D01*
X1180320Y3078800D01*
X1179340Y3047210D01*
X1180910Y3039870D01*
X1184590Y3033060D01*
X1190570Y3029440D01*
X1198340Y3031450D01*
X1206410Y3038450D01*
X1207140Y3083710D01*
X1202220Y3090910D01*
X1196610Y3094490D01*
X1239200Y2554980D02*
X1235270Y2572410D01*
X1230020Y2583520D01*
X1226890Y2579510D01*
X1214330Y2568830D01*
X1200890Y2563100D01*
X1185600Y2562470D01*
X1182370Y2562680D01*
X1187240Y2555170D01*
X1192390Y2535610D01*
X1192830Y2528340D01*
X1289540Y3070480D02*
X1281610Y3069460D01*
X1274940Y3062530D01*
X1268440Y3055390D01*
X1262160Y3047390D01*
X1258600Y3039560D01*
X1258720Y3029160D01*
X1266300Y3024650D01*
X1275840Y3027210D01*
X1282920Y3033080D01*
X1288050Y3039750D01*
X1292980Y3045980D01*
X1297560Y3054650D01*
X1299790Y3068060D01*
X1289540Y3070480D01*
X1685000Y1180000D02*
Y405000D01*
X1755000D01*
Y1180000D01*
X1685000D01*
X1790000Y1300000D02*
Y965000D01*
X1925000D01*
Y1300000D01*
X1790000D01*
Y1735000D02*
Y1435000D01*
X1925000D01*
Y1735000D01*
X1790000D01*
D02*
D13*
X1203860Y3138620D02*
Y3110090D01*
X1168990D01*
Y3021330D01*
X1137290D01*
D02*
D27*
X661330Y1989960D02*
X635370D01*
X632270Y1989900D01*
X629340Y1989670D01*
X626640Y1989260D01*
X624120Y1988730D01*
X621840Y1988030D01*
X619730Y1987210D01*
X617850Y1986210D01*
X616150Y1985040D01*
X614630Y1983750D01*
X613340Y1982290D01*
X612230Y1980640D01*
X611350Y1978890D01*
X610640Y1977010D01*
X610120Y1974900D01*
X609820Y1972680D01*
X609710Y1970330D01*
X609820Y1968520D01*
X610000Y1966820D01*
X610290Y1965230D01*
X610760Y1963650D01*
X611350Y1962190D01*
X612110Y1960780D01*
X612930Y1959490D01*
X613930Y1958200D01*
X614860Y1957150D01*
X615920Y1956210D01*
X617090Y1955330D01*
X618320Y1954510D01*
X619610Y1953750D01*
X621020Y1953050D01*
X622480Y1952460D01*
X624060Y1951930D01*
X607360Y1917660D01*
X620900D01*
X635550Y1950060D01*
X638830Y1950000D01*
X649080D01*
Y1917660D01*
X661330D01*
Y1989960D01*
X649080Y1980530D02*
Y1959320D01*
X636430D01*
X634730Y1959370D01*
X633140Y1959490D01*
X631620Y1959670D01*
X630270Y1959960D01*
X628980Y1960370D01*
X627810Y1960840D01*
X626760Y1961370D01*
X625820Y1962010D01*
X625000Y1962710D01*
X624300Y1963540D01*
X623650Y1964410D01*
X623180Y1965410D01*
X622770Y1966460D01*
X622540Y1967580D01*
X622360Y1968810D01*
X622300Y1970160D01*
X622360Y1971390D01*
X622480Y1972560D01*
X622770Y1973670D01*
X623120Y1974670D01*
X623650Y1975610D01*
X624240Y1976480D01*
X624880Y1977250D01*
X625700Y1977950D01*
X626580Y1978540D01*
X627640Y1979060D01*
X628750Y1979530D01*
X629980Y1979880D01*
X631270Y1980180D01*
X632730Y1980350D01*
X634260Y1980470D01*
X635900Y1980530D01*
X649080D01*
X599860Y1970270D02*
X599450Y1972730D01*
X598930Y1975020D01*
X598160Y1977130D01*
X597230Y1979120D01*
X596170Y1980940D01*
X594940Y1982640D01*
X593480Y1984160D01*
X591890Y1985570D01*
X590490Y1986560D01*
X588910Y1987500D01*
X587320Y1988200D01*
X585620Y1988850D01*
X583810Y1989320D01*
X581930Y1989670D01*
X580000Y1989900D01*
X577950Y1989960D01*
X575430Y1989840D01*
X573030Y1989610D01*
X570800Y1989140D01*
X568690Y1988550D01*
X566760Y1987730D01*
X564940Y1986800D01*
X563300Y1985620D01*
X561840Y1984340D01*
X560610Y1982990D01*
X559550Y1981580D01*
X558670Y1980060D01*
X557970Y1978420D01*
X557380Y1976660D01*
X557030Y1974840D01*
X556740Y1972850D01*
X556680Y1970800D01*
X556740Y1969220D01*
X556910Y1967640D01*
X557210Y1966110D01*
X557560Y1964650D01*
X558090Y1963120D01*
X558670Y1961660D01*
X559370Y1960250D01*
X560250Y1958850D01*
X561070Y1957560D01*
X562130Y1956210D01*
X563240Y1954800D01*
X564530Y1953280D01*
X565940Y1951760D01*
X567520Y1950180D01*
X569220Y1948480D01*
X571090Y1946720D01*
X572730Y1945250D01*
X574320Y1943790D01*
X575780Y1942380D01*
X577190Y1940980D01*
X578540Y1939630D01*
X579820Y1938280D01*
X581000Y1936990D01*
X582170Y1935760D01*
X583160Y1934530D01*
X584160Y1933360D01*
X585040Y1932190D01*
X585860Y1931070D01*
X586620Y1930020D01*
X587270Y1928960D01*
X587910Y1927970D01*
X588440Y1926970D01*
X556390D01*
Y1917660D01*
X600510D01*
Y1925920D01*
X599750Y1927500D01*
X598870Y1929140D01*
X597990Y1930720D01*
X596990Y1932300D01*
X595940Y1933950D01*
X594820Y1935590D01*
X593650Y1937230D01*
X592420Y1938870D01*
X591070Y1940510D01*
X589730Y1942150D01*
X588320Y1943850D01*
X586800Y1945550D01*
X585210Y1947190D01*
X583630Y1948890D01*
X581930Y1950590D01*
X580180Y1952340D01*
X578420Y1954040D01*
X576840Y1955620D01*
X575430Y1957150D01*
X574140Y1958550D01*
X573030Y1959900D01*
X572090Y1961130D01*
X571270Y1962300D01*
X570680Y1963360D01*
X569860Y1965060D01*
X569280Y1966870D01*
X568930Y1968810D01*
X568810Y1970920D01*
Y1972090D01*
X568980Y1973200D01*
X569220Y1974260D01*
X569510Y1975250D01*
X569920Y1976190D01*
X570390Y1977010D01*
X570980Y1977770D01*
X571680Y1978480D01*
X572320Y1979000D01*
X572970Y1979470D01*
X573730Y1979880D01*
X574490Y1980180D01*
X575310Y1980470D01*
X576190Y1980640D01*
X577130Y1980700D01*
X578120Y1980760D01*
X579240Y1980700D01*
X580290Y1980590D01*
X581290Y1980290D01*
X582230Y1979940D01*
X583110Y1979470D01*
X583870Y1978950D01*
X584630Y1978300D01*
X585270Y1977540D01*
X585860Y1976660D01*
X586390Y1975720D01*
X586860Y1974670D01*
X587270Y1973500D01*
X587620Y1972270D01*
X587910Y1970920D01*
X588090Y1969450D01*
X588200Y1967870D01*
X599860Y1970270D01*
X556390Y1918560D02*
X600510D01*
X607800D02*
X621310D01*
X649080D02*
X661330D01*
X556390Y1920940D02*
X600510D01*
X608960D02*
X622380D01*
X649080D02*
X661330D01*
X556390Y1923320D02*
X600510D01*
X610120D02*
X623460D01*
X649080D02*
X661330D01*
X556390Y1925700D02*
X600510D01*
X611280D02*
X624540D01*
X649080D02*
X661330D01*
X587840Y1928080D02*
X599440D01*
X612440D02*
X625610D01*
X649080D02*
X661330D01*
X586300Y1930460D02*
X598130D01*
X613600D02*
X626690D01*
X649080D02*
X661330D01*
X584550Y1932840D02*
X596650D01*
X614760D02*
X627760D01*
X649080D02*
X661330D01*
X582600Y1935220D02*
X595070D01*
X615920D02*
X628840D01*
X649080D02*
X661330D01*
X580440Y1937600D02*
X593370D01*
X617080D02*
X629920D01*
X649080D02*
X661330D01*
X578190Y1939980D02*
X591510D01*
X618240D02*
X630990D01*
X649080D02*
X661330D01*
X575780Y1942360D02*
X589560D01*
X619400D02*
X632070D01*
X649080D02*
X661330D01*
X573290Y1944740D02*
X587520D01*
X620560D02*
X633140D01*
X649080D02*
X661330D01*
X570670Y1947120D02*
X585280D01*
X621720D02*
X634220D01*
X649080D02*
X661330D01*
X568200Y1949500D02*
X583020D01*
X622880D02*
X635300D01*
X649080D02*
X661330D01*
X565830Y1951880D02*
X580640D01*
X624040D02*
X661330D01*
X563700Y1954260D02*
X578200D01*
X618740D02*
X661330D01*
X561790Y1956640D02*
X575900D01*
X615440D02*
X661330D01*
X560140Y1959020D02*
X573750D01*
X613290D02*
X661330D01*
X558800Y1961400D02*
X571900D01*
X611780D02*
X626720D01*
X649080D02*
X661330D01*
X557860Y1963780D02*
X570480D01*
X610720D02*
X624120D01*
X649080D02*
X661330D01*
X557200Y1966160D02*
X569510D01*
X610120D02*
X622890D01*
X649080D02*
X661330D01*
X556810Y1968540D02*
X568980D01*
X588150D02*
X591460D01*
X609820D02*
X622400D01*
X649080D02*
X661330D01*
X556680Y1970920D02*
X568810D01*
X587910D02*
X599750D01*
X609740D02*
X622340D01*
X649080D02*
X661330D01*
X556810Y1973300D02*
X569000D01*
X587330D02*
X599320D01*
X609900D02*
X622670D01*
X649080D02*
X661330D01*
X557190Y1975680D02*
X569700D01*
X586390D02*
X598690D01*
X610310D02*
X623700D01*
X649080D02*
X661330D01*
X557850Y1978060D02*
X571270D01*
X584830D02*
X597730D01*
X611040D02*
X625860D01*
X649080D02*
X661330D01*
X558890Y1980440D02*
X575150D01*
X580790D02*
X596460D01*
X612130D02*
X633440D01*
X649080D02*
X661330D01*
X560480Y1982820D02*
X594770D01*
X613810D02*
X661330D01*
X562820Y1985200D02*
X592310D01*
X616380D02*
X661330D01*
X566470Y1987580D02*
X588730D01*
X620680D02*
X661330D01*
X681880Y2855360D02*
X689780D01*
X685040Y2856940D02*
Y2858520D01*
X686620D01*
Y2860100D02*
Y2856940D01*
X683460D01*
X700840Y2861680D02*
X702420D01*
X704000Y2863260D02*
X699260D01*
Y2861680D01*
X710320D02*
X702420D01*
Y2864840D01*
X730860Y2891700D02*
Y2890120D01*
X727700D01*
X734020Y2864840D02*
Y2863260D01*
X735600Y2864840D02*
Y2861680D01*
X729280D01*
X741920Y2834820D02*
X705580D01*
Y2836400D01*
X743500Y2905920D02*
X745080D01*
Y2904340D01*
X751400Y2901180D02*
Y2899600D01*
X752980Y2866420D02*
Y2868000D01*
X754560D01*
X756140Y2877480D02*
X757720D01*
X762460Y2841140D02*
X760880D01*
X762460D02*
X764040D01*
Y2839560D01*
X762460Y2855360D02*
X764040D01*
Y2856940D01*
X765620Y2896440D02*
Y2894860D01*
X773520Y2837980D02*
Y2833240D01*
Y2890120D02*
X771940D01*
Y2888540D01*
X775100Y2891700D02*
X771940D01*
Y2890120D01*
X776680Y2836400D02*
X775100D01*
Y2830080D01*
X778260Y2822180D02*
Y2825340D01*
Y2893280D02*
X770360D01*
Y2888540D01*
X779840Y2894860D02*
X768780D01*
Y2885380D01*
X783000Y2863260D02*
X781420D01*
Y2861680D01*
X779840D01*
X783000Y2896440D02*
X767200D01*
Y2885380D01*
X783000Y2898020D02*
X754560D01*
Y2896440D01*
X786160Y2899600D02*
X752980D01*
Y2894860D01*
X790900Y2798480D02*
Y2801640D01*
X789320D01*
X801960Y2904340D02*
X800380D01*
X801960Y2905920D02*
X800380D01*
X803540Y2777940D02*
Y2773200D01*
X805120D01*
X806700Y2770040D02*
Y2774780D01*
X803540D01*
X806700Y2776360D02*
X800380D01*
Y2782680D01*
X820920Y2730540D02*
Y2728960D01*
X831980Y2765300D02*
Y2762140D01*
X830400D01*
X839880Y2736860D02*
Y2735280D01*
X838300D01*
X839880Y2738440D02*
X841460D01*
Y2741600D01*
Y2738440D02*
Y2736860D01*
X839880D01*
X844620Y2740020D02*
X843040D01*
Y2738440D01*
X844620Y2905920D02*
X849360D01*
Y2904340D01*
X846200Y2796900D02*
Y2790580D01*
X844620D01*
X847780Y2793740D02*
X844620D01*
Y2785840D01*
X860420Y2765300D02*
Y2762140D01*
X858840D01*
X860420Y2899600D02*
X869900D01*
Y2891700D01*
X862000Y2768460D02*
Y2765300D01*
Y2898020D02*
X868320D01*
Y2893280D01*
X863580Y2896440D02*
X866740D01*
Y2893280D01*
X865160Y2894860D02*
X868320D01*
X866740Y2779520D02*
Y2770040D01*
X868320Y2777940D02*
Y2774780D01*
X873060D01*
X868320Y2891700D02*
X866740D01*
Y2893280D01*
X868830Y3267610D02*
X871250Y3262750D01*
X878180Y3250190D01*
X882950Y3241530D01*
X884680Y3228970D01*
X895080Y3217710D01*
X911540Y3208180D01*
X924530Y3200810D01*
X950950Y3194320D01*
X971740Y3182620D01*
X990800Y3162260D01*
X1002500Y3144510D01*
X1010730Y3119820D01*
X1015920Y3096860D01*
X1011590Y3075640D01*
X1002500Y3051810D01*
X994700Y3033620D01*
X988640Y3015430D01*
X983010Y3003730D01*
X986470Y2980780D01*
X999900Y2960420D01*
X1019780Y2945480D01*
X1039230Y2930430D01*
X1055370Y2917230D01*
X1070410Y2904750D01*
X1086190Y2888980D01*
X1103060Y2876140D01*
X1114070Y2862930D01*
X1129110Y2846420D01*
X1144560Y2817160D01*
X1149300Y2806490D01*
X1155010Y2797000D01*
X1144130Y2796030D01*
X1131090Y2790860D01*
X1122250Y2782350D01*
X1116970Y2773940D01*
X1110280Y2764240D01*
X1106190Y2750660D01*
X1107260Y2738150D01*
X1107700Y2726080D01*
X1098210Y2723060D01*
X1094740Y2719410D01*
X1086690Y2713060D01*
X1081140Y2707400D01*
X1075820Y2700030D01*
X1073100Y2691650D01*
X1060980Y2690860D01*
X1052140Y2691200D01*
X1035150Y2692100D01*
X1022800Y2693350D01*
X1009430Y2695960D01*
X995610Y2700710D01*
X989840Y2706380D01*
X984970Y2713400D01*
X983150Y2719520D01*
X984290Y2735940D01*
X982470Y2747500D01*
X979980Y2760410D01*
X973180Y2770380D01*
X960500Y2783520D01*
X946950Y2789660D01*
X934200Y2800130D01*
X947710Y2810590D01*
X958780Y2819850D01*
X968640Y2829100D01*
X976530Y2834720D01*
X984720Y2843820D01*
X986390Y2851400D01*
X983510Y2858990D01*
X923890Y2914970D01*
X914180Y2923160D01*
X896880Y2924990D01*
X817080Y2924070D01*
X758820Y2924380D01*
X746370Y2926290D01*
X738690Y2936520D01*
X729520Y2948250D01*
X720780Y2966600D01*
X712670Y2984510D01*
X707340Y3000720D01*
X707560Y3022050D01*
X709470Y3036550D01*
X717220Y3053230D01*
X727310Y3063690D01*
X739260Y3072290D01*
X763730Y3076580D01*
X776990Y3077330D01*
X791930Y3084430D01*
X805200Y3106840D01*
X813230Y3130010D01*
X821800Y3152280D01*
X826060Y3172080D01*
X821800Y3194380D01*
X819040Y3222440D01*
X818040Y3240630D01*
X869900Y2771620D02*
X863580D01*
Y2766880D01*
X869900Y2834820D02*
X819340D01*
X869900Y2836400D02*
X819340D01*
Y2834820D01*
X871480Y2773200D02*
X868320D01*
Y2771620D01*
X873060Y2856940D02*
X880960D01*
X873060Y2899600D02*
X871480D01*
Y2890120D01*
X874640Y2776360D02*
X865160D01*
Y2768460D01*
X879380Y2841140D02*
X877800D01*
X879380Y2856940D02*
X877800D01*
X885700Y2868000D02*
Y2872740D01*
X887280Y2893280D02*
Y2896440D01*
X890440D02*
X888860D01*
Y2893280D01*
X890440Y2898020D02*
X874640D01*
Y2896440D01*
X890440Y2899600D02*
X873060D01*
Y2888540D01*
X892020Y2825340D02*
Y2822180D01*
X890440D01*
X892020Y2837980D02*
X890440D01*
Y2836400D01*
X893600Y2841140D02*
X892020D01*
Y2839560D01*
X898340Y2905920D02*
X896760D01*
X899920Y2856940D02*
Y2855360D01*
X898340D01*
X909400Y2899600D02*
Y2898020D01*
Y2901180D02*
Y2898020D01*
X910980D01*
Y2899600D02*
Y2898020D01*
X909400D01*
X914140Y2888540D02*
Y2883800D01*
X912560D01*
X915720Y2886960D02*
X910980D01*
Y2872740D01*
X918880Y2817440D02*
X922040D01*
Y2819020D01*
X929940Y2874320D02*
X926780D01*
Y2875900D01*
X937440Y2799640D02*
X939020D01*
X939420Y2834820D02*
X937840D01*
Y2836400D01*
X939420Y2863260D02*
X941000D01*
Y2861680D01*
Y2864840D02*
X939420D01*
Y2863260D01*
X942580Y2836400D02*
X939420D01*
Y2833240D01*
X944160Y2861680D02*
X937840D01*
X955220Y2842720D02*
Y2839560D01*
X956800Y2856940D02*
X955220D01*
X958380Y2842720D02*
X956800D01*
Y2841140D01*
X1001330Y1989960D02*
X975370D01*
X972270Y1989900D01*
X969340Y1989670D01*
X966640Y1989260D01*
X964120Y1988730D01*
X961840Y1988030D01*
X959730Y1987210D01*
X957850Y1986210D01*
X956150Y1985040D01*
X954630Y1983750D01*
X953340Y1982290D01*
X952230Y1980640D01*
X951350Y1978890D01*
X950640Y1977010D01*
X950120Y1974900D01*
X949820Y1972680D01*
X949710Y1970330D01*
X949820Y1968520D01*
X950000Y1966820D01*
X950290Y1965230D01*
X950760Y1963650D01*
X951350Y1962190D01*
X952110Y1960780D01*
X952930Y1959490D01*
X953930Y1958200D01*
X954860Y1957150D01*
X955920Y1956210D01*
X957090Y1955330D01*
X958320Y1954510D01*
X959610Y1953750D01*
X961020Y1953050D01*
X962480Y1952460D01*
X964060Y1951930D01*
X947360Y1917660D01*
X960900D01*
X975550Y1950060D01*
X978830Y1950000D01*
X989080D01*
Y1917660D01*
X1001330D01*
Y1989960D01*
X989080Y1980530D02*
Y1959320D01*
X976430D01*
X974730Y1959370D01*
X973140Y1959490D01*
X971620Y1959670D01*
X970270Y1959960D01*
X968980Y1960370D01*
X967810Y1960840D01*
X966760Y1961370D01*
X965820Y1962010D01*
X965000Y1962710D01*
X964300Y1963540D01*
X963650Y1964410D01*
X963180Y1965410D01*
X962770Y1966460D01*
X962540Y1967580D01*
X962360Y1968810D01*
X962300Y1970160D01*
X962360Y1971390D01*
X962480Y1972560D01*
X962770Y1973670D01*
X963120Y1974670D01*
X963650Y1975610D01*
X964240Y1976480D01*
X964880Y1977250D01*
X965700Y1977950D01*
X966580Y1978540D01*
X967640Y1979060D01*
X968750Y1979530D01*
X969980Y1979880D01*
X971270Y1980180D01*
X972730Y1980350D01*
X974260Y1980470D01*
X975900Y1980530D01*
X989080D01*
X911270Y1989260D02*
Y1926740D01*
X898030D01*
Y1917660D01*
X936350D01*
Y1926740D01*
X922400D01*
Y1977420D01*
X925390Y1975550D01*
X928550Y1973850D01*
X931950Y1972380D01*
X935590Y1971090D01*
X937400Y1980880D01*
X935290Y1981520D01*
X933180Y1982340D01*
X931070Y1983220D01*
X929020Y1984220D01*
X926970Y1985270D01*
X924920Y1986500D01*
X922870Y1987850D01*
X920880Y1989260D01*
X911270D01*
X898030Y1918560D02*
X936350D01*
X947800D02*
X961310D01*
X989080D02*
X1001330D01*
X898030Y1920940D02*
X936350D01*
X948960D02*
X962380D01*
X989080D02*
X1001330D01*
X898030Y1923320D02*
X936350D01*
X950120D02*
X963460D01*
X989080D02*
X1001330D01*
X898030Y1925700D02*
X936350D01*
X951280D02*
X964540D01*
X989080D02*
X1001330D01*
X911270Y1928080D02*
X922400D01*
X952440D02*
X965610D01*
X989080D02*
X1001330D01*
X911270Y1930460D02*
X922400D01*
X953600D02*
X966690D01*
X989080D02*
X1001330D01*
X911270Y1932840D02*
X922400D01*
X954760D02*
X967760D01*
X989080D02*
X1001330D01*
X911270Y1935220D02*
X922400D01*
X955920D02*
X968840D01*
X989080D02*
X1001330D01*
X911270Y1937600D02*
X922400D01*
X957080D02*
X969920D01*
X989080D02*
X1001330D01*
X911270Y1939980D02*
X922400D01*
X958240D02*
X970990D01*
X989080D02*
X1001330D01*
X911270Y1942360D02*
X922400D01*
X959400D02*
X972070D01*
X989080D02*
X1001330D01*
X911270Y1944740D02*
X922400D01*
X960560D02*
X973140D01*
X989080D02*
X1001330D01*
X911270Y1947120D02*
X922400D01*
X961720D02*
X974220D01*
X989080D02*
X1001330D01*
X911270Y1949500D02*
X922400D01*
X962880D02*
X975300D01*
X989080D02*
X1001330D01*
X911270Y1951880D02*
X922400D01*
X964040D02*
X1001330D01*
X911270Y1954260D02*
X922400D01*
X958740D02*
X1001330D01*
X911270Y1956640D02*
X922400D01*
X955440D02*
X1001330D01*
X911270Y1959020D02*
X922400D01*
X953290D02*
X1001330D01*
X911270Y1961400D02*
X922400D01*
X951780D02*
X966720D01*
X989080D02*
X1001330D01*
X911270Y1963780D02*
X922400D01*
X950720D02*
X964120D01*
X989080D02*
X1001330D01*
X911270Y1966160D02*
X922400D01*
X950120D02*
X962890D01*
X989080D02*
X1001330D01*
X911270Y1968540D02*
X922400D01*
X949820D02*
X962400D01*
X989080D02*
X1001330D01*
X911270Y1970920D02*
X922400D01*
X949740D02*
X962340D01*
X989080D02*
X1001330D01*
X911270Y1973300D02*
X922400D01*
X929820D02*
X936000D01*
X949900D02*
X962670D01*
X989080D02*
X1001330D01*
X911270Y1975680D02*
X922400D01*
X925180D02*
X936440D01*
X950310D02*
X963700D01*
X989080D02*
X1001330D01*
X911270Y1978060D02*
X936880D01*
X951040D02*
X965860D01*
X989080D02*
X1001330D01*
X911270Y1980440D02*
X937320D01*
X952130D02*
X973440D01*
X989080D02*
X1001330D01*
X911270Y1982820D02*
X932030D01*
X953810D02*
X1001330D01*
X911270Y1985200D02*
X927110D01*
X956380D02*
X1001330D01*
X911270Y1987580D02*
X923280D01*
X960680D02*
X1001330D01*
X1194230Y3150450D02*
X1179400Y3149350D01*
X1169440Y3146120D01*
X1161500Y3140060D01*
X1152490Y3132130D01*
X1146440Y3124060D01*
X1141460Y3117060D01*
X1136080Y3111140D01*
X1129760Y3106300D01*
X1118460Y3107380D01*
X1103530Y3110870D01*
X1093980Y3112220D01*
X1081330Y3111410D01*
X1067070Y3106840D01*
X1054970Y3099570D01*
X1045820Y3088010D01*
X1040980Y3074020D01*
X1038830Y3061370D01*
Y3050610D01*
X1041250Y3038770D01*
X1044740Y3028550D01*
X1050120Y3020210D01*
X1055770Y3010520D01*
X1062500Y3004070D01*
X1071110Y2998150D01*
X1081840Y2995800D01*
X1095940Y2995490D01*
X1109520Y2996840D01*
X1124040Y2998810D01*
X1141460Y3002540D01*
X1157950Y3005140D01*
X1177340Y3008870D01*
X1189980Y3009410D01*
X1206250Y3010460D01*
X1220530Y3008560D01*
X1233380Y3004750D01*
X1243860Y2999890D01*
X1257090Y2997610D01*
X1272320Y2995800D01*
X1285270Y2995290D01*
X1299040Y2996730D01*
X1309260Y2999390D01*
X1319970Y3003740D01*
X1330920Y3011710D01*
X1339050Y3021610D01*
X1343720Y3032000D01*
X1347000Y3042300D01*
X1347940Y3053570D01*
X1347820Y3065320D01*
X1342770Y3079530D01*
X1334670Y3090340D01*
X1323860Y3099150D01*
X1308940Y3104560D01*
X1297430Y3106670D01*
X1284030Y3106200D01*
X1276990Y3104670D01*
X1269700Y3104200D01*
X1263180Y3104320D01*
X1257120Y3108540D01*
X1251830Y3115560D01*
X1246100Y3124100D01*
X1239940Y3132210D01*
X1231180Y3138910D01*
X1222530Y3144640D01*
X1210750Y3148210D01*
X1199290Y3150370D01*
X1194230Y3150450D01*
X1244640Y2558110D02*
X1240970Y2574370D01*
X1231280Y2594900D01*
X1222540Y2583690D01*
X1211140Y2573990D01*
X1199550Y2569050D01*
X1185670Y2568480D01*
X1170850Y2569430D01*
X1181680Y2552710D01*
X1186430Y2534660D01*
X1187020Y2525000D01*
X1551180Y2281610D02*
X1586710Y2240850D01*
X1548110Y2179180D01*
X1568360D01*
X1598250Y2228400D01*
X1610200Y2214960D01*
Y2179180D01*
X1627710D01*
Y2281610D01*
X1610200D01*
Y2234880D01*
X1571520Y2281610D01*
X1551180D01*
X1536900Y2233380D02*
X1536070Y2235870D01*
X1535160Y2238120D01*
X1534080Y2240190D01*
X1532920Y2242180D01*
X1531510Y2243930D01*
X1530010Y2245590D01*
X1528350Y2247080D01*
X1526610Y2248410D01*
X1524620Y2249570D01*
X1522540Y2250570D01*
X1520300Y2251400D01*
X1517900Y2252140D01*
X1515410Y2252640D01*
X1512670Y2253060D01*
X1509840Y2253310D01*
X1506860Y2253390D01*
X1503450Y2253310D01*
X1500300Y2252970D01*
X1497310Y2252560D01*
X1494570Y2251890D01*
X1492080Y2251060D01*
X1489760Y2249990D01*
X1487680Y2248740D01*
X1485770Y2247330D01*
X1484190Y2245750D01*
X1482700Y2244010D01*
X1481540Y2242020D01*
X1480540Y2239860D01*
X1479790Y2237530D01*
X1479210Y2234960D01*
X1478880Y2232220D01*
X1478800Y2229320D01*
Y2200600D01*
X1478720Y2195280D01*
X1478470Y2189970D01*
X1478130Y2184580D01*
X1477640Y2179180D01*
X1492910D01*
X1493240Y2181250D01*
X1493570Y2183580D01*
X1493820Y2185990D01*
X1494160Y2188640D01*
X1495150Y2187310D01*
X1496150Y2185990D01*
X1497310Y2184820D01*
X1498470Y2183750D01*
X1499720Y2182750D01*
X1500960Y2181840D01*
X1502290Y2181010D01*
X1503700Y2180260D01*
X1505200Y2179590D01*
X1506690Y2179010D01*
X1508270Y2178520D01*
X1509930Y2178100D01*
X1511590Y2177850D01*
X1513330Y2177600D01*
X1515070Y2177440D01*
X1516980D01*
X1519560Y2177520D01*
X1522050Y2177850D01*
X1524370Y2178350D01*
X1526530Y2179100D01*
X1528600Y2180010D01*
X1530510Y2181090D01*
X1532260Y2182500D01*
X1533830Y2183990D01*
X1535080Y2185490D01*
X1536240Y2187150D01*
X1537150Y2188810D01*
X1537900Y2190630D01*
X1538480Y2192540D01*
X1538900Y2194620D01*
X1539150Y2196690D01*
X1539230Y2198940D01*
X1539150Y2201340D01*
X1538900Y2203580D01*
X1538400Y2205660D01*
X1537820Y2207650D01*
X1536990Y2209560D01*
X1535910Y2211390D01*
X1534750Y2213050D01*
X1533330Y2214620D01*
X1531760Y2216040D01*
X1530010Y2217360D01*
X1528110Y2218530D01*
X1525950Y2219600D01*
X1523620Y2220600D01*
X1521130Y2221510D01*
X1518480Y2222260D01*
X1515570Y2222840D01*
X1513330Y2223260D01*
X1511010Y2223590D01*
X1508600Y2223920D01*
X1506030Y2224170D01*
X1503370Y2224420D01*
X1500630Y2224670D01*
X1497810Y2224830D01*
X1494900Y2224920D01*
Y2229070D01*
X1494990Y2230810D01*
X1495070Y2232390D01*
X1495400Y2233880D01*
X1495730Y2235210D01*
X1496230Y2236460D01*
X1496810Y2237530D01*
X1497480Y2238530D01*
X1498310Y2239360D01*
X1499140Y2239940D01*
X1499970Y2240440D01*
X1500960Y2240850D01*
X1502120Y2241270D01*
X1503290Y2241520D01*
X1504610Y2241770D01*
X1505940Y2241850D01*
X1507440Y2241930D01*
X1508850Y2241850D01*
X1510180Y2241680D01*
X1511420Y2241350D01*
X1512670Y2241020D01*
X1513830Y2240440D01*
X1514910Y2239860D01*
X1515900Y2239110D01*
X1516900Y2238200D01*
X1518480Y2236460D01*
X1519720Y2234300D01*
X1520630Y2231890D01*
X1521300Y2229230D01*
X1536900Y2233380D01*
X1494900Y2214620D02*
X1499050Y2214460D01*
X1503200Y2214040D01*
X1507350Y2213380D01*
X1511500Y2212550D01*
X1513000Y2212130D01*
X1514330Y2211720D01*
X1515570Y2211220D01*
X1516730Y2210720D01*
X1517810Y2210140D01*
X1518730Y2209480D01*
X1519640Y2208810D01*
X1520470Y2208070D01*
X1521130Y2207240D01*
X1521710Y2206410D01*
X1522210Y2205490D01*
X1522630Y2204580D01*
X1522960Y2203580D01*
X1523210Y2202500D01*
X1523370Y2201430D01*
Y2200260D01*
Y2198940D01*
X1523210Y2197690D01*
X1522960Y2196530D01*
X1522710Y2195450D01*
X1522290Y2194450D01*
X1521800Y2193540D01*
X1521220Y2192790D01*
X1520470Y2192050D01*
X1519720Y2191380D01*
X1518890Y2190800D01*
X1517900Y2190390D01*
X1516900Y2189970D01*
X1515740Y2189720D01*
X1514490Y2189470D01*
X1513160Y2189310D01*
X1511750D01*
X1510510D01*
X1509180Y2189470D01*
X1507930Y2189720D01*
X1506770Y2190050D01*
X1505610Y2190470D01*
X1504450Y2190970D01*
X1503370Y2191550D01*
X1502290Y2192290D01*
X1501210Y2193040D01*
X1500210Y2193960D01*
X1499220Y2194950D01*
X1498310Y2196030D01*
X1497390Y2197190D01*
X1496560Y2198440D01*
X1495730Y2199770D01*
X1494900Y2201180D01*
Y2214620D01*
X1441780Y2251650D02*
Y2238950D01*
X1440530Y2240690D01*
X1439290Y2242270D01*
X1437960Y2243840D01*
X1436550Y2245250D01*
X1435050Y2246580D01*
X1433560Y2247740D01*
X1432070Y2248910D01*
X1430410Y2249900D01*
X1428910Y2250650D01*
X1427420Y2251400D01*
X1425840Y2251980D01*
X1424260Y2252480D01*
X1422770Y2252810D01*
X1421190Y2253060D01*
X1419530Y2253220D01*
X1417950Y2253310D01*
X1415550Y2253220D01*
X1413310Y2252890D01*
X1411150Y2252390D01*
X1409160Y2251650D01*
X1407250Y2250820D01*
X1405500Y2249650D01*
X1403930Y2248330D01*
X1402430Y2246830D01*
X1401190Y2245340D01*
X1400190Y2243680D01*
X1399280Y2241930D01*
X1398530Y2240110D01*
X1398030Y2238120D01*
X1397620Y2236040D01*
X1397370Y2233800D01*
X1397290Y2231470D01*
Y2179180D01*
X1414300D01*
Y2226830D01*
Y2228320D01*
X1414470Y2229730D01*
X1414630Y2230980D01*
X1414880Y2232220D01*
X1415300Y2233300D01*
X1415710Y2234300D01*
X1416210Y2235210D01*
X1416790Y2235960D01*
X1417460Y2236700D01*
X1418200Y2237370D01*
X1419030Y2237870D01*
X1419950Y2238280D01*
X1420940Y2238610D01*
X1422020Y2238860D01*
X1423100Y2239030D01*
X1424350D01*
X1425510D01*
X1426670Y2238780D01*
X1427830Y2238530D01*
X1429080Y2238120D01*
X1430240Y2237620D01*
X1431480Y2236950D01*
X1432650Y2236210D01*
X1433890Y2235290D01*
X1435880Y2233550D01*
X1437790Y2231470D01*
X1439620Y2229230D01*
X1441280Y2226740D01*
Y2179180D01*
X1457880D01*
Y2251650D01*
X1441780D01*
X1323910Y2234710D02*
X1339680Y2230230D01*
X1340010Y2231640D01*
X1340420Y2232970D01*
X1340920Y2234210D01*
X1341420Y2235380D01*
X1342080Y2236370D01*
X1342750Y2237370D01*
X1343410Y2238200D01*
X1344240Y2239030D01*
X1345070Y2239690D01*
X1345900Y2240270D01*
X1346900Y2240770D01*
X1347900Y2241190D01*
X1348970Y2241520D01*
X1350140Y2241770D01*
X1351300Y2241930D01*
X1352540D01*
X1355120Y2241770D01*
X1357520Y2241270D01*
X1359520Y2240520D01*
X1361260Y2239360D01*
X1362420Y2238280D01*
X1363250Y2237040D01*
X1363750Y2235620D01*
X1363920Y2234130D01*
X1363830Y2232970D01*
X1363670Y2231970D01*
X1363500Y2230980D01*
X1363170Y2230060D01*
X1362750Y2229320D01*
X1362260Y2228570D01*
X1361670Y2227820D01*
X1361010Y2227240D01*
X1360260Y2226740D01*
X1359350Y2226250D01*
X1358270Y2225750D01*
X1357110Y2225250D01*
X1355780Y2224750D01*
X1354370Y2224250D01*
X1352710Y2223750D01*
X1350970Y2223260D01*
X1344910Y2221680D01*
X1341750Y2220770D01*
X1338850Y2219770D01*
X1336190Y2218770D01*
X1333780Y2217700D01*
X1331710Y2216530D01*
X1329800Y2215290D01*
X1328140Y2214040D01*
X1326810Y2212710D01*
X1325820Y2211390D01*
X1324900Y2210060D01*
X1324160Y2208560D01*
X1323490Y2206990D01*
X1323080Y2205330D01*
X1322660Y2203500D01*
X1322500Y2201590D01*
X1322410Y2199600D01*
X1322580Y2196940D01*
X1322910Y2194450D01*
X1323570Y2192130D01*
X1324490Y2189970D01*
X1325650Y2187980D01*
X1327140Y2186070D01*
X1328800Y2184410D01*
X1330710Y2182830D01*
X1332790Y2181500D01*
X1334950Y2180420D01*
X1337270Y2179430D01*
X1339840Y2178680D01*
X1342580Y2178020D01*
X1345410Y2177600D01*
X1348480Y2177350D01*
X1351800Y2177270D01*
X1354620Y2177350D01*
X1357440Y2177520D01*
X1360010Y2177930D01*
X1362500Y2178430D01*
X1364910Y2179010D01*
X1367070Y2179840D01*
X1369230Y2180760D01*
X1371140Y2181840D01*
X1372960Y2183000D01*
X1374710Y2184330D01*
X1376200Y2185820D01*
X1377610Y2187480D01*
X1378940Y2189220D01*
X1380100Y2191130D01*
X1381100Y2193210D01*
X1382010Y2195450D01*
X1366570Y2200840D01*
X1366070Y2199350D01*
X1365490Y2197940D01*
X1364910Y2196690D01*
X1364250Y2195450D01*
X1363580Y2194370D01*
X1362750Y2193370D01*
X1361920Y2192460D01*
X1361010Y2191630D01*
X1360010Y2190970D01*
X1359020Y2190300D01*
X1357860Y2189800D01*
X1356690Y2189390D01*
X1355450Y2189060D01*
X1354200Y2188810D01*
X1352790Y2188640D01*
X1351380D01*
X1349800D01*
X1348310Y2188730D01*
X1346900Y2188970D01*
X1345570Y2189220D01*
X1344410Y2189560D01*
X1343330Y2189970D01*
X1342330Y2190390D01*
X1341500Y2190970D01*
X1340670Y2191550D01*
X1340010Y2192290D01*
X1339430Y2193040D01*
X1339010Y2193870D01*
X1338600Y2194790D01*
X1338350Y2195780D01*
X1338180Y2196860D01*
Y2198020D01*
Y2199100D01*
X1338350Y2200180D01*
X1338600Y2201090D01*
X1338930Y2202010D01*
X1339350Y2202840D01*
X1339930Y2203580D01*
X1340510Y2204170D01*
X1341250Y2204750D01*
X1342000Y2205240D01*
X1342920Y2205660D01*
X1343990Y2206160D01*
X1345320Y2206660D01*
X1346730Y2207240D01*
X1348390Y2207730D01*
X1350140Y2208320D01*
X1352130Y2208900D01*
X1358190Y2210560D01*
X1361260Y2211470D01*
X1364000Y2212380D01*
X1366490Y2213380D01*
X1368810Y2214460D01*
X1370810Y2215540D01*
X1372630Y2216780D01*
X1374130Y2218030D01*
X1375450Y2219360D01*
X1376370Y2220600D01*
X1377200Y2222010D01*
X1377940Y2223420D01*
X1378440Y2225080D01*
X1378940Y2226740D01*
X1379270Y2228650D01*
X1379440Y2230560D01*
X1379520Y2232640D01*
X1379360Y2235040D01*
X1379020Y2237290D01*
X1378360Y2239360D01*
X1377530Y2241350D01*
X1376370Y2243260D01*
X1375040Y2245000D01*
X1373380Y2246580D01*
X1371550Y2248080D01*
X1369640Y2249320D01*
X1367650Y2250320D01*
X1365410Y2251230D01*
X1363090Y2251980D01*
X1360600Y2252560D01*
X1358020Y2252970D01*
X1355200Y2253220D01*
X1352290Y2253310D01*
X1349560Y2253220D01*
X1346980Y2252970D01*
X1344580Y2252640D01*
X1342250Y2252140D01*
X1340010Y2251480D01*
X1337930Y2250650D01*
X1335940Y2249740D01*
X1334120Y2248660D01*
X1332460Y2247410D01*
X1330800Y2246080D01*
X1329380Y2244510D01*
X1328060Y2242850D01*
X1326810Y2241020D01*
X1325730Y2239110D01*
X1324740Y2237040D01*
X1323910Y2234710D01*
X1307970Y2233380D02*
X1307140Y2235870D01*
X1306230Y2238120D01*
X1305150Y2240190D01*
X1303980Y2242180D01*
X1302570Y2243930D01*
X1301080Y2245590D01*
X1299420Y2247080D01*
X1297680Y2248410D01*
X1295680Y2249570D01*
X1293610Y2250570D01*
X1291370Y2251400D01*
X1288960Y2252140D01*
X1286470Y2252640D01*
X1283730Y2253060D01*
X1280910Y2253310D01*
X1277920Y2253390D01*
X1274520Y2253310D01*
X1271360Y2252970D01*
X1268370Y2252560D01*
X1265630Y2251890D01*
X1263140Y2251060D01*
X1260820Y2249990D01*
X1258750Y2248740D01*
X1256840Y2247330D01*
X1255260Y2245750D01*
X1253760Y2244010D01*
X1252600Y2242020D01*
X1251610Y2239860D01*
X1250860Y2237530D01*
X1250280Y2234960D01*
X1249950Y2232220D01*
X1249860Y2229320D01*
Y2200600D01*
X1249780Y2195280D01*
X1249530Y2189970D01*
X1249200Y2184580D01*
X1248700Y2179180D01*
X1263970D01*
X1264310Y2181250D01*
X1264640Y2183580D01*
X1264890Y2185990D01*
X1265220Y2188640D01*
X1266220Y2187310D01*
X1267210Y2185990D01*
X1268370Y2184820D01*
X1269540Y2183750D01*
X1270780Y2182750D01*
X1272030Y2181840D01*
X1273350Y2181010D01*
X1274770Y2180260D01*
X1276260Y2179590D01*
X1277750Y2179010D01*
X1279330Y2178520D01*
X1280990Y2178100D01*
X1282650Y2177850D01*
X1284390Y2177600D01*
X1286140Y2177440D01*
X1288050D01*
X1290620Y2177520D01*
X1293110Y2177850D01*
X1295430Y2178350D01*
X1297590Y2179100D01*
X1299670Y2180010D01*
X1301580Y2181090D01*
X1303320Y2182500D01*
X1304900Y2183990D01*
X1306140Y2185490D01*
X1307300Y2187150D01*
X1308220Y2188810D01*
X1308960Y2190630D01*
X1309550Y2192540D01*
X1309960Y2194620D01*
X1310210Y2196690D01*
X1310290Y2198940D01*
X1310210Y2201340D01*
X1309960Y2203580D01*
X1309460Y2205660D01*
X1308880Y2207650D01*
X1308050Y2209560D01*
X1306970Y2211390D01*
X1305810Y2213050D01*
X1304400Y2214620D01*
X1302820Y2216040D01*
X1301080Y2217360D01*
X1299170Y2218530D01*
X1297010Y2219600D01*
X1294690Y2220600D01*
X1292200Y2221510D01*
X1289540Y2222260D01*
X1286640Y2222840D01*
X1284390Y2223260D01*
X1282070Y2223590D01*
X1279660Y2223920D01*
X1277090Y2224170D01*
X1274430Y2224420D01*
X1271690Y2224670D01*
X1268870Y2224830D01*
X1265970Y2224920D01*
Y2229070D01*
X1266050Y2230810D01*
X1266130Y2232390D01*
X1266460Y2233880D01*
X1266800Y2235210D01*
X1267290Y2236460D01*
X1267880Y2237530D01*
X1268540Y2238530D01*
X1269370Y2239360D01*
X1270200Y2239940D01*
X1271030Y2240440D01*
X1272030Y2240850D01*
X1273190Y2241270D01*
X1274350Y2241520D01*
X1275680Y2241770D01*
X1277010Y2241850D01*
X1278500Y2241930D01*
X1279910Y2241850D01*
X1281240Y2241680D01*
X1282490Y2241350D01*
X1283730Y2241020D01*
X1284890Y2240440D01*
X1285970Y2239860D01*
X1286970Y2239110D01*
X1287960Y2238200D01*
X1289540Y2236460D01*
X1290790Y2234300D01*
X1291700Y2231890D01*
X1292360Y2229230D01*
X1307970Y2233380D01*
X1265970Y2214620D02*
X1270120Y2214460D01*
X1274270Y2214040D01*
X1278420Y2213380D01*
X1282570Y2212550D01*
X1284060Y2212130D01*
X1285390Y2211720D01*
X1286640Y2211220D01*
X1287800Y2210720D01*
X1288880Y2210140D01*
X1289790Y2209480D01*
X1290700Y2208810D01*
X1291530Y2208070D01*
X1292200Y2207240D01*
X1292780Y2206410D01*
X1293280Y2205490D01*
X1293690Y2204580D01*
X1294020Y2203580D01*
X1294270Y2202500D01*
X1294440Y2201430D01*
Y2200260D01*
Y2198940D01*
X1294270Y2197690D01*
X1294020Y2196530D01*
X1293770Y2195450D01*
X1293360Y2194450D01*
X1292860Y2193540D01*
X1292280Y2192790D01*
X1291530Y2192050D01*
X1290790Y2191380D01*
X1289960Y2190800D01*
X1288960Y2190390D01*
X1287960Y2189970D01*
X1286800Y2189720D01*
X1285560Y2189470D01*
X1284230Y2189310D01*
X1282820D01*
X1281570D01*
X1280240Y2189470D01*
X1279000Y2189720D01*
X1277840Y2190050D01*
X1276670Y2190470D01*
X1275510Y2190970D01*
X1274430Y2191550D01*
X1273350Y2192290D01*
X1272280Y2193040D01*
X1271280Y2193960D01*
X1270280Y2194950D01*
X1269370Y2196030D01*
X1268460Y2197190D01*
X1267630Y2198440D01*
X1266800Y2199770D01*
X1265970Y2201180D01*
Y2214620D01*
X1212430Y2251650D02*
Y2179180D01*
X1229110D01*
Y2251650D01*
X1212430D01*
X1211760Y2281610D02*
Y2264590D01*
X1229690D01*
Y2281610D01*
X1211760D01*
X1189600D02*
X1152830D01*
X1148430Y2281530D01*
X1144280Y2281200D01*
X1140460Y2280620D01*
X1136890Y2279870D01*
X1133650Y2278870D01*
X1130660Y2277710D01*
X1128010Y2276300D01*
X1125600Y2274640D01*
X1123440Y2272810D01*
X1121620Y2270740D01*
X1120040Y2268410D01*
X1118790Y2265920D01*
X1117800Y2263270D01*
X1117050Y2260280D01*
X1116640Y2257120D01*
X1116470Y2253800D01*
X1116640Y2251230D01*
X1116880Y2248820D01*
X1117300Y2246580D01*
X1117960Y2244340D01*
X1118790Y2242270D01*
X1119870Y2240270D01*
X1121040Y2238450D01*
X1122450Y2236620D01*
X1123770Y2235130D01*
X1125270Y2233800D01*
X1126930Y2232550D01*
X1128670Y2231390D01*
X1130500Y2230310D01*
X1132490Y2229320D01*
X1134570Y2228490D01*
X1136810Y2227740D01*
X1113150Y2179180D01*
X1132320D01*
X1153080Y2225080D01*
X1157720Y2225000D01*
X1172250D01*
Y2179180D01*
X1189600D01*
Y2281610D01*
X1172250Y2268250D02*
Y2238200D01*
X1154320D01*
X1151910Y2238280D01*
X1149670Y2238450D01*
X1147510Y2238700D01*
X1145610Y2239110D01*
X1143780Y2239690D01*
X1142120Y2240360D01*
X1140620Y2241100D01*
X1139300Y2242020D01*
X1138130Y2243010D01*
X1137140Y2244170D01*
X1136230Y2245420D01*
X1135560Y2246830D01*
X1134980Y2248330D01*
X1134650Y2249900D01*
X1134400Y2251650D01*
X1134320Y2253550D01*
X1134400Y2255300D01*
X1134570Y2256960D01*
X1134980Y2258540D01*
X1135480Y2259950D01*
X1136230Y2261270D01*
X1137060Y2262520D01*
X1137970Y2263600D01*
X1139130Y2264590D01*
X1140380Y2265420D01*
X1141870Y2266170D01*
X1143450Y2266840D01*
X1145190Y2267330D01*
X1147020Y2267750D01*
X1149090Y2268000D01*
X1151250Y2268160D01*
X1153570Y2268250D01*
X1172250D01*
X1038610Y2251650D02*
Y2179180D01*
X1054790D01*
Y2191710D01*
X1055870Y2189970D01*
X1057040Y2188310D01*
X1058280Y2186820D01*
X1059610Y2185410D01*
X1061020Y2184080D01*
X1062430Y2182830D01*
X1064010Y2181750D01*
X1065670Y2180670D01*
X1067160Y2179930D01*
X1068660Y2179180D01*
X1070230Y2178600D01*
X1071810Y2178100D01*
X1073390Y2177770D01*
X1074970Y2177520D01*
X1076630Y2177350D01*
X1078290Y2177270D01*
X1080690Y2177350D01*
X1083020Y2177690D01*
X1085090Y2178100D01*
X1087170Y2178760D01*
X1088990Y2179590D01*
X1090820Y2180670D01*
X1092400Y2181920D01*
X1093890Y2183330D01*
X1095140Y2184820D01*
X1096220Y2186400D01*
X1097210Y2188140D01*
X1097960Y2190050D01*
X1098540Y2192050D01*
X1098960Y2194120D01*
X1099200Y2196360D01*
X1099290Y2198690D01*
Y2251650D01*
X1082270D01*
Y2203420D01*
X1082190Y2202010D01*
X1082100Y2200680D01*
X1081860Y2199430D01*
X1081610Y2198190D01*
X1081270Y2197190D01*
X1080780Y2196200D01*
X1080280Y2195280D01*
X1079700Y2194540D01*
X1079030Y2193790D01*
X1078290Y2193210D01*
X1077460Y2192710D01*
X1076540Y2192290D01*
X1075550Y2191960D01*
X1074470Y2191710D01*
X1073310Y2191550D01*
X1072060D01*
X1070820D01*
X1069570Y2191800D01*
X1068330Y2192050D01*
X1067080Y2192540D01*
X1065830Y2193040D01*
X1064590Y2193790D01*
X1063340Y2194620D01*
X1062100Y2195530D01*
X1060110Y2197360D01*
X1058280Y2199350D01*
X1056700Y2201510D01*
X1055290Y2204000D01*
Y2251650D01*
X1038610D01*
X1000670Y2283520D02*
Y2241190D01*
X999760Y2242680D01*
X998680Y2244010D01*
X997600Y2245340D01*
X996440Y2246500D01*
X995280Y2247580D01*
X993950Y2248660D01*
X992620Y2249570D01*
X991210Y2250400D01*
X989970Y2251060D01*
X988720Y2251650D01*
X987390Y2252060D01*
X986150Y2252480D01*
X984820Y2252720D01*
X983490Y2252970D01*
X982080Y2253060D01*
X980750Y2253140D01*
X979170Y2253060D01*
X977600Y2252970D01*
X976020Y2252720D01*
X974530Y2252480D01*
X973120Y2252060D01*
X971700Y2251650D01*
X970380Y2251060D01*
X969050Y2250480D01*
X967800Y2249740D01*
X966560Y2248990D01*
X965400Y2248080D01*
X964230Y2247160D01*
X963150Y2246080D01*
X962160Y2245000D01*
X961160Y2243760D01*
X960170Y2242510D01*
X958590Y2239860D01*
X957180Y2237120D01*
X956020Y2234050D01*
X955020Y2230810D01*
X954270Y2227410D01*
X953690Y2223670D01*
X953360Y2219850D01*
X953280Y2215700D01*
X953440Y2211050D01*
X953860Y2206660D01*
X954600Y2202590D01*
X955680Y2198690D01*
X957010Y2195120D01*
X958670Y2191800D01*
X960580Y2188730D01*
X962820Y2185900D01*
X964810Y2183910D01*
X966890Y2182170D01*
X969050Y2180670D01*
X971370Y2179430D01*
X973780Y2178520D01*
X976270Y2177770D01*
X978930Y2177440D01*
X981670Y2177270D01*
X983410Y2177350D01*
X985070Y2177440D01*
X986650Y2177770D01*
X988140Y2178100D01*
X989630Y2178520D01*
X991040Y2179100D01*
X992370Y2179760D01*
X993700Y2180510D01*
X994950Y2181420D01*
X996110Y2182420D01*
X997270Y2183500D01*
X998350Y2184660D01*
X999350Y2185900D01*
X1000260Y2187310D01*
X1001170Y2188810D01*
X1002000Y2190390D01*
X1005320Y2179180D01*
X1017190D01*
Y2283520D01*
X1000670D01*
Y2227740D02*
Y2202260D01*
X1000010Y2200760D01*
X999350Y2199350D01*
X998600Y2198110D01*
X997850Y2196940D01*
X997020Y2195860D01*
X996190Y2194870D01*
X995280Y2193960D01*
X994450Y2193120D01*
X993450Y2192380D01*
X992540Y2191800D01*
X991540Y2191300D01*
X990460Y2190880D01*
X989470Y2190550D01*
X988310Y2190300D01*
X987230Y2190140D01*
X986060D01*
X984240Y2190220D01*
X982500Y2190550D01*
X980920Y2191050D01*
X979420Y2191800D01*
X978010Y2192790D01*
X976680Y2194040D01*
X975440Y2195450D01*
X974360Y2197030D01*
X973450Y2198770D01*
X972620Y2200680D01*
X971870Y2202750D01*
X971370Y2205000D01*
X970870Y2207400D01*
X970540Y2209890D01*
X970380Y2212630D01*
X970290Y2215450D01*
X970380Y2218610D01*
X970620Y2221600D01*
X970960Y2224340D01*
X971540Y2226910D01*
X972200Y2229230D01*
X973030Y2231390D01*
X974030Y2233300D01*
X975190Y2235040D01*
X976100Y2236210D01*
X977180Y2237290D01*
X978340Y2238120D01*
X979510Y2238860D01*
X980830Y2239440D01*
X982160Y2239860D01*
X983570Y2240110D01*
X985070Y2240190D01*
X986310Y2240110D01*
X987560Y2239940D01*
X988720Y2239690D01*
X989800Y2239360D01*
X990960Y2238950D01*
X991960Y2238450D01*
X993040Y2237780D01*
X994030Y2237040D01*
X994950Y2236210D01*
X995860Y2235290D01*
X996770Y2234300D01*
X997600Y2233130D01*
X998430Y2231970D01*
X999260Y2230640D01*
X1000010Y2229230D01*
X1000670Y2227740D01*
X879320Y2251650D02*
X904880Y2176520D01*
X906040Y2173370D01*
X907290Y2170380D01*
X908620Y2167720D01*
X910110Y2165320D01*
X911690Y2163160D01*
X913350Y2161250D01*
X915090Y2159590D01*
X917000Y2158100D01*
X918660Y2157100D01*
X920490Y2156190D01*
X922400Y2155360D01*
X924470Y2154780D01*
X926710Y2154280D01*
X929040Y2153860D01*
X931450Y2153700D01*
X934020Y2153610D01*
X936340D01*
X938580Y2153780D01*
X940830Y2154030D01*
X943070Y2154280D01*
X943650Y2166980D01*
X941240Y2166560D01*
X938830Y2166310D01*
X936590Y2166150D01*
X934430Y2166060D01*
X933190D01*
X932030Y2166230D01*
X930860Y2166480D01*
X929790Y2166730D01*
X928790Y2167140D01*
X927790Y2167640D01*
X926880Y2168220D01*
X925970Y2168890D01*
X925140Y2169630D01*
X924310Y2170460D01*
X923640Y2171380D01*
X922900Y2172370D01*
X922310Y2173450D01*
X921650Y2174610D01*
X921150Y2175940D01*
X920650Y2177270D01*
X919660Y2180420D01*
X944230Y2251650D01*
X926630D01*
X918000Y2221260D01*
X917830Y2220680D01*
X917670Y2220100D01*
X917500Y2219270D01*
X917250Y2218360D01*
X917000Y2217360D01*
X916670Y2216200D01*
X916340Y2214870D01*
X916010Y2213460D01*
X915590Y2211880D01*
X915180Y2210220D01*
X914680Y2208400D01*
X914180Y2206490D01*
X913680Y2204410D01*
X913180Y2202170D01*
X912600Y2199850D01*
X911940Y2197440D01*
X910690D01*
X910440Y2198270D01*
X910110Y2199350D01*
X909780Y2200600D01*
X909370Y2202090D01*
X908950Y2203750D01*
X908450Y2205660D01*
X907870Y2207820D01*
X907210Y2210140D01*
X906380Y2213380D01*
X905550Y2216370D01*
X904800Y2219110D01*
X904140Y2221510D01*
X895830Y2251650D01*
X879320D01*
X787760Y2281610D02*
X823290Y2240850D01*
X784690Y2179180D01*
X804940D01*
X834820Y2228400D01*
X846780Y2214960D01*
Y2179180D01*
X864290D01*
Y2281610D01*
X846780D01*
Y2234880D01*
X808100Y2281610D01*
X787760D01*
X773480Y2233380D02*
X772650Y2235870D01*
X771740Y2238120D01*
X770660Y2240190D01*
X769500Y2242180D01*
X768090Y2243930D01*
X766590Y2245590D01*
X764930Y2247080D01*
X763190Y2248410D01*
X761200Y2249570D01*
X759120Y2250570D01*
X756880Y2251400D01*
X754470Y2252140D01*
X751980Y2252640D01*
X749240Y2253060D01*
X746420Y2253310D01*
X743430Y2253390D01*
X740030Y2253310D01*
X736870Y2252970D01*
X733890Y2252560D01*
X731150Y2251890D01*
X728660Y2251060D01*
X726330Y2249990D01*
X724260Y2248740D01*
X722350Y2247330D01*
X720770Y2245750D01*
X719280Y2244010D01*
X718120Y2242020D01*
X717120Y2239860D01*
X716370Y2237530D01*
X715790Y2234960D01*
X715460Y2232220D01*
X715380Y2229320D01*
Y2200600D01*
X715290Y2195280D01*
X715040Y2189970D01*
X714710Y2184580D01*
X714210Y2179180D01*
X729490D01*
X729820Y2181250D01*
X730150Y2183580D01*
X730400Y2185990D01*
X730730Y2188640D01*
X731730Y2187310D01*
X732720Y2185990D01*
X733890Y2184820D01*
X735050Y2183750D01*
X736290Y2182750D01*
X737540Y2181840D01*
X738870Y2181010D01*
X740280Y2180260D01*
X741770Y2179590D01*
X743270Y2179010D01*
X744840Y2178520D01*
X746500Y2178100D01*
X748160Y2177850D01*
X749910Y2177600D01*
X751650Y2177440D01*
X753560D01*
X756130Y2177520D01*
X758620Y2177850D01*
X760950Y2178350D01*
X763110Y2179100D01*
X765180Y2180010D01*
X767090Y2181090D01*
X768830Y2182500D01*
X770410Y2183990D01*
X771660Y2185490D01*
X772820Y2187150D01*
X773730Y2188810D01*
X774480Y2190630D01*
X775060Y2192540D01*
X775470Y2194620D01*
X775720Y2196690D01*
X775810Y2198940D01*
X775720Y2201340D01*
X775470Y2203580D01*
X774980Y2205660D01*
X774390Y2207650D01*
X773560Y2209560D01*
X772490Y2211390D01*
X771320Y2213050D01*
X769910Y2214620D01*
X768330Y2216040D01*
X766590Y2217360D01*
X764680Y2218530D01*
X762520Y2219600D01*
X760200Y2220600D01*
X757710Y2221510D01*
X755050Y2222260D01*
X752150Y2222840D01*
X749910Y2223260D01*
X747580Y2223590D01*
X745180Y2223920D01*
X742600Y2224170D01*
X739950Y2224420D01*
X737210Y2224670D01*
X734380Y2224830D01*
X731480Y2224920D01*
Y2229070D01*
X731560Y2230810D01*
X731650Y2232390D01*
X731980Y2233880D01*
X732310Y2235210D01*
X732810Y2236460D01*
X733390Y2237530D01*
X734050Y2238530D01*
X734880Y2239360D01*
X735710Y2239940D01*
X736540Y2240440D01*
X737540Y2240850D01*
X738700Y2241270D01*
X739860Y2241520D01*
X741190Y2241770D01*
X742520Y2241850D01*
X744010Y2241930D01*
X745420Y2241850D01*
X746750Y2241680D01*
X748000Y2241350D01*
X749240Y2241020D01*
X750410Y2240440D01*
X751480Y2239860D01*
X752480Y2239110D01*
X753480Y2238200D01*
X755050Y2236460D01*
X756300Y2234300D01*
X757210Y2231890D01*
X757880Y2229230D01*
X773480Y2233380D01*
X731480Y2214620D02*
X735630Y2214460D01*
X739780Y2214040D01*
X743930Y2213380D01*
X748080Y2212550D01*
X749580Y2212130D01*
X750900Y2211720D01*
X752150Y2211220D01*
X753310Y2210720D01*
X754390Y2210140D01*
X755300Y2209480D01*
X756220Y2208810D01*
X757050Y2208070D01*
X757710Y2207240D01*
X758290Y2206410D01*
X758790Y2205490D01*
X759200Y2204580D01*
X759540Y2203580D01*
X759790Y2202500D01*
X759950Y2201430D01*
Y2200260D01*
Y2198940D01*
X759790Y2197690D01*
X759540Y2196530D01*
X759290Y2195450D01*
X758870Y2194450D01*
X758370Y2193540D01*
X757790Y2192790D01*
X757050Y2192050D01*
X756300Y2191380D01*
X755470Y2190800D01*
X754470Y2190390D01*
X753480Y2189970D01*
X752310Y2189720D01*
X751070Y2189470D01*
X749740Y2189310D01*
X748330D01*
X747080D01*
X745760Y2189470D01*
X744510Y2189720D01*
X743350Y2190050D01*
X742190Y2190470D01*
X741030Y2190970D01*
X739950Y2191550D01*
X738870Y2192290D01*
X737790Y2193040D01*
X736790Y2193960D01*
X735800Y2194950D01*
X734880Y2196030D01*
X733970Y2197190D01*
X733140Y2198440D01*
X732310Y2199770D01*
X731480Y2201180D01*
Y2214620D01*
X677940Y2251650D02*
Y2179180D01*
X694620D01*
Y2251650D01*
X677940D01*
X677280Y2281610D02*
Y2264590D01*
X695210D01*
Y2281610D01*
X677280D01*
X594180Y2261770D02*
X595260Y2248410D01*
X597840Y2248330D01*
X600160Y2248160D01*
X602070Y2247830D01*
X603650Y2247410D01*
X604810Y2247000D01*
X605970Y2246330D01*
X607050Y2245590D01*
X608210Y2244590D01*
X606800Y2243100D01*
X605640Y2241440D01*
X604560Y2239690D01*
X603730Y2237950D01*
X603070Y2236120D01*
X602650Y2234210D01*
X602320Y2232220D01*
X602240Y2230150D01*
X602400Y2227240D01*
X602820Y2224500D01*
X603560Y2222010D01*
X604560Y2219600D01*
X605810Y2217360D01*
X607380Y2215370D01*
X609210Y2213460D01*
X611280Y2211800D01*
X613280Y2210470D01*
X615350Y2209310D01*
X617590Y2208400D01*
X620000Y2207650D01*
X622490Y2206990D01*
X625060Y2206570D01*
X627890Y2206320D01*
X630790Y2206240D01*
X633280Y2206320D01*
X635610Y2206570D01*
X637930Y2206900D01*
X640170Y2207490D01*
X641420Y2206820D01*
X642500Y2206070D01*
X643410Y2205330D01*
X644160Y2204580D01*
X644740Y2203750D01*
X645150Y2202920D01*
X645400Y2202010D01*
X645480Y2201090D01*
X645320Y2199930D01*
X644900Y2198940D01*
X644240Y2198110D01*
X643240Y2197440D01*
X642660Y2197190D01*
X642000Y2196940D01*
X641170Y2196690D01*
X640250Y2196450D01*
X639170Y2196280D01*
X638010Y2196110D01*
X636770Y2195950D01*
X635440Y2195860D01*
X619000Y2194450D01*
X615520Y2194040D01*
X612280Y2193540D01*
X609290Y2192880D01*
X606640Y2192050D01*
X604230Y2191220D01*
X602070Y2190140D01*
X600160Y2188970D01*
X598580Y2187730D01*
X597500Y2186650D01*
X596590Y2185410D01*
X595760Y2183990D01*
X595100Y2182580D01*
X594600Y2181010D01*
X594270Y2179350D01*
X594020Y2177600D01*
X593940Y2175690D01*
X594020Y2174370D01*
X594100Y2173120D01*
X594350Y2171870D01*
X594600Y2170710D01*
X595010Y2169550D01*
X595430Y2168390D01*
X596010Y2167310D01*
X596590Y2166310D01*
X597340Y2165230D01*
X598090Y2164240D01*
X599000Y2163330D01*
X599910Y2162410D01*
X600990Y2161500D01*
X602070Y2160670D01*
X603320Y2159840D01*
X604560Y2159090D01*
X607130Y2157850D01*
X609870Y2156680D01*
X612780Y2155770D01*
X615930Y2154940D01*
X619250Y2154360D01*
X622740Y2153950D01*
X626470Y2153700D01*
X630380Y2153610D01*
X634360Y2153700D01*
X638180Y2153950D01*
X641670Y2154360D01*
X644990Y2154940D01*
X647970Y2155770D01*
X650800Y2156680D01*
X653370Y2157850D01*
X655690Y2159090D01*
X657350Y2160340D01*
X658850Y2161580D01*
X660180Y2162990D01*
X661170Y2164490D01*
X662000Y2165980D01*
X662580Y2167640D01*
X662920Y2169380D01*
X663000Y2171210D01*
Y2172370D01*
X662830Y2173450D01*
X662580Y2174530D01*
X662170Y2175610D01*
X661670Y2176610D01*
X661170Y2177600D01*
X660420Y2178520D01*
X659680Y2179430D01*
X658760Y2180260D01*
X657770Y2181090D01*
X656690Y2181920D01*
X655530Y2182670D01*
X654200Y2183410D01*
X652790Y2184080D01*
X651290Y2184740D01*
X649630Y2185410D01*
X652040Y2186070D01*
X654120Y2186900D01*
X655860Y2187900D01*
X657270Y2189140D01*
X658430Y2190550D01*
X659180Y2192130D01*
X659680Y2193870D01*
X659840Y2195860D01*
Y2196860D01*
X659680Y2197860D01*
X659430Y2198850D01*
X659180Y2199770D01*
X658760Y2200760D01*
X658270Y2201760D01*
X657770Y2202670D01*
X657100Y2203670D01*
X656360Y2204580D01*
X655530Y2205490D01*
X654610Y2206410D01*
X653620Y2207320D01*
X652540Y2208230D01*
X651380Y2209150D01*
X650130Y2209980D01*
X648720Y2210890D01*
X651210Y2212630D01*
X653290Y2214540D01*
X655030Y2216620D01*
X656520Y2218940D01*
X657600Y2221430D01*
X658430Y2224090D01*
X658930Y2226990D01*
X659100Y2230060D01*
X658930Y2232720D01*
X658520Y2235290D01*
X657770Y2237780D01*
X656860Y2240020D01*
X655530Y2242180D01*
X654030Y2244170D01*
X652210Y2246000D01*
X650050Y2247660D01*
X648060Y2248990D01*
X645980Y2250150D01*
X643740Y2251060D01*
X641330Y2251890D01*
X638840Y2252480D01*
X636270Y2252970D01*
X633530Y2253220D01*
X630620Y2253310D01*
X628470Y2253220D01*
X626310Y2253060D01*
X624230Y2252810D01*
X622320Y2252390D01*
X620420Y2251980D01*
X618590Y2251310D01*
X616850Y2250650D01*
X615270Y2249820D01*
X614270Y2251480D01*
X613280Y2252970D01*
X612200Y2254380D01*
X611040Y2255630D01*
X609960Y2256790D01*
X608710Y2257790D01*
X607470Y2258620D01*
X606220Y2259370D01*
X604980Y2259950D01*
X603730Y2260440D01*
X602400Y2260860D01*
X600910Y2261190D01*
X599330Y2261440D01*
X597750Y2261610D01*
X596010Y2261690D01*
X594180Y2261770D01*
X630710Y2243510D02*
X632200Y2243430D01*
X633610Y2243260D01*
X634940Y2242930D01*
X636270Y2242510D01*
X637430Y2241930D01*
X638590Y2241270D01*
X639590Y2240440D01*
X640590Y2239530D01*
X641330Y2238530D01*
X642000Y2237530D01*
X642580Y2236540D01*
X643080Y2235380D01*
X643410Y2234210D01*
X643660Y2232970D01*
X643820Y2231640D01*
Y2230310D01*
Y2228490D01*
X643570Y2226830D01*
X643240Y2225330D01*
X642830Y2223840D01*
X642250Y2222510D01*
X641500Y2221350D01*
X640670Y2220190D01*
X639670Y2219190D01*
X638760Y2218440D01*
X637760Y2217780D01*
X636770Y2217280D01*
X635690Y2216780D01*
X634530Y2216450D01*
X633280Y2216200D01*
X632040Y2216120D01*
X630710Y2216040D01*
X629130Y2216120D01*
X627720Y2216280D01*
X626310Y2216620D01*
X625060Y2217030D01*
X623900Y2217610D01*
X622740Y2218360D01*
X621740Y2219110D01*
X620750Y2220100D01*
X620000Y2221100D01*
X619340Y2222180D01*
X618750Y2223260D01*
X618340Y2224500D01*
X617920Y2225830D01*
X617680Y2227160D01*
X617510Y2228650D01*
Y2230150D01*
X617590Y2231720D01*
X617760Y2233300D01*
X618090Y2234710D01*
X618590Y2236040D01*
X619170Y2237290D01*
X619920Y2238450D01*
X620830Y2239530D01*
X621830Y2240440D01*
X622740Y2241190D01*
X623650Y2241770D01*
X624730Y2242350D01*
X625810Y2242760D01*
X626970Y2243100D01*
X628130Y2243340D01*
X629380Y2243430D01*
X630710Y2243510D01*
X639670Y2183410D02*
X641910Y2182580D01*
X643910Y2181590D01*
X645570Y2180510D01*
X646980Y2179350D01*
X648060Y2178100D01*
X648800Y2176690D01*
X649220Y2175110D01*
X649380Y2173450D01*
X649300Y2172290D01*
X649050Y2171130D01*
X648550Y2170050D01*
X647890Y2169050D01*
X646980Y2168140D01*
X645900Y2167230D01*
X644650Y2166480D01*
X643240Y2165730D01*
X641830Y2165150D01*
X640340Y2164740D01*
X638840Y2164320D01*
X637100Y2163990D01*
X635360Y2163740D01*
X633530Y2163570D01*
X631540Y2163410D01*
X629460D01*
X626890Y2163490D01*
X624400Y2163570D01*
X622080Y2163820D01*
X619920Y2164240D01*
X617920Y2164650D01*
X616100Y2165230D01*
X614440Y2165900D01*
X612940Y2166650D01*
X611870Y2167310D01*
X610870Y2167970D01*
X610120Y2168720D01*
X609460Y2169550D01*
X608960Y2170380D01*
X608630Y2171210D01*
X608380Y2172120D01*
X608300Y2173040D01*
X608380Y2174030D01*
X608540Y2174950D01*
X608710Y2175780D01*
X609040Y2176610D01*
X609460Y2177270D01*
X609960Y2177930D01*
X610620Y2178520D01*
X611280Y2179010D01*
X612110Y2179430D01*
X613030Y2179760D01*
X614110Y2180180D01*
X615350Y2180510D01*
X616760Y2180760D01*
X618260Y2181090D01*
X619920Y2181250D01*
X621660Y2181500D01*
X639670Y2183410D01*
X563470Y2251650D02*
Y2179180D01*
X580160D01*
Y2251650D01*
X563470D01*
X562810Y2281610D02*
Y2264590D01*
X580740D01*
Y2281610D01*
X562810D01*
X515000D02*
X512920Y2281530D01*
X510930Y2281360D01*
X509020Y2281110D01*
X507190Y2280780D01*
X505450Y2280280D01*
X503710Y2279700D01*
X502050Y2279040D01*
X500470Y2278210D01*
X498970Y2277290D01*
X497560Y2276300D01*
X496240Y2275140D01*
X494910Y2273970D01*
X493750Y2272650D01*
X492580Y2271150D01*
X491500Y2269660D01*
X490510Y2268000D01*
X489680Y2266340D01*
X488850Y2264590D01*
X488100Y2262770D01*
X487350Y2260860D01*
X486690Y2258780D01*
X486110Y2256710D01*
X485610Y2254470D01*
X485110Y2252060D01*
X484700Y2249650D01*
X484370Y2247160D01*
X484030Y2244510D01*
X483780Y2241770D01*
X483620Y2238950D01*
X483450Y2235960D01*
X483370Y2232970D01*
Y2229810D01*
Y2226250D01*
X483540Y2222760D01*
X483700Y2219440D01*
X483950Y2216280D01*
X484280Y2213210D01*
X484700Y2210220D01*
X485110Y2207490D01*
X485690Y2204750D01*
X486270Y2202170D01*
X487020Y2199770D01*
X487770Y2197520D01*
X488600Y2195280D01*
X489510Y2193290D01*
X490510Y2191380D01*
X491590Y2189560D01*
X492670Y2187900D01*
X493660Y2186650D01*
X494740Y2185410D01*
X495900Y2184330D01*
X497070Y2183250D01*
X498230Y2182330D01*
X499560Y2181420D01*
X500880Y2180670D01*
X502290Y2179930D01*
X503710Y2179260D01*
X505200Y2178760D01*
X506780Y2178270D01*
X508350Y2177930D01*
X510010Y2177600D01*
X511760Y2177440D01*
X513500Y2177270D01*
X515330D01*
X517400Y2177350D01*
X519390Y2177520D01*
X521390Y2177770D01*
X523210Y2178100D01*
X525040Y2178600D01*
X526700Y2179180D01*
X528360Y2179930D01*
X529940Y2180760D01*
X531430Y2181670D01*
X532840Y2182670D01*
X534250Y2183830D01*
X535500Y2185070D01*
X536740Y2186400D01*
X537820Y2187900D01*
X538900Y2189470D01*
X539900Y2191130D01*
X540730Y2192790D01*
X541560Y2194540D01*
X542300Y2196360D01*
X542970Y2198350D01*
X543550Y2200350D01*
X544130Y2202500D01*
X544630Y2204750D01*
X545130Y2207150D01*
X545540Y2209560D01*
X545870Y2212130D01*
X546210Y2214790D01*
X546460Y2217530D01*
X546620Y2220350D01*
X546790Y2223340D01*
X546870Y2226410D01*
Y2229570D01*
Y2233130D01*
X546700Y2236540D01*
X546540Y2239860D01*
X546290Y2243010D01*
X545960Y2246080D01*
X545540Y2248990D01*
X545040Y2251810D01*
X544550Y2254470D01*
X543880Y2257040D01*
X543220Y2259450D01*
X542390Y2261690D01*
X541560Y2263850D01*
X540640Y2265920D01*
X539650Y2267830D01*
X538570Y2269580D01*
X537490Y2271240D01*
X535420Y2273640D01*
X533170Y2275800D01*
X530680Y2277540D01*
X527940Y2279040D01*
X525040Y2280120D01*
X521970Y2280950D01*
X518560Y2281450D01*
X515000Y2281610D01*
Y2268580D02*
X517070Y2268410D01*
X518900Y2268000D01*
X520640Y2267250D01*
X522220Y2266170D01*
X523540Y2264840D01*
X524790Y2263270D01*
X525870Y2261360D01*
X526780Y2259120D01*
X527110Y2257950D01*
X527450Y2256710D01*
X527780Y2255380D01*
X528110Y2253890D01*
X528360Y2252390D01*
X528610Y2250820D01*
X528860Y2249070D01*
X529110Y2247330D01*
X529270Y2245420D01*
X529440Y2243430D01*
X529520Y2241440D01*
X529690Y2239280D01*
X529770Y2237040D01*
Y2234710D01*
X529850Y2232300D01*
Y2229730D01*
Y2226910D01*
X529770Y2224170D01*
X529690Y2221510D01*
X529600Y2218940D01*
X529440Y2216530D01*
X529270Y2214290D01*
X529110Y2212130D01*
X528860Y2210060D01*
X528610Y2208070D01*
X528360Y2206240D01*
X528030Y2204580D01*
X527700Y2202920D01*
X527280Y2201430D01*
X526870Y2200100D01*
X526450Y2198850D01*
X525950Y2197690D01*
X525120Y2195950D01*
X524130Y2194450D01*
X522960Y2193210D01*
X521720Y2192210D01*
X520310Y2191380D01*
X518810Y2190800D01*
X517150Y2190470D01*
X515330Y2190390D01*
X513250Y2190470D01*
X511340Y2190970D01*
X509600Y2191710D01*
X508020Y2192790D01*
X506530Y2194200D01*
X505280Y2195860D01*
X504290Y2197940D01*
X503370Y2200260D01*
X502960Y2201430D01*
X502630Y2202670D01*
X502290Y2204000D01*
X502050Y2205410D01*
X501800Y2206990D01*
X501550Y2208560D01*
X501300Y2210310D01*
X501130Y2212050D01*
X500970Y2213960D01*
X500800Y2215950D01*
X500630Y2218030D01*
X500550Y2220190D01*
X500470Y2222430D01*
X500390Y2224830D01*
Y2227240D01*
Y2229730D01*
Y2232640D01*
X500470Y2235380D01*
Y2237950D01*
X500630Y2240440D01*
X500720Y2242850D01*
X500880Y2245090D01*
X501130Y2247250D01*
X501300Y2249320D01*
X501630Y2251230D01*
X501880Y2253060D01*
X502210Y2254720D01*
X502540Y2256290D01*
X502960Y2257790D01*
X503370Y2259120D01*
X503790Y2260280D01*
X504200Y2261440D01*
X505120Y2263100D01*
X506110Y2264510D01*
X507280Y2265760D01*
X508520Y2266750D01*
X509930Y2267580D01*
X511510Y2268160D01*
X513170Y2268500D01*
X515000Y2268580D01*
X452820Y2199600D02*
X452080Y2197360D01*
X451160Y2195370D01*
X450080Y2193710D01*
X448840Y2192380D01*
X447430Y2191300D01*
X445850Y2190550D01*
X444110Y2190140D01*
X442200Y2189970D01*
X439960Y2190140D01*
X437880Y2190550D01*
X435890Y2191300D01*
X434150Y2192290D01*
X432490Y2193540D01*
X430990Y2195120D01*
X429660Y2197030D01*
X428500Y2199180D01*
X427500Y2201510D01*
X426670Y2204170D01*
X425930Y2207070D01*
X425260Y2210220D01*
X424770Y2213710D01*
X424350Y2217450D01*
X424100Y2221510D01*
X423940Y2225910D01*
X424770Y2224420D01*
X425600Y2223090D01*
X426590Y2221850D01*
X427590Y2220600D01*
X428670Y2219520D01*
X429750Y2218610D01*
X430990Y2217700D01*
X432240Y2216870D01*
X433560Y2216200D01*
X434890Y2215540D01*
X436390Y2215040D01*
X437880Y2214620D01*
X439460Y2214290D01*
X441040Y2214040D01*
X442700Y2213880D01*
X444440D01*
X447510Y2214040D01*
X450420Y2214460D01*
X453150Y2215290D01*
X455810Y2216370D01*
X458220Y2217780D01*
X460460Y2219440D01*
X462620Y2221510D01*
X464610Y2223840D01*
X466190Y2226080D01*
X467510Y2228490D01*
X468680Y2231140D01*
X469590Y2233880D01*
X470340Y2236790D01*
X470830Y2239860D01*
X471170Y2243010D01*
X471330Y2246420D01*
X471170Y2250650D01*
X470670Y2254630D01*
X470000Y2258370D01*
X468930Y2261860D01*
X467680Y2265090D01*
X466020Y2268080D01*
X464110Y2270820D01*
X461950Y2273310D01*
X459880Y2275300D01*
X457640Y2276960D01*
X455230Y2278370D01*
X452660Y2279540D01*
X449920Y2280450D01*
X447090Y2281110D01*
X444110Y2281450D01*
X440950Y2281610D01*
X438880Y2281530D01*
X436880Y2281360D01*
X434980Y2281110D01*
X433150Y2280780D01*
X431320Y2280370D01*
X429580Y2279790D01*
X427920Y2279120D01*
X426340Y2278290D01*
X424850Y2277460D01*
X423350Y2276460D01*
X421940Y2275390D01*
X420620Y2274220D01*
X419370Y2272980D01*
X418210Y2271570D01*
X417050Y2270070D01*
X415970Y2268500D01*
X415050Y2266920D01*
X414140Y2265260D01*
X413310Y2263600D01*
X412560Y2261770D01*
X411820Y2259860D01*
X411240Y2257870D01*
X410650Y2255800D01*
X410070Y2253640D01*
X409660Y2251400D01*
X409240Y2249070D01*
X408910Y2246670D01*
X408660Y2244170D01*
X408410Y2241520D01*
X408250Y2238860D01*
X408160Y2236120D01*
Y2233300D01*
Y2229480D01*
X408330Y2225750D01*
X408500Y2222180D01*
X408830Y2218770D01*
X409160Y2215540D01*
X409580Y2212380D01*
X410160Y2209310D01*
X410740Y2206490D01*
X411400Y2203750D01*
X412150Y2201180D01*
X412980Y2198690D01*
X413890Y2196360D01*
X414890Y2194200D01*
X416050Y2192130D01*
X417210Y2190220D01*
X418370Y2188390D01*
X419450Y2187070D01*
X420620Y2185820D01*
X421780Y2184660D01*
X423020Y2183580D01*
X424350Y2182500D01*
X425760Y2181590D01*
X427170Y2180760D01*
X428670Y2180090D01*
X430160Y2179430D01*
X431740Y2178850D01*
X433400Y2178350D01*
X435140Y2177930D01*
X436880Y2177690D01*
X438710Y2177440D01*
X440620Y2177270D01*
X442530D01*
X445020Y2177350D01*
X447430Y2177520D01*
X449670Y2177850D01*
X451830Y2178270D01*
X453900Y2178850D01*
X455810Y2179590D01*
X457640Y2180340D01*
X459380Y2181340D01*
X460960Y2182420D01*
X462450Y2183580D01*
X463780Y2184990D01*
X465110Y2186400D01*
X466270Y2187980D01*
X467270Y2189720D01*
X468180Y2191550D01*
X469010Y2193540D01*
X452820Y2199600D01*
X424680Y2239190D02*
X424770Y2242850D01*
X424930Y2246170D01*
X425260Y2249320D01*
X425680Y2252230D01*
X426260Y2254880D01*
X426920Y2257370D01*
X427750Y2259530D01*
X428670Y2261520D01*
X429660Y2263270D01*
X430830Y2264760D01*
X432150Y2266090D01*
X433480Y2267080D01*
X435060Y2267920D01*
X436640Y2268500D01*
X438380Y2268830D01*
X440290Y2268990D01*
X442030Y2268910D01*
X443610Y2268580D01*
X445100Y2268160D01*
X446510Y2267580D01*
X447760Y2266840D01*
X448920Y2265840D01*
X450000Y2264680D01*
X451000Y2263430D01*
X451830Y2261940D01*
X452490Y2260280D01*
X453150Y2258450D01*
X453650Y2256460D01*
X453980Y2254300D01*
X454320Y2251980D01*
X454480Y2249490D01*
X454570Y2246750D01*
X454480Y2244340D01*
X454230Y2242020D01*
X453900Y2239860D01*
X453490Y2237780D01*
X452820Y2235960D01*
X452160Y2234210D01*
X451250Y2232640D01*
X450250Y2231230D01*
X449340Y2230150D01*
X448260Y2229150D01*
X447180Y2228400D01*
X446020Y2227740D01*
X444770Y2227240D01*
X443530Y2226830D01*
X442110Y2226660D01*
X440700Y2226580D01*
X439370Y2226660D01*
X438130Y2226740D01*
X436880Y2226990D01*
X435720Y2227320D01*
X434640Y2227820D01*
X433480Y2228320D01*
X432490Y2228980D01*
X431410Y2229730D01*
X430490Y2230560D01*
X429500Y2231470D01*
X428580Y2232550D01*
X427750Y2233720D01*
X426920Y2234880D01*
X426090Y2236290D01*
X425350Y2237700D01*
X424680Y2239190D01*
X619930Y2154280D02*
X640990D01*
X926710D02*
X943070D01*
X609870Y2156660D02*
X650760D01*
X919540D02*
X943180D01*
X604660Y2159040D02*
X655600D01*
X915800D02*
X943290D01*
X601090Y2161420D02*
X658660D01*
X913200D02*
X943400D01*
X598530Y2163800D02*
X622180D01*
X635780D02*
X660710D01*
X911220D02*
X943500D01*
X596680Y2166180D02*
X613880D01*
X644090D02*
X662070D01*
X909580D02*
X932370D01*
X936590D02*
X943610D01*
X595370Y2168560D02*
X610280D01*
X647400D02*
X662760D01*
X908200D02*
X926420D01*
X594550Y2170940D02*
X608740D01*
X648960D02*
X662990D01*
X907060D02*
X923960D01*
X594090Y2173320D02*
X608320D01*
X649370D02*
X662850D01*
X906060D02*
X922380D01*
X593940Y2175700D02*
X608690D01*
X649060D02*
X662120D01*
X905180D02*
X921240D01*
X434520Y2178080D02*
X450850D01*
X507660D02*
X523140D01*
X594090D02*
X610130D01*
X648060D02*
X660780D01*
X746500D02*
X759690D01*
X904350D02*
X920400D01*
X975240D02*
X988070D01*
X1071810D02*
X1085030D01*
X1280990D02*
X1294180D01*
X1342330D02*
X1360760D01*
X1509930D02*
X1523120D01*
X427840Y2180460D02*
X457850D01*
X501280D02*
X529370D01*
X563470D02*
X580160D01*
X594490D02*
X615160D01*
X645630D02*
X658520D01*
X677940D02*
X694620D01*
X714330D02*
X729690D01*
X739900D02*
X765980D01*
X785490D02*
X805720D01*
X846780D02*
X864290D01*
X903540D02*
X919670D01*
X969440D02*
X993610D01*
X1004940D02*
X1017190D01*
X1038610D02*
X1054790D01*
X1066090D02*
X1090460D01*
X1113770D02*
X1132900D01*
X1172250D02*
X1189600D01*
X1212430D02*
X1229110D01*
X1248820D02*
X1264180D01*
X1274390D02*
X1300470D01*
X1334950D02*
X1368530D01*
X1397290D02*
X1414300D01*
X1441280D02*
X1457880D01*
X1477760D02*
X1493110D01*
X1503320D02*
X1529400D01*
X1548910D02*
X1569140D01*
X1610200D02*
X1627710D01*
X423930Y2182840D02*
X461500D01*
X497590D02*
X533050D01*
X563470D02*
X580160D01*
X595220D02*
X634300D01*
X641210D02*
X655220D01*
X677940D02*
X694620D01*
X714550D02*
X730050D01*
X736180D02*
X769190D01*
X786980D02*
X807160D01*
X846780D02*
X864290D01*
X902730D02*
X920490D01*
X966090D02*
X996560D01*
X1004240D02*
X1017190D01*
X1038610D02*
X1054790D01*
X1062430D02*
X1093370D01*
X1114930D02*
X1133980D01*
X1172250D02*
X1189600D01*
X1212430D02*
X1229110D01*
X1249040D02*
X1264540D01*
X1270670D02*
X1303680D01*
X1330710D02*
X1372710D01*
X1397290D02*
X1414300D01*
X1441280D02*
X1457880D01*
X1477970D02*
X1493470D01*
X1499610D02*
X1532620D01*
X1550400D02*
X1570580D01*
X1610200D02*
X1627710D01*
X421220Y2185220D02*
X464000D01*
X494940D02*
X535640D01*
X563470D02*
X580160D01*
X596480D02*
X650100D01*
X677940D02*
X694620D01*
X714750D02*
X730320D01*
X733490D02*
X771440D01*
X788470D02*
X808610D01*
X846780D02*
X864290D01*
X901920D02*
X921320D01*
X963500D02*
X998800D01*
X1003530D02*
X1017190D01*
X1038610D02*
X1054790D01*
X1059810D02*
X1095410D01*
X1116090D02*
X1135050D01*
X1172250D02*
X1189600D01*
X1212430D02*
X1229110D01*
X1249240D02*
X1264810D01*
X1267970D02*
X1305920D01*
X1327990D02*
X1375600D01*
X1397290D02*
X1414300D01*
X1441280D02*
X1457880D01*
X1478170D02*
X1493740D01*
X1496910D02*
X1534860D01*
X1551890D02*
X1572030D01*
X1610200D02*
X1627710D01*
X419020Y2187600D02*
X465990D01*
X492910D02*
X537600D01*
X563470D02*
X580160D01*
X598450D02*
X655340D01*
X677940D02*
X694620D01*
X714890D02*
X730600D01*
X731510D02*
X773070D01*
X789960D02*
X810050D01*
X846780D02*
X864290D01*
X901110D02*
X922140D01*
X961470D02*
X1000440D01*
X1002830D02*
X1017190D01*
X1038610D02*
X1054790D01*
X1057630D02*
X1096900D01*
X1117250D02*
X1136130D01*
X1172250D02*
X1189600D01*
X1212430D02*
X1229110D01*
X1249380D02*
X1265090D01*
X1266000D02*
X1307550D01*
X1325950D02*
X1377700D01*
X1397290D02*
X1414300D01*
X1441280D02*
X1457880D01*
X1478320D02*
X1494030D01*
X1494930D02*
X1536490D01*
X1553380D02*
X1573470D01*
X1610200D02*
X1627710D01*
X417360Y2189980D02*
X442070D01*
X442200D02*
X467400D01*
X491340D02*
X539210D01*
X563470D02*
X580160D01*
X601810D02*
X657960D01*
X677940D02*
X694620D01*
X715040D02*
X743600D01*
X753480D02*
X774210D01*
X791450D02*
X811500D01*
X846780D02*
X864290D01*
X900300D02*
X922960D01*
X959800D02*
X1001780D01*
X1002120D02*
X1017190D01*
X1038610D02*
X1054790D01*
X1055870D02*
X1097930D01*
X1118410D02*
X1137200D01*
X1172250D02*
X1189600D01*
X1212430D02*
X1229110D01*
X1249530D02*
X1278090D01*
X1287960D02*
X1308700D01*
X1324490D02*
X1343310D01*
X1358280D02*
X1379400D01*
X1397290D02*
X1414300D01*
X1441280D02*
X1457880D01*
X1478470D02*
X1507020D01*
X1516900D02*
X1537630D01*
X1554870D02*
X1574920D01*
X1610200D02*
X1627710D01*
X415920Y2192360D02*
X434060D01*
X448840D02*
X468520D01*
X490000D02*
X508650D01*
X521910D02*
X540520D01*
X563470D02*
X580160D01*
X607630D02*
X659250D01*
X677940D02*
X694620D01*
X715150D02*
X738770D01*
X757360D02*
X775010D01*
X792940D02*
X812940D01*
X846780D02*
X864290D01*
X899490D02*
X923780D01*
X958390D02*
X978620D01*
X993450D02*
X1017190D01*
X1038610D02*
X1067540D01*
X1076690D02*
X1098600D01*
X1119570D02*
X1138280D01*
X1172250D02*
X1189600D01*
X1212430D02*
X1229110D01*
X1249640D02*
X1273250D01*
X1291840D02*
X1309490D01*
X1323500D02*
X1339960D01*
X1361810D02*
X1380690D01*
X1397290D02*
X1414300D01*
X1441280D02*
X1457880D01*
X1478580D02*
X1502190D01*
X1520780D02*
X1538430D01*
X1556360D02*
X1576360D01*
X1610200D02*
X1627710D01*
X414640Y2194740D02*
X431350D01*
X450750D02*
X465800D01*
X488850D02*
X506120D01*
X524320D02*
X541640D01*
X563470D02*
X580160D01*
X622380D02*
X659750D01*
X677940D02*
X694620D01*
X715260D02*
X736010D01*
X758990D02*
X775480D01*
X794430D02*
X814390D01*
X846780D02*
X864290D01*
X898680D02*
X924600D01*
X957200D02*
X976060D01*
X996060D02*
X1017190D01*
X1038610D02*
X1063180D01*
X1079860D02*
X1099030D01*
X1120730D02*
X1139360D01*
X1172250D02*
X1189600D01*
X1212430D02*
X1229110D01*
X1249750D02*
X1270490D01*
X1293480D02*
X1309970D01*
X1322870D02*
X1338620D01*
X1363810D02*
X1381720D01*
X1397290D02*
X1414300D01*
X1441280D02*
X1457880D01*
X1478690D02*
X1499430D01*
X1522410D02*
X1538910D01*
X1557850D02*
X1577810D01*
X1610200D02*
X1627710D01*
X413590Y2197120D02*
X429610D01*
X451970D02*
X459450D01*
X487920D02*
X504680D01*
X525680D02*
X542560D01*
X563470D02*
X580160D01*
X642480D02*
X659800D01*
X677940D02*
X694620D01*
X715320D02*
X734020D01*
X759670D02*
X775740D01*
X795920D02*
X815830D01*
X846780D02*
X864290D01*
X897870D02*
X925420D01*
X956260D02*
X974310D01*
X997970D02*
X1017190D01*
X1038610D02*
X1060370D01*
X1081240D02*
X1099230D01*
X1121890D02*
X1140430D01*
X1172250D02*
X1189600D01*
X1212430D02*
X1229110D01*
X1249810D02*
X1268510D01*
X1294150D02*
X1310230D01*
X1322570D02*
X1338180D01*
X1365110D02*
X1377230D01*
X1397290D02*
X1414300D01*
X1441280D02*
X1457880D01*
X1478750D02*
X1497450D01*
X1523090D02*
X1539170D01*
X1559340D02*
X1579250D01*
X1610200D02*
X1627710D01*
X412710Y2199500D02*
X428360D01*
X452790D02*
X453090D01*
X487110D02*
X503670D01*
X526670D02*
X543300D01*
X563470D02*
X580160D01*
X645140D02*
X659250D01*
X677940D02*
X694620D01*
X715360D02*
X732480D01*
X759950D02*
X775790D01*
X797410D02*
X817280D01*
X846780D02*
X864290D01*
X897060D02*
X910070D01*
X912500D02*
X926240D01*
X955460D02*
X973130D01*
X999420D02*
X1017190D01*
X1038610D02*
X1058170D01*
X1081870D02*
X1099290D01*
X1123050D02*
X1141510D01*
X1172250D02*
X1189600D01*
X1212430D02*
X1229110D01*
X1249840D02*
X1266970D01*
X1294440D02*
X1310270D01*
X1322420D02*
X1338240D01*
X1366120D02*
X1370410D01*
X1397290D02*
X1414300D01*
X1441280D02*
X1457880D01*
X1478780D02*
X1495900D01*
X1523370D02*
X1539210D01*
X1560830D02*
X1580700D01*
X1610200D02*
X1627710D01*
X411950Y2201880D02*
X427380D01*
X486360D02*
X502840D01*
X527410D02*
X543960D01*
X563470D02*
X580160D01*
X645410D02*
X658200D01*
X677940D02*
X694620D01*
X715380D02*
X731480D01*
X759880D02*
X775660D01*
X798900D02*
X818720D01*
X846780D02*
X864290D01*
X896250D02*
X909430D01*
X913110D02*
X927060D01*
X954800D02*
X972190D01*
X1000500D02*
X1017190D01*
X1038610D02*
X1056490D01*
X1082180D02*
X1099290D01*
X1124210D02*
X1142590D01*
X1172250D02*
X1189600D01*
X1212430D02*
X1229110D01*
X1249860D02*
X1265970D01*
X1294370D02*
X1310150D01*
X1322520D02*
X1338880D01*
X1397290D02*
X1414300D01*
X1441280D02*
X1457880D01*
X1478800D02*
X1494900D01*
X1523300D02*
X1539090D01*
X1562320D02*
X1582150D01*
X1610200D02*
X1627710D01*
X411280Y2204260D02*
X426650D01*
X485800D02*
X502250D01*
X527970D02*
X544520D01*
X563470D02*
X580160D01*
X644380D02*
X656620D01*
X677940D02*
X694620D01*
X715380D02*
X731480D01*
X759310D02*
X775310D01*
X800390D02*
X820170D01*
X846780D02*
X864290D01*
X895440D02*
X908820D01*
X913650D02*
X927880D01*
X954300D02*
X971530D01*
X1000670D02*
X1017190D01*
X1038610D02*
X1055290D01*
X1082270D02*
X1099290D01*
X1125370D02*
X1143660D01*
X1172250D02*
X1189600D01*
X1212430D02*
X1229110D01*
X1249860D02*
X1265970D01*
X1293800D02*
X1309800D01*
X1322830D02*
X1340620D01*
X1397290D02*
X1414300D01*
X1441280D02*
X1457880D01*
X1478800D02*
X1494900D01*
X1522740D02*
X1538740D01*
X1563810D02*
X1583590D01*
X1610200D02*
X1627710D01*
X410710Y2206640D02*
X426040D01*
X485290D02*
X501860D01*
X528410D02*
X545020D01*
X563470D02*
X580160D01*
X624630D02*
X636100D01*
X641680D02*
X654360D01*
X677940D02*
X694620D01*
X715380D02*
X731480D01*
X758130D02*
X774690D01*
X801880D02*
X821610D01*
X846780D02*
X864290D01*
X894630D02*
X908190D01*
X914220D02*
X928700D01*
X953860D02*
X971030D01*
X1000670D02*
X1017190D01*
X1038610D02*
X1055290D01*
X1082270D02*
X1099290D01*
X1126530D02*
X1144740D01*
X1172250D02*
X1189600D01*
X1212430D02*
X1229110D01*
X1249860D02*
X1265970D01*
X1292620D02*
X1309170D01*
X1323400D02*
X1345270D01*
X1397290D02*
X1414300D01*
X1441280D02*
X1457880D01*
X1478800D02*
X1494900D01*
X1521550D02*
X1538110D01*
X1565300D02*
X1585040D01*
X1610200D02*
X1627710D01*
X410220Y2209020D02*
X425520D01*
X484880D02*
X501480D01*
X528730D02*
X545450D01*
X563470D02*
X580160D01*
X616060D02*
X651540D01*
X677940D02*
X694620D01*
X715380D02*
X731480D01*
X755930D02*
X773790D01*
X803370D02*
X823050D01*
X846780D02*
X864290D01*
X893820D02*
X907530D01*
X914850D02*
X929530D01*
X953630D02*
X970660D01*
X1000670D02*
X1017190D01*
X1038610D02*
X1055290D01*
X1082270D02*
X1099290D01*
X1127690D02*
X1145820D01*
X1172250D02*
X1189600D01*
X1212430D02*
X1229110D01*
X1249860D02*
X1265970D01*
X1290410D02*
X1308280D01*
X1324390D02*
X1352570D01*
X1397290D02*
X1414300D01*
X1441280D02*
X1457880D01*
X1478800D02*
X1494900D01*
X1519350D02*
X1537220D01*
X1566790D02*
X1586480D01*
X1610200D02*
X1627710D01*
X409770Y2211400D02*
X425090D01*
X484530D02*
X501190D01*
X529020D02*
X545780D01*
X563470D02*
X580160D01*
X611880D02*
X649450D01*
X677940D02*
X694620D01*
X715380D02*
X731480D01*
X751700D02*
X772480D01*
X804860D02*
X824500D01*
X846780D02*
X864290D01*
X893010D02*
X906890D01*
X915470D02*
X930350D01*
X953430D02*
X970450D01*
X1000670D02*
X1017190D01*
X1038610D02*
X1055290D01*
X1082270D02*
X1099290D01*
X1128850D02*
X1146890D01*
X1172250D02*
X1189600D01*
X1212430D02*
X1229110D01*
X1249860D02*
X1265970D01*
X1286190D02*
X1306960D01*
X1325820D02*
X1361020D01*
X1397290D02*
X1414300D01*
X1441280D02*
X1457880D01*
X1478800D02*
X1494900D01*
X1515120D02*
X1535900D01*
X1568280D02*
X1587930D01*
X1610200D02*
X1627710D01*
X409390Y2213780D02*
X424760D01*
X484220D02*
X500990D01*
X529230D02*
X546080D01*
X563470D02*
X580160D01*
X608900D02*
X652460D01*
X677940D02*
X694620D01*
X715380D02*
X731480D01*
X741410D02*
X770660D01*
X806350D02*
X825940D01*
X846780D02*
X864290D01*
X892200D02*
X906270D01*
X916080D02*
X931170D01*
X953350D02*
X970340D01*
X1000670D02*
X1017190D01*
X1038610D02*
X1055290D01*
X1082270D02*
X1099290D01*
X1130010D02*
X1147970D01*
X1172250D02*
X1189600D01*
X1212430D02*
X1229110D01*
X1249860D02*
X1265970D01*
X1275900D02*
X1305150D01*
X1327880D02*
X1367350D01*
X1397290D02*
X1414300D01*
X1441280D02*
X1457880D01*
X1478800D02*
X1494900D01*
X1504830D02*
X1534090D01*
X1569770D02*
X1589370D01*
X1610200D02*
X1627710D01*
X409100Y2216160D02*
X424490D01*
X433560D02*
X455290D01*
X483960D02*
X500780D01*
X529410D02*
X546340D01*
X563470D02*
X580160D01*
X606760D02*
X628780D01*
X633280D02*
X654650D01*
X677940D02*
X694620D01*
X715380D02*
X768170D01*
X807840D02*
X827390D01*
X845710D02*
X864290D01*
X891390D02*
X905610D01*
X916670D02*
X931990D01*
X953290D02*
X970310D01*
X1000670D02*
X1017190D01*
X1038610D02*
X1055290D01*
X1082270D02*
X1099290D01*
X1131170D02*
X1149050D01*
X1172250D02*
X1189600D01*
X1212430D02*
X1229110D01*
X1249860D02*
X1302660D01*
X1331140D02*
X1371720D01*
X1397290D02*
X1414300D01*
X1441280D02*
X1457880D01*
X1478800D02*
X1531600D01*
X1571260D02*
X1590820D01*
X1609130D02*
X1627710D01*
X408850Y2218540D02*
X424280D01*
X429850D02*
X459250D01*
X483770D02*
X500610D01*
X529570D02*
X546520D01*
X563470D02*
X580160D01*
X605150D02*
X622500D01*
X638880D02*
X656260D01*
X677940D02*
X694620D01*
X715380D02*
X764660D01*
X809330D02*
X828830D01*
X843590D02*
X864290D01*
X890580D02*
X904960D01*
X917300D02*
X932810D01*
X953330D02*
X970380D01*
X1000670D02*
X1017190D01*
X1038610D02*
X1055290D01*
X1082270D02*
X1099290D01*
X1132330D02*
X1150120D01*
X1172250D02*
X1189600D01*
X1212430D02*
X1229110D01*
X1249860D02*
X1299150D01*
X1335670D02*
X1374640D01*
X1397290D02*
X1414300D01*
X1441280D02*
X1457880D01*
X1478800D02*
X1528090D01*
X1572750D02*
X1592260D01*
X1607020D02*
X1627710D01*
X408620Y2220920D02*
X424140D01*
X427330D02*
X462000D01*
X483630D02*
X500520D01*
X529670D02*
X546650D01*
X563470D02*
X580160D01*
X604010D02*
X620130D01*
X641190D02*
X657380D01*
X677940D02*
X694620D01*
X715380D02*
X759320D01*
X810820D02*
X830280D01*
X841480D02*
X864290D01*
X889770D02*
X904300D01*
X917900D02*
X933630D01*
X953450D02*
X970570D01*
X1000670D02*
X1017190D01*
X1038610D02*
X1055290D01*
X1082270D02*
X1099290D01*
X1133490D02*
X1151200D01*
X1172250D02*
X1189600D01*
X1212430D02*
X1229110D01*
X1249860D02*
X1293810D01*
X1342270D02*
X1376560D01*
X1397290D02*
X1414300D01*
X1441280D02*
X1457880D01*
X1478800D02*
X1522740D01*
X1574240D02*
X1593710D01*
X1604900D02*
X1627710D01*
X408450Y2223300D02*
X424030D01*
X425470D02*
X464150D01*
X483510D02*
X500440D01*
X529740D02*
X546790D01*
X563470D02*
X580160D01*
X603180D02*
X618740D01*
X642590D02*
X658180D01*
X677940D02*
X694620D01*
X715380D02*
X749630D01*
X812310D02*
X831720D01*
X839360D02*
X864290D01*
X888960D02*
X903650D01*
X918580D02*
X934450D01*
X953660D02*
X970830D01*
X1000670D02*
X1017190D01*
X1038610D02*
X1055290D01*
X1082270D02*
X1099290D01*
X1134650D02*
X1152270D01*
X1172250D02*
X1189600D01*
X1212430D02*
X1229110D01*
X1249860D02*
X1284110D01*
X1350970D02*
X1377880D01*
X1397290D02*
X1414300D01*
X1441280D02*
X1457880D01*
X1478800D02*
X1513050D01*
X1575730D02*
X1595150D01*
X1602780D02*
X1627710D01*
X408330Y2225680D02*
X423950D01*
X424070D02*
X465910D01*
X483400D02*
X500390D01*
X529810D02*
X546850D01*
X563470D02*
X580160D01*
X602640D02*
X617970D01*
X643320D02*
X658700D01*
X677940D02*
X694620D01*
X715380D02*
X731480D01*
X813790D02*
X833170D01*
X837240D02*
X864290D01*
X888160D02*
X902990D01*
X919260D02*
X935270D01*
X954000D02*
X971260D01*
X1000670D02*
X1017190D01*
X1038610D02*
X1055290D01*
X1082270D02*
X1099290D01*
X1135810D02*
X1189600D01*
X1212430D02*
X1229110D01*
X1249860D02*
X1265970D01*
X1358110D02*
X1378620D01*
X1397290D02*
X1414300D01*
X1441280D02*
X1457880D01*
X1478800D02*
X1494900D01*
X1577210D02*
X1596600D01*
X1600670D02*
X1627710D01*
X408220Y2228060D02*
X434080D01*
X446580D02*
X467270D01*
X483370D02*
X500390D01*
X529850D02*
X546870D01*
X563470D02*
X580160D01*
X602350D02*
X617580D01*
X643760D02*
X658990D01*
X677940D02*
X694620D01*
X715380D02*
X731480D01*
X815280D02*
X834610D01*
X835120D02*
X864290D01*
X887350D02*
X902330D01*
X919930D02*
X936090D01*
X954410D02*
X971870D01*
X1000530D02*
X1017190D01*
X1038610D02*
X1055290D01*
X1082270D02*
X1099290D01*
X1135850D02*
X1189600D01*
X1212430D02*
X1229110D01*
X1249860D02*
X1265970D01*
X1361860D02*
X1379170D01*
X1397290D02*
X1414300D01*
X1440400D02*
X1457880D01*
X1478800D02*
X1494900D01*
X1578700D02*
X1598040D01*
X1598550D02*
X1627710D01*
X408160Y2230440D02*
X430620D01*
X449580D02*
X468370D01*
X483370D02*
X500390D01*
X529850D02*
X546870D01*
X563470D02*
X580160D01*
X602250D02*
X617520D01*
X643820D02*
X659080D01*
X677940D02*
X694620D01*
X715410D02*
X731540D01*
X757580D02*
X762430D01*
X816770D02*
X864290D01*
X886540D02*
X901680D01*
X920610D02*
X936910D01*
X954940D02*
X972660D01*
X999370D02*
X1017190D01*
X1038610D02*
X1055290D01*
X1082270D02*
X1099290D01*
X1130280D02*
X1189600D01*
X1212430D02*
X1229110D01*
X1249890D02*
X1266030D01*
X1292060D02*
X1296910D01*
X1338940D02*
X1339730D01*
X1363310D02*
X1379430D01*
X1397290D02*
X1414560D01*
X1438630D02*
X1457880D01*
X1478830D02*
X1494970D01*
X1521000D02*
X1525850D01*
X1580190D02*
X1627710D01*
X408160Y2232820D02*
X428390D01*
X451350D02*
X469240D01*
X483370D02*
X500400D01*
X529830D02*
X546870D01*
X563470D02*
X580160D01*
X602420D02*
X617710D01*
X643680D02*
X658910D01*
X677940D02*
X694620D01*
X715530D02*
X731750D01*
X756860D02*
X771370D01*
X818260D02*
X864290D01*
X885730D02*
X901020D01*
X921280D02*
X937730D01*
X955640D02*
X973780D01*
X997820D02*
X1017190D01*
X1038610D02*
X1055290D01*
X1082270D02*
X1099290D01*
X1126570D02*
X1189600D01*
X1212430D02*
X1229110D01*
X1250020D02*
X1266230D01*
X1291350D02*
X1305860D01*
X1330560D02*
X1340370D01*
X1363810D02*
X1379510D01*
X1397340D02*
X1415110D01*
X1436550D02*
X1457880D01*
X1478950D02*
X1495170D01*
X1520280D02*
X1534790D01*
X1581680D02*
X1627710D01*
X408160Y2235200D02*
X426730D01*
X452530D02*
X469930D01*
X483430D02*
X500460D01*
X529770D02*
X546770D01*
X563470D02*
X580160D01*
X602870D02*
X618270D01*
X643130D02*
X658530D01*
X677940D02*
X694620D01*
X715840D02*
X732310D01*
X755780D02*
X772870D01*
X819750D02*
X846520D01*
X846780D02*
X864290D01*
X884920D02*
X900370D01*
X921960D02*
X938560D01*
X956450D02*
X975310D01*
X995940D02*
X1017190D01*
X1038610D02*
X1055290D01*
X1082270D02*
X1099290D01*
X1123710D02*
X1189600D01*
X1212430D02*
X1229110D01*
X1250330D02*
X1266800D01*
X1290270D02*
X1307360D01*
X1324080D02*
X1341340D01*
X1363800D02*
X1379340D01*
X1397530D02*
X1416200D01*
X1433990D02*
X1457880D01*
X1479260D02*
X1495730D01*
X1519200D02*
X1536290D01*
X1583170D02*
X1609940D01*
X1610200D02*
X1627710D01*
X408210Y2237580D02*
X425410D01*
X453420D02*
X470470D01*
X483540D02*
X500470D01*
X529750D02*
X546650D01*
X563470D02*
X580160D01*
X603600D02*
X619360D01*
X641970D02*
X657830D01*
X677940D02*
X694620D01*
X716390D02*
X733420D01*
X754040D02*
X771960D01*
X821240D02*
X844550D01*
X846780D02*
X864290D01*
X884110D02*
X899710D01*
X922630D02*
X939380D01*
X957420D02*
X977590D01*
X993310D02*
X1017190D01*
X1038610D02*
X1055290D01*
X1082270D02*
X1099290D01*
X1121710D02*
X1189600D01*
X1212430D02*
X1229110D01*
X1250880D02*
X1267910D01*
X1288520D02*
X1306450D01*
X1325000D02*
X1342920D01*
X1362890D02*
X1378930D01*
X1397920D02*
X1418550D01*
X1430240D02*
X1457880D01*
X1479810D02*
X1496840D01*
X1517460D02*
X1535380D01*
X1584660D02*
X1607970D01*
X1610200D02*
X1627710D01*
X408320Y2239960D02*
X424700D01*
X453920D02*
X470840D01*
X483680D02*
X500600D01*
X529640D02*
X546530D01*
X563470D02*
X580160D01*
X604730D02*
X621300D01*
X640120D02*
X656880D01*
X677940D02*
X694620D01*
X717170D02*
X735740D01*
X751300D02*
X770780D01*
X822730D02*
X842580D01*
X846780D02*
X864290D01*
X883300D02*
X899050D01*
X923310D02*
X940200D01*
X958650D02*
X982720D01*
X987560D02*
X1017190D01*
X1038610D02*
X1055290D01*
X1082270D02*
X1099290D01*
X1120070D02*
X1143110D01*
X1172250D02*
X1189600D01*
X1212430D02*
X1229110D01*
X1251660D02*
X1270230D01*
X1285780D02*
X1305270D01*
X1326210D02*
X1345460D01*
X1360360D02*
X1378110D01*
X1398490D02*
X1441050D01*
X1441780D02*
X1457880D01*
X1480590D02*
X1499170D01*
X1514720D02*
X1534200D01*
X1586150D02*
X1606000D01*
X1610200D02*
X1627710D01*
X408490Y2242340D02*
X424760D01*
X454260D02*
X471100D01*
X483830D02*
X500700D01*
X529480D02*
X546340D01*
X563470D02*
X580160D01*
X606270D02*
X624700D01*
X636610D02*
X655410D01*
X677940D02*
X694620D01*
X718310D02*
X769370D01*
X821990D02*
X840610D01*
X846780D02*
X864290D01*
X882490D02*
X898400D01*
X923990D02*
X941020D01*
X960070D02*
X999970D01*
X1000670D02*
X1017190D01*
X1038610D02*
X1055290D01*
X1082270D02*
X1099290D01*
X1118760D02*
X1138920D01*
X1172250D02*
X1189600D01*
X1212430D02*
X1229110D01*
X1252790D02*
X1303850D01*
X1327710D02*
X1376930D01*
X1399490D02*
X1439230D01*
X1441780D02*
X1457880D01*
X1481730D02*
X1532790D01*
X1585410D02*
X1604030D01*
X1610200D02*
X1627710D01*
X408710Y2244720D02*
X424860D01*
X454490D02*
X471250D01*
X484060D02*
X500850D01*
X529330D02*
X546110D01*
X563470D02*
X580160D01*
X608060D02*
X653480D01*
X677940D02*
X694620D01*
X719890D02*
X767380D01*
X819920D02*
X838640D01*
X846780D02*
X864290D01*
X881680D02*
X897740D01*
X924660D02*
X941840D01*
X961930D02*
X998100D01*
X1000670D02*
X1017190D01*
X1038610D02*
X1055290D01*
X1082270D02*
X1099290D01*
X1117850D02*
X1136740D01*
X1172250D02*
X1189600D01*
X1212430D02*
X1229110D01*
X1254370D02*
X1301860D01*
X1329570D02*
X1375250D01*
X1400820D02*
X1437080D01*
X1441780D02*
X1457880D01*
X1483310D02*
X1530800D01*
X1583340D02*
X1602060D01*
X1610200D02*
X1627710D01*
X408970Y2247100D02*
X425030D01*
X454560D02*
X471300D01*
X484360D02*
X501110D01*
X529130D02*
X545810D01*
X563470D02*
X580160D01*
X604530D02*
X650780D01*
X677940D02*
X694620D01*
X722120D02*
X764900D01*
X817840D02*
X836670D01*
X846780D02*
X864290D01*
X880870D02*
X897080D01*
X925340D02*
X942660D01*
X964170D02*
X995800D01*
X1000670D02*
X1017190D01*
X1038610D02*
X1055290D01*
X1082270D02*
X1099290D01*
X1117200D02*
X1135460D01*
X1172250D02*
X1189600D01*
X1212430D02*
X1229110D01*
X1256610D02*
X1299390D01*
X1332070D02*
X1372750D01*
X1402700D02*
X1434380D01*
X1441780D02*
X1457880D01*
X1485540D02*
X1528320D01*
X1581260D02*
X1600090D01*
X1610200D02*
X1627710D01*
X409310Y2249480D02*
X425280D01*
X454480D02*
X471210D01*
X484680D02*
X501330D01*
X528800D02*
X545450D01*
X563470D02*
X580160D01*
X595170D02*
X647180D01*
X677940D02*
X694620D01*
X725490D02*
X761350D01*
X815770D02*
X834700D01*
X846780D02*
X864290D01*
X880060D02*
X896430D01*
X926010D02*
X943480D01*
X967370D02*
X992750D01*
X1000670D02*
X1017190D01*
X1038610D02*
X1055290D01*
X1082270D02*
X1099290D01*
X1116810D02*
X1134740D01*
X1172250D02*
X1189600D01*
X1212430D02*
X1229110D01*
X1259980D02*
X1295840D01*
X1335500D02*
X1369320D01*
X1405300D02*
X1431110D01*
X1441780D02*
X1457880D01*
X1488910D02*
X1524770D01*
X1579190D02*
X1598120D01*
X1610200D02*
X1627710D01*
X409740Y2251860D02*
X425630D01*
X454330D02*
X471020D01*
X485080D02*
X501720D01*
X528440D02*
X545030D01*
X594980D02*
X614020D01*
X620090D02*
X641460D01*
X731150D02*
X755380D01*
X813690D02*
X832730D01*
X846780D02*
X864290D01*
X972430D02*
X988040D01*
X1000670D02*
X1017190D01*
X1116600D02*
X1134390D01*
X1172250D02*
X1189600D01*
X1265630D02*
X1289870D01*
X1341300D02*
X1363460D01*
X1409720D02*
X1426170D01*
X1494570D02*
X1518810D01*
X1577110D02*
X1596150D01*
X1610200D02*
X1627710D01*
X410230Y2254240D02*
X426120D01*
X453990D02*
X470720D01*
X485560D02*
X502110D01*
X528030D02*
X544590D01*
X594790D02*
X612310D01*
X811620D02*
X830760D01*
X846780D02*
X864290D01*
X1000670D02*
X1017190D01*
X1116490D02*
X1134350D01*
X1172250D02*
X1189600D01*
X1575040D02*
X1594180D01*
X1610200D02*
X1627710D01*
X410880Y2256620D02*
X426720D01*
X453610D02*
X470310D01*
X486090D02*
X502630D01*
X527470D02*
X543990D01*
X594600D02*
X610120D01*
X809540D02*
X828790D01*
X846780D02*
X864290D01*
X1000670D02*
X1017190D01*
X1116610D02*
X1134540D01*
X1172250D02*
X1189600D01*
X1572960D02*
X1592210D01*
X1610200D02*
X1627710D01*
X411570Y2259000D02*
X427550D01*
X452950D02*
X469810D01*
X486760D02*
X503330D01*
X526810D02*
X543340D01*
X594400D02*
X606840D01*
X807470D02*
X826820D01*
X846780D02*
X864290D01*
X1000670D02*
X1017190D01*
X1116880D02*
X1135140D01*
X1172250D02*
X1189600D01*
X1570890D02*
X1590240D01*
X1610200D02*
X1627710D01*
X412410Y2261380D02*
X428610D01*
X452050D02*
X469080D01*
X487550D02*
X504180D01*
X525870D02*
X542500D01*
X594210D02*
X599710D01*
X805390D02*
X824850D01*
X846780D02*
X864290D01*
X1000670D02*
X1017190D01*
X1117330D02*
X1136300D01*
X1172250D02*
X1189600D01*
X1568810D02*
X1588270D01*
X1610200D02*
X1627710D01*
X413390Y2263760D02*
X430040D01*
X450740D02*
X468190D01*
X488510D02*
X505580D01*
X524400D02*
X541590D01*
X803320D02*
X822880D01*
X846780D02*
X864290D01*
X1000670D02*
X1017190D01*
X1117980D02*
X1138160D01*
X1172250D02*
X1189600D01*
X1566740D02*
X1586300D01*
X1610200D02*
X1627710D01*
X414620Y2266140D02*
X432220D01*
X448570D02*
X467100D01*
X489590D02*
X507760D01*
X522220D02*
X540530D01*
X562810D02*
X580740D01*
X677280D02*
X695210D01*
X801250D02*
X820910D01*
X846780D02*
X864290D01*
X1000670D02*
X1017190D01*
X1118900D02*
X1141800D01*
X1172250D02*
X1189600D01*
X1211760D02*
X1229690D01*
X1564670D02*
X1584330D01*
X1610200D02*
X1627710D01*
X415970Y2268520D02*
X436750D01*
X443820D02*
X465710D01*
X490820D02*
X513630D01*
X515730D02*
X539220D01*
X562810D02*
X580740D01*
X677280D02*
X695210D01*
X799170D02*
X818940D01*
X846780D02*
X864290D01*
X1000670D02*
X1017190D01*
X1120110D02*
X1189600D01*
X1211760D02*
X1229690D01*
X1562590D02*
X1582360D01*
X1610200D02*
X1627710D01*
X417690Y2270900D02*
X464040D01*
X492400D02*
X537710D01*
X562810D02*
X580740D01*
X677280D02*
X695210D01*
X797100D02*
X816970D01*
X846780D02*
X864290D01*
X1000670D02*
X1017190D01*
X1121760D02*
X1189600D01*
X1211760D02*
X1229690D01*
X1560520D02*
X1580390D01*
X1610200D02*
X1627710D01*
X419670Y2273280D02*
X461980D01*
X494300D02*
X535730D01*
X562810D02*
X580740D01*
X677280D02*
X695210D01*
X795020D02*
X815000D01*
X846780D02*
X864290D01*
X1000670D02*
X1017190D01*
X1123990D02*
X1189600D01*
X1211760D02*
X1229690D01*
X1558440D02*
X1578420D01*
X1610200D02*
X1627710D01*
X422300Y2275660D02*
X459390D01*
X496830D02*
X533320D01*
X562810D02*
X580740D01*
X677280D02*
X695210D01*
X792950D02*
X813030D01*
X846780D02*
X864290D01*
X1000670D02*
X1017190D01*
X1127080D02*
X1189600D01*
X1211760D02*
X1229690D01*
X1556370D02*
X1576450D01*
X1610200D02*
X1627710D01*
X425890Y2278040D02*
X455790D01*
X500190D02*
X529770D01*
X562810D02*
X580740D01*
X677280D02*
X695210D01*
X790870D02*
X811060D01*
X846780D02*
X864290D01*
X1000670D02*
X1017190D01*
X1131510D02*
X1189600D01*
X1211760D02*
X1229690D01*
X1554290D02*
X1574480D01*
X1610200D02*
X1627710D01*
X431540Y2280420D02*
X450050D01*
X505940D02*
X523930D01*
X562810D02*
X580740D01*
X677280D02*
X695210D01*
X788800D02*
X809090D01*
X846780D02*
X864290D01*
X1000670D02*
X1017190D01*
X1139510D02*
X1189600D01*
X1211760D02*
X1229690D01*
X1552220D02*
X1572510D01*
X1610200D02*
X1627710D01*
X1000670Y2282800D02*
X1017190D01*
D02*
D28*
X617690Y3128050D02*
X1025440Y3363470D01*
X1433190Y3128050D01*
Y2659180D01*
X1025440Y2423770D01*
X617690Y2659180D01*
Y3128050D01*
D02*
D29*
X566140Y2625000D02*
Y3160210D01*
X1025440Y3425390D01*
X1484750Y3160210D01*
Y2625000D01*
X1025440Y2359820D01*
X566140Y2625000D01*
D02*
D72*
X718850Y2872340D02*
Y2878680D01*
X725190D01*
Y2824790D02*
X737870D01*
Y2815280D01*
X725190Y2995970D02*
Y3030840D01*
X728360D01*
Y2881850D02*
Y2869170D01*
X709340D01*
X728360Y3037180D02*
Y2970610D01*
X737870Y3049860D02*
Y2954760D01*
X744210D01*
Y2808940D02*
Y2805770D01*
X747380D01*
X753720Y2799430D02*
Y2812110D01*
X744210D01*
X760060Y2885020D02*
Y2891360D01*
X782250Y2831130D02*
X813950D01*
Y2758220D01*
X785420Y2821620D02*
Y2818450D01*
X804440D01*
X798100Y2796260D02*
Y2799430D01*
X804440D01*
X798100Y2808940D02*
X807610D01*
Y2783580D01*
X798100Y3040350D02*
X747380D01*
Y2961100D01*
X801270Y2789920D02*
Y2808940D01*
X791760D01*
X801270Y3075220D02*
X810780D01*
Y3068880D01*
X807610Y2885020D02*
X836140D01*
Y2872340D01*
X810780Y3084730D02*
Y3059370D01*
X966110D01*
X813950Y3094240D02*
Y3046690D01*
X731530D01*
X820290Y3103750D02*
Y3065710D01*
X763230D01*
X823460Y2891360D02*
Y2875510D01*
X801270D01*
X826630Y3129110D02*
Y3056200D01*
X744210D01*
X836140Y2780410D02*
Y2796260D01*
X839310D01*
X836140Y3246400D02*
Y3068880D01*
X779080D01*
X842480Y2872340D02*
X845650D01*
X848820Y2812110D02*
Y2802600D01*
X836140D01*
X848820Y3252740D02*
Y3072050D01*
X997810D01*
X858330Y2815280D02*
X829800D01*
Y2770900D01*
X858330Y2827960D02*
X823460D01*
Y2748710D01*
X858330Y2866000D02*
X788590D01*
X858330Y3259080D02*
Y3081560D01*
X1000980D01*
X864670Y2827960D02*
X855160D01*
Y2831130D01*
X867840Y3240060D02*
X871010D01*
Y3091070D01*
X880520Y2786750D02*
Y2783580D01*
X874180D01*
X880520Y2799430D02*
Y2793090D01*
X877350D01*
X880520Y2881850D02*
Y2891360D01*
Y3214700D02*
Y3094240D01*
X1004150D01*
X890030Y2812110D02*
Y2789920D01*
X880520D01*
X890030Y2815280D02*
Y2802600D01*
X893200Y3202020D02*
Y3106920D01*
X1000980D01*
X902710Y3192510D02*
Y3113260D01*
X912220Y2866000D02*
Y2862830D01*
X909050D01*
X915390Y3189340D02*
Y3119600D01*
X997810D01*
X918560Y2878680D02*
Y2866000D01*
X931240D01*
X924900Y2824790D02*
X912220D01*
Y2808940D01*
X928070Y3183000D02*
Y3132280D01*
X991470D01*
X931240Y2831130D02*
X899540D01*
Y2802600D01*
X940750Y2919890D02*
X978790D01*
Y2878680D01*
X940750Y3179830D02*
Y3141790D01*
X988300D01*
X950260Y2910380D02*
X969280D01*
Y2894530D01*
X950260Y3176660D02*
Y3151300D01*
X978790D01*
X953430Y2900870D02*
X1026340D01*
Y2919890D01*
X956600Y2799430D02*
X978790D01*
Y2821620D01*
X959770Y3021330D02*
X763230D01*
Y2938910D01*
X959770Y3170320D02*
Y3160810D01*
X972450D01*
X962940Y3030840D02*
X753720D01*
Y2935740D01*
X966110Y2812110D02*
X969280D01*
Y2808940D01*
X966110Y3011820D02*
X775910D01*
Y2992800D01*
X969280D02*
X782250D01*
Y2935740D01*
X969280Y3005480D02*
X769570D01*
Y2935740D01*
X972450Y2799430D02*
Y2789920D01*
X994640D01*
X972450Y2980120D02*
X794930D01*
Y2935740D01*
X972450Y3056200D02*
Y3008650D01*
X969280D01*
X978790Y3065710D02*
Y3053030D01*
X832970D01*
X981960Y2780410D02*
Y2793090D01*
X1007320D01*
X981960Y2967440D02*
X807610D01*
Y2938910D01*
X981960Y3043520D02*
X804440D01*
Y3040350D01*
X985130Y2954760D02*
X820290D01*
Y2935740D01*
X991470Y3053030D02*
X978790D01*
Y3030840D01*
X991470Y3062540D02*
X981960D01*
Y3049860D01*
X997810Y2720180D02*
Y2789920D01*
Y2945250D02*
X832970D01*
Y2938910D01*
X1007320Y2793090D02*
Y2710670D01*
X1010490Y2796260D02*
Y2710670D01*
X1013660D01*
X1010490Y2935740D02*
X839310D01*
Y2938910D01*
X1023170Y2923060D02*
X991470D01*
Y2742370D01*
X1026340Y2929400D02*
X931240D01*
Y2923060D01*
X1042190Y2910380D02*
X1000980D01*
X1048530Y2900870D02*
X1042190D01*
X1058040Y2897700D02*
X1000980D01*
Y2802600D01*
X1073890Y2888190D02*
X1013660D01*
Y2796260D01*
X1073890Y3062540D02*
Y3075220D01*
X1077060D01*
X1083400Y2875510D02*
X1023170D01*
Y2707500D01*
X1064380D01*
X1089740Y3034010D02*
X1083400D01*
X1096080Y2866000D02*
X1035850D01*
Y2713840D01*
X1099250Y3024500D02*
X1077060D01*
Y3053030D01*
X1102420Y2659950D02*
Y2682140D01*
Y2853320D02*
X1048530D01*
Y2713840D01*
X1111930Y2846980D02*
Y2840640D01*
X1061210D01*
X1115100Y2796260D02*
X1099250D01*
Y2777240D01*
X1115100Y2796260D02*
X1092910D01*
Y2736030D01*
X1115100Y3011820D02*
X1067550D01*
Y3087900D01*
X1124610Y2694820D02*
Y2650440D01*
X1130950D01*
Y2688480D01*
X1124610Y2799430D02*
X1108760D01*
Y2786750D01*
X1124610Y2831130D02*
X1061210D01*
Y2713840D01*
X1124610Y3046690D02*
Y3081560D01*
X1073890D01*
X1127780Y2818450D02*
X1073890D01*
Y2717010D01*
X1130950Y3065710D02*
X1111930D01*
Y3072050D01*
X1134120Y2697990D02*
X1111930D01*
Y2653610D01*
X1134120Y2808940D02*
X1086570D01*
Y2729690D01*
X1134120Y3018160D02*
X1058040D01*
Y3081560D01*
X1134120Y3040350D02*
Y3094240D01*
X1077060D01*
X1143630Y2659950D02*
X1188010D01*
X1143630Y3097410D02*
Y3037180D01*
X1134120D01*
X1149970Y3030840D02*
Y3113260D01*
X1165820D01*
X1172160Y2726520D02*
Y2704330D01*
X1178500Y3129110D02*
X1165820D01*
Y3119600D01*
X1181670Y2767730D02*
X1143630D01*
Y2761390D01*
X1181670Y3132280D02*
Y3103750D01*
X1153140D01*
X1188010Y2663120D02*
X1146800D01*
X1188010Y2755050D02*
X1140460D01*
Y2653610D01*
X1191180Y2720180D02*
X1181670D01*
Y2704330D01*
X1194350Y2596550D02*
Y2606060D01*
X1203860D01*
X1194400Y3144440D02*
X1180560Y3143420D01*
X1172270Y3140730D01*
X1165310Y3135420D01*
X1156920Y3128030D01*
X1151280Y3120520D01*
X1146140Y3113290D01*
X1140160Y3106710D01*
X1131540Y3100100D01*
X1117490Y3101440D01*
X1102420Y3104970D01*
X1093750Y3106190D01*
X1082460Y3105470D01*
X1069570Y3101340D01*
X1058990Y3094990D01*
X1051160Y3085080D01*
X1046810Y3072520D01*
X1044830Y3060870D01*
Y3051220D01*
X1047050Y3040350D01*
X1050180Y3031190D01*
X1055240Y3023350D01*
X1060530Y3014270D01*
X1066300Y3008740D01*
X1073540Y3003760D01*
X1082550Y3001790D01*
X1095710Y3001500D01*
X1108820Y3002800D01*
X1123010Y3004730D01*
X1140360Y3008440D01*
X1156910Y3011050D01*
X1176640Y3014840D01*
X1189650Y3015410D01*
X1206460Y3016490D01*
X1221790Y3014440D01*
X1235510Y3010380D01*
X1245660Y3005670D01*
X1257950Y3003550D01*
X1272790Y3001790D01*
X1285070Y3001300D01*
X1297960Y3002650D01*
X1307370Y3005100D01*
X1317030Y3009020D01*
X1326770Y3016110D01*
X1333910Y3024800D01*
X1338110Y3034150D01*
X1341080Y3043470D01*
X1341940Y3053790D01*
X1341830Y3064260D01*
X1337420Y3076660D01*
X1330310Y3086150D01*
X1320860Y3093860D01*
X1307360Y3098740D01*
X1296980Y3100650D01*
X1284780Y3100220D01*
X1277820Y3098710D01*
X1269840Y3098200D01*
X1261240Y3098360D01*
X1252910Y3104160D01*
X1246940Y3112080D01*
X1241210Y3120610D01*
X1235650Y3127940D01*
X1227700Y3134020D01*
X1219950Y3139150D01*
X1209320Y3142370D01*
X1198690Y3144380D01*
X1194400Y3144440D01*
X1207030Y2536320D02*
X1210200D01*
Y2615570D02*
X1184840D01*
Y2599720D01*
X1213370Y2628250D02*
X1175330D01*
Y2596550D01*
X1216540Y2685310D02*
X1229220D01*
X1216540Y2726520D02*
X1159480D01*
Y2701160D01*
X1219710Y2739200D02*
X1149970D01*
Y2653610D01*
X1219710Y3024500D02*
X1178500D01*
X1226050Y2549000D02*
Y2542660D01*
X1207030D01*
X1226050Y2564850D02*
Y2561680D01*
X1222880D01*
X1226050Y2685310D02*
Y2751880D01*
X1140460D01*
X1229220Y2568020D02*
Y2558510D01*
X1197520D01*
X1232390Y2552170D02*
X1200690D01*
Y2533150D01*
X1235560Y2755050D02*
X1232390D01*
Y2653610D01*
X1235560Y3122770D02*
X1188010D01*
Y3132280D01*
X1241900Y3110090D02*
X1219710D01*
Y3129110D01*
X1251410Y3049860D02*
Y3027670D01*
X1248240D01*
X1251410Y3100580D02*
X1207030D01*
Y3103750D01*
X1257750Y2755050D02*
Y2647270D01*
X1153140D01*
X1260920Y3062540D02*
Y3056200D01*
X1241900D01*
X1264090Y2634590D02*
X1165820D01*
Y2602890D01*
X1264090Y2637760D02*
X1159480D01*
Y2612400D01*
X1267260Y2751880D02*
Y2634590D01*
X1279940D01*
Y2675800D01*
X1270430Y3068880D02*
X1238730D01*
Y3014990D01*
X1292620Y2653610D02*
X1245070D01*
Y2761390D01*
X1298960Y3078390D02*
X1226050D01*
Y3021330D01*
X1302130Y3037180D02*
Y3046690D01*
X1305300Y3087900D02*
X1213370D01*
Y3024500D01*
X1308470Y3091070D02*
Y3037180D01*
X1295790D01*
X1317980Y3087900D02*
Y3027670D01*
X1286280D01*
X1327490Y3078390D02*
Y3018160D01*
X1251410D01*
Y3011820D01*
X1302130D01*
D02*
D73*
X1177350Y2697510D02*
X1169660Y2697220D01*
X1162670Y2693410D01*
X1157000Y2688210D01*
Y2678510D01*
X1163130Y2671630D01*
X1171220Y2670110D01*
X1180110Y2670760D01*
X1187880Y2676790D01*
X1190380Y2686660D01*
X1184500Y2695240D01*
X1177350Y2697510D01*
X1200970Y2685970D02*
X1194420Y2678880D01*
X1192260Y2668660D01*
X1195940Y2661200D01*
X1201060Y2656070D01*
X1209720Y2653080D01*
X1217490Y2655810D01*
X1223850Y2660640D01*
X1224110Y2670220D01*
X1219410Y2677790D01*
X1212230Y2683880D01*
X1200970Y2685970D01*
X1206100Y2718480D02*
X1195800Y2715590D01*
X1190740Y2707340D01*
X1190150Y2697920D01*
X1195010Y2688310D01*
X1203360Y2687080D01*
X1212390Y2689510D01*
X1216990Y2697440D01*
X1217630Y2707190D01*
X1214450Y2715990D01*
X1206100Y2718480D01*
D02*
D74*
X678820Y2853780D02*
X734020Y2905920D01*
X743500Y2853780D01*
X678720D01*
X685040Y2842720D02*
X809860Y2729670D01*
X743900Y2842720D01*
X685040D01*
X686620D02*
Y2841140D01*
X689780D01*
X688200Y2842720D02*
Y2841140D01*
X700840Y2834820D02*
X705580D01*
Y2833240D01*
X741920D01*
X702420Y2836400D02*
Y2834820D01*
X704000Y2837980D02*
Y2833240D01*
X705580Y2831660D02*
X741920D01*
X705580Y2834820D02*
Y2833240D01*
X704000D01*
X710870Y2829720D02*
X718490D01*
Y2828450D01*
X715950Y2822100D02*
Y2824640D01*
X712140D01*
X717220Y2820830D02*
Y2825910D01*
X712140D01*
X717220Y2830990D02*
Y2823370D01*
X714680D01*
X718490Y2820830D02*
Y2827180D01*
X710870D01*
X718490Y2828450D02*
X709600D01*
Y2829720D01*
X719760D02*
X707060D01*
X721030Y2830990D02*
X707060D01*
X732440Y2902760D02*
X734020D01*
Y2901180D01*
X732440Y2904340D02*
Y2902760D01*
X734020D01*
Y2904340D02*
Y2902760D01*
X732440D01*
X740340Y2853780D02*
Y2855360D01*
X741920Y2853780D02*
Y2855360D01*
X740340D01*
X741920Y2856940D02*
Y2855360D01*
X740340D01*
X741920Y2907500D02*
X803540D01*
Y2904340D01*
X752650Y2864460D01*
X741920Y2907500D01*
X742620Y2832260D02*
Y2829720D01*
Y2832260D02*
X704520D01*
Y2834800D01*
X745160Y2825910D02*
Y2819560D01*
X748970D01*
X746430D02*
X745160D01*
X746430Y2825910D02*
Y2820830D01*
X748970D01*
X747700Y2823370D02*
Y2820830D01*
X794690Y2744630D02*
Y2745900D01*
X795960Y2744630D02*
Y2747170D01*
X797230D01*
X795960D02*
Y2745900D01*
X797230Y2742090D02*
Y2745900D01*
Y2742090D02*
Y2743360D01*
X795960D01*
X797230Y2749710D02*
Y2745900D01*
X792150D01*
X798500Y2740820D02*
Y2744630D01*
Y2745900D02*
X793420D01*
Y2744630D01*
X798500Y2748440D02*
Y2744630D01*
X794690D01*
X799770Y2747170D02*
Y2739550D01*
X802310D01*
X801040Y2738280D02*
Y2742090D01*
X802310D01*
X801040Y2739550D02*
Y2744630D01*
X801960Y2738440D02*
X803540D01*
Y2736860D01*
X802310Y2737010D02*
Y2738280D01*
X803580D01*
X802310Y2740820D02*
X801040D01*
X803580Y2739550D02*
X802310D01*
Y2740820D01*
X804850Y2735740D02*
Y2738280D01*
Y2737010D02*
X803580D01*
Y2735740D01*
X806120Y2734470D02*
Y2735740D01*
X806700Y2733700D02*
Y2735280D01*
X805120D01*
Y2736860D01*
X880960Y2842720D02*
X759300D01*
X821300Y2726270D01*
X880960Y2842720D01*
X882540Y2855360D02*
X877800Y2860100D01*
X827150Y2901120D01*
Y2901270D01*
X822500Y2905920D01*
X759430Y2854680D01*
X882920Y2855360D01*
X882540D01*
X899920Y2907500D02*
X841460D01*
X886870Y2865810D01*
X899920Y2907500D01*
X909400Y2902760D02*
X959960Y2855360D01*
X896760Y2853780D01*
X909400Y2902760D01*
X959960Y2844300D02*
X956800D01*
X891970Y2842720D01*
X835300Y2730390D01*
X956800Y2839560D01*
X959960Y2842720D01*
Y2844300D01*
D02*
D75*
X730860Y2899330D02*
X738720Y2858070D01*
X689680Y2857680D01*
X730860Y2899330D01*
X741920Y2839660D02*
X691360Y2839560D01*
X793930Y2749900D01*
X741920Y2839660D01*
X746690Y2904020D02*
X754480Y2871230D01*
X798100Y2903730D01*
X746690Y2904020D01*
X875100Y2858340D02*
X768190Y2857800D01*
X821200Y2901020D01*
X875100Y2858340D01*
X875510Y2839760D02*
X765670Y2839430D01*
X821250Y2733690D01*
X875510Y2839760D01*
X895360Y2903790D02*
X848660D01*
X885600Y2872260D01*
X895360Y2903790D01*
X895620Y2839820D02*
X951290Y2840640D01*
Y2839630D01*
X844850Y2744430D01*
X895620Y2839820D01*
X911600Y2895620D02*
X952780Y2857760D01*
X901660Y2857130D01*
X911600Y2895620D01*
X1176020Y2565800D02*
X1179180D01*
Y2564220D01*
X1177600Y2565800D02*
X1179180D01*
X1191820Y2526300D02*
Y2523140D01*
X1190240D01*
X1231320Y2587920D02*
Y2589500D01*
X1236060Y2554740D02*
X1242380D01*
Y2556320D01*
D02*
D76*
X709600Y2828450D02*
X715950D01*
Y2823370D01*
X721030Y2817020D02*
X727380D01*
Y2811940D01*
X729920Y2818290D02*
Y2808130D01*
X736270D01*
X731190Y2898300D02*
X732460D01*
Y2902110D01*
X735000Y2805590D02*
X737540D01*
X742620Y2797970D02*
X747700D01*
Y2796700D01*
X755320Y2789080D02*
X756590D01*
Y2787810D01*
Y2794160D02*
Y2791620D01*
X752780D01*
X759130Y2794160D02*
Y2786540D01*
X757860D01*
X769290D02*
X766750D01*
X770560Y2782730D02*
X765480D01*
Y2792890D01*
X771830Y2778920D02*
X761670D01*
Y2796700D01*
X774370Y2772570D02*
Y2776380D01*
X770560D01*
X779450Y2767490D02*
Y2771300D01*
X776910D01*
X0Y0D02*
M02*
