G04 DesignSpark PCB Gerber Version 13.0 Build *
%FSLAX35Y35*%
%MOMM*%
%ADD86R,0.85240X1.35240*%
%ADD83R,0.95240X0.95240*%
%ADD85R,1.15240X1.35240*%
%ADD88R,1.15240X2.95240*%
%ADD84R,1.25240X2.05240*%
%ADD22C,1.45240*%
%ADD26C,2.15240*%
%AMT24*0 Bullet Pad at angle 90*21,1,1.45240,2.02620,0,0,90*%
%ADD24T24*%
%ADD87R,1.15240X0.95240*%
%AMT23*0 Bullet Pad at angle 270*21,1,1.45240,1.82620,0,0,270*%
%ADD23T23*%
%AMT21*0 Bullet Pad at angle 270*21,1,1.45240,2.02620,0,0,270*%
%ADD21T21*%
X0Y0D02*
D02*
D21*
X223690Y560000D03*
D02*
D22*
X325000D03*
D02*
D21*
X223690Y814000D03*
D02*
D22*
X325000D03*
D02*
D21*
X223690Y1068000D03*
D02*
D22*
X325000D03*
D02*
D21*
X223690Y1322000D03*
D02*
D22*
X325000D03*
D02*
D21*
X223690Y1576000D03*
D02*
D22*
X325000D03*
D02*
D21*
X223690Y1830000D03*
D02*
D22*
X325000D03*
D02*
D21*
X223690Y2084000D03*
D02*
D22*
X325000D03*
D02*
D21*
X223690Y2338000D03*
D02*
D22*
X325000D03*
D02*
D21*
X223690Y2592000D03*
D02*
D22*
X325000D03*
D02*
D21*
X223690Y2846000D03*
D02*
D22*
X325000D03*
D02*
D21*
X223690Y3100000D03*
D02*
D22*
X325000D03*
D02*
D23*
X223690Y306000D03*
D02*
D22*
X315000D03*
D02*
D24*
X1820310Y2084000D03*
D02*
D22*
X1719000D03*
D02*
D24*
X1820310Y2338000D03*
D02*
D22*
X1719000D03*
D02*
D24*
X1820310Y2592000D03*
D02*
D22*
X1719000D03*
D02*
D24*
X1820310Y2846000D03*
D02*
D22*
X1719000D03*
D02*
D24*
X1820310Y3100000D03*
D02*
D22*
X1719000D03*
D02*
D26*
X300000Y3335000D03*
X1770000D03*
D02*
D83*
X530000Y2060000D03*
X695100D03*
X864900D03*
X1030000D03*
D02*
D84*
X470000Y290000D03*
D02*
D85*
X705000Y1800000D03*
X1820000Y1370000D03*
D02*
D86*
X860000Y1800000D03*
X970000D03*
X1080000D03*
X1190000D03*
X1300000D03*
X1410000D03*
X1520000D03*
X1630000D03*
X1725000D03*
D02*
D87*
X1820000Y750000D03*
D02*
D88*
Y335000D03*
X0Y0D02*
M02*
