  0
SECTION
  2
HEADER
  9
$ACADVER
  1
AC1009
  9
$INSBASE
 10
0
 20
0
 30
0
  9
$EXTMIN
 10
0
 20
0
  9
$EXTMAX
 10
59.400000000000005
 20
42
  9
$LIMMIN
 10
0
 20
0
  9
$LIMMAX
 10
59.400000000000005
 20
42
  9
$LTSCALE
 40
0.2
  0
ENDSEC
  0
SECTION
  2
TABLES
  0
TABLE
  2
LTYPE
 70
     9
  0
LTYPE
  2
CONTINUOUS
 70
    64
  3
実線
 72
    65
 73
     0
 40
0.0
  0
LTYPE
  2
DASHED1
 70
    64
  3
--  --  --  --  --  --  --  --  
 72
    65
 73
     2
 40
2.5
 49
1.25
 49
-1.25
  0
LTYPE
  2
DASHED2
 70
    64
  3
----    ----    ----    ----    
 72
    65
 73
     2
 40
5.0
 49
2.5
 49
-2.5
  0
LTYPE
  2
DASHED3
 70
    64
  3
------  ------  ------  ------  
 72
    65
 73
     2
 40
5.0
 49
3.75
 49
-1.25
  0
LTYPE
  2
CENTER1
 70
    64
  3
----- - ----- - ----- - ----- - 
 72
    65
 73
     4
 40
10.0
 49
6.25
 49
-1.25
 49
1.25
 49
-1.25
  0
LTYPE
  2
CENTER2
 70
    64
  3
----------  --  ----------  --  
 72
    65
 73
     4
 40
20.0
 49
12.5
 49
-2.5
 49
2.5
 49
-2.5
  0
LTYPE
  2
PHANTOM1
 70
    64
  3
--- - - --- - - --- - - --- - - 
 72
    65
 73
     6
 40
10.0
 49
3.25
 49
-1.25
 49
1.25
 49
-1.25
 49
1.25
 49
-1.25
  0
LTYPE
  2
PHANTOM2
 70
    64
  3
--------  -  -  --------  -  -  
 72
    65
 73
     6
 40
20.0
 49
10.0
 49
-2.5
 49
1.25
 49
-2.5
 49
1.25
 49
-2.5
  0
LTYPE
  2
DOT
 70
    64
  3
-   -   -   -   -   -   -   -   
 72
    65
 73
     2
 40
2.5
 49
0.625
 49
-1.875
  0
LTYPE
  2
DUMMY
 70
    64
  3
ダミー
 72
    65
 73
     0
 40
0.0
  0
LTYPE
  2
RAND1
 70
    64
  3
ランダム線1
 72
    65
 73
     4
 40
10.0
 49
1.0
 49
-2.0
 49
3.0
 49
-4.0
  0
LTYPE
  2
RAND2
 70
    64
  3
ランダム線2
 72
    65
 73
     4
 40
14.0
 49
2.0
 49
-3.0
 49
4.0
 49
-5.0
  0
LTYPE
  2
RAND3
 70
    64
  3
ランダム線3
 72
    65
 73
     4
 40
18.0
 49
3.0
 49
-4.0
 49
5.0
 49
-6.0
  0
LTYPE
  2
RAND4
 70
    64
  3
ランダム線4
 72
    65
 73
     4
 40
22.0
 49
4.0
 49
-5.0
 49
6.0
 49
-7.0
  0
LTYPE
  2
RAND5
 70
    64
  3
ランダム線5
 72
    65
 73
     4
 40
26.0
 49
5.0
 49
-6.0
 49
7.0
 49
-8.0
  0
LTYPE
  2
LONG1
 70
    64
  3
----------  --  ----------  --  
 72
    65
 73
     4
 40
40.0
 49
32.5
 49
-2.5
 49
2.5
 49
-2.5
  0
LTYPE
  2
LONG2
 70
    64
  3
--------  -  -  --------  -  -  
 72
    65
 73
     6
 40
40.0
 49
30.0
 49
-2.5
 49
1.25
 49
-2.5
 49
1.25
 49
-2.5
  0
LTYPE
  2
LONG3
 70
    64
  3
+++++++++++++++..+++++++++++++++
 72
    65
 73
     2
 40
40.0
 49
37.5
 49
-2.5
  0
LTYPE
  2
LONG4
 70
    64
  3
+++++++++++++++..+++++++++++++++
 72
    65
 73
     2
 40
80.0
 49
75.0
 49
-5.0
  0
LTYPE
  2
LONG5
 70
    64
  3
----------  --  ----------  --  
 72
    65
 73
     4
 40
60.0
 49
37.5
 49
-7.5
 49
7.5
 49
-7.5
  0
LTYPE
  2
dashed
 70
   64
  3
-------   -------------   ------
 72
   65
 73
    2
 40
7.5
 49
6
 49
-1.5
  0
LTYPE
  2
dashed_spaced
 70
   64
  3
----        --------        ----
 72
   65
 73
    2
 40
12
 49
6
 49
-6
  0
LTYPE
  2
long_dashed_dotted
 70
   64
  3
------------- --- --------------
 72
   65
 73
    4
 40
15.25
 49
12
 49
-1.5
 49
0.25
 49
-1.5
  0
LTYPE
  2
long_dashed_double-dotted
 70
   64
  3
----------- --- --- ------------
 72
   65
 73
    6
 40
17
 49
12
 49
-1.5
 49
0.25
 49
-1.5
 49
0.25
 49
-1.5
  0
LTYPE
  2
long_dashed_triplicate-dotted
 70
   64
  3
--------- --- --- --- ----------
 72
   65
 73
    8
 40
18.75
 49
12
 49
-1.5
 49
0.25
 49
-1.5
 49
0.25
 49
-1.5
 49
0.25
 49
-1.5
  0
LTYPE
  2
dotted
 70
   64
  3
   -       -       -       -    
 72
   65
 73
    2
 40
1.75
 49
0.25
 49
-1.5
  0
LTYPE
  2
chain
 70
   64
  3
-------------- -- --------------
 72
   65
 73
    4
 40
18.5
 49
12
 49
-1.5
 49
3.5
 49
-1.5
  0
LTYPE
  2
chain_double_dash
 70
   64
  3
------------ -- -- -------------
 72
   65
 73
    6
 40
23.5
 49
12
 49
-1.5
 49
3.5
 49
-1.5
 49
3.5
 49
-1.5
  0
LTYPE
  2
dashed_dotted
 70
   64
  3
-----------     -     ----------
 72
   65
 73
    4
 40
9.25
 49
6
 49
-1.5
 49
0.25
 49
-1.5
  0
LTYPE
  2
double-dashed_dotted
 70
   64
  3
------   -----------   -   -----
 72
   65
 73
    6
 40
16.75
 49
6
 49
-1.5
 49
6
 49
-1.5
 49
0.25
 49
-1.5
  0
LTYPE
  2
dashed_double-dotted
 70
   64
  3
---------    -    -    ---------
 72
   65
 73
    6
 40
11
 49
6
 49
-1.5
 49
0.25
 49
-1.5
 49
0.25
 49
-1.5
  0
LTYPE
  2
double-dashed_double-dotted
 70
   64
  3
-----   ---------   -   -   ----
 72
   65
 73
    8
 40
18.5
 49
6
 49
-1.5
 49
6
 49
-1.5
 49
0.25
 49
-1.5
 49
0.25
 49
-1.5
  0
LTYPE
  2
dashed_triplicate-dotted
 70
   64
  3
-------    -    -    -    ------
 72
   65
 73
    8
 40
12.75
 49
6
 49
-1.5
 49
0.25
 49
-1.5
 49
0.25
 49
-1.5
 49
0.25
 49
-1.5
  0
LTYPE
  2
double-dashed_triplicate-dotted
 70
   64
  3
-----  ---------  -  -  -  -----
 72
   65
 73
   10
 40
20.25
 49
6
 49
-1.5
 49
6
 49
-1.5
 49
0.25
 49
-1.5
 49
0.25
 49
-1.5
 49
0.25
 49
-1.5
  0
LTYPE
  2
undefined
 70
   64
  3
--------------------------------
 72
   65
 73
    0
 40
0
  0
LTYPE
  2
_
 70
   64
  3
                                
 72
   65
 73
    0
 40
0
  0
LTYPE
  2
__18
 70
   64
  3
                                
 72
   65
 73
    0
 40
0
  0
LTYPE
  2
__19
 70
   64
  3
                                
 72
   65
 73
    0
 40
0
  0
LTYPE
  2
__20
 70
   64
  3
                                
 72
   65
 73
    0
 40
0
  0
LTYPE
  2
__21
 70
   64
  3
                                
 72
   65
 73
    0
 40
0
  0
LTYPE
  2
__22
 70
   64
  3
                                
 72
   65
 73
    0
 40
0
  0
LTYPE
  2
__23
 70
   64
  3
                                
 72
   65
 73
    0
 40
0
  0
LTYPE
  2
__24
 70
   64
  3
                                
 72
   65
 73
    0
 40
0
  0
LTYPE
  2
__25
 70
   64
  3
                                
 72
   65
 73
    0
 40
0
  0
LTYPE
  2
__26
 70
   64
  3
                                
 72
   65
 73
    0
 40
0
  0
LTYPE
  2
__27
 70
   64
  3
                                
 72
   65
 73
    0
 40
0
  0
LTYPE
  2
__28
 70
   64
  3
                                
 72
   65
 73
    0
 40
0
  0
LTYPE
  2
__29
 70
   64
  3
                                
 72
   65
 73
    0
 40
0
  0
LTYPE
  2
__30
 70
   64
  3
                                
 72
   65
 73
    0
 40
0
  0
LTYPE
  2
__31
 70
   64
  3
                                
 72
   65
 73
    0
 40
0
  0
LTYPE
  2
__32
 70
   64
  3
                                
 72
   65
 73
    0
 40
0
  0
ENDTAB
  0
TABLE
  2
STYLE
  5
3
100
AcDbSymbolTable
 70
     1
  0
STYLE
  5
10
100
AcDbSymbolTableRecord
100
AcDbTextStyleTableRecord
  2
STANDARD
 70
     0
 40
0.0
 41
1.0
 50
0.0
 71
     0
 42
0.2
  3
txt
  4
bigfont.shx
  0
STYLE
  5
26
100
AcDbSymbolTableRecord
100
AcDbTextStyleTableRecord
  2
TATEGAKI
 70
    68
 40
0.0
 41
1.0
 50
0.0
 71
     0
 42
1.0
  3
txt
  4
bigfont.shx
  0
ENDTAB
  0
TABLE
  2
LAYER
 70
    4
  0
LAYER
  2
_0-0_0
 70
   64
 62
    7
  6
CONTINUOUS
  0
LAYER
  2
_0-1__BOARD
 70
   64
 62
    7
  6
CONTINUOUS
  0
LAYER
  2
_0-2__DRILL
 70
   64
 62
    7
  6
CONTINUOUS
  0
LAYER
  2
ADD_LINE
 70
   64
 62
    7
  6
CONTINUOUS
  0
ENDTAB
  0
ENDSEC
  0
SECTION
  2
BLOCKS
  0
BLOCK
  2
-000-_HOLE
 70
   64
 10
0
 20
0
 30
0
  0
CIRCLE
  8
_0-0_0
  6
CONTINUOUS
 62
    7
 10
0
 20
0
 40
1
  0
ENDBLK
  0
ENDSEC
  0
SECTION
  2
ENTITIES
  0
LINE
  8
_0-1__BOARD
  6
CONTINUOUS
 62
    3
 10
21.149999999999991
 20
4.0500000000000682
 11
39.350000000000036
 21
4.0500000000000682
  0
LINE
  8
_0-1__BOARD
  6
CONTINUOUS
 62
    3
 10
39.350000000000036
 20
4.0500000000000682
 11
39.350000000000036
 21
37.050000000000068
  0
LINE
  8
_0-1__BOARD
  6
CONTINUOUS
 62
    3
 10
39.350000000000036
 20
37.050000000000068
 11
21.149999999999991
 21
37.050000000000068
  0
LINE
  8
_0-1__BOARD
  6
CONTINUOUS
 62
    3
 10
21.149999999999991
 20
37.050000000000068
 11
21.149999999999991
 21
4.0500000000000682
  0
INSERT
  2
-000-_HOLE
  8
_0-2__DRILL
 10
37.89
 20
33.25
 41
0.4699999999999999
 42
0.4699999999999999
 50
0
  0
INSERT
  2
-000-_HOLE
  8
_0-2__DRILL
 10
37.89
 20
30.710000000000036
 41
0.4699999999999999
 42
0.4699999999999999
 50
0
  0
INSERT
  2
-000-_HOLE
  8
_0-2__DRILL
 10
37.89
 20
28.170000000000072
 41
0.4699999999999999
 42
0.4699999999999999
 50
0
  0
INSERT
  2
-000-_HOLE
  8
_0-2__DRILL
 10
37.89
 20
25.629999999999995
 41
0.4699999999999999
 42
0.4699999999999999
 50
0
  0
INSERT
  2
-000-_HOLE
  8
_0-2__DRILL
 10
37.89
 20
22.963000000000079
 41
0.4699999999999999
 42
0.4699999999999999
 50
0
  0
INSERT
  2
-000-_HOLE
  8
_0-2__DRILL
 10
37.89
 20
20.550000000000068
 41
0.4699999999999999
 42
0.4699999999999999
 50
0
  0
INSERT
  2
-000-_HOLE
  8
_0-2__DRILL
 10
37.89
 20
18.00999999999999
 41
0.4699999999999999
 42
0.4699999999999999
 50
0
  0
INSERT
  2
-000-_HOLE
  8
_0-2__DRILL
 10
37.89
 20
15.470000000000027
 41
0.4699999999999999
 42
0.4699999999999999
 50
0
  0
INSERT
  2
-000-_HOLE
  8
_0-2__DRILL
 10
37.89
 20
12.930000000000063
 41
0.4699999999999999
 42
0.4699999999999999
 50
0
  0
INSERT
  2
-000-_HOLE
  8
_0-2__DRILL
 10
37.89
 20
10.3900000000001
 41
0.4699999999999999
 42
0.4699999999999999
 50
0
  0
INSERT
  2
-000-_HOLE
  8
_0-2__DRILL
 10
37.89
 20
7.8500000000000227
 41
0.4699999999999999
 42
0.4699999999999999
 50
0
  0
INSERT
  2
-000-_HOLE
  8
_0-2__DRILL
 10
37.89
 20
5.3100000000000591
 41
0.4699999999999999
 42
0.4699999999999999
 50
0
  0
INSERT
  2
-000-_HOLE
  8
_0-2__DRILL
 10
22.649999999999991
 20
5.3100000000000591
 41
0.4699999999999999
 42
0.4699999999999999
 50
0
  0
INSERT
  2
-000-_HOLE
  8
_0-2__DRILL
 10
22.649999999999991
 20
7.8500000000000227
 41
0.4699999999999999
 42
0.4699999999999999
 50
0
  0
INSERT
  2
-000-_HOLE
  8
_0-2__DRILL
 10
22.649999999999991
 20
10.3900000000001
 41
0.4699999999999999
 42
0.4699999999999999
 50
0
  0
INSERT
  2
-000-_HOLE
  8
_0-2__DRILL
 10
22.649999999999991
 20
12.930000000000063
 41
0.4699999999999999
 42
0.4699999999999999
 50
0
  0
INSERT
  2
-000-_HOLE
  8
_0-2__DRILL
 10
22.649999999999991
 20
15.597000000000093
 41
0.4699999999999999
 42
0.4699999999999999
 50
0
  0
INSERT
  2
-000-_HOLE
  8
_0-2__DRILL
 10
22.649999999999991
 20
18.00999999999999
 41
0.4699999999999999
 42
0.4699999999999999
 50
0
  0
INSERT
  2
-000-_HOLE
  8
_0-2__DRILL
 10
22.649999999999991
 20
20.550000000000068
 41
0.4699999999999999
 42
0.4699999999999999
 50
0
  0
INSERT
  2
-000-_HOLE
  8
_0-2__DRILL
 10
22.649999999999991
 20
23.090000000000031
 41
0.4699999999999999
 42
0.4699999999999999
 50
0
  0
INSERT
  2
-000-_HOLE
  8
_0-2__DRILL
 10
22.649999999999991
 20
25.629999999999995
 41
0.4699999999999999
 42
0.4699999999999999
 50
0
  0
INSERT
  2
-000-_HOLE
  8
_0-2__DRILL
 10
22.649999999999991
 20
28.170000000000072
 41
0.4699999999999999
 42
0.4699999999999999
 50
0
  0
INSERT
  2
-000-_HOLE
  8
_0-2__DRILL
 10
22.649999999999991
 20
30.710000000000036
 41
0.4699999999999999
 42
0.4699999999999999
 50
0
  0
INSERT
  2
-000-_HOLE
  8
_0-2__DRILL
 10
22.649999999999991
 20
33.25
 41
0.4699999999999999
 42
0.4699999999999999
 50
0
  0
LINE
  8
_0-0_0
  6
CONTINUOUS
 62
    4
 10
21.149999999999991
 20
39.066518847006648
 11
39.350000000000036
 21
39.066518847006648
  0
POINT
  8
_0-0_0
 62
    4
 10
21.149999999999991
 20
39.066518847006648
  0
POINT
  8
_0-0_0
 62
    4
 10
39.350000000000036
 20
39.066518847006648
  0
LINE
  8
_0-0_0
  6
CONTINUOUS
 62
    4
 10
21.149999999999991
 20
39.066518847006648
 11
21.149999999999991
 21
37.85587583148559
  0
LINE
  8
_0-0_0
  6
CONTINUOUS
 62
    4
 10
39.350000000000036
 20
39.066518847006648
 11
39.350000000000036
 21
37.85587583148559
  0
TEXT
  8
_0-0_0
 62
    7
 10
29.375000000000014
 20
39.166518847006649
 40
0.8
 41
1
 50
0
  1
18.2
  0
LINE
  8
_0-0_0
  6
CONTINUOUS
 62
    4
 10
18.571396895787142
 20
37.050000000000068
 11
18.571396895787138
 21
4.0500000000000708
  0
POINT
  8
_0-0_0
 62
    4
 10
18.571396895787142
 20
37.050000000000068
  0
POINT
  8
_0-0_0
 62
    4
 10
18.571396895787138
 20
4.0500000000000708
  0
LINE
  8
_0-0_0
  6
CONTINUOUS
 62
    4
 10
18.571396895787142
 20
37.050000000000068
 11
20.340798226164082
 21
37.050000000000068
  0
LINE
  8
_0-0_0
  6
CONTINUOUS
 62
    4
 10
18.571396895787138
 20
4.0500000000000708
 11
20.340798226164078
 21
4.0500000000000708
  0
TEXT
  8
_0-0_0
 62
    7
 10
18.47139689578714
 20
20.125000000000071
 40
0.8
 41
1
 50
90
  1
33
  0
ENDSEC
  0
EOF
