G04 DesignSpark PCB Gerber Version 13.0 Build *
%FSLAX35Y35*%
%MOMM*%
%ADD19C,1.45240*%
%AMT70*0 Bullet Pad at angle 90*21,1,1.45240,2.02620,0,0,90*%
%ADD70T70*%
%AMT18*0 Bullet Pad at angle 270*21,1,1.45240,2.02620,0,0,270*%
%ADD18T18*%
X0Y0D02*
D02*
D18*
X533690Y426000D03*
D02*
D19*
X635000D03*
D02*
D18*
X533690Y680000D03*
D02*
D19*
X635000D03*
D02*
D18*
X533690Y934000D03*
D02*
D19*
X635000D03*
D02*
D18*
X533690Y1188000D03*
D02*
D19*
X635000D03*
D02*
D18*
X533690Y1454700D03*
D02*
D19*
X635000D03*
D02*
D18*
X533690Y1696000D03*
D02*
D19*
X635000D03*
D02*
D18*
X533690Y1950000D03*
D02*
D19*
X635000D03*
D02*
D18*
X533690Y2204000D03*
D02*
D19*
X635000D03*
D02*
D18*
X533690Y2458000D03*
D02*
D19*
X635000D03*
D02*
D18*
X533690Y2712000D03*
D02*
D19*
X635000D03*
D02*
D18*
X533690Y2966000D03*
D02*
D19*
X635000D03*
D02*
D18*
X533690Y3220000D03*
D02*
D19*
X635000D03*
D02*
D70*
X2130310Y426000D03*
D02*
D19*
X2029000D03*
D02*
D70*
X2130310Y680000D03*
D02*
D19*
X2029000D03*
D02*
D70*
X2130310Y934000D03*
D02*
D19*
X2029000D03*
D02*
D70*
X2130310Y1188000D03*
D02*
D19*
X2029000D03*
D02*
D70*
X2130310Y1442000D03*
D02*
D19*
X2029000D03*
D02*
D70*
X2130310Y1696000D03*
D02*
D19*
X2029000D03*
D02*
D70*
X2130310Y1950000D03*
D02*
D19*
X2029000D03*
D02*
D70*
X2130310Y2191300D03*
D02*
D19*
X2029000D03*
D02*
D70*
X2130310Y2458000D03*
D02*
D19*
X2029000D03*
D02*
D70*
X2130310Y2712000D03*
D02*
D19*
X2029000D03*
D02*
D70*
X2130310Y2966000D03*
D02*
D19*
X2029000D03*
D02*
D70*
X2130310Y3220000D03*
D02*
D19*
X2029000D03*
X0Y0D02*
M02*
