G04 DesignSpark PCB Gerber Version 13.0 Build *
%FSLAX35Y35*%
%MOMM*%
%ADD71C,0.02540*%
%ADD10C,0.12700*%
X0Y0D02*
D02*
D10*
X956500Y2531600D02*
Y2201400D01*
X1020000D01*
Y2099800D01*
X956500D01*
Y1769600D01*
X1464500D01*
Y2531600D01*
X956500D01*
X1690800Y2270800D02*
Y2004100D01*
X1589200D01*
Y2270800D01*
X1690800D01*
X1650620Y1869690D02*
X1658560Y1861750D01*
X1674440Y1853810D01*
X1698250D01*
X1714120Y1861750D01*
X1722060Y1869690D01*
X1730000Y1885560D01*
Y1917310D01*
X1722060Y1933190D01*
X1714120Y1941130D01*
X1698250Y1949060D01*
X1674440D01*
X1658560Y1941130D01*
X1650620Y1933190D01*
X1587120Y1853810D02*
X1555370D01*
X1571250D02*
Y1949060D01*
X1587120Y1933190D01*
D02*
D71*
X1696670Y3286740D02*
X1678350D01*
Y3215780D01*
X1678280Y3212910D01*
X1678010Y3210110D01*
X1677600Y3207510D01*
X1677050Y3205050D01*
X1676370Y3202790D01*
X1675480Y3200610D01*
X1674450Y3198620D01*
X1673220Y3196780D01*
X1672200Y3195480D01*
X1671100Y3194250D01*
X1670010Y3193150D01*
X1668780Y3192060D01*
X1667550Y3191100D01*
X1666250Y3190210D01*
X1664880Y3189460D01*
X1663450Y3188710D01*
X1661940Y3188100D01*
X1660370Y3187550D01*
X1658730Y3187070D01*
X1657090Y3186730D01*
X1655310Y3186390D01*
X1653540Y3186180D01*
X1651690Y3186110D01*
X1649780Y3186040D01*
X1647660Y3186110D01*
X1645610Y3186250D01*
X1643620Y3186460D01*
X1641780Y3186800D01*
X1639930Y3187280D01*
X1638220Y3187820D01*
X1636510Y3188440D01*
X1634940Y3189190D01*
X1633440Y3190010D01*
X1632000Y3190970D01*
X1630700Y3191990D01*
X1629400Y3193150D01*
X1628240Y3194380D01*
X1627080Y3195750D01*
X1626050Y3197190D01*
X1625100Y3198690D01*
X1624210Y3200400D01*
X1623390Y3202250D01*
X1622710Y3204230D01*
X1622160Y3206280D01*
X1621750Y3208540D01*
X1621470Y3210790D01*
X1621270Y3213250D01*
X1621200Y3215780D01*
Y3286740D01*
X1602880D01*
Y3212710D01*
X1603020Y3208810D01*
X1603430Y3205050D01*
X1604040Y3201490D01*
X1604930Y3198140D01*
X1606090Y3195000D01*
X1607530Y3191990D01*
X1609240Y3189190D01*
X1611150Y3186520D01*
X1612790Y3184610D01*
X1614570Y3182760D01*
X1616420Y3181050D01*
X1618400Y3179550D01*
X1620450Y3178120D01*
X1622640Y3176750D01*
X1624890Y3175590D01*
X1627290Y3174490D01*
X1629750Y3173600D01*
X1632340Y3172780D01*
X1635010Y3172100D01*
X1637740Y3171550D01*
X1640620Y3171070D01*
X1643620Y3170800D01*
X1646700Y3170600D01*
X1649840Y3170530D01*
X1652990Y3170600D01*
X1656060Y3170800D01*
X1659000Y3171070D01*
X1661810Y3171550D01*
X1664610Y3172100D01*
X1667280Y3172780D01*
X1669800Y3173600D01*
X1672270Y3174490D01*
X1674590Y3175590D01*
X1676910Y3176750D01*
X1679030Y3178120D01*
X1681080Y3179550D01*
X1683070Y3181050D01*
X1684980Y3182760D01*
X1686690Y3184610D01*
X1688400Y3186520D01*
X1690310Y3189120D01*
X1692020Y3191920D01*
X1693460Y3194930D01*
X1694620Y3198140D01*
X1695510Y3201490D01*
X1696120Y3205050D01*
X1696530Y3208810D01*
X1696670Y3212710D01*
Y3286740D01*
X1576900D02*
X1537050D01*
X1532610Y3286670D01*
X1528510Y3286330D01*
X1524540Y3285850D01*
X1520850Y3285170D01*
X1517430Y3284280D01*
X1514290Y3283180D01*
X1511280Y3281950D01*
X1508610Y3280450D01*
X1506900Y3279360D01*
X1505260Y3278120D01*
X1503760Y3276890D01*
X1502390Y3275660D01*
X1501090Y3274300D01*
X1499930Y3272860D01*
X1498840Y3271430D01*
X1497880Y3269920D01*
X1497060Y3268350D01*
X1496310Y3266710D01*
X1495690Y3265000D01*
X1495210Y3263220D01*
X1494800Y3261450D01*
X1494530Y3259530D01*
X1494390Y3257620D01*
X1494330Y3255630D01*
X1494390Y3253860D01*
X1494530Y3252150D01*
X1494740Y3250510D01*
X1495010Y3248870D01*
X1495420Y3247290D01*
X1495900Y3245790D01*
X1496450Y3244360D01*
X1497130Y3242920D01*
X1497880Y3241550D01*
X1498700Y3240250D01*
X1499590Y3239020D01*
X1500620Y3237790D01*
X1501710Y3236700D01*
X1502940Y3235610D01*
X1504170Y3234510D01*
X1505540Y3233550D01*
X1507380Y3232390D01*
X1509430Y3231300D01*
X1511550Y3230270D01*
X1513880Y3229380D01*
X1516410Y3228630D01*
X1519070Y3227880D01*
X1521870Y3227270D01*
X1524810Y3226790D01*
Y3226380D01*
X1523520Y3225970D01*
X1522290Y3225420D01*
X1521050Y3224870D01*
X1519820Y3224190D01*
X1518590Y3223510D01*
X1517430Y3222690D01*
X1516270Y3221870D01*
X1515110Y3220910D01*
X1514010Y3219950D01*
X1512920Y3218860D01*
X1511830Y3217700D01*
X1510800Y3216530D01*
X1509780Y3215230D01*
X1508750Y3213870D01*
X1507720Y3212500D01*
X1506770Y3211000D01*
X1505740Y3209360D01*
X1504650Y3207650D01*
X1503550Y3205800D01*
X1502460Y3203890D01*
X1501300Y3201840D01*
X1500140Y3199720D01*
X1498910Y3197530D01*
X1497610Y3195210D01*
X1496310Y3192810D01*
X1495010Y3190280D01*
X1493640Y3187750D01*
X1492280Y3185020D01*
X1490840Y3182290D01*
X1489340Y3179350D01*
X1487830Y3176410D01*
X1486330Y3173330D01*
X1508200D01*
X1509780Y3176950D01*
X1511350Y3180440D01*
X1512850Y3183790D01*
X1514290Y3186930D01*
X1515720Y3189870D01*
X1517090Y3192680D01*
X1518390Y3195340D01*
X1519690Y3197800D01*
X1520920Y3200060D01*
X1522080Y3202180D01*
X1523170Y3204160D01*
X1524270Y3205940D01*
X1525290Y3207510D01*
X1526250Y3208950D01*
X1527210Y3210240D01*
X1528100Y3211340D01*
X1529120Y3212430D01*
X1530150Y3213530D01*
X1531240Y3214480D01*
X1532400Y3215370D01*
X1533560Y3216260D01*
X1534790Y3217010D01*
X1536090Y3217700D01*
X1537390Y3218310D01*
X1538760Y3218860D01*
X1540200Y3219340D01*
X1541630Y3219750D01*
X1543130Y3220020D01*
X1544640Y3220290D01*
X1546210Y3220500D01*
X1547850Y3220570D01*
X1549490Y3220630D01*
X1558720D01*
Y3173330D01*
X1576900D01*
Y3286740D01*
X1558720Y3272450D02*
Y3234650D01*
X1542180D01*
X1539240Y3234720D01*
X1536370Y3234920D01*
X1533770Y3235260D01*
X1531240Y3235740D01*
X1528920Y3236360D01*
X1526660Y3237040D01*
X1524680Y3237930D01*
X1522760Y3238960D01*
X1521670Y3239640D01*
X1520640Y3240390D01*
X1519690Y3241140D01*
X1518800Y3241960D01*
X1517980Y3242780D01*
X1517230Y3243670D01*
X1516540Y3244630D01*
X1515930Y3245590D01*
X1515380Y3246540D01*
X1514970Y3247570D01*
X1514560Y3248660D01*
X1514220Y3249760D01*
X1514010Y3250920D01*
X1513810Y3252150D01*
X1513670Y3253310D01*
Y3254610D01*
X1513810Y3256800D01*
X1514080Y3258780D01*
X1514630Y3260690D01*
X1515380Y3262400D01*
X1516340Y3264040D01*
X1517500Y3265480D01*
X1518870Y3266780D01*
X1520440Y3268010D01*
X1522290Y3269030D01*
X1524270Y3269920D01*
X1526520Y3270670D01*
X1528920Y3271360D01*
X1531580Y3271840D01*
X1534450Y3272180D01*
X1537530Y3272380D01*
X1540810Y3272450D01*
X1558720D01*
X1469370Y3286740D02*
X1432730D01*
X1428560Y3286670D01*
X1424670Y3286460D01*
X1420980Y3286190D01*
X1417490Y3285710D01*
X1414280Y3285170D01*
X1411340Y3284480D01*
X1408600Y3283730D01*
X1406140Y3282770D01*
X1403960Y3281820D01*
X1401970Y3280790D01*
X1400060Y3279630D01*
X1398350Y3278470D01*
X1396710Y3277240D01*
X1395270Y3275870D01*
X1393970Y3274430D01*
X1392740Y3273000D01*
X1391720Y3271430D01*
X1390830Y3269790D01*
X1390010Y3268080D01*
X1389390Y3266300D01*
X1388920Y3264380D01*
X1388570Y3262470D01*
X1388370Y3260490D01*
X1388300Y3258370D01*
X1388440Y3255700D01*
X1388710Y3253170D01*
X1389260Y3250780D01*
X1390010Y3248460D01*
X1390970Y3246340D01*
X1392130Y3244290D01*
X1393560Y3242370D01*
X1395140Y3240600D01*
X1396850Y3239020D01*
X1398760Y3237590D01*
X1400740Y3236360D01*
X1402930Y3235200D01*
X1405190Y3234310D01*
X1407580Y3233490D01*
X1410180Y3232870D01*
X1412840Y3232390D01*
Y3231910D01*
X1409830Y3231300D01*
X1407030Y3230620D01*
X1404370Y3229860D01*
X1401840Y3228910D01*
X1399440Y3227950D01*
X1397260Y3226790D01*
X1395210Y3225560D01*
X1393360Y3224260D01*
X1392200Y3223300D01*
X1391170Y3222340D01*
X1390150Y3221320D01*
X1389260Y3220290D01*
X1388440Y3219200D01*
X1387620Y3218110D01*
X1386930Y3216940D01*
X1386320Y3215710D01*
X1385770Y3214480D01*
X1385290Y3213250D01*
X1384880Y3211950D01*
X1384610Y3210590D01*
X1384340Y3209220D01*
X1384130Y3207780D01*
X1384060Y3206350D01*
X1383990Y3204840D01*
X1384060Y3202860D01*
X1384200Y3200880D01*
X1384470Y3199030D01*
X1384880Y3197190D01*
X1385360Y3195410D01*
X1385980Y3193700D01*
X1386660Y3192060D01*
X1387480Y3190490D01*
X1388440Y3188980D01*
X1389460Y3187480D01*
X1390620Y3186110D01*
X1391920Y3184750D01*
X1393290Y3183450D01*
X1394790Y3182220D01*
X1396370Y3180990D01*
X1398080Y3179890D01*
X1400880Y3178320D01*
X1403960Y3177020D01*
X1407300Y3175860D01*
X1410860Y3174970D01*
X1414760Y3174220D01*
X1418860Y3173740D01*
X1423300Y3173400D01*
X1427950Y3173330D01*
X1469370D01*
Y3286740D01*
X1451600Y3272720D02*
Y3239370D01*
X1435670D01*
X1432260Y3239430D01*
X1429110Y3239640D01*
X1426170Y3239980D01*
X1423440Y3240390D01*
X1420910Y3241010D01*
X1418580Y3241690D01*
X1416530Y3242580D01*
X1414620Y3243540D01*
X1412980Y3244630D01*
X1411610Y3245930D01*
X1410380Y3247290D01*
X1409420Y3248800D01*
X1408600Y3250440D01*
X1408060Y3252220D01*
X1407780Y3254060D01*
X1407650Y3256110D01*
Y3257210D01*
X1407780Y3258300D01*
X1407990Y3259330D01*
X1408190Y3260350D01*
X1408540Y3261310D01*
X1408950Y3262270D01*
X1409360Y3263150D01*
X1409900Y3264040D01*
X1410520Y3264860D01*
X1411200Y3265680D01*
X1411950Y3266440D01*
X1412770Y3267120D01*
X1413660Y3267800D01*
X1414620Y3268490D01*
X1415640Y3269100D01*
X1416740Y3269650D01*
X1418380Y3270330D01*
X1420220Y3271020D01*
X1422210Y3271490D01*
X1424390Y3271970D01*
X1426720Y3272310D01*
X1429250Y3272520D01*
X1431910Y3272660D01*
X1434790Y3272720D01*
X1451600D01*
Y3225210D02*
Y3187620D01*
X1431850D01*
X1428910Y3187690D01*
X1426170Y3187820D01*
X1423640Y3188100D01*
X1421250Y3188510D01*
X1418990Y3188980D01*
X1416940Y3189600D01*
X1415030Y3190280D01*
X1413320Y3191100D01*
X1412160Y3191720D01*
X1411130Y3192470D01*
X1410110Y3193150D01*
X1409220Y3193910D01*
X1408330Y3194730D01*
X1407580Y3195620D01*
X1406890Y3196500D01*
X1406210Y3197390D01*
X1405660Y3198350D01*
X1405190Y3199370D01*
X1404780Y3200400D01*
X1404500Y3201490D01*
X1404230Y3202590D01*
X1404020Y3203750D01*
X1403960Y3204980D01*
X1403890Y3206210D01*
X1403960Y3207580D01*
X1404090Y3208880D01*
X1404300Y3210110D01*
X1404640Y3211340D01*
X1405120Y3212500D01*
X1405660Y3213590D01*
X1406280Y3214690D01*
X1406960Y3215710D01*
X1407850Y3216670D01*
X1408740Y3217630D01*
X1409770Y3218520D01*
X1410860Y3219340D01*
X1412090Y3220090D01*
X1413390Y3220840D01*
X1414820Y3221520D01*
X1416330Y3222210D01*
X1418310Y3222890D01*
X1420360Y3223510D01*
X1422550Y3224050D01*
X1424800Y3224460D01*
X1427270Y3224800D01*
X1429790Y3225010D01*
X1432460Y3225150D01*
X1435200Y3225210D01*
X1451600D01*
X1314880Y3286740D02*
X1278240D01*
X1274070Y3286670D01*
X1270180Y3286460D01*
X1266480Y3286190D01*
X1263000Y3285710D01*
X1259790Y3285170D01*
X1256850Y3284480D01*
X1254110Y3283730D01*
X1251650Y3282770D01*
X1249460Y3281820D01*
X1247480Y3280790D01*
X1245570Y3279630D01*
X1243860Y3278470D01*
X1242220Y3277240D01*
X1240780Y3275870D01*
X1239480Y3274430D01*
X1238250Y3273000D01*
X1237230Y3271430D01*
X1236340Y3269790D01*
X1235520Y3268080D01*
X1234900Y3266300D01*
X1234420Y3264380D01*
X1234080Y3262470D01*
X1233880Y3260490D01*
X1233810Y3258370D01*
X1233950Y3255700D01*
X1234220Y3253170D01*
X1234770Y3250780D01*
X1235520Y3248460D01*
X1236470Y3246340D01*
X1237640Y3244290D01*
X1239070Y3242370D01*
X1240640Y3240600D01*
X1242350Y3239020D01*
X1244270Y3237590D01*
X1246250Y3236360D01*
X1248440Y3235200D01*
X1250690Y3234310D01*
X1253090Y3233490D01*
X1255680Y3232870D01*
X1258350Y3232390D01*
Y3231910D01*
X1255340Y3231300D01*
X1252540Y3230620D01*
X1249870Y3229860D01*
X1247340Y3228910D01*
X1244950Y3227950D01*
X1242760Y3226790D01*
X1240710Y3225560D01*
X1238870Y3224260D01*
X1237710Y3223300D01*
X1236680Y3222340D01*
X1235650Y3221320D01*
X1234770Y3220290D01*
X1233950Y3219200D01*
X1233120Y3218110D01*
X1232440Y3216940D01*
X1231830Y3215710D01*
X1231280Y3214480D01*
X1230800Y3213250D01*
X1230390Y3211950D01*
X1230120Y3210590D01*
X1229840Y3209220D01*
X1229640Y3207780D01*
X1229570Y3206350D01*
X1229500Y3204840D01*
X1229570Y3202860D01*
X1229710Y3200880D01*
X1229980Y3199030D01*
X1230390Y3197190D01*
X1230870Y3195410D01*
X1231480Y3193700D01*
X1232170Y3192060D01*
X1232990Y3190490D01*
X1233950Y3188980D01*
X1234970Y3187480D01*
X1236130Y3186110D01*
X1237430Y3184750D01*
X1238800Y3183450D01*
X1240300Y3182220D01*
X1241870Y3180990D01*
X1243580Y3179890D01*
X1246390Y3178320D01*
X1249460Y3177020D01*
X1252810Y3175860D01*
X1256370Y3174970D01*
X1260260Y3174220D01*
X1264370Y3173740D01*
X1268810Y3173400D01*
X1273460Y3173330D01*
X1314880D01*
Y3286740D01*
X1297110Y3272720D02*
Y3239370D01*
X1281180D01*
X1277760Y3239430D01*
X1274620Y3239640D01*
X1271680Y3239980D01*
X1268950Y3240390D01*
X1266420Y3241010D01*
X1264090Y3241690D01*
X1262040Y3242580D01*
X1260130Y3243540D01*
X1258490Y3244630D01*
X1257120Y3245930D01*
X1255890Y3247290D01*
X1254930Y3248800D01*
X1254110Y3250440D01*
X1253560Y3252220D01*
X1253290Y3254060D01*
X1253150Y3256110D01*
Y3257210D01*
X1253290Y3258300D01*
X1253500Y3259330D01*
X1253700Y3260350D01*
X1254040Y3261310D01*
X1254450Y3262270D01*
X1254860Y3263150D01*
X1255410Y3264040D01*
X1256030Y3264860D01*
X1256710Y3265680D01*
X1257460Y3266440D01*
X1258280Y3267120D01*
X1259170Y3267800D01*
X1260130Y3268490D01*
X1261150Y3269100D01*
X1262250Y3269650D01*
X1263890Y3270330D01*
X1265730Y3271020D01*
X1267710Y3271490D01*
X1269900Y3271970D01*
X1272230Y3272310D01*
X1274760Y3272520D01*
X1277420Y3272660D01*
X1280290Y3272720D01*
X1297110D01*
Y3225210D02*
Y3187620D01*
X1277350D01*
X1274410Y3187690D01*
X1271680Y3187820D01*
X1269150Y3188100D01*
X1266760Y3188510D01*
X1264500Y3188980D01*
X1262450Y3189600D01*
X1260540Y3190280D01*
X1258830Y3191100D01*
X1257670Y3191720D01*
X1256640Y3192470D01*
X1255620Y3193150D01*
X1254730Y3193910D01*
X1253840Y3194730D01*
X1253090Y3195620D01*
X1252400Y3196500D01*
X1251720Y3197390D01*
X1251170Y3198350D01*
X1250690Y3199370D01*
X1250280Y3200400D01*
X1250010Y3201490D01*
X1249740Y3202590D01*
X1249530Y3203750D01*
X1249460Y3204980D01*
X1249390Y3206210D01*
X1249460Y3207580D01*
X1249600Y3208880D01*
X1249800Y3210110D01*
X1250150Y3211340D01*
X1250620Y3212500D01*
X1251170Y3213590D01*
X1251790Y3214690D01*
X1252470Y3215710D01*
X1253360Y3216670D01*
X1254250Y3217630D01*
X1255270Y3218520D01*
X1256370Y3219340D01*
X1257600Y3220090D01*
X1258900Y3220840D01*
X1260330Y3221520D01*
X1261840Y3222210D01*
X1263820Y3222890D01*
X1265870Y3223510D01*
X1268060Y3224050D01*
X1270310Y3224460D01*
X1272770Y3224800D01*
X1275300Y3225010D01*
X1277970Y3225150D01*
X1280700Y3225210D01*
X1297110D01*
X1205990Y3293030D02*
X1187530D01*
Y3190830D01*
X1187460Y3190080D01*
X1187320Y3189390D01*
X1187050Y3188850D01*
X1186710Y3188440D01*
X1186300Y3188100D01*
X1185750Y3187820D01*
X1185070Y3187690D01*
X1184320Y3187620D01*
X1172970D01*
X1174950Y3173330D01*
X1190470D01*
X1193070Y3173470D01*
X1195390Y3173810D01*
X1197510Y3174420D01*
X1199420Y3175310D01*
X1200930Y3176270D01*
X1202290Y3177430D01*
X1203390Y3178730D01*
X1204350Y3180230D01*
X1205030Y3181940D01*
X1205580Y3183790D01*
X1205850Y3185840D01*
X1205990Y3188030D01*
Y3293030D01*
X1121430Y3258570D02*
X1119100Y3258510D01*
X1116850Y3258370D01*
X1114590Y3258100D01*
X1112400Y3257750D01*
X1110280Y3257340D01*
X1108230Y3256800D01*
X1106250Y3256110D01*
X1104270Y3255360D01*
X1102350Y3254540D01*
X1100510Y3253580D01*
X1098660Y3252560D01*
X1096880Y3251400D01*
X1095180Y3250100D01*
X1093540Y3248800D01*
X1091960Y3247360D01*
X1090390Y3245790D01*
X1088960Y3244220D01*
X1087660Y3242650D01*
X1086430Y3241010D01*
X1085330Y3239300D01*
X1084240Y3237520D01*
X1083280Y3235740D01*
X1082460Y3233830D01*
X1081640Y3231910D01*
X1080960Y3229930D01*
X1080410Y3227880D01*
X1079930Y3225830D01*
X1079520Y3223710D01*
X1079180Y3221460D01*
X1078970Y3219200D01*
X1078840Y3216940D01*
X1078770Y3214550D01*
X1078840Y3212290D01*
X1078910Y3210040D01*
X1079110Y3207920D01*
X1079380Y3205800D01*
X1079790Y3203750D01*
X1080210Y3201700D01*
X1080750Y3199720D01*
X1081370Y3197800D01*
X1082050Y3195960D01*
X1082800Y3194180D01*
X1083690Y3192400D01*
X1084580Y3190690D01*
X1085610Y3188980D01*
X1086700Y3187410D01*
X1087930Y3185840D01*
X1089160Y3184340D01*
X1090730Y3182700D01*
X1092300Y3181120D01*
X1094010Y3179620D01*
X1095720Y3178320D01*
X1097570Y3177020D01*
X1099410Y3175930D01*
X1101330Y3174900D01*
X1103380Y3173950D01*
X1105430Y3173190D01*
X1107550Y3172440D01*
X1109740Y3171890D01*
X1111990Y3171420D01*
X1114320Y3171010D01*
X1116710Y3170730D01*
X1119100Y3170600D01*
X1121630Y3170530D01*
X1124230Y3170600D01*
X1126690Y3170730D01*
X1129150Y3171010D01*
X1131540Y3171420D01*
X1133870Y3171960D01*
X1136050Y3172580D01*
X1138240Y3173330D01*
X1140360Y3174150D01*
X1142410Y3175180D01*
X1144330Y3176270D01*
X1146240Y3177430D01*
X1148090Y3178730D01*
X1149860Y3180170D01*
X1151500Y3181740D01*
X1153140Y3183380D01*
X1154720Y3185160D01*
X1155880Y3186660D01*
X1156970Y3188160D01*
X1158000Y3189740D01*
X1158960Y3191380D01*
X1159840Y3193090D01*
X1160600Y3194790D01*
X1161350Y3196570D01*
X1161960Y3198350D01*
X1162580Y3200260D01*
X1163060Y3202180D01*
X1163470Y3204090D01*
X1163810Y3206070D01*
X1164080Y3208120D01*
X1164290Y3210240D01*
X1164360Y3212360D01*
X1164420Y3214550D01*
X1164360Y3217560D01*
X1164150Y3220500D01*
X1163810Y3223300D01*
X1163260Y3226040D01*
X1162650Y3228700D01*
X1161830Y3231230D01*
X1160940Y3233690D01*
X1159840Y3236020D01*
X1158610Y3238270D01*
X1157310Y3240390D01*
X1155810Y3242440D01*
X1154170Y3244420D01*
X1152390Y3246270D01*
X1150480Y3248050D01*
X1148360Y3249760D01*
X1146170Y3251330D01*
X1143440Y3253040D01*
X1140570Y3254470D01*
X1137630Y3255770D01*
X1134550Y3256730D01*
X1131410Y3257550D01*
X1128190Y3258100D01*
X1124840Y3258440D01*
X1121430Y3258570D01*
X1121700Y3244560D02*
X1123680Y3244490D01*
X1125600Y3244220D01*
X1127440Y3243810D01*
X1129290Y3243190D01*
X1131060Y3242370D01*
X1132770Y3241420D01*
X1134410Y3240320D01*
X1136050Y3239020D01*
X1137220Y3237930D01*
X1138310Y3236840D01*
X1139270Y3235670D01*
X1140220Y3234440D01*
X1141040Y3233080D01*
X1141870Y3231710D01*
X1142550Y3230270D01*
X1143160Y3228770D01*
X1143710Y3227270D01*
X1144190Y3225620D01*
X1144600Y3223920D01*
X1144940Y3222210D01*
X1145210Y3220360D01*
X1145420Y3218520D01*
X1145490Y3216530D01*
X1145560Y3214550D01*
X1145490Y3212640D01*
X1145420Y3210790D01*
X1145210Y3209010D01*
X1144940Y3207240D01*
X1144670Y3205600D01*
X1144260Y3203890D01*
X1143780Y3202310D01*
X1143230Y3200740D01*
X1142000Y3197940D01*
X1140500Y3195340D01*
X1138790Y3193020D01*
X1136810Y3190970D01*
X1135170Y3189600D01*
X1133460Y3188370D01*
X1131680Y3187410D01*
X1129830Y3186520D01*
X1127850Y3185910D01*
X1125800Y3185430D01*
X1123680Y3185160D01*
X1121490Y3185090D01*
X1119990Y3185160D01*
X1118550Y3185220D01*
X1117190Y3185430D01*
X1115820Y3185700D01*
X1114520Y3186040D01*
X1113290Y3186520D01*
X1112060Y3187000D01*
X1110830Y3187620D01*
X1109670Y3188230D01*
X1108570Y3188980D01*
X1107550Y3189800D01*
X1106520Y3190760D01*
X1105500Y3191720D01*
X1104610Y3192740D01*
X1103720Y3193910D01*
X1102830Y3195140D01*
X1101600Y3197190D01*
X1100580Y3199310D01*
X1099690Y3201560D01*
X1098940Y3203960D01*
X1098390Y3206420D01*
X1097980Y3209010D01*
X1097710Y3211750D01*
X1097640Y3214620D01*
X1097770Y3217900D01*
X1098050Y3221040D01*
X1098590Y3223980D01*
X1099350Y3226790D01*
X1100370Y3229450D01*
X1101530Y3231910D01*
X1102970Y3234240D01*
X1104610Y3236430D01*
X1106390Y3238340D01*
X1108230Y3239980D01*
X1110210Y3241350D01*
X1112270Y3242510D01*
X1114450Y3243400D01*
X1116780Y3244010D01*
X1119170Y3244420D01*
X1121700Y3244560D01*
X987440Y3186040D02*
X989220Y3184130D01*
X991000Y3182420D01*
X992910Y3180780D01*
X994890Y3179280D01*
X996940Y3177840D01*
X999060Y3176610D01*
X1001250Y3175450D01*
X1003510Y3174420D01*
X1005830Y3173470D01*
X1008290Y3172710D01*
X1010750Y3172030D01*
X1013350Y3171480D01*
X1015950Y3171070D01*
X1018680Y3170800D01*
X1021420Y3170600D01*
X1024290Y3170530D01*
X1027090Y3170600D01*
X1029820Y3170800D01*
X1032490Y3171070D01*
X1035020Y3171480D01*
X1037550Y3172100D01*
X1039870Y3172710D01*
X1042200Y3173540D01*
X1044380Y3174490D01*
X1046500Y3175520D01*
X1048490Y3176680D01*
X1050470Y3177980D01*
X1052250Y3179410D01*
X1054020Y3180920D01*
X1055660Y3182630D01*
X1057240Y3184400D01*
X1058740Y3186320D01*
X1060650Y3189190D01*
X1062290Y3192200D01*
X1063660Y3195410D01*
X1064760Y3198830D01*
X1065640Y3202380D01*
X1066330Y3206070D01*
X1066670Y3209970D01*
X1066810Y3214000D01*
X1066740Y3216190D01*
X1066670Y3218310D01*
X1066460Y3220360D01*
X1066190Y3222410D01*
X1065850Y3224390D01*
X1065440Y3226310D01*
X1064960Y3228290D01*
X1064410Y3230140D01*
X1063730Y3231980D01*
X1063050Y3233760D01*
X1062230Y3235540D01*
X1061410Y3237250D01*
X1060450Y3238890D01*
X1059420Y3240530D01*
X1058330Y3242100D01*
X1057170Y3243670D01*
X1055660Y3245450D01*
X1054090Y3247160D01*
X1052450Y3248730D01*
X1050740Y3250170D01*
X1048960Y3251530D01*
X1047120Y3252760D01*
X1045210Y3253860D01*
X1043290Y3254810D01*
X1041240Y3255700D01*
X1039190Y3256460D01*
X1037000Y3257140D01*
X1034810Y3257620D01*
X1032560Y3258030D01*
X1030230Y3258370D01*
X1027840Y3258510D01*
X1025380Y3258570D01*
X1022850Y3258510D01*
X1020390Y3258370D01*
X1017930Y3258160D01*
X1015540Y3257820D01*
X1013210Y3257340D01*
X1010960Y3256800D01*
X1008700Y3256180D01*
X1006510Y3255430D01*
X1004390Y3254610D01*
X1002340Y3253720D01*
X1000290Y3252700D01*
X998310Y3251600D01*
X996400Y3250370D01*
X994550Y3249070D01*
X992710Y3247640D01*
X990930Y3246130D01*
X999880Y3233490D01*
X1001250Y3234790D01*
X1002620Y3235950D01*
X1003980Y3237040D01*
X1005420Y3238070D01*
X1006860Y3239020D01*
X1008290Y3239910D01*
X1009790Y3240660D01*
X1011230Y3241350D01*
X1012730Y3241960D01*
X1014240Y3242510D01*
X1015810Y3242990D01*
X1017380Y3243330D01*
X1018890Y3243670D01*
X1020530Y3243880D01*
X1022100Y3243950D01*
X1023740Y3244010D01*
X1025180Y3243950D01*
X1026610Y3243880D01*
X1028050Y3243670D01*
X1029350Y3243400D01*
X1030640Y3243060D01*
X1031940Y3242650D01*
X1033170Y3242170D01*
X1034340Y3241620D01*
X1035500Y3241010D01*
X1036590Y3240320D01*
X1037620Y3239500D01*
X1038640Y3238680D01*
X1039670Y3237720D01*
X1040560Y3236770D01*
X1041450Y3235670D01*
X1042330Y3234510D01*
X1043630Y3232390D01*
X1044790Y3230210D01*
X1045750Y3227880D01*
X1046500Y3225420D01*
X1047120Y3222820D01*
X1047600Y3220090D01*
X1047870Y3217220D01*
X1047940Y3214210D01*
X1047870Y3211130D01*
X1047600Y3208190D01*
X1047120Y3205390D01*
X1046500Y3202790D01*
X1045680Y3200330D01*
X1044660Y3198080D01*
X1043500Y3195890D01*
X1042130Y3193910D01*
X1040350Y3191920D01*
X1038440Y3190150D01*
X1036390Y3188710D01*
X1034060Y3187480D01*
X1031600Y3186590D01*
X1029000Y3185910D01*
X1026200Y3185500D01*
X1023190Y3185360D01*
X1021350Y3185430D01*
X1019570Y3185570D01*
X1017790Y3185770D01*
X1016080Y3186110D01*
X1014370Y3186590D01*
X1012730Y3187070D01*
X1011160Y3187690D01*
X1009590Y3188440D01*
X1008090Y3189260D01*
X1006650Y3190150D01*
X1005210Y3191170D01*
X1003780Y3192270D01*
X1002480Y3193500D01*
X1001110Y3194790D01*
X999880Y3196160D01*
X998650Y3197670D01*
X987440Y3186040D01*
X969740Y3293030D02*
X951550D01*
Y3223300D01*
X919900Y3255910D01*
X896520D01*
X928170Y3223710D01*
X893450Y3173330D01*
X915870D01*
X940340Y3213180D01*
X951550Y3202590D01*
Y3173330D01*
X969740D01*
Y3293030D01*
X1011360Y3171900D02*
X1036730D01*
X1109740D02*
X1133610D01*
X1636000D02*
X1663590D01*
X894100Y3174280D02*
X916450D01*
X951550D02*
X969740D01*
X1003850D02*
X1043900D01*
X1102670D02*
X1140620D01*
X1174820D02*
X1197020D01*
X1259950D02*
X1314880D01*
X1414450D02*
X1469370D01*
X1486790D02*
X1508610D01*
X1558720D02*
X1576900D01*
X1627870D02*
X1671690D01*
X895740Y3176660D02*
X917910D01*
X951550D02*
X969740D01*
X998970D02*
X1048460D01*
X1098180D02*
X1144970D01*
X1174490D02*
X1201390D01*
X1250500D02*
X1314880D01*
X1405000D02*
X1469370D01*
X1487960D02*
X1509650D01*
X1558720D02*
X1576900D01*
X1622810D02*
X1676730D01*
X897390Y3179040D02*
X919380D01*
X951550D02*
X969740D01*
X995230D02*
X1051790D01*
X1094770D02*
X1148470D01*
X1174160D02*
X1203590D01*
X1245100D02*
X1314880D01*
X1399600D02*
X1469370D01*
X1489180D02*
X1510720D01*
X1558720D02*
X1576900D01*
X1619130D02*
X1680350D01*
X899030Y3181420D02*
X920840D01*
X951550D02*
X969740D01*
X992160D02*
X1054500D01*
X1092000D02*
X1151170D01*
X1173830D02*
X1204820D01*
X1241320D02*
X1314880D01*
X1395820D02*
X1469370D01*
X1490400D02*
X1511790D01*
X1558720D02*
X1576900D01*
X1616020D02*
X1683480D01*
X900670Y3183800D02*
X922300D01*
X951550D02*
X969740D01*
X989560D02*
X1056700D01*
X1089680D02*
X1153510D01*
X1173500D02*
X1205580D01*
X1238430D02*
X1314880D01*
X1392920D02*
X1469370D01*
X1491640D02*
X1512850D01*
X1558720D02*
X1576900D01*
X1613570D02*
X1685940D01*
X902310Y3186180D02*
X923760D01*
X951550D02*
X969740D01*
X987570D02*
X1015830D01*
X1030030D02*
X1058630D01*
X1087660D02*
X1114160D01*
X1128730D02*
X1155510D01*
X1173170D02*
X1205870D01*
X1236070D02*
X1314880D01*
X1390560D02*
X1469370D01*
X1492860D02*
X1513950D01*
X1558720D02*
X1576900D01*
X1611440D02*
X1646630D01*
X1653540D02*
X1688100D01*
X903950Y3188560D02*
X925220D01*
X951550D02*
X969740D01*
X989870D02*
X1009370D01*
X1036110D02*
X1060230D01*
X1085900D02*
X1109190D01*
X1133720D02*
X1157230D01*
X1186810D02*
X1205990D01*
X1234240D02*
X1266520D01*
X1297110D02*
X1314880D01*
X1388730D02*
X1421010D01*
X1451600D02*
X1469370D01*
X1494080D02*
X1515080D01*
X1558720D02*
X1576900D01*
X1609690D02*
X1636260D01*
X1663080D02*
X1689900D01*
X905590Y3190940D02*
X926680D01*
X951550D02*
X969740D01*
X992160D02*
X1005530D01*
X1039290D02*
X1061600D01*
X1084450D02*
X1106330D01*
X1136810D02*
X1158700D01*
X1187530D02*
X1205990D01*
X1232750D02*
X1259160D01*
X1297110D02*
X1314880D01*
X1387240D02*
X1413650D01*
X1451600D02*
X1469370D01*
X1495350D02*
X1516240D01*
X1558720D02*
X1576900D01*
X1608170D02*
X1632040D01*
X1667320D02*
X1691420D01*
X907230Y3193320D02*
X928140D01*
X951550D02*
X969740D01*
X994460D02*
X1002670D01*
X1041600D02*
X1062770D01*
X1083230D02*
X1104170D01*
X1139010D02*
X1159940D01*
X1187530D02*
X1205990D01*
X1231640D02*
X1255420D01*
X1297110D02*
X1314880D01*
X1386140D02*
X1409910D01*
X1451600D02*
X1469370D01*
X1496590D02*
X1517400D01*
X1558720D02*
X1576900D01*
X1606890D02*
X1629240D01*
X1670180D02*
X1692690D01*
X908870Y3195700D02*
X929610D01*
X951550D02*
X969740D01*
X996750D02*
X1000290D01*
X1043370D02*
X1063750D01*
X1082160D02*
X1102490D01*
X1140710D02*
X1160980D01*
X1187530D02*
X1205990D01*
X1230790D02*
X1253030D01*
X1297110D02*
X1314880D01*
X1385280D02*
X1407520D01*
X1451600D02*
X1469370D01*
X1497880D02*
X1518580D01*
X1558720D02*
X1576900D01*
X1605830D02*
X1627120D01*
X1672370D02*
X1693740D01*
X910510Y3198080D02*
X931070D01*
X951550D02*
X969740D01*
X1044660D02*
X1064520D01*
X1081280D02*
X1101170D01*
X1142060D02*
X1161870D01*
X1187530D02*
X1205990D01*
X1230190D02*
X1251320D01*
X1297110D02*
X1314880D01*
X1384680D02*
X1405810D01*
X1451600D02*
X1469370D01*
X1499220D02*
X1519840D01*
X1558720D02*
X1576900D01*
X1604950D02*
X1625490D01*
X1674090D02*
X1694600D01*
X912150Y3200460D02*
X932530D01*
X951550D02*
X969740D01*
X1045720D02*
X1065160D01*
X1080550D02*
X1100130D01*
X1143110D02*
X1162630D01*
X1187530D02*
X1205990D01*
X1229770D02*
X1250270D01*
X1297110D02*
X1314880D01*
X1384260D02*
X1404760D01*
X1451600D02*
X1469370D01*
X1500540D02*
X1521140D01*
X1558720D02*
X1576900D01*
X1604310D02*
X1624180D01*
X1675400D02*
X1695240D01*
X913790Y3202840D02*
X933990D01*
X951290D02*
X969740D01*
X1046510D02*
X1065730D01*
X1079980D02*
X1099290D01*
X1143940D02*
X1163200D01*
X1187530D02*
X1205990D01*
X1229570D02*
X1249690D01*
X1297110D02*
X1314880D01*
X1384060D02*
X1404180D01*
X1451600D02*
X1469370D01*
X1501870D02*
X1522440D01*
X1558720D02*
X1576900D01*
X1603810D02*
X1623190D01*
X1676390D02*
X1695740D01*
X915430Y3205220D02*
X935450D01*
X948770D02*
X969740D01*
X1047080D02*
X1066170D01*
X1079500D02*
X1098660D01*
X1144580D02*
X1163660D01*
X1187530D02*
X1205990D01*
X1229520D02*
X1249450D01*
X1297110D02*
X1314880D01*
X1384010D02*
X1403950D01*
X1451600D02*
X1469370D01*
X1503220D02*
X1523830D01*
X1558720D02*
X1576900D01*
X1603410D02*
X1622440D01*
X1677090D02*
X1696140D01*
X917070Y3207600D02*
X936910D01*
X946250D02*
X969740D01*
X1047500D02*
X1066460D01*
X1079150D02*
X1098200D01*
X1144990D02*
X1164010D01*
X1187530D02*
X1205990D01*
X1229630D02*
X1249460D01*
X1297110D02*
X1314880D01*
X1384120D02*
X1403960D01*
X1451600D02*
X1469370D01*
X1504620D02*
X1525350D01*
X1558720D02*
X1576900D01*
X1603150D02*
X1621920D01*
X1677610D02*
X1696400D01*
X918710Y3209980D02*
X938380D01*
X943730D02*
X969740D01*
X1047760D02*
X1066670D01*
X1078920D02*
X1097880D01*
X1145320D02*
X1164260D01*
X1187530D02*
X1205990D01*
X1230000D02*
X1249780D01*
X1297110D02*
X1314880D01*
X1384490D02*
X1404280D01*
X1451600D02*
X1469370D01*
X1506130D02*
X1527020D01*
X1558720D02*
X1576900D01*
X1602980D02*
X1621570D01*
X1677990D02*
X1696570D01*
X920350Y3212360D02*
X939840D01*
X941210D02*
X969740D01*
X1047900D02*
X1066750D01*
X1078840D02*
X1097700D01*
X1145480D02*
X1164360D01*
X1187530D02*
X1205990D01*
X1230520D02*
X1250560D01*
X1297110D02*
X1314880D01*
X1385010D02*
X1405060D01*
X1451600D02*
X1469370D01*
X1507630D02*
X1529050D01*
X1558720D02*
X1576900D01*
X1602890D02*
X1621340D01*
X1678230D02*
X1696660D01*
X921990Y3214740D02*
X969740D01*
X1047930D02*
X1066790D01*
X1078780D02*
X1097640D01*
X1145550D02*
X1164420D01*
X1187530D02*
X1205990D01*
X1231400D02*
X1251820D01*
X1297110D02*
X1314880D01*
X1385890D02*
X1406310D01*
X1451600D02*
X1469370D01*
X1509410D02*
X1531580D01*
X1558720D02*
X1576900D01*
X1602880D02*
X1621230D01*
X1678320D02*
X1696670D01*
X923630Y3217120D02*
X969740D01*
X1047870D02*
X1066710D01*
X1078850D02*
X1097740D01*
X1145470D02*
X1164370D01*
X1187530D02*
X1205990D01*
X1232540D02*
X1253780D01*
X1297110D02*
X1314880D01*
X1387040D02*
X1408270D01*
X1451600D02*
X1469370D01*
X1511320D02*
X1535000D01*
X1558720D02*
X1576900D01*
X1602880D02*
X1621200D01*
X1678350D02*
X1696670D01*
X925270Y3219500D02*
X969740D01*
X1047660D02*
X1066550D01*
X1079000D02*
X1097910D01*
X1145310D02*
X1164220D01*
X1187530D02*
X1205990D01*
X1234180D02*
X1256630D01*
X1297110D02*
X1314880D01*
X1388670D02*
X1411120D01*
X1451600D02*
X1469370D01*
X1513560D02*
X1540760D01*
X1558720D02*
X1576900D01*
X1602880D02*
X1621200D01*
X1678350D02*
X1696670D01*
X926910Y3221880D02*
X969740D01*
X1047290D02*
X1066260D01*
X1079240D02*
X1098200D01*
X1144990D02*
X1163980D01*
X1187530D02*
X1205990D01*
X1236220D02*
X1261120D01*
X1297110D02*
X1314880D01*
X1390710D02*
X1415610D01*
X1451600D02*
X1469370D01*
X1516270D02*
X1576900D01*
X1602880D02*
X1621200D01*
X1678350D02*
X1696670D01*
X927630Y3224260D02*
X950620D01*
X951550D02*
X969740D01*
X1046780D02*
X1065870D01*
X1079630D02*
X1098670D01*
X1144520D02*
X1163620D01*
X1187530D02*
X1205990D01*
X1238870D02*
X1269210D01*
X1297110D02*
X1314880D01*
X1393360D02*
X1423700D01*
X1451600D02*
X1469370D01*
X1519950D02*
X1576900D01*
X1602880D02*
X1621200D01*
X1678350D02*
X1696670D01*
X925290Y3226640D02*
X948310D01*
X951550D02*
X969740D01*
X1046130D02*
X1065360D01*
X1080120D02*
X1099310D01*
X1143890D02*
X1163120D01*
X1187530D02*
X1205990D01*
X1242510D02*
X1314880D01*
X1397010D02*
X1469370D01*
X1524810D02*
X1576900D01*
X1602880D02*
X1621200D01*
X1678350D02*
X1696670D01*
X922950Y3229020D02*
X946000D01*
X951550D02*
X969740D01*
X1045280D02*
X1064740D01*
X1080720D02*
X1100210D01*
X1143060D02*
X1162550D01*
X1187530D02*
X1205990D01*
X1247630D02*
X1314880D01*
X1402130D02*
X1469370D01*
X1515090D02*
X1576900D01*
X1602880D02*
X1621200D01*
X1678350D02*
X1696670D01*
X920610Y3231400D02*
X943690D01*
X951550D02*
X969740D01*
X1044160D02*
X1063940D01*
X1081460D02*
X1101290D01*
X1142020D02*
X1161770D01*
X1187530D02*
X1205990D01*
X1255830D02*
X1314880D01*
X1410320D02*
X1469370D01*
X1509240D02*
X1576900D01*
X1602880D02*
X1621200D01*
X1678350D02*
X1696670D01*
X918270Y3233780D02*
X941380D01*
X951550D02*
X969740D01*
X999670D02*
X1000190D01*
X1042780D02*
X1063040D01*
X1082440D02*
X1102690D01*
X1140620D02*
X1160900D01*
X1187530D02*
X1205990D01*
X1252240D02*
X1314880D01*
X1406730D02*
X1469370D01*
X1505210D02*
X1576900D01*
X1602880D02*
X1621200D01*
X1678350D02*
X1696670D01*
X915930Y3236160D02*
X939070D01*
X951550D02*
X969740D01*
X997990D02*
X1002880D01*
X1041050D02*
X1061930D01*
X1083510D02*
X1104410D01*
X1138870D02*
X1159760D01*
X1187530D02*
X1205990D01*
X1246630D02*
X1314880D01*
X1401120D02*
X1469370D01*
X1502320D02*
X1529670D01*
X1558720D02*
X1576900D01*
X1602880D02*
X1621200D01*
X1678350D02*
X1696670D01*
X913590Y3238540D02*
X936760D01*
X951550D02*
X969740D01*
X996300D02*
X1006130D01*
X1038790D02*
X1060650D01*
X1084860D02*
X1106610D01*
X1136570D02*
X1158440D01*
X1187530D02*
X1205990D01*
X1242990D02*
X1314880D01*
X1397490D02*
X1469370D01*
X1499990D02*
X1523540D01*
X1558720D02*
X1576900D01*
X1602880D02*
X1621200D01*
X1678350D02*
X1696670D01*
X911250Y3240920D02*
X934450D01*
X951550D02*
X969740D01*
X994620D02*
X1010330D01*
X1035640D02*
X1059150D01*
X1086370D02*
X1109590D01*
X1133520D02*
X1156920D01*
X1187530D02*
X1205990D01*
X1240360D02*
X1266790D01*
X1297110D02*
X1314880D01*
X1394850D02*
X1421280D01*
X1451600D02*
X1469370D01*
X1498280D02*
X1519970D01*
X1558720D02*
X1576900D01*
X1602880D02*
X1621200D01*
X1678350D02*
X1696670D01*
X908910Y3243300D02*
X932140D01*
X951550D02*
X969740D01*
X992930D02*
X1017250D01*
X1029730D02*
X1057440D01*
X1088200D02*
X1114210D01*
X1128960D02*
X1155100D01*
X1187530D02*
X1205990D01*
X1238380D02*
X1260610D01*
X1297110D02*
X1314880D01*
X1392870D02*
X1415100D01*
X1451600D02*
X1469370D01*
X1496950D02*
X1517540D01*
X1558720D02*
X1576900D01*
X1602880D02*
X1621200D01*
X1678350D02*
X1696670D01*
X906580Y3245680D02*
X929830D01*
X951550D02*
X969740D01*
X991250D02*
X1055450D01*
X1090290D02*
X1152960D01*
X1187530D02*
X1205990D01*
X1236850D02*
X1257380D01*
X1297110D02*
X1314880D01*
X1391340D02*
X1411870D01*
X1451600D02*
X1469370D01*
X1495940D02*
X1515880D01*
X1558720D02*
X1576900D01*
X1602880D02*
X1621200D01*
X1678350D02*
X1696670D01*
X904240Y3248060D02*
X927520D01*
X951550D02*
X969740D01*
X993250D02*
X1053150D01*
X1092730D02*
X1150470D01*
X1187530D02*
X1205990D01*
X1235700D02*
X1255400D01*
X1297110D02*
X1314880D01*
X1390190D02*
X1409890D01*
X1451600D02*
X1469370D01*
X1495220D02*
X1514790D01*
X1558720D02*
X1576900D01*
X1602880D02*
X1621200D01*
X1678350D02*
X1696670D01*
X901900Y3250440D02*
X925210D01*
X951550D02*
X969740D01*
X996510D02*
X1050390D01*
X1095620D02*
X1147410D01*
X1187530D02*
X1205990D01*
X1234880D02*
X1254110D01*
X1297110D02*
X1314880D01*
X1389370D02*
X1408600D01*
X1451600D02*
X1469370D01*
X1494750D02*
X1514100D01*
X1558720D02*
X1576900D01*
X1602880D02*
X1621200D01*
X1678350D02*
X1696670D01*
X899560Y3252820D02*
X922900D01*
X951550D02*
X969740D01*
X1000530D02*
X1047020D01*
X1099130D02*
X1143790D01*
X1187530D02*
X1205990D01*
X1234300D02*
X1253470D01*
X1297110D02*
X1314880D01*
X1388790D02*
X1407970D01*
X1451600D02*
X1469370D01*
X1494480D02*
X1513730D01*
X1558720D02*
X1576900D01*
X1602880D02*
X1621200D01*
X1678350D02*
X1696670D01*
X897220Y3255200D02*
X920590D01*
X951550D02*
X969740D01*
X1005920D02*
X1042390D01*
X1103900D02*
X1138920D01*
X1187530D02*
X1205990D01*
X1234000D02*
X1253210D01*
X1297110D02*
X1314880D01*
X1388490D02*
X1407710D01*
X1451600D02*
X1469370D01*
X1494340D02*
X1513710D01*
X1558720D02*
X1576900D01*
X1602880D02*
X1621200D01*
X1678350D02*
X1696670D01*
X951550Y3257580D02*
X969740D01*
X1014370D02*
X1035030D01*
X1111520D02*
X1131230D01*
X1187530D02*
X1205990D01*
X1233850D02*
X1253200D01*
X1297110D02*
X1314880D01*
X1388340D02*
X1407690D01*
X1451600D02*
X1469370D01*
X1494390D02*
X1513920D01*
X1558720D02*
X1576900D01*
X1602880D02*
X1621200D01*
X1678350D02*
X1696670D01*
X951550Y3259960D02*
X969740D01*
X1187530D02*
X1205990D01*
X1233860D02*
X1253620D01*
X1297110D02*
X1314880D01*
X1388350D02*
X1408110D01*
X1451600D02*
X1469370D01*
X1494590D02*
X1514420D01*
X1558720D02*
X1576900D01*
X1602880D02*
X1621200D01*
X1678350D02*
X1696670D01*
X951550Y3262340D02*
X969740D01*
X1187530D02*
X1205990D01*
X1234070D02*
X1254480D01*
X1297110D02*
X1314880D01*
X1388560D02*
X1408980D01*
X1451600D02*
X1469370D01*
X1495010D02*
X1515350D01*
X1558720D02*
X1576900D01*
X1602880D02*
X1621200D01*
X1678350D02*
X1696670D01*
X951550Y3264720D02*
X969740D01*
X1187530D02*
X1205990D01*
X1234500D02*
X1255920D01*
X1297110D02*
X1314880D01*
X1389000D02*
X1410410D01*
X1451600D02*
X1469370D01*
X1495610D02*
X1516890D01*
X1558720D02*
X1576900D01*
X1602880D02*
X1621200D01*
X1678350D02*
X1696670D01*
X951550Y3267100D02*
X969740D01*
X1187530D02*
X1205990D01*
X1235180D02*
X1258250D01*
X1297110D02*
X1314880D01*
X1389670D02*
X1412740D01*
X1451600D02*
X1469370D01*
X1496490D02*
X1519280D01*
X1558720D02*
X1576900D01*
X1602880D02*
X1621200D01*
X1678350D02*
X1696670D01*
X951550Y3269480D02*
X969740D01*
X1187530D02*
X1205990D01*
X1236190D02*
X1261910D01*
X1297110D02*
X1314880D01*
X1390680D02*
X1416400D01*
X1451600D02*
X1469370D01*
X1497650D02*
X1523290D01*
X1558720D02*
X1576900D01*
X1602880D02*
X1621200D01*
X1678350D02*
X1696670D01*
X951550Y3271860D02*
X969740D01*
X1187530D02*
X1205990D01*
X1237510D02*
X1269400D01*
X1297110D02*
X1314880D01*
X1392000D02*
X1423890D01*
X1451600D02*
X1469370D01*
X1499170D02*
X1531750D01*
X1558720D02*
X1576900D01*
X1602880D02*
X1621200D01*
X1678350D02*
X1696670D01*
X951550Y3274240D02*
X969740D01*
X1187530D02*
X1205990D01*
X1239320D02*
X1314880D01*
X1393810D02*
X1469370D01*
X1501040D02*
X1576900D01*
X1602880D02*
X1621200D01*
X1678350D02*
X1696670D01*
X951550Y3276620D02*
X969740D01*
X1187530D02*
X1205990D01*
X1241570D02*
X1314880D01*
X1396060D02*
X1469370D01*
X1503460D02*
X1576900D01*
X1602880D02*
X1621200D01*
X1678350D02*
X1696670D01*
X951550Y3279000D02*
X969740D01*
X1187530D02*
X1205990D01*
X1244640D02*
X1314880D01*
X1399130D02*
X1469370D01*
X1506420D02*
X1576900D01*
X1602880D02*
X1621200D01*
X1678350D02*
X1696670D01*
X951550Y3281380D02*
X969740D01*
X1187530D02*
X1205990D01*
X1248610D02*
X1314880D01*
X1403110D02*
X1469370D01*
X1510270D02*
X1576900D01*
X1602880D02*
X1621200D01*
X1678350D02*
X1696670D01*
X951550Y3283760D02*
X969740D01*
X1187530D02*
X1205990D01*
X1254110D02*
X1314880D01*
X1408600D02*
X1469370D01*
X1515950D02*
X1576900D01*
X1602880D02*
X1621200D01*
X1678350D02*
X1696670D01*
X951550Y3286140D02*
X969740D01*
X1187530D02*
X1205990D01*
X1266120D02*
X1314880D01*
X1420620D02*
X1469370D01*
X1526940D02*
X1576900D01*
X1602880D02*
X1621200D01*
X1678350D02*
X1696670D01*
X951550Y3288520D02*
X969740D01*
X1187530D02*
X1205990D01*
X951550Y3290900D02*
X969740D01*
X1187530D02*
X1205990D01*
X1759570Y431430D02*
Y444670D01*
X1758810Y446840D01*
X1757870Y449000D01*
X1756820Y451110D01*
X1755590Y453280D01*
X1754240Y455390D01*
X1752710Y457500D01*
X1751020Y459670D01*
X1749200Y461780D01*
X1747210Y463890D01*
X1745100Y466000D01*
X1742810Y468050D01*
X1740410Y470160D01*
X1737830Y472270D01*
X1735140Y474320D01*
X1732270Y476430D01*
X1729220Y478480D01*
X1726000Y480640D01*
X1723420Y482400D01*
X1721070Y484040D01*
X1718910Y485620D01*
X1716970Y487090D01*
X1715270Y488500D01*
X1713750Y489840D01*
X1712460Y491070D01*
X1711350Y492250D01*
X1710290Y493540D01*
X1709410Y494820D01*
X1708650Y496110D01*
X1708010Y497460D01*
X1707540Y498870D01*
X1707190Y500270D01*
X1706950Y501680D01*
X1706890Y503140D01*
X1706950Y504430D01*
X1707070Y505660D01*
X1707360Y506890D01*
X1707710Y508070D01*
X1708120Y509180D01*
X1708710Y510230D01*
X1709360Y511290D01*
X1710120Y512290D01*
X1711410Y513630D01*
X1712810Y514800D01*
X1714390Y515800D01*
X1716090Y516620D01*
X1717970Y517270D01*
X1720020Y517730D01*
X1722130Y517970D01*
X1724470Y518090D01*
X1726230Y518030D01*
X1727990Y517910D01*
X1729690Y517680D01*
X1731390Y517320D01*
X1733090Y516910D01*
X1734730Y516390D01*
X1736370Y515800D01*
X1738010Y515100D01*
X1739590Y514340D01*
X1741170Y513460D01*
X1742700Y512460D01*
X1744220Y511410D01*
X1745680Y510230D01*
X1747210Y509000D01*
X1748670Y507660D01*
X1750080Y506190D01*
X1760160Y515450D01*
X1758050Y517790D01*
X1755760Y519900D01*
X1753300Y521890D01*
X1750660Y523650D01*
X1747680Y525350D01*
X1744630Y526760D01*
X1741460Y527990D01*
X1738180Y528980D01*
X1734900Y529800D01*
X1731500Y530330D01*
X1727990Y530680D01*
X1724410Y530800D01*
X1721660Y530740D01*
X1718960Y530510D01*
X1716390Y530210D01*
X1713930Y529750D01*
X1711520Y529100D01*
X1709240Y528400D01*
X1707010Y527520D01*
X1704900Y526520D01*
X1703140Y525530D01*
X1701500Y524470D01*
X1699980Y523300D01*
X1698570Y522070D01*
X1697230Y520780D01*
X1696000Y519370D01*
X1694880Y517910D01*
X1693890Y516330D01*
X1693070Y514800D01*
X1692300Y513220D01*
X1691720Y511640D01*
X1691190Y510000D01*
X1690840Y508300D01*
X1690550Y506600D01*
X1690370Y504900D01*
X1690310Y503140D01*
X1690430Y500860D01*
X1690780Y498570D01*
X1691310Y496350D01*
X1692070Y494180D01*
X1693070Y492070D01*
X1694300Y489960D01*
X1695760Y487910D01*
X1697400Y485920D01*
X1698050Y485210D01*
X1698690Y484510D01*
X1699450Y483810D01*
X1700270Y483050D01*
X1701150Y482230D01*
X1702150Y481410D01*
X1703140Y480590D01*
X1704200Y479710D01*
X1705370Y478830D01*
X1706540Y477890D01*
X1707830Y476890D01*
X1709180Y475960D01*
X1710590Y474900D01*
X1712050Y473910D01*
X1713570Y472850D01*
X1715160Y471740D01*
X1718910Y469220D01*
X1720610Y468050D01*
X1722190Y466930D01*
X1723710Y465880D01*
X1725180Y464880D01*
X1726580Y463890D01*
X1727930Y462890D01*
X1729160Y461950D01*
X1730330Y461070D01*
X1731450Y460250D01*
X1732440Y459430D01*
X1733380Y458670D01*
X1734260Y457970D01*
X1735080Y457270D01*
X1735840Y456560D01*
X1736480Y455980D01*
X1737070Y455390D01*
X1738360Y454040D01*
X1739530Y452700D01*
X1740590Y451410D01*
X1741520Y450180D01*
X1742400Y448950D01*
X1743110Y447770D01*
X1743690Y446600D01*
X1744220Y445490D01*
X1689370D01*
Y431430D01*
X1759570D01*
X1633120Y531040D02*
X1630840Y530980D01*
X1628610Y530800D01*
X1626500Y530450D01*
X1624390Y530040D01*
X1622400Y529450D01*
X1620470Y528810D01*
X1618590Y527990D01*
X1616720Y527050D01*
X1615020Y526000D01*
X1613320Y524770D01*
X1611680Y523480D01*
X1610100Y522010D01*
X1608630Y520490D01*
X1607170Y518790D01*
X1605820Y516970D01*
X1604530Y515040D01*
X1603480Y513340D01*
X1602540Y511580D01*
X1601660Y509710D01*
X1600840Y507830D01*
X1600020Y505840D01*
X1599370Y503850D01*
X1598730Y501740D01*
X1598140Y499570D01*
X1597680Y497340D01*
X1597210Y495000D01*
X1596860Y492660D01*
X1596560Y490200D01*
X1596330Y487730D01*
X1596150Y485160D01*
X1596090Y482520D01*
X1596040Y479820D01*
X1596150Y474960D01*
X1596500Y470270D01*
X1597030Y465820D01*
X1597850Y461600D01*
X1598850Y457620D01*
X1600080Y453810D01*
X1601540Y450230D01*
X1603240Y446890D01*
X1604530Y444730D01*
X1605880Y442680D01*
X1607340Y440740D01*
X1608870Y438980D01*
X1610510Y437340D01*
X1612150Y435880D01*
X1613910Y434530D01*
X1615780Y433300D01*
X1617660Y432250D01*
X1619710Y431310D01*
X1621760Y430550D01*
X1623930Y429900D01*
X1626150Y429430D01*
X1628440Y429080D01*
X1630840Y428850D01*
X1633300Y428790D01*
X1635530Y428850D01*
X1637700Y429020D01*
X1639750Y429320D01*
X1641800Y429730D01*
X1643790Y430250D01*
X1645660Y430900D01*
X1647540Y431660D01*
X1649300Y432540D01*
X1651050Y433540D01*
X1652700Y434650D01*
X1654280Y435880D01*
X1655860Y437230D01*
X1657320Y438690D01*
X1658730Y440270D01*
X1660080Y441970D01*
X1661370Y443790D01*
X1662480Y445490D01*
X1663480Y447300D01*
X1664470Y449180D01*
X1665350Y451110D01*
X1666170Y453110D01*
X1666870Y455160D01*
X1667580Y457320D01*
X1668160Y459550D01*
X1668690Y461840D01*
X1669160Y464180D01*
X1669570Y466580D01*
X1669860Y469100D01*
X1670160Y471680D01*
X1670330Y474320D01*
X1670390Y477010D01*
X1670450Y479820D01*
X1670390Y482700D01*
X1670270Y485510D01*
X1670100Y488260D01*
X1669860Y490960D01*
X1669510Y493540D01*
X1669100Y496000D01*
X1668570Y498460D01*
X1667990Y500800D01*
X1667340Y503090D01*
X1666640Y505310D01*
X1665820Y507420D01*
X1665000Y509470D01*
X1664000Y511460D01*
X1663010Y513340D01*
X1661890Y515160D01*
X1660720Y516910D01*
X1659430Y518610D01*
X1658090Y520200D01*
X1656680Y521720D01*
X1655210Y523070D01*
X1653690Y524360D01*
X1652110Y525530D01*
X1650470Y526580D01*
X1648770Y527520D01*
X1647010Y528340D01*
X1645200Y529040D01*
X1643320Y529630D01*
X1641450Y530160D01*
X1639450Y530510D01*
X1637400Y530800D01*
X1635290Y530980D01*
X1633120Y531040D01*
X1633300Y518440D02*
X1634470Y518380D01*
X1635590Y518260D01*
X1636700Y518090D01*
X1637810Y517790D01*
X1638870Y517440D01*
X1639860Y516970D01*
X1640860Y516450D01*
X1641800Y515800D01*
X1642730Y515160D01*
X1643610Y514340D01*
X1644490Y513520D01*
X1645310Y512580D01*
X1646070Y511520D01*
X1646840Y510470D01*
X1647600Y509300D01*
X1648300Y508010D01*
X1648950Y506720D01*
X1649530Y505310D01*
X1650120Y503910D01*
X1650640Y502440D01*
X1651110Y500860D01*
X1651520Y499280D01*
X1651930Y497580D01*
X1652290Y495880D01*
X1652640Y494060D01*
X1652870Y492190D01*
X1653110Y490310D01*
X1653280Y488320D01*
X1653460Y486270D01*
X1653570Y484220D01*
X1653630Y482050D01*
Y479820D01*
X1653570Y475720D01*
X1653340Y471860D01*
X1652930Y468160D01*
X1652400Y464710D01*
X1651760Y461430D01*
X1650880Y458440D01*
X1649880Y455620D01*
X1648770Y452990D01*
X1648070Y451580D01*
X1647300Y450290D01*
X1646540Y449120D01*
X1645720Y448010D01*
X1644840Y447010D01*
X1643960Y446070D01*
X1643030Y445200D01*
X1642090Y444430D01*
X1641090Y443790D01*
X1640100Y443200D01*
X1638980Y442730D01*
X1637930Y442320D01*
X1636760Y442030D01*
X1635640Y441800D01*
X1634410Y441680D01*
X1633180Y441620D01*
X1632070Y441680D01*
X1631020Y441740D01*
X1630020Y441910D01*
X1629020Y442210D01*
X1628030Y442500D01*
X1627030Y442910D01*
X1626150Y443380D01*
X1625210Y443910D01*
X1624340Y444490D01*
X1623520Y445200D01*
X1622700Y445960D01*
X1621870Y446780D01*
X1621110Y447660D01*
X1620350Y448590D01*
X1619650Y449650D01*
X1618950Y450760D01*
X1618180Y452050D01*
X1617540Y453460D01*
X1616890Y454920D01*
X1616250Y456450D01*
X1615720Y458030D01*
X1615250Y459670D01*
X1614790Y461370D01*
X1614370Y463120D01*
X1614020Y465000D01*
X1613730Y466930D01*
X1613440Y468930D01*
X1613200Y470980D01*
X1613090Y473090D01*
X1612970Y475250D01*
X1612850Y477480D01*
Y479820D01*
Y482050D01*
X1612910Y484160D01*
X1613030Y486270D01*
X1613200Y488260D01*
X1613380Y490250D01*
X1613610Y492130D01*
X1613850Y494000D01*
X1614140Y495760D01*
X1614490Y497520D01*
X1614900Y499160D01*
X1615370Y500740D01*
X1615840Y502320D01*
X1616310Y503790D01*
X1616890Y505200D01*
X1617480Y506600D01*
X1618120Y507890D01*
X1618830Y509180D01*
X1619590Y510350D01*
X1620350Y511460D01*
X1621110Y512520D01*
X1621990Y513460D01*
X1622810Y514340D01*
X1623750Y515100D01*
X1624690Y515800D01*
X1625620Y516390D01*
X1626620Y516970D01*
X1627680Y517380D01*
X1628730Y517790D01*
X1629840Y518090D01*
X1630960Y518260D01*
X1632130Y518380D01*
X1633300Y518440D01*
X1577230Y431430D02*
Y444670D01*
X1576460Y446840D01*
X1575530Y449000D01*
X1574470Y451110D01*
X1573240Y453280D01*
X1571890Y455390D01*
X1570370Y457500D01*
X1568670Y459670D01*
X1566860Y461780D01*
X1564860Y463890D01*
X1562750Y466000D01*
X1560470Y468050D01*
X1558070Y470160D01*
X1555490Y472270D01*
X1552790Y474320D01*
X1549920Y476430D01*
X1546870Y478480D01*
X1543650Y480640D01*
X1541070Y482400D01*
X1538730Y484040D01*
X1536560Y485620D01*
X1534630Y487090D01*
X1532930Y488500D01*
X1531410Y489840D01*
X1530120Y491070D01*
X1529000Y492250D01*
X1527950Y493540D01*
X1527070Y494820D01*
X1526310Y496110D01*
X1525660Y497460D01*
X1525200Y498870D01*
X1524840Y500270D01*
X1524610Y501680D01*
X1524550Y503140D01*
X1524610Y504430D01*
X1524730Y505660D01*
X1525020Y506890D01*
X1525370Y508070D01*
X1525780Y509180D01*
X1526370Y510230D01*
X1527010Y511290D01*
X1527770Y512290D01*
X1529060Y513630D01*
X1530470Y514800D01*
X1532050Y515800D01*
X1533750Y516620D01*
X1535620Y517270D01*
X1537680Y517730D01*
X1539790Y517970D01*
X1542130Y518090D01*
X1543890Y518030D01*
X1545640Y517910D01*
X1547340Y517680D01*
X1549040Y517320D01*
X1550740Y516910D01*
X1552380Y516390D01*
X1554020Y515800D01*
X1555660Y515100D01*
X1557250Y514340D01*
X1558830Y513460D01*
X1560350Y512460D01*
X1561870Y511410D01*
X1563340Y510230D01*
X1564860Y509000D01*
X1566330Y507660D01*
X1567730Y506190D01*
X1577810Y515450D01*
X1575700Y517790D01*
X1573420Y519900D01*
X1570960Y521890D01*
X1568320Y523650D01*
X1565330Y525350D01*
X1562290Y526760D01*
X1559120Y527990D01*
X1555840Y528980D01*
X1552560Y529800D01*
X1549160Y530330D01*
X1545640Y530680D01*
X1542070Y530800D01*
X1539320Y530740D01*
X1536620Y530510D01*
X1534040Y530210D01*
X1531580Y529750D01*
X1529180Y529100D01*
X1526890Y528400D01*
X1524670Y527520D01*
X1522560Y526520D01*
X1520800Y525530D01*
X1519160Y524470D01*
X1517640Y523300D01*
X1516230Y522070D01*
X1514880Y520780D01*
X1513650Y519370D01*
X1512540Y517910D01*
X1511540Y516330D01*
X1510720Y514800D01*
X1509960Y513220D01*
X1509370Y511640D01*
X1508850Y510000D01*
X1508500Y508300D01*
X1508200Y506600D01*
X1508030Y504900D01*
X1507970Y503140D01*
X1508090Y500860D01*
X1508440Y498570D01*
X1508960Y496350D01*
X1509730Y494180D01*
X1510720Y492070D01*
X1511950Y489960D01*
X1513420Y487910D01*
X1515060Y485920D01*
X1515700Y485210D01*
X1516350Y484510D01*
X1517110Y483810D01*
X1517930Y483050D01*
X1518810Y482230D01*
X1519800Y481410D01*
X1520800Y480590D01*
X1521860Y479710D01*
X1523030Y478830D01*
X1524200Y477890D01*
X1525490Y476890D01*
X1526840Y475960D01*
X1528240Y474900D01*
X1529710Y473910D01*
X1531230Y472850D01*
X1532810Y471740D01*
X1536560Y469220D01*
X1538260Y468050D01*
X1539840Y466930D01*
X1541370Y465880D01*
X1542830Y464880D01*
X1544240Y463890D01*
X1545590Y462890D01*
X1546820Y461950D01*
X1547990Y461070D01*
X1549100Y460250D01*
X1550100Y459430D01*
X1551040Y458670D01*
X1551910Y457970D01*
X1552730Y457270D01*
X1553500Y456560D01*
X1554140Y455980D01*
X1554730Y455390D01*
X1556020Y454040D01*
X1557190Y452700D01*
X1558240Y451410D01*
X1559180Y450180D01*
X1560060Y448950D01*
X1560760Y447770D01*
X1561350Y446600D01*
X1561870Y445490D01*
X1507030D01*
Y431430D01*
X1577230D01*
X1470700Y481930D02*
X1469650Y483400D01*
X1468540Y484800D01*
X1467360Y486090D01*
X1466190Y487270D01*
X1464900Y488380D01*
X1463500Y489370D01*
X1462090Y490310D01*
X1460620Y491130D01*
X1459100Y491840D01*
X1457520Y492480D01*
X1455820Y493010D01*
X1454120Y493420D01*
X1452360Y493770D01*
X1450490Y494000D01*
X1448610Y494120D01*
X1446620Y494180D01*
X1445040Y494120D01*
X1443460Y494060D01*
X1441870Y493890D01*
X1440350Y493650D01*
X1438890Y493360D01*
X1437420Y493010D01*
X1436020Y492600D01*
X1434610Y492130D01*
X1433260Y491600D01*
X1431910Y491020D01*
X1430570Y490310D01*
X1429280Y489610D01*
X1428050Y488790D01*
X1426820Y487970D01*
X1425640Y487030D01*
X1424470Y486040D01*
X1423240Y484920D01*
X1422130Y483690D01*
X1421070Y482520D01*
X1420080Y481230D01*
X1419140Y479940D01*
X1418320Y478590D01*
X1417560Y477250D01*
X1416910Y475840D01*
X1416330Y474370D01*
X1415800Y472910D01*
X1415390Y471390D01*
X1415040Y469800D01*
X1414750Y468220D01*
X1414570Y466580D01*
X1414450Y464880D01*
X1414390Y463180D01*
X1414450Y461430D01*
X1414510Y459670D01*
X1414690Y458030D01*
X1414980Y456330D01*
X1415270Y454750D01*
X1415680Y453160D01*
X1416090Y451640D01*
X1416620Y450120D01*
X1417270Y448650D01*
X1417910Y447250D01*
X1418670Y445840D01*
X1419490Y444490D01*
X1420370Y443200D01*
X1421310Y441910D01*
X1422300Y440680D01*
X1423420Y439450D01*
X1424650Y438220D01*
X1425880Y437110D01*
X1427230Y436050D01*
X1428570Y435060D01*
X1429980Y434120D01*
X1431450Y433300D01*
X1432970Y432540D01*
X1434550Y431890D01*
X1436130Y431310D01*
X1437830Y430780D01*
X1439530Y430370D01*
X1441290Y430020D01*
X1443050Y429730D01*
X1444920Y429550D01*
X1446860Y429430D01*
X1448790Y429370D01*
X1451070Y429430D01*
X1453300Y429610D01*
X1455470Y429840D01*
X1457580Y430250D01*
X1459630Y430720D01*
X1461560Y431310D01*
X1463500Y432010D01*
X1465370Y432770D01*
X1467190Y433710D01*
X1468890Y434710D01*
X1470590Y435880D01*
X1472230Y437110D01*
X1473750Y438400D01*
X1475270Y439860D01*
X1476680Y441450D01*
X1478090Y443090D01*
X1479140Y444490D01*
X1480140Y446020D01*
X1481020Y447540D01*
X1481890Y449180D01*
X1482660Y450880D01*
X1483360Y452640D01*
X1484000Y454510D01*
X1484590Y456390D01*
X1485120Y458380D01*
X1485530Y460430D01*
X1485940Y462540D01*
X1486230Y464710D01*
X1486460Y466990D01*
X1486640Y469340D01*
X1486700Y471740D01*
X1486760Y474200D01*
X1486700Y475960D01*
X1486640Y477660D01*
X1486460Y479410D01*
X1486230Y481170D01*
X1486000Y482870D01*
X1485640Y484630D01*
X1485230Y486390D01*
X1484770Y488090D01*
X1484240Y489840D01*
X1483650Y491540D01*
X1483010Y493300D01*
X1482250Y495000D01*
X1481480Y496760D01*
X1480660Y498460D01*
X1479730Y500210D01*
X1478790Y501910D01*
X1477030Y504790D01*
X1475160Y507480D01*
X1473160Y510060D01*
X1471000Y512580D01*
X1468650Y514920D01*
X1466250Y517150D01*
X1463610Y519200D01*
X1460920Y521190D01*
X1458050Y523070D01*
X1455000Y524770D01*
X1451840Y526410D01*
X1448550Y527870D01*
X1445100Y529220D01*
X1441520Y530450D01*
X1437830Y531560D01*
X1433960Y532560D01*
X1428460Y521070D01*
X1430980Y520310D01*
X1433380Y519550D01*
X1435720Y518730D01*
X1437950Y517910D01*
X1440060Y517090D01*
X1442170Y516210D01*
X1444100Y515330D01*
X1445980Y514390D01*
X1447790Y513460D01*
X1449490Y512520D01*
X1451070Y511520D01*
X1452600Y510530D01*
X1454060Y509530D01*
X1455410Y508480D01*
X1456640Y507420D01*
X1457810Y506310D01*
X1459220Y504900D01*
X1460510Y503500D01*
X1461740Y502030D01*
X1462910Y500570D01*
X1464020Y499100D01*
X1465020Y497640D01*
X1465960Y496110D01*
X1466840Y494590D01*
X1467660Y493070D01*
X1468360Y491540D01*
X1469000Y489960D01*
X1469590Y488380D01*
X1470120Y486800D01*
X1470530Y485210D01*
X1470880Y483570D01*
X1471170Y481930D01*
X1470700D01*
X1449430Y482870D02*
X1451600Y482750D01*
X1453710Y482400D01*
X1455760Y481870D01*
X1457700Y481110D01*
X1459510Y480120D01*
X1461330Y478890D01*
X1463030Y477420D01*
X1464610Y475780D01*
X1465780Y474370D01*
X1466780Y472970D01*
X1467660Y471500D01*
X1468360Y469980D01*
X1468890Y468460D01*
X1469300Y466930D01*
X1469530Y465350D01*
X1469590Y463770D01*
X1469530Y462070D01*
X1469360Y460370D01*
X1469060Y458730D01*
X1468590Y457150D01*
X1468070Y455570D01*
X1467360Y454040D01*
X1466600Y452580D01*
X1465660Y451110D01*
X1464840Y450000D01*
X1464020Y448950D01*
X1463140Y447950D01*
X1462270Y447070D01*
X1461330Y446250D01*
X1460390Y445490D01*
X1459390Y444790D01*
X1458340Y444140D01*
X1457340Y443610D01*
X1456230Y443140D01*
X1455120Y442730D01*
X1454000Y442440D01*
X1452830Y442150D01*
X1451600Y441970D01*
X1450370Y441910D01*
X1449140Y441860D01*
X1446970Y441970D01*
X1444860Y442270D01*
X1442930Y442790D01*
X1441000Y443550D01*
X1439240Y444490D01*
X1437540Y445660D01*
X1435960Y447070D01*
X1434490Y448650D01*
X1433380Y450060D01*
X1432440Y451640D01*
X1431680Y453220D01*
X1431040Y454920D01*
X1430510Y456740D01*
X1430160Y458670D01*
X1429920Y460610D01*
X1429860Y462710D01*
X1429920Y465060D01*
X1430210Y467230D01*
X1430680Y469340D01*
X1431270Y471270D01*
X1432090Y473030D01*
X1433090Y474730D01*
X1434200Y476250D01*
X1435550Y477660D01*
X1436950Y478890D01*
X1438480Y479940D01*
X1440120Y480820D01*
X1441820Y481580D01*
X1443570Y482110D01*
X1445450Y482520D01*
X1447380Y482810D01*
X1449430Y482870D01*
X1356800Y536660D02*
X1349590Y533440D01*
X1393770Y423400D01*
X1400980Y426620D01*
X1356800Y536660D01*
X1299610Y531040D02*
X1297320Y530980D01*
X1295100Y530800D01*
X1292990Y530450D01*
X1290880Y530040D01*
X1288890Y529450D01*
X1286950Y528810D01*
X1285080Y527990D01*
X1283200Y527050D01*
X1281500Y526000D01*
X1279800Y524770D01*
X1278160Y523480D01*
X1276580Y522010D01*
X1275120Y520490D01*
X1273650Y518790D01*
X1272300Y516970D01*
X1271020Y515040D01*
X1269960Y513340D01*
X1269020Y511580D01*
X1268140Y509710D01*
X1267320Y507830D01*
X1266500Y505840D01*
X1265860Y503850D01*
X1265210Y501740D01*
X1264630Y499570D01*
X1264160Y497340D01*
X1263690Y495000D01*
X1263340Y492660D01*
X1263050Y490200D01*
X1262810Y487730D01*
X1262640Y485160D01*
X1262580Y482520D01*
X1262520Y479820D01*
X1262640Y474960D01*
X1262990Y470270D01*
X1263520Y465820D01*
X1264340Y461600D01*
X1265330Y457620D01*
X1266560Y453810D01*
X1268030Y450230D01*
X1269730Y446890D01*
X1271020Y444730D01*
X1272360Y442680D01*
X1273830Y440740D01*
X1275350Y438980D01*
X1276990Y437340D01*
X1278630Y435880D01*
X1280390Y434530D01*
X1282270Y433300D01*
X1284140Y432250D01*
X1286190Y431310D01*
X1288240Y430550D01*
X1290410Y429900D01*
X1292640Y429430D01*
X1294920Y429080D01*
X1297320Y428850D01*
X1299790Y428790D01*
X1302010Y428850D01*
X1304180Y429020D01*
X1306230Y429320D01*
X1308280Y429730D01*
X1310270Y430250D01*
X1312150Y430900D01*
X1314020Y431660D01*
X1315780Y432540D01*
X1317540Y433540D01*
X1319180Y434650D01*
X1320760Y435880D01*
X1322340Y437230D01*
X1323810Y438690D01*
X1325210Y440270D01*
X1326560Y441970D01*
X1327850Y443790D01*
X1328960Y445490D01*
X1329960Y447300D01*
X1330960Y449180D01*
X1331840Y451110D01*
X1332660Y453110D01*
X1333360Y455160D01*
X1334060Y457320D01*
X1334650Y459550D01*
X1335180Y461840D01*
X1335640Y464180D01*
X1336050Y466580D01*
X1336350Y469100D01*
X1336640Y471680D01*
X1336820Y474320D01*
X1336870Y477010D01*
X1336930Y479820D01*
X1336870Y482700D01*
X1336760Y485510D01*
X1336580Y488260D01*
X1336350Y490960D01*
X1336000Y493540D01*
X1335590Y496000D01*
X1335060Y498460D01*
X1334470Y500800D01*
X1333830Y503090D01*
X1333120Y505310D01*
X1332300Y507420D01*
X1331480Y509470D01*
X1330490Y511460D01*
X1329490Y513340D01*
X1328380Y515160D01*
X1327210Y516910D01*
X1325920Y518610D01*
X1324570Y520200D01*
X1323160Y521720D01*
X1321700Y523070D01*
X1320180Y524360D01*
X1318590Y525530D01*
X1316950Y526580D01*
X1315250Y527520D01*
X1313500Y528340D01*
X1311680Y529040D01*
X1309800Y529630D01*
X1307930Y530160D01*
X1305940Y530510D01*
X1303890Y530800D01*
X1301780Y530980D01*
X1299610Y531040D01*
X1299790Y518440D02*
X1300960Y518380D01*
X1302070Y518260D01*
X1303180Y518090D01*
X1304300Y517790D01*
X1305350Y517440D01*
X1306350Y516970D01*
X1307340Y516450D01*
X1308280Y515800D01*
X1309220Y515160D01*
X1310100Y514340D01*
X1310980Y513520D01*
X1311800Y512580D01*
X1312560Y511520D01*
X1313320Y510470D01*
X1314080Y509300D01*
X1314790Y508010D01*
X1315430Y506720D01*
X1316020Y505310D01*
X1316600Y503910D01*
X1317130Y502440D01*
X1317600Y500860D01*
X1318010Y499280D01*
X1318420Y497580D01*
X1318770Y495880D01*
X1319120Y494060D01*
X1319360Y492190D01*
X1319590Y490310D01*
X1319770Y488320D01*
X1319940Y486270D01*
X1320060Y484220D01*
X1320120Y482050D01*
Y479820D01*
X1320060Y475720D01*
X1319820Y471860D01*
X1319410Y468160D01*
X1318890Y464710D01*
X1318240Y461430D01*
X1317360Y458440D01*
X1316370Y455620D01*
X1315250Y452990D01*
X1314550Y451580D01*
X1313790Y450290D01*
X1313030Y449120D01*
X1312210Y448010D01*
X1311330Y447010D01*
X1310450Y446070D01*
X1309510Y445200D01*
X1308570Y444430D01*
X1307580Y443790D01*
X1306580Y443200D01*
X1305470Y442730D01*
X1304410Y442320D01*
X1303240Y442030D01*
X1302130Y441800D01*
X1300900Y441680D01*
X1299670Y441620D01*
X1298550Y441680D01*
X1297500Y441740D01*
X1296500Y441910D01*
X1295510Y442210D01*
X1294510Y442500D01*
X1293520Y442910D01*
X1292640Y443380D01*
X1291700Y443910D01*
X1290820Y444490D01*
X1290000Y445200D01*
X1289180Y445960D01*
X1288360Y446780D01*
X1287600Y447660D01*
X1286840Y448590D01*
X1286130Y449650D01*
X1285430Y450760D01*
X1284670Y452050D01*
X1284020Y453460D01*
X1283380Y454920D01*
X1282730Y456450D01*
X1282210Y458030D01*
X1281740Y459670D01*
X1281270Y461370D01*
X1280860Y463120D01*
X1280510Y465000D01*
X1280210Y466930D01*
X1279920Y468930D01*
X1279690Y470980D01*
X1279570Y473090D01*
X1279450Y475250D01*
X1279340Y477480D01*
Y479820D01*
Y482050D01*
X1279390Y484160D01*
X1279510Y486270D01*
X1279690Y488260D01*
X1279860Y490250D01*
X1280100Y492130D01*
X1280330Y494000D01*
X1280620Y495760D01*
X1280980Y497520D01*
X1281390Y499160D01*
X1281860Y500740D01*
X1282320Y502320D01*
X1282790Y503790D01*
X1283380Y505200D01*
X1283960Y506600D01*
X1284610Y507890D01*
X1285310Y509180D01*
X1286070Y510350D01*
X1286840Y511460D01*
X1287600Y512520D01*
X1288480Y513460D01*
X1289300Y514340D01*
X1290230Y515100D01*
X1291170Y515800D01*
X1292110Y516390D01*
X1293110Y516970D01*
X1294160Y517380D01*
X1295210Y517790D01*
X1296330Y518090D01*
X1297440Y518260D01*
X1298610Y518380D01*
X1299790Y518440D01*
X1190160Y476190D02*
X1190980Y474960D01*
X1191860Y473790D01*
X1192790Y472680D01*
X1193850Y471620D01*
X1194900Y470680D01*
X1196070Y469750D01*
X1197250Y468870D01*
X1198540Y468110D01*
X1200350Y467170D01*
X1202170Y466350D01*
X1204100Y465640D01*
X1206090Y465060D01*
X1208090Y464650D01*
X1210200Y464300D01*
X1212300Y464120D01*
X1214530Y464060D01*
X1216170Y464120D01*
X1217750Y464180D01*
X1219280Y464360D01*
X1220800Y464590D01*
X1222320Y464880D01*
X1223790Y465230D01*
X1225200Y465640D01*
X1226600Y466110D01*
X1227950Y466700D01*
X1229300Y467290D01*
X1230590Y467990D01*
X1231870Y468690D01*
X1233110Y469510D01*
X1234340Y470390D01*
X1235510Y471330D01*
X1236680Y472320D01*
X1237850Y473440D01*
X1239020Y474670D01*
X1240020Y475900D01*
X1241020Y477190D01*
X1241890Y478480D01*
X1242710Y479880D01*
X1243420Y481290D01*
X1244120Y482750D01*
X1244710Y484280D01*
X1245180Y485860D01*
X1245590Y487440D01*
X1245940Y489080D01*
X1246230Y490780D01*
X1246410Y492540D01*
X1246520Y494360D01*
X1246580Y496170D01*
X1246520Y497810D01*
X1246460Y499450D01*
X1246290Y501090D01*
X1246110Y502620D01*
X1245820Y504140D01*
X1245470Y505660D01*
X1245060Y507130D01*
X1244650Y508540D01*
X1244120Y509940D01*
X1243540Y511290D01*
X1242890Y512640D01*
X1242190Y513930D01*
X1241430Y515160D01*
X1240610Y516390D01*
X1239730Y517560D01*
X1238790Y518730D01*
X1237440Y520200D01*
X1236090Y521600D01*
X1234690Y522890D01*
X1233160Y524060D01*
X1231640Y525180D01*
X1230060Y526170D01*
X1228480Y527050D01*
X1226780Y527870D01*
X1225020Y528570D01*
X1223260Y529220D01*
X1221450Y529750D01*
X1219510Y530160D01*
X1217580Y530510D01*
X1215590Y530740D01*
X1213590Y530860D01*
X1211480Y530920D01*
X1209260Y530860D01*
X1207090Y530740D01*
X1204980Y530450D01*
X1202990Y530100D01*
X1201000Y529690D01*
X1199060Y529160D01*
X1197250Y528520D01*
X1195430Y527750D01*
X1193730Y526930D01*
X1192090Y526000D01*
X1190510Y524940D01*
X1188980Y523830D01*
X1187520Y522600D01*
X1186110Y521250D01*
X1184770Y519840D01*
X1183480Y518320D01*
X1182360Y516860D01*
X1181370Y515330D01*
X1180430Y513690D01*
X1179550Y511990D01*
X1178730Y510230D01*
X1177970Y508360D01*
X1177320Y506430D01*
X1176680Y504370D01*
X1176150Y502270D01*
X1175740Y500100D01*
X1175330Y497810D01*
X1175040Y495470D01*
X1174750Y493010D01*
X1174570Y490490D01*
X1174510Y487910D01*
X1174450Y485210D01*
X1174510Y482580D01*
X1174630Y480060D01*
X1174800Y477540D01*
X1175040Y475140D01*
X1175390Y472730D01*
X1175800Y470390D01*
X1176330Y468110D01*
X1176860Y465940D01*
X1177500Y463770D01*
X1178260Y461660D01*
X1179020Y459610D01*
X1179900Y457620D01*
X1180900Y455680D01*
X1181890Y453810D01*
X1183010Y451990D01*
X1184180Y450230D01*
X1186110Y447710D01*
X1188220Y445310D01*
X1190570Y443090D01*
X1193090Y440980D01*
X1195780Y439040D01*
X1198710Y437230D01*
X1201870Y435590D01*
X1205210Y434060D01*
X1207680Y433070D01*
X1210370Y432130D01*
X1213120Y431250D01*
X1216050Y430430D01*
X1219160Y429670D01*
X1222380Y428960D01*
X1225780Y428260D01*
X1229300Y427680D01*
X1235800Y440620D01*
X1233220Y440860D01*
X1230760Y441150D01*
X1228360Y441500D01*
X1226070Y441910D01*
X1223850Y442320D01*
X1221680Y442850D01*
X1219570Y443380D01*
X1217580Y443960D01*
X1215640Y444610D01*
X1213770Y445250D01*
X1212010Y446020D01*
X1210250Y446780D01*
X1208670Y447600D01*
X1207090Y448480D01*
X1205620Y449360D01*
X1204220Y450350D01*
X1202750Y451460D01*
X1201410Y452640D01*
X1200060Y453930D01*
X1198830Y455210D01*
X1197660Y456620D01*
X1196600Y458030D01*
X1195550Y459550D01*
X1194610Y461130D01*
X1193730Y462770D01*
X1192910Y464530D01*
X1192210Y466290D01*
X1191500Y468160D01*
X1190920Y470040D01*
X1190390Y472030D01*
X1189920Y474080D01*
X1189570Y476190D01*
X1190160D01*
X1211540Y518320D02*
X1213710Y518200D01*
X1215760Y517910D01*
X1217750Y517380D01*
X1219630Y516620D01*
X1221390Y515680D01*
X1223030Y514510D01*
X1224610Y513160D01*
X1226070Y511580D01*
X1227190Y510120D01*
X1228180Y508480D01*
X1229000Y506780D01*
X1229650Y504960D01*
X1230180Y503090D01*
X1230590Y501040D01*
X1230820Y498930D01*
X1230880Y496700D01*
X1230820Y494590D01*
X1230590Y492540D01*
X1230230Y490610D01*
X1229710Y488850D01*
X1229060Y487150D01*
X1228240Y485570D01*
X1227300Y484040D01*
X1226190Y482700D01*
X1224730Y481170D01*
X1223140Y479820D01*
X1221500Y478710D01*
X1219750Y477830D01*
X1217930Y477130D01*
X1216000Y476600D01*
X1214000Y476310D01*
X1211890Y476190D01*
X1209430Y476310D01*
X1207150Y476660D01*
X1204980Y477250D01*
X1202930Y478010D01*
X1201050Y479060D01*
X1199300Y480350D01*
X1197660Y481820D01*
X1196190Y483570D01*
X1195140Y485040D01*
X1194200Y486560D01*
X1193380Y488140D01*
X1192730Y489730D01*
X1192270Y491310D01*
X1191910Y493010D01*
X1191680Y494710D01*
X1191620Y496410D01*
X1191680Y498520D01*
X1191910Y500570D01*
X1192210Y502500D01*
X1192680Y504320D01*
X1193320Y506070D01*
X1194080Y507710D01*
X1194960Y509300D01*
X1195960Y510760D01*
X1196660Y511700D01*
X1197480Y512520D01*
X1198240Y513340D01*
X1199060Y514040D01*
X1199940Y514750D01*
X1200820Y515390D01*
X1201760Y515920D01*
X1202700Y516450D01*
X1203690Y516860D01*
X1204750Y517270D01*
X1205800Y517560D01*
X1206860Y517850D01*
X1207970Y518030D01*
X1209140Y518200D01*
X1210310Y518260D01*
X1211540Y518320D01*
X1114450Y536660D02*
X1107250Y533440D01*
X1151430Y423400D01*
X1158630Y426620D01*
X1114450Y536660D01*
X1057270Y531040D02*
X1054980Y530980D01*
X1052750Y530800D01*
X1050640Y530450D01*
X1048540Y530040D01*
X1046540Y529450D01*
X1044610Y528810D01*
X1042730Y527990D01*
X1040860Y527050D01*
X1039160Y526000D01*
X1037460Y524770D01*
X1035820Y523480D01*
X1034240Y522010D01*
X1032770Y520490D01*
X1031310Y518790D01*
X1029960Y516970D01*
X1028670Y515040D01*
X1027620Y513340D01*
X1026680Y511580D01*
X1025800Y509710D01*
X1024980Y507830D01*
X1024160Y505840D01*
X1023520Y503850D01*
X1022870Y501740D01*
X1022290Y499570D01*
X1021820Y497340D01*
X1021350Y495000D01*
X1021000Y492660D01*
X1020700Y490200D01*
X1020470Y487730D01*
X1020290Y485160D01*
X1020230Y482520D01*
X1020180Y479820D01*
X1020290Y474960D01*
X1020640Y470270D01*
X1021170Y465820D01*
X1021990Y461600D01*
X1022990Y457620D01*
X1024220Y453810D01*
X1025680Y450230D01*
X1027380Y446890D01*
X1028670Y444730D01*
X1030020Y442680D01*
X1031480Y440740D01*
X1033010Y438980D01*
X1034650Y437340D01*
X1036290Y435880D01*
X1038050Y434530D01*
X1039920Y433300D01*
X1041800Y432250D01*
X1043850Y431310D01*
X1045900Y430550D01*
X1048070Y429900D01*
X1050290Y429430D01*
X1052580Y429080D01*
X1054980Y428850D01*
X1057440Y428790D01*
X1059670Y428850D01*
X1061840Y429020D01*
X1063890Y429320D01*
X1065940Y429730D01*
X1067930Y430250D01*
X1069800Y430900D01*
X1071680Y431660D01*
X1073440Y432540D01*
X1075200Y433540D01*
X1076840Y434650D01*
X1078420Y435880D01*
X1080000Y437230D01*
X1081460Y438690D01*
X1082870Y440270D01*
X1084220Y441970D01*
X1085510Y443790D01*
X1086620Y445490D01*
X1087620Y447300D01*
X1088610Y449180D01*
X1089490Y451110D01*
X1090310Y453110D01*
X1091020Y455160D01*
X1091720Y457320D01*
X1092300Y459550D01*
X1092830Y461840D01*
X1093300Y464180D01*
X1093710Y466580D01*
X1094000Y469100D01*
X1094300Y471680D01*
X1094470Y474320D01*
X1094530Y477010D01*
X1094590Y479820D01*
X1094530Y482700D01*
X1094410Y485510D01*
X1094240Y488260D01*
X1094000Y490960D01*
X1093650Y493540D01*
X1093240Y496000D01*
X1092710Y498460D01*
X1092130Y500800D01*
X1091480Y503090D01*
X1090780Y505310D01*
X1089960Y507420D01*
X1089140Y509470D01*
X1088140Y511460D01*
X1087150Y513340D01*
X1086040Y515160D01*
X1084860Y516910D01*
X1083570Y518610D01*
X1082230Y520200D01*
X1080820Y521720D01*
X1079360Y523070D01*
X1077830Y524360D01*
X1076250Y525530D01*
X1074610Y526580D01*
X1072910Y527520D01*
X1071150Y528340D01*
X1069340Y529040D01*
X1067460Y529630D01*
X1065590Y530160D01*
X1063590Y530510D01*
X1061540Y530800D01*
X1059430Y530980D01*
X1057270Y531040D01*
X1057440Y518440D02*
X1058610Y518380D01*
X1059730Y518260D01*
X1060840Y518090D01*
X1061950Y517790D01*
X1063010Y517440D01*
X1064000Y516970D01*
X1065000Y516450D01*
X1065940Y515800D01*
X1066870Y515160D01*
X1067750Y514340D01*
X1068630Y513520D01*
X1069450Y512580D01*
X1070210Y511520D01*
X1070980Y510470D01*
X1071740Y509300D01*
X1072440Y508010D01*
X1073090Y506720D01*
X1073670Y505310D01*
X1074260Y503910D01*
X1074790Y502440D01*
X1075250Y500860D01*
X1075660Y499280D01*
X1076070Y497580D01*
X1076430Y495880D01*
X1076780Y494060D01*
X1077010Y492190D01*
X1077250Y490310D01*
X1077420Y488320D01*
X1077600Y486270D01*
X1077710Y484220D01*
X1077770Y482050D01*
Y479820D01*
X1077710Y475720D01*
X1077480Y471860D01*
X1077070Y468160D01*
X1076540Y464710D01*
X1075900Y461430D01*
X1075020Y458440D01*
X1074020Y455620D01*
X1072910Y452990D01*
X1072210Y451580D01*
X1071450Y450290D01*
X1070680Y449120D01*
X1069860Y448010D01*
X1068980Y447010D01*
X1068110Y446070D01*
X1067170Y445200D01*
X1066230Y444430D01*
X1065230Y443790D01*
X1064240Y443200D01*
X1063120Y442730D01*
X1062070Y442320D01*
X1060900Y442030D01*
X1059790Y441800D01*
X1058550Y441680D01*
X1057320Y441620D01*
X1056210Y441680D01*
X1055160Y441740D01*
X1054160Y441910D01*
X1053160Y442210D01*
X1052170Y442500D01*
X1051170Y442910D01*
X1050290Y443380D01*
X1049360Y443910D01*
X1048480Y444490D01*
X1047660Y445200D01*
X1046840Y445960D01*
X1046020Y446780D01*
X1045250Y447660D01*
X1044490Y448590D01*
X1043790Y449650D01*
X1043090Y450760D01*
X1042320Y452050D01*
X1041680Y453460D01*
X1041040Y454920D01*
X1040390Y456450D01*
X1039860Y458030D01*
X1039390Y459670D01*
X1038930Y461370D01*
X1038520Y463120D01*
X1038160Y465000D01*
X1037870Y466930D01*
X1037580Y468930D01*
X1037340Y470980D01*
X1037230Y473090D01*
X1037110Y475250D01*
X1036990Y477480D01*
Y479820D01*
Y482050D01*
X1037050Y484160D01*
X1037170Y486270D01*
X1037340Y488260D01*
X1037520Y490250D01*
X1037750Y492130D01*
X1037990Y494000D01*
X1038280Y495760D01*
X1038630Y497520D01*
X1039040Y499160D01*
X1039510Y500740D01*
X1039980Y502320D01*
X1040450Y503790D01*
X1041040Y505200D01*
X1041620Y506600D01*
X1042270Y507890D01*
X1042970Y509180D01*
X1043730Y510350D01*
X1044490Y511460D01*
X1045250Y512520D01*
X1046130Y513460D01*
X1046950Y514340D01*
X1047890Y515100D01*
X1048830Y515800D01*
X1049770Y516390D01*
X1050760Y516970D01*
X1051820Y517380D01*
X1052870Y517790D01*
X1053980Y518090D01*
X1055100Y518260D01*
X1056270Y518380D01*
X1057440Y518440D01*
X983610Y488670D02*
X975470D01*
X972950Y488730D01*
X970550Y488910D01*
X968320Y489200D01*
X966150Y489610D01*
X964160Y490140D01*
X962290Y490720D01*
X960530Y491480D01*
X958890Y492360D01*
X957950Y492950D01*
X957070Y493540D01*
X956250Y494180D01*
X955550Y494820D01*
X954840Y495530D01*
X954200Y496230D01*
X953610Y496930D01*
X953140Y497700D01*
X952680Y498520D01*
X952270Y499280D01*
X951970Y500160D01*
X951680Y501040D01*
X951500Y501910D01*
X951330Y502790D01*
X951210Y503730D01*
Y504730D01*
X951270Y506310D01*
X951560Y507830D01*
X951970Y509240D01*
X952620Y510530D01*
X953380Y511820D01*
X954370Y512990D01*
X955490Y514040D01*
X956840Y515040D01*
X958120Y515800D01*
X959470Y516500D01*
X960940Y517090D01*
X962400Y517560D01*
X964040Y517910D01*
X965680Y518140D01*
X967440Y518320D01*
X969260Y518380D01*
X970960Y518320D01*
X972600Y518200D01*
X974300Y518030D01*
X975940Y517730D01*
X977580Y517380D01*
X979220Y516910D01*
X980860Y516390D01*
X982440Y515800D01*
X984080Y515100D01*
X985660Y514340D01*
X987300Y513520D01*
X988890Y512580D01*
X990470Y511580D01*
X992050Y510470D01*
X993570Y509300D01*
X995160Y508070D01*
X1003650Y518550D01*
X1001720Y520020D01*
X999790Y521370D01*
X997790Y522660D01*
X995800Y523830D01*
X993690Y524940D01*
X991580Y525880D01*
X989470Y526820D01*
X987250Y527580D01*
X985020Y528280D01*
X982730Y528930D01*
X980450Y529450D01*
X978050Y529860D01*
X975640Y530210D01*
X973240Y530450D01*
X970720Y530570D01*
X968200Y530620D01*
X964860Y530510D01*
X961700Y530270D01*
X958650Y529800D01*
X955780Y529220D01*
X953030Y528400D01*
X950450Y527460D01*
X948050Y526290D01*
X945760Y525000D01*
X944470Y524120D01*
X943300Y523180D01*
X942130Y522250D01*
X941130Y521190D01*
X940200Y520140D01*
X939320Y519080D01*
X938500Y517910D01*
X937790Y516740D01*
X937210Y515510D01*
X936620Y514220D01*
X936210Y512870D01*
X935800Y511520D01*
X935510Y510120D01*
X935330Y508650D01*
X935210Y507130D01*
X935160Y505610D01*
X935270Y503260D01*
X935620Y500980D01*
X936210Y498810D01*
X936970Y496700D01*
X938030Y494650D01*
X939260Y492710D01*
X940780Y490900D01*
X942480Y489140D01*
X943950Y487850D01*
X945530Y486740D01*
X947230Y485740D01*
X949040Y484860D01*
X950980Y484100D01*
X953030Y483460D01*
X955200Y482930D01*
X957480Y482520D01*
Y482050D01*
X954550Y481460D01*
X951800Y480820D01*
X949220Y480000D01*
X946820Y479060D01*
X944590Y478010D01*
X942600Y476840D01*
X940720Y475490D01*
X939020Y474080D01*
X937440Y472440D01*
X936150Y470680D01*
X934980Y468810D01*
X934040Y466820D01*
X933340Y464710D01*
X932810Y462420D01*
X932520Y460020D01*
X932400Y457500D01*
X932460Y455620D01*
X932580Y453810D01*
X932810Y452110D01*
X933160Y450410D01*
X933570Y448770D01*
X934100Y447250D01*
X934750Y445720D01*
X935450Y444260D01*
X936270Y442910D01*
X937210Y441560D01*
X938200Y440330D01*
X939320Y439100D01*
X940490Y437990D01*
X941780Y436870D01*
X943180Y435820D01*
X944650Y434880D01*
X947050Y433540D01*
X949630Y432420D01*
X952320Y431430D01*
X955250Y430660D01*
X958360Y430020D01*
X961700Y429610D01*
X965160Y429320D01*
X968790Y429260D01*
X971720Y429320D01*
X974530Y429490D01*
X977290Y429790D01*
X979980Y430140D01*
X982620Y430660D01*
X985200Y431310D01*
X987710Y432010D01*
X990120Y432830D01*
X992460Y433830D01*
X994750Y434880D01*
X996970Y436050D01*
X999080Y437340D01*
X1001190Y438750D01*
X1003180Y440270D01*
X1005120Y441910D01*
X1006990Y443670D01*
X998140Y454220D01*
X996910Y452990D01*
X995620Y451820D01*
X994220Y450700D01*
X992750Y449650D01*
X991230Y448650D01*
X989590Y447710D01*
X987890Y446840D01*
X986070Y446020D01*
X983850Y445080D01*
X981620Y444320D01*
X979390Y443610D01*
X977230Y443090D01*
X975060Y442620D01*
X972950Y442320D01*
X970780Y442150D01*
X968670Y442090D01*
X966390Y442150D01*
X964160Y442320D01*
X962110Y442620D01*
X960230Y443090D01*
X958420Y443610D01*
X956780Y444320D01*
X955250Y445140D01*
X953850Y446070D01*
X952620Y447070D01*
X951560Y448240D01*
X950680Y449470D01*
X949980Y450880D01*
X949390Y452400D01*
X948980Y454040D01*
X948750Y455860D01*
X948690Y457730D01*
X948750Y459080D01*
X948870Y460310D01*
X949040Y461540D01*
X949340Y462710D01*
X949690Y463830D01*
X950160Y464940D01*
X950680Y465940D01*
X951270Y466930D01*
X951970Y467870D01*
X952730Y468750D01*
X953610Y469570D01*
X954550Y470390D01*
X955550Y471090D01*
X956600Y471800D01*
X957830Y472440D01*
X959060Y473030D01*
X960820Y473730D01*
X962700Y474370D01*
X964690Y474900D01*
X966740Y475310D01*
X968850Y475660D01*
X971070Y475900D01*
X973420Y476020D01*
X975820Y476070D01*
X983610D01*
Y488670D01*
X1150880Y424760D02*
X1154470D01*
X1393220D02*
X1396820D01*
X1149930Y427140D02*
X1158420D01*
X1392270D02*
X1400770D01*
X962770Y429520D02*
X974810D01*
X1049860D02*
X1064890D01*
X1148970D02*
X1157470D01*
X1219840D02*
X1230220D01*
X1292210D02*
X1307230D01*
X1391310D02*
X1399820D01*
X1444920D02*
X1452190D01*
X1625720D02*
X1640750D01*
X951040Y431900D02*
X987320D01*
X1042560D02*
X1072160D01*
X1148020D02*
X1156510D01*
X1211090D02*
X1231420D01*
X1284900D02*
X1314500D01*
X1390360D02*
X1398860D01*
X1434550D02*
X1463200D01*
X1507030D02*
X1577230D01*
X1618420D02*
X1648020D01*
X1689370D02*
X1759570D01*
X945720Y434280D02*
X993440D01*
X1038430D02*
X1076290D01*
X1147060D02*
X1155550D01*
X1204730D02*
X1232620D01*
X1280770D02*
X1318630D01*
X1389400D02*
X1397900D01*
X1429740D02*
X1468160D01*
X1507030D02*
X1577230D01*
X1614290D02*
X1652150D01*
X1689370D02*
X1759570D01*
X942060Y436660D02*
X997970D01*
X1035410D02*
X1079330D01*
X1146110D02*
X1154600D01*
X1199810D02*
X1233810D01*
X1277750D02*
X1321670D01*
X1388450D02*
X1396950D01*
X1426450D02*
X1471630D01*
X1507030D02*
X1577230D01*
X1611270D02*
X1655190D01*
X1689370D02*
X1759570D01*
X939380Y439040D02*
X1001570D01*
X1032960D02*
X1081770D01*
X1145150D02*
X1153640D01*
X1195780D02*
X1235010D01*
X1275300D02*
X1324120D01*
X1387490D02*
X1395990D01*
X1423830D02*
X1474420D01*
X1507030D02*
X1577230D01*
X1608820D02*
X1657630D01*
X1689370D02*
X1759570D01*
X937320Y441420D02*
X1004540D01*
X1030970D02*
X1083780D01*
X1144200D02*
X1152690D01*
X1192560D02*
X1228910D01*
X1273310D02*
X1326120D01*
X1386540D02*
X1395040D01*
X1421700D02*
X1476650D01*
X1507030D02*
X1577230D01*
X1606830D02*
X1659640D01*
X1689370D02*
X1759570D01*
X935730Y443800D02*
X957980D01*
X979990D02*
X1006880D01*
X1029280D02*
X1049550D01*
X1065230D02*
X1085520D01*
X1143240D02*
X1151730D01*
X1189820D02*
X1218130D01*
X1271630D02*
X1291900D01*
X1307580D02*
X1327860D01*
X1385580D02*
X1394080D01*
X1419960D02*
X1440530D01*
X1457700D02*
X1478620D01*
X1507030D02*
X1577230D01*
X1605140D02*
X1625410D01*
X1641090D02*
X1661380D01*
X1689370D02*
X1759570D01*
X934550Y446180D02*
X953710D01*
X986430D02*
X1004880D01*
X1027800D02*
X1046620D01*
X1068210D02*
X1087000D01*
X1142280D02*
X1150780D01*
X1187460D02*
X1211640D01*
X1270150D02*
X1288960D01*
X1310550D02*
X1329340D01*
X1384620D02*
X1393130D01*
X1418490D02*
X1436960D01*
X1461240D02*
X1480230D01*
X1561550D02*
X1576690D01*
X1603660D02*
X1622480D01*
X1644060D02*
X1662860D01*
X1743890D02*
X1759040D01*
X933640Y448560D02*
X951330D01*
X991070D02*
X1002890D01*
X1026530D02*
X1044510D01*
X1070270D02*
X1088280D01*
X1141330D02*
X1149820D01*
X1185460D02*
X1206960D01*
X1268880D02*
X1286860D01*
X1312620D02*
X1330630D01*
X1383670D02*
X1392170D01*
X1417310D02*
X1434570D01*
X1463680D02*
X1481560D01*
X1560290D02*
X1575720D01*
X1602390D02*
X1620370D01*
X1646130D02*
X1664140D01*
X1742630D02*
X1758060D01*
X933050Y450940D02*
X949960D01*
X994520D02*
X1000890D01*
X1025390D02*
X1042980D01*
X1071830D02*
X1089410D01*
X1140370D02*
X1148870D01*
X1183710D02*
X1203440D01*
X1267740D02*
X1285320D01*
X1314170D02*
X1331760D01*
X1382710D02*
X1391220D01*
X1416330D02*
X1432860D01*
X1465530D02*
X1482680D01*
X1558600D02*
X1574560D01*
X1601250D02*
X1618840D01*
X1647690D02*
X1665270D01*
X1740950D02*
X1756900D01*
X932650Y453320D02*
X949160D01*
X997240D02*
X998890D01*
X1024420D02*
X1041740D01*
X1073050D02*
X1090380D01*
X1139420D02*
X1147910D01*
X1182190D02*
X1200700D01*
X1266760D02*
X1284080D01*
X1315390D02*
X1332730D01*
X1381760D02*
X1390260D01*
X1415640D02*
X1431640D01*
X1466990D02*
X1483590D01*
X1556650D02*
X1573210D01*
X1600280D02*
X1617600D01*
X1648910D02*
X1666240D01*
X1738990D02*
X1755560D01*
X932460Y455700D02*
X948770D01*
X1023610D02*
X1040710D01*
X1074050D02*
X1091200D01*
X1138460D02*
X1146950D01*
X1180900D02*
X1198420D01*
X1265950D02*
X1283050D01*
X1316400D02*
X1333540D01*
X1380800D02*
X1389300D01*
X1415100D02*
X1430810D01*
X1468110D02*
X1484370D01*
X1554420D02*
X1571670D01*
X1599470D02*
X1616560D01*
X1649910D02*
X1667050D01*
X1736760D02*
X1754020D01*
X932430Y458080D02*
X948710D01*
X1022870D02*
X1039850D01*
X1074890D02*
X1091920D01*
X1137510D02*
X1146000D01*
X1179700D02*
X1196570D01*
X1265220D02*
X1282200D01*
X1317230D02*
X1334260D01*
X1379850D02*
X1388350D01*
X1414680D02*
X1430270D01*
X1468870D02*
X1485040D01*
X1551770D02*
X1569920D01*
X1598730D02*
X1615710D01*
X1650750D02*
X1667780D01*
X1734120D02*
X1752260D01*
X932570Y460460D02*
X948890D01*
X1022280D02*
X1039180D01*
X1075610D02*
X1092510D01*
X1136550D02*
X1145040D01*
X1178700D02*
X1195010D01*
X1264620D02*
X1281520D01*
X1317950D02*
X1334860D01*
X1378890D02*
X1387390D01*
X1414480D02*
X1429940D01*
X1469370D02*
X1485540D01*
X1548820D02*
X1567990D01*
X1598140D02*
X1615040D01*
X1651470D02*
X1668370D01*
X1731160D02*
X1750340D01*
X932910Y462840D02*
X949380D01*
X1021750D02*
X1038590D01*
X1076180D02*
X1093030D01*
X1135600D02*
X1144090D01*
X1177830D02*
X1193700D01*
X1264100D02*
X1280930D01*
X1318520D02*
X1335380D01*
X1377940D02*
X1386440D01*
X1414400D02*
X1429860D01*
X1469560D02*
X1485980D01*
X1545660D02*
X1565860D01*
X1597610D02*
X1614440D01*
X1652040D02*
X1668890D01*
X1728000D02*
X1748200D01*
X933510Y465220D02*
X950310D01*
X1021290D02*
X1038130D01*
X1076620D02*
X1093480D01*
X1134640D02*
X1143130D01*
X1177070D02*
X1192640D01*
X1205540D02*
X1223760D01*
X1263640D02*
X1280480D01*
X1318970D02*
X1335820D01*
X1376980D02*
X1385480D01*
X1414470D02*
X1429940D01*
X1469530D02*
X1486280D01*
X1542330D02*
X1563530D01*
X1597150D02*
X1613990D01*
X1652480D02*
X1669340D01*
X1724680D02*
X1745880D01*
X934410Y467600D02*
X951770D01*
X1020960D02*
X1037770D01*
X1076980D02*
X1093830D01*
X1133680D02*
X1142180D01*
X1176450D02*
X1191710D01*
X1199520D02*
X1229870D01*
X1263310D02*
X1280110D01*
X1319330D02*
X1336170D01*
X1376020D02*
X1384530D01*
X1414680D02*
X1430290D01*
X1469120D02*
X1486510D01*
X1538890D02*
X1560970D01*
X1596820D02*
X1613630D01*
X1652840D02*
X1669690D01*
X1721240D02*
X1743310D01*
X935710Y469980D02*
X954080D01*
X1020670D02*
X1037460D01*
X1077270D02*
X1094100D01*
X1132730D02*
X1141220D01*
X1175900D02*
X1190940D01*
X1195780D02*
X1233770D01*
X1263020D02*
X1279800D01*
X1319610D02*
X1336450D01*
X1375070D02*
X1383570D01*
X1415080D02*
X1430880D01*
X1468360D02*
X1486660D01*
X1535430D02*
X1558270D01*
X1596530D02*
X1613320D01*
X1653130D02*
X1669960D01*
X1717780D02*
X1740610D01*
X937380Y472360D02*
X957680D01*
X1020480D02*
X1037270D01*
X1077510D02*
X1094340D01*
X1131770D02*
X1140270D01*
X1175450D02*
X1190310D01*
X1193110D02*
X1236720D01*
X1262830D02*
X1279610D01*
X1319850D02*
X1336690D01*
X1374110D02*
X1382620D01*
X1415650D02*
X1431780D01*
X1467150D02*
X1486720D01*
X1531930D02*
X1555370D01*
X1596340D02*
X1613130D01*
X1653370D02*
X1670200D01*
X1714270D02*
X1737710D01*
X939820Y474740D02*
X964090D01*
X1020310D02*
X1037140D01*
X1077650D02*
X1094480D01*
X1130820D02*
X1139310D01*
X1175100D02*
X1189810D01*
X1191150D02*
X1239080D01*
X1262660D02*
X1279480D01*
X1320000D02*
X1336830D01*
X1373160D02*
X1381660D01*
X1416480D02*
X1433100D01*
X1465470D02*
X1486740D01*
X1528480D02*
X1552220D01*
X1596170D02*
X1613000D01*
X1653510D02*
X1670340D01*
X1710830D02*
X1734570D01*
X943080Y477120D02*
X983610D01*
X1020240D02*
X1037010D01*
X1077730D02*
X1094530D01*
X1129860D02*
X1138350D01*
X1174840D02*
X1205460D01*
X1217930D02*
X1240970D01*
X1262590D02*
X1279360D01*
X1320080D02*
X1336870D01*
X1372200D02*
X1380700D01*
X1417500D02*
X1435030D01*
X1463320D02*
X1486660D01*
X1525190D02*
X1548890D01*
X1596100D02*
X1612870D01*
X1653590D02*
X1670390D01*
X1707530D02*
X1731240D01*
X947940Y479500D02*
X983610D01*
X1020190D02*
X1036990D01*
X1077770D02*
X1094580D01*
X1128910D02*
X1137400D01*
X1174670D02*
X1200450D01*
X1222670D02*
X1242490D01*
X1262530D02*
X1279340D01*
X1320120D02*
X1336920D01*
X1371250D02*
X1379750D01*
X1418870D02*
X1437840D01*
X1460430D02*
X1486450D01*
X1522140D02*
X1545350D01*
X1596050D02*
X1612850D01*
X1653630D02*
X1670440D01*
X1704480D02*
X1727700D01*
X956640Y481880D02*
X983610D01*
X1020220D02*
X1036990D01*
X1077770D02*
X1094550D01*
X1127950D02*
X1136440D01*
X1174540D02*
X1197610D01*
X1225410D02*
X1243700D01*
X1262570D02*
X1279340D01*
X1320120D02*
X1336890D01*
X1370290D02*
X1378790D01*
X1420580D02*
X1442810D01*
X1455760D02*
X1486130D01*
X1519230D02*
X1541830D01*
X1596080D02*
X1612850D01*
X1653630D02*
X1670410D01*
X1701580D02*
X1724180D01*
X950570Y484260D02*
X983610D01*
X1020270D02*
X1037060D01*
X1077710D02*
X1094460D01*
X1127000D02*
X1135490D01*
X1174470D02*
X1195700D01*
X1227440D02*
X1244700D01*
X1262620D02*
X1279400D01*
X1320060D02*
X1336810D01*
X1369340D02*
X1377840D01*
X1422640D02*
X1468970D01*
X1470730D02*
X1485720D01*
X1516620D02*
X1538430D01*
X1596130D02*
X1612920D01*
X1653570D02*
X1670320D01*
X1698960D02*
X1720770D01*
X945700Y486640D02*
X983610D01*
X1020390D02*
X1037200D01*
X1077570D02*
X1094340D01*
X1126040D02*
X1134530D01*
X1174480D02*
X1194160D01*
X1228800D02*
X1245380D01*
X1262740D02*
X1279540D01*
X1319910D02*
X1336690D01*
X1368380D02*
X1376880D01*
X1425180D02*
X1466810D01*
X1470160D02*
X1485160D01*
X1514470D02*
X1535220D01*
X1596250D02*
X1613060D01*
X1653430D02*
X1670200D01*
X1696810D02*
X1717560D01*
X942620Y489020D02*
X969700D01*
X1020590D02*
X1037410D01*
X1077360D02*
X1094170D01*
X1125080D02*
X1133580D01*
X1174540D02*
X1193020D01*
X1229760D02*
X1245930D01*
X1262940D02*
X1279750D01*
X1319710D02*
X1336520D01*
X1367420D02*
X1375930D01*
X1428390D02*
X1463990D01*
X1469350D02*
X1484490D01*
X1512620D02*
X1532340D01*
X1596450D02*
X1613270D01*
X1653220D02*
X1670030D01*
X1694970D02*
X1714680D01*
X940360Y491400D02*
X960720D01*
X1020850D02*
X1037660D01*
X1077110D02*
X1093940D01*
X1124130D02*
X1132620D01*
X1174630D02*
X1192250D01*
X1230380D02*
X1246290D01*
X1263190D02*
X1280010D01*
X1319460D02*
X1336290D01*
X1366470D02*
X1374970D01*
X1432790D02*
X1460040D01*
X1468420D02*
X1483700D01*
X1511110D02*
X1529810D01*
X1596710D02*
X1613520D01*
X1652970D02*
X1669800D01*
X1693460D02*
X1712150D01*
X938580Y493780D02*
X956760D01*
X1021170D02*
X1037960D01*
X1076810D02*
X1093610D01*
X1123170D02*
X1131670D01*
X1174840D02*
X1191810D01*
X1230730D02*
X1246480D01*
X1263510D02*
X1280300D01*
X1319160D02*
X1335960D01*
X1365510D02*
X1374020D01*
X1441170D02*
X1452280D01*
X1467280D02*
X1482800D01*
X1509920D02*
X1527780D01*
X1597030D02*
X1613820D01*
X1652670D02*
X1669470D01*
X1692260D02*
X1710120D01*
X937250Y496160D02*
X954260D01*
X1021580D02*
X1038360D01*
X1076370D02*
X1093210D01*
X1122220D02*
X1130710D01*
X1175130D02*
X1191630D01*
X1230860D02*
X1246580D01*
X1263920D02*
X1280700D01*
X1318710D02*
X1335560D01*
X1364560D02*
X1373060D01*
X1465930D02*
X1481740D01*
X1509030D02*
X1526290D01*
X1597440D02*
X1614220D01*
X1652230D02*
X1669070D01*
X1691380D02*
X1708630D01*
X936310Y498540D02*
X952670D01*
X1022070D02*
X1038890D01*
X1075840D02*
X1092690D01*
X1121260D02*
X1129750D01*
X1175460D02*
X1191680D01*
X1230830D02*
X1246490D01*
X1264410D02*
X1281240D01*
X1318190D02*
X1335040D01*
X1363600D02*
X1372100D01*
X1464400D02*
X1480620D01*
X1508440D02*
X1525310D01*
X1597930D02*
X1614750D01*
X1651700D02*
X1668550D01*
X1690780D02*
X1707650D01*
X935640Y500920D02*
X951720D01*
X1022650D02*
X1039560D01*
X1075230D02*
X1092100D01*
X1120310D02*
X1128800D01*
X1175890D02*
X1191960D01*
X1230600D02*
X1246310D01*
X1264990D02*
X1281910D01*
X1317580D02*
X1334440D01*
X1362650D02*
X1371150D01*
X1462630D02*
X1479340D01*
X1508090D02*
X1524730D01*
X1598510D02*
X1615420D01*
X1651090D02*
X1667960D01*
X1690430D02*
X1707080D01*
X935270Y503300D02*
X951260D01*
X1023350D02*
X1040290D01*
X1074480D02*
X1091410D01*
X1119350D02*
X1127840D01*
X1176410D02*
X1192420D01*
X1230120D02*
X1245980D01*
X1265690D02*
X1282630D01*
X1316820D02*
X1333760D01*
X1361690D02*
X1370190D01*
X1460680D02*
X1477940D01*
X1507980D02*
X1524560D01*
X1599200D02*
X1616150D01*
X1650340D02*
X1667270D01*
X1690320D02*
X1706900D01*
X935160Y505680D02*
X951250D01*
X1024110D02*
X1041240D01*
X1073520D02*
X1090640D01*
X1118400D02*
X1126890D01*
X1177090D02*
X1193180D01*
X1229390D02*
X1245460D01*
X1266450D02*
X1283580D01*
X1315870D02*
X1332980D01*
X1360740D02*
X1369240D01*
X1458440D02*
X1476410D01*
X1508110D02*
X1524730D01*
X1599970D02*
X1617090D01*
X1649380D02*
X1666500D01*
X1690450D02*
X1707070D01*
X935280Y508060D02*
X951630D01*
X995150D02*
X995160D01*
X1025080D02*
X1042360D01*
X1072410D02*
X1089700D01*
X1117440D02*
X1125930D01*
X1177870D02*
X1194270D01*
X1228380D02*
X1244790D01*
X1267420D02*
X1284700D01*
X1314760D02*
X1332040D01*
X1359780D02*
X1368280D01*
X1455900D02*
X1474710D01*
X1508460D02*
X1525370D01*
X1565890D02*
X1569770D01*
X1600940D02*
X1618210D01*
X1648270D02*
X1665560D01*
X1690800D02*
X1707710D01*
X1748230D02*
X1752120D01*
X935580Y510440D02*
X952570D01*
X992050D02*
X997080D01*
X1026140D02*
X1043790D01*
X1070980D02*
X1088650D01*
X1116480D02*
X1124980D01*
X1178830D02*
X1195740D01*
X1226940D02*
X1243910D01*
X1268480D02*
X1286130D01*
X1313320D02*
X1331000D01*
X1358820D02*
X1367330D01*
X1452730D02*
X1472830D01*
X1508990D02*
X1526500D01*
X1563080D02*
X1572360D01*
X1602000D02*
X1619650D01*
X1646840D02*
X1664510D01*
X1691330D02*
X1708840D01*
X1745420D02*
X1754710D01*
X936190Y512820D02*
X954230D01*
X988480D02*
X999010D01*
X1027340D02*
X1045530D01*
X1069240D02*
X1087420D01*
X1115530D02*
X1124020D01*
X1179980D02*
X1197760D01*
X1224920D02*
X1242790D01*
X1269680D02*
X1287880D01*
X1311590D02*
X1329770D01*
X1357870D02*
X1366370D01*
X1448950D02*
X1470760D01*
X1509810D02*
X1528280D01*
X1559800D02*
X1574950D01*
X1603200D02*
X1621390D01*
X1645100D02*
X1663280D01*
X1692150D02*
X1710630D01*
X1742150D02*
X1757300D01*
X937070Y515200D02*
X957110D01*
X983850D02*
X1000940D01*
X1028780D02*
X1048020D01*
X1066870D02*
X1086010D01*
X1114570D02*
X1123070D01*
X1181300D02*
X1200560D01*
X1222060D02*
X1241400D01*
X1271130D02*
X1290360D01*
X1309220D02*
X1328350D01*
X1356910D02*
X1365420D01*
X1444360D02*
X1468350D01*
X1510930D02*
X1531100D01*
X1555430D02*
X1577540D01*
X1604640D02*
X1623880D01*
X1642730D02*
X1661860D01*
X1693280D02*
X1713440D01*
X1737780D02*
X1759890D01*
X938300Y517580D02*
X962490D01*
X976640D02*
X1002860D01*
X1030410D02*
X1052330D01*
X1062590D02*
X1084350D01*
X1113620D02*
X1122110D01*
X1182910D02*
X1205870D01*
X1217000D02*
X1239710D01*
X1272750D02*
X1294670D01*
X1304930D02*
X1326700D01*
X1355960D02*
X1364460D01*
X1438800D02*
X1465700D01*
X1512330D02*
X1537010D01*
X1547810D02*
X1575890D01*
X1606270D02*
X1628190D01*
X1638450D02*
X1660210D01*
X1694670D02*
X1719350D01*
X1730160D02*
X1758240D01*
X940050Y519960D02*
X1001800D01*
X1032310D02*
X1082430D01*
X1112660D02*
X1121150D01*
X1184880D02*
X1237660D01*
X1274660D02*
X1324770D01*
X1355000D02*
X1363500D01*
X1432090D02*
X1462580D01*
X1514160D02*
X1573350D01*
X1608170D02*
X1658290D01*
X1696510D02*
X1755690D01*
X942240Y522340D02*
X998290D01*
X1034590D02*
X1080150D01*
X1111710D02*
X1120200D01*
X1187250D02*
X1235290D01*
X1276930D02*
X1322490D01*
X1354050D02*
X1362550D01*
X1429070D02*
X1459160D01*
X1516540D02*
X1570280D01*
X1610450D02*
X1656000D01*
X1698880D02*
X1752620D01*
X945350Y524720D02*
X994110D01*
X1037400D02*
X1077340D01*
X1110750D02*
X1119240D01*
X1190210D02*
X1232260D01*
X1279740D02*
X1319690D01*
X1353090D02*
X1361590D01*
X1430210D02*
X1455090D01*
X1519550D02*
X1566440D01*
X1613260D02*
X1653200D01*
X1701890D02*
X1748780D01*
X949710Y527100D02*
X988650D01*
X1040960D02*
X1073670D01*
X1109800D02*
X1118290D01*
X1194080D02*
X1228380D01*
X1283300D02*
X1316010D01*
X1352140D02*
X1360640D01*
X1431350D02*
X1450290D01*
X1523780D02*
X1561410D01*
X1616820D02*
X1649530D01*
X1706120D02*
X1743750D01*
X957070Y529480D02*
X980270D01*
X1046540D02*
X1067940D01*
X1108840D02*
X1117330D01*
X1200230D02*
X1222370D01*
X1288890D02*
X1310280D01*
X1351180D02*
X1359680D01*
X1432490D02*
X1444340D01*
X1530580D02*
X1553840D01*
X1622400D02*
X1643800D01*
X1712930D02*
X1736180D01*
X1107880Y531860D02*
X1116380D01*
X1350220D02*
X1358730D01*
X1433620D02*
X1436670D01*
X1109040Y534240D02*
X1115420D01*
X1351380D02*
X1357770D01*
X2023020Y3386040D02*
X2025210Y3384200D01*
X2027460Y3382420D01*
X2029790Y3380850D01*
X2032180Y3379350D01*
X2034570Y3377910D01*
X2037100Y3376680D01*
X2039700Y3375520D01*
X2042360Y3374490D01*
X2045100Y3373600D01*
X2047900Y3372850D01*
X2050770Y3372170D01*
X2053710Y3371620D01*
X2056720Y3371210D01*
X2059790Y3370870D01*
X2062940Y3370730D01*
X2066150Y3370660D01*
X2069430Y3370730D01*
X2072580Y3370940D01*
X2075650Y3371280D01*
X2078730Y3371830D01*
X2081600Y3372440D01*
X2084470Y3373260D01*
X2087280Y3374150D01*
X2089940Y3375240D01*
X2092540Y3376410D01*
X2095070Y3377770D01*
X2097530Y3379280D01*
X2099920Y3380920D01*
X2102250Y3382700D01*
X2104430Y3384610D01*
X2106550Y3386730D01*
X2108600Y3388920D01*
X2110240Y3390900D01*
X2111820Y3392950D01*
X2113250Y3395070D01*
X2114550Y3397260D01*
X2115780Y3399580D01*
X2116940Y3401900D01*
X2117970Y3404370D01*
X2118860Y3406830D01*
X2119680Y3409420D01*
X2120360Y3412090D01*
X2120910Y3414820D01*
X2121390Y3417630D01*
X2121800Y3420500D01*
X2122070Y3423440D01*
X2122210Y3426510D01*
X2122280Y3429590D01*
X2122210Y3432530D01*
X2122070Y3435470D01*
X2121800Y3438270D01*
X2121460Y3441070D01*
X2120980Y3443810D01*
X2120430Y3446470D01*
X2119750Y3449070D01*
X2118930Y3451600D01*
X2118110Y3454130D01*
X2117080Y3456520D01*
X2115990Y3458920D01*
X2114820Y3461240D01*
X2113530Y3463500D01*
X2112090Y3465680D01*
X2110590Y3467870D01*
X2109010Y3469920D01*
X2107030Y3472250D01*
X2104910Y3474500D01*
X2102720Y3476550D01*
X2100470Y3478470D01*
X2098140Y3480180D01*
X2095750Y3481820D01*
X2093290Y3483250D01*
X2090690Y3484550D01*
X2088030Y3485640D01*
X2085290Y3486670D01*
X2082490Y3487490D01*
X2079620Y3488170D01*
X2076680Y3488720D01*
X2073600Y3489060D01*
X2070530Y3489340D01*
X2067310Y3489400D01*
X2063690Y3489340D01*
X2060140Y3489060D01*
X2056720Y3488580D01*
X2053370Y3487970D01*
X2050090Y3487220D01*
X2046940Y3486260D01*
X2043940Y3485100D01*
X2041000Y3483800D01*
X2039080Y3482770D01*
X2037100Y3481680D01*
X2035120Y3480450D01*
X2033070Y3479010D01*
X2031080Y3477580D01*
X2029030Y3475940D01*
X2026980Y3474160D01*
X2024860Y3472310D01*
X2035730Y3459800D01*
X2037300Y3461510D01*
X2038880Y3463150D01*
X2040520Y3464660D01*
X2042230Y3466030D01*
X2044000Y3467320D01*
X2045780Y3468490D01*
X2047630Y3469510D01*
X2049540Y3470470D01*
X2051460Y3471290D01*
X2053510Y3472040D01*
X2055560Y3472660D01*
X2057610Y3473130D01*
X2059790Y3473540D01*
X2061980Y3473820D01*
X2064170Y3473960D01*
X2066490Y3474020D01*
X2068480Y3473960D01*
X2070460Y3473820D01*
X2072370Y3473610D01*
X2074220Y3473270D01*
X2076000Y3472790D01*
X2077770Y3472310D01*
X2079480Y3471630D01*
X2081120Y3470950D01*
X2082760Y3470130D01*
X2084340Y3469240D01*
X2085840Y3468210D01*
X2087280Y3467120D01*
X2088710Y3465890D01*
X2090080Y3464590D01*
X2091380Y3463220D01*
X2092680Y3461720D01*
X2093840Y3460150D01*
X2095000Y3458570D01*
X2096030Y3456870D01*
X2096980Y3455160D01*
X2097870Y3453380D01*
X2098690Y3451460D01*
X2099370Y3449550D01*
X2100060Y3447570D01*
X2100610Y3445520D01*
X2101150Y3443400D01*
X2101560Y3441210D01*
X2101900Y3438960D01*
X2102180Y3436630D01*
X2102380Y3434240D01*
X2102450Y3431850D01*
X2102520Y3429320D01*
X2102380Y3425280D01*
X2102040Y3421390D01*
X2101430Y3417630D01*
X2100540Y3414070D01*
X2099440Y3410720D01*
X2098140Y3407440D01*
X2096570Y3404370D01*
X2094730Y3401490D01*
X2093360Y3399650D01*
X2091990Y3397940D01*
X2090560Y3396370D01*
X2088980Y3394930D01*
X2087410Y3393560D01*
X2085770Y3392330D01*
X2084060Y3391240D01*
X2082290Y3390210D01*
X2080440Y3389330D01*
X2078530Y3388570D01*
X2076610Y3387890D01*
X2074560Y3387410D01*
X2072510Y3387000D01*
X2070320Y3386660D01*
X2068130Y3386520D01*
X2065880Y3386460D01*
X2063420Y3386520D01*
X2060960Y3386660D01*
X2058560Y3386930D01*
X2056240Y3387340D01*
X2053980Y3387820D01*
X2051730Y3388440D01*
X2049540Y3389190D01*
X2047420Y3390010D01*
X2045370Y3390970D01*
X2043320Y3392060D01*
X2041340Y3393220D01*
X2039420Y3394520D01*
X2037580Y3395890D01*
X2035730Y3397390D01*
X2033960Y3399030D01*
X2032250Y3400740D01*
X2023020Y3386040D01*
X1967440Y3458570D02*
X1965120Y3458510D01*
X1962860Y3458370D01*
X1960610Y3458100D01*
X1958420Y3457750D01*
X1956300Y3457340D01*
X1954250Y3456800D01*
X1952270Y3456110D01*
X1950280Y3455360D01*
X1948370Y3454540D01*
X1946520Y3453580D01*
X1944680Y3452560D01*
X1942900Y3451400D01*
X1941190Y3450100D01*
X1939550Y3448800D01*
X1937980Y3447360D01*
X1936410Y3445790D01*
X1934970Y3444220D01*
X1933670Y3442650D01*
X1932440Y3441010D01*
X1931350Y3439300D01*
X1930250Y3437520D01*
X1929300Y3435740D01*
X1928480Y3433830D01*
X1927660Y3431910D01*
X1926970Y3429930D01*
X1926430Y3427880D01*
X1925950Y3425830D01*
X1925540Y3423710D01*
X1925200Y3421460D01*
X1924990Y3419200D01*
X1924850Y3416940D01*
X1924790Y3414550D01*
X1924850Y3412290D01*
X1924920Y3410040D01*
X1925130Y3407920D01*
X1925400Y3405800D01*
X1925810Y3403750D01*
X1926220Y3401700D01*
X1926770Y3399720D01*
X1927380Y3397800D01*
X1928070Y3395960D01*
X1928820Y3394180D01*
X1929710Y3392400D01*
X1930600Y3390690D01*
X1931620Y3388980D01*
X1932710Y3387410D01*
X1933950Y3385840D01*
X1935180Y3384340D01*
X1936750Y3382700D01*
X1938320Y3381120D01*
X1940030Y3379620D01*
X1941740Y3378320D01*
X1943580Y3377020D01*
X1945430Y3375930D01*
X1947340Y3374900D01*
X1949390Y3373950D01*
X1951450Y3373190D01*
X1953560Y3372440D01*
X1955750Y3371890D01*
X1958010Y3371420D01*
X1960330Y3371010D01*
X1962720Y3370730D01*
X1965120Y3370600D01*
X1967650Y3370530D01*
X1970240Y3370600D01*
X1972710Y3370730D01*
X1975170Y3371010D01*
X1977560Y3371420D01*
X1979880Y3371960D01*
X1982070Y3372580D01*
X1984260Y3373330D01*
X1986380Y3374150D01*
X1988430Y3375180D01*
X1990340Y3376270D01*
X1992260Y3377430D01*
X1994100Y3378730D01*
X1995880Y3380170D01*
X1997520Y3381740D01*
X1999160Y3383380D01*
X2000730Y3385160D01*
X2001890Y3386660D01*
X2002990Y3388160D01*
X2004010Y3389740D01*
X2004970Y3391380D01*
X2005860Y3393090D01*
X2006610Y3394790D01*
X2007360Y3396570D01*
X2007980Y3398350D01*
X2008590Y3400260D01*
X2009070Y3402180D01*
X2009480Y3404090D01*
X2009820Y3406070D01*
X2010100Y3408120D01*
X2010300Y3410240D01*
X2010370Y3412360D01*
X2010440Y3414550D01*
X2010370Y3417560D01*
X2010170Y3420500D01*
X2009820Y3423300D01*
X2009280Y3426040D01*
X2008660Y3428700D01*
X2007840Y3431230D01*
X2006950Y3433690D01*
X2005860Y3436020D01*
X2004630Y3438270D01*
X2003330Y3440390D01*
X2001830Y3442440D01*
X2000190Y3444420D01*
X1998410Y3446270D01*
X1996490Y3448050D01*
X1994370Y3449760D01*
X1992190Y3451330D01*
X1989450Y3453040D01*
X1986580Y3454470D01*
X1983640Y3455770D01*
X1980570Y3456730D01*
X1977420Y3457550D01*
X1974210Y3458100D01*
X1970860Y3458440D01*
X1967440Y3458570D01*
X1967710Y3444560D02*
X1969700Y3444490D01*
X1971610Y3444220D01*
X1973460Y3443810D01*
X1975300Y3443190D01*
X1977080Y3442370D01*
X1978790Y3441420D01*
X1980430Y3440320D01*
X1982070Y3439020D01*
X1983230Y3437930D01*
X1984330Y3436840D01*
X1985280Y3435670D01*
X1986240Y3434440D01*
X1987060Y3433080D01*
X1987880Y3431710D01*
X1988560Y3430270D01*
X1989180Y3428770D01*
X1989730Y3427270D01*
X1990210Y3425620D01*
X1990620Y3423920D01*
X1990960Y3422210D01*
X1991230Y3420360D01*
X1991440Y3418520D01*
X1991500Y3416530D01*
X1991570Y3414550D01*
X1991500Y3412640D01*
X1991440Y3410790D01*
X1991230Y3409010D01*
X1990960Y3407240D01*
X1990680Y3405600D01*
X1990270Y3403890D01*
X1989790Y3402310D01*
X1989250Y3400740D01*
X1988020Y3397940D01*
X1986510Y3395340D01*
X1984800Y3393020D01*
X1982820Y3390970D01*
X1981180Y3389600D01*
X1979470Y3388370D01*
X1977700Y3387410D01*
X1975850Y3386520D01*
X1973870Y3385910D01*
X1971820Y3385430D01*
X1969700Y3385160D01*
X1967510Y3385090D01*
X1966010Y3385160D01*
X1964570Y3385220D01*
X1963200Y3385430D01*
X1961840Y3385700D01*
X1960540Y3386040D01*
X1959310Y3386520D01*
X1958080Y3387000D01*
X1956850Y3387620D01*
X1955680Y3388230D01*
X1954590Y3388980D01*
X1953560Y3389800D01*
X1952540Y3390760D01*
X1951510Y3391720D01*
X1950620Y3392740D01*
X1949740Y3393910D01*
X1948850Y3395140D01*
X1947620Y3397190D01*
X1946590Y3399310D01*
X1945700Y3401560D01*
X1944950Y3403960D01*
X1944400Y3406420D01*
X1943990Y3409010D01*
X1943720Y3411750D01*
X1943650Y3414620D01*
X1943790Y3417900D01*
X1944060Y3421040D01*
X1944610Y3423980D01*
X1945360Y3426790D01*
X1946390Y3429450D01*
X1947550Y3431910D01*
X1948980Y3434240D01*
X1950620Y3436430D01*
X1952400Y3438340D01*
X1954250Y3439980D01*
X1956230Y3441350D01*
X1958280Y3442510D01*
X1960470Y3443400D01*
X1962790Y3444010D01*
X1965190Y3444420D01*
X1967710Y3444560D01*
X1847130Y3493030D02*
X1828810D01*
Y3372920D01*
X1845900D01*
Y3384270D01*
X1847540Y3382150D01*
X1849250Y3380170D01*
X1851230Y3378460D01*
X1853280Y3376880D01*
X1855610Y3375450D01*
X1858000Y3374220D01*
X1860460Y3373190D01*
X1862990Y3372300D01*
X1865650Y3371620D01*
X1868390Y3371210D01*
X1871190Y3370870D01*
X1874130Y3370800D01*
X1876460Y3370870D01*
X1878710Y3371010D01*
X1880900Y3371280D01*
X1883020Y3371690D01*
X1885070Y3372240D01*
X1887050Y3372850D01*
X1888960Y3373600D01*
X1890880Y3374420D01*
X1892660Y3375380D01*
X1894430Y3376470D01*
X1896070Y3377640D01*
X1897710Y3378940D01*
X1899290Y3380370D01*
X1900790Y3381870D01*
X1902230Y3383520D01*
X1903590Y3385290D01*
X1905580Y3388300D01*
X1907290Y3391450D01*
X1908790Y3394790D01*
X1909950Y3398280D01*
X1910910Y3402040D01*
X1911520Y3405940D01*
X1911930Y3410040D01*
X1912070Y3414280D01*
X1912000Y3417830D01*
X1911730Y3421250D01*
X1911250Y3424530D01*
X1910570Y3427740D01*
X1909750Y3430820D01*
X1908720Y3433760D01*
X1907490Y3436630D01*
X1906120Y3439370D01*
X1904620Y3441830D01*
X1903050Y3444150D01*
X1901270Y3446270D01*
X1899360Y3448250D01*
X1897370Y3450100D01*
X1895250Y3451740D01*
X1892930Y3453170D01*
X1890540Y3454470D01*
X1888620Y3455360D01*
X1886780Y3456110D01*
X1884790Y3456730D01*
X1882810Y3457210D01*
X1880830Y3457620D01*
X1878780Y3457960D01*
X1876730Y3458100D01*
X1874610Y3458160D01*
X1872350Y3458100D01*
X1870230Y3457960D01*
X1868120Y3457750D01*
X1866060Y3457410D01*
X1864150Y3456930D01*
X1862240Y3456390D01*
X1860460Y3455770D01*
X1858680Y3455020D01*
X1856970Y3454200D01*
X1855400Y3453310D01*
X1853830Y3452290D01*
X1852320Y3451190D01*
X1850960Y3449960D01*
X1849590Y3448660D01*
X1848360Y3447230D01*
X1847130Y3445720D01*
Y3493030D01*
Y3429860D02*
X1848360Y3431570D01*
X1849660Y3433140D01*
X1850960Y3434650D01*
X1852320Y3436020D01*
X1853620Y3437310D01*
X1854990Y3438480D01*
X1856430Y3439500D01*
X1857790Y3440460D01*
X1859230Y3441280D01*
X1860660Y3442030D01*
X1862170Y3442650D01*
X1863670Y3443120D01*
X1865180Y3443540D01*
X1866750Y3443810D01*
X1868320Y3443950D01*
X1869890Y3444010D01*
X1871330Y3443950D01*
X1872760Y3443880D01*
X1874130Y3443600D01*
X1875500Y3443330D01*
X1876730Y3442990D01*
X1878030Y3442510D01*
X1879190Y3441960D01*
X1880350Y3441350D01*
X1881510Y3440660D01*
X1882540Y3439840D01*
X1883560Y3439020D01*
X1884590Y3438070D01*
X1885550Y3437040D01*
X1886440Y3435880D01*
X1887320Y3434720D01*
X1888140Y3433420D01*
X1889240Y3431370D01*
X1890260Y3429250D01*
X1891080Y3426990D01*
X1891700Y3424600D01*
X1892250Y3422140D01*
X1892660Y3419540D01*
X1892860Y3416810D01*
X1892930Y3414000D01*
X1892860Y3411470D01*
X1892720Y3409080D01*
X1892380Y3406830D01*
X1891970Y3404570D01*
X1891490Y3402520D01*
X1890880Y3400470D01*
X1890130Y3398550D01*
X1889240Y3396780D01*
X1888420Y3395340D01*
X1887600Y3394040D01*
X1886710Y3392810D01*
X1885750Y3391650D01*
X1884730Y3390620D01*
X1883700Y3389670D01*
X1882540Y3388780D01*
X1881380Y3388030D01*
X1880150Y3387340D01*
X1878850Y3386730D01*
X1877550Y3386250D01*
X1876180Y3385840D01*
X1874680Y3385500D01*
X1873170Y3385290D01*
X1871670Y3385160D01*
X1870030Y3385090D01*
X1867770Y3385220D01*
X1865590Y3385500D01*
X1863470Y3386040D01*
X1861420Y3386800D01*
X1859430Y3387750D01*
X1857520Y3388920D01*
X1855670Y3390350D01*
X1853900Y3391920D01*
X1852940Y3392950D01*
X1851980Y3394040D01*
X1851030Y3395210D01*
X1850210Y3396440D01*
X1849380Y3397730D01*
X1848560Y3399170D01*
X1847810Y3400610D01*
X1847130Y3402180D01*
Y3429860D01*
X1729000Y3411060D02*
X1790600D01*
X1790390Y3408400D01*
X1789980Y3405870D01*
X1789430Y3403480D01*
X1788610Y3401220D01*
X1787720Y3399100D01*
X1786560Y3397050D01*
X1785260Y3395210D01*
X1783760Y3393430D01*
X1781780Y3391580D01*
X1779660Y3389940D01*
X1777400Y3388570D01*
X1775080Y3387410D01*
X1772550Y3386520D01*
X1769950Y3385910D01*
X1767150Y3385570D01*
X1764280Y3385430D01*
X1762570Y3385500D01*
X1760860Y3385630D01*
X1759150Y3385910D01*
X1757510Y3386250D01*
X1755870Y3386730D01*
X1754300Y3387280D01*
X1752660Y3387890D01*
X1751150Y3388710D01*
X1749580Y3389530D01*
X1748080Y3390560D01*
X1746640Y3391580D01*
X1745140Y3392740D01*
X1743700Y3394040D01*
X1742330Y3395410D01*
X1740970Y3396910D01*
X1739600Y3398490D01*
X1728660Y3387410D01*
X1730370Y3385360D01*
X1732220Y3383450D01*
X1734060Y3381670D01*
X1736040Y3379960D01*
X1738100Y3378460D01*
X1740210Y3377090D01*
X1742400Y3375790D01*
X1744730Y3374700D01*
X1747120Y3373670D01*
X1749580Y3372850D01*
X1752110Y3372100D01*
X1754710Y3371480D01*
X1757370Y3371070D01*
X1760180Y3370730D01*
X1763050Y3370530D01*
X1765990Y3370460D01*
X1768380Y3370530D01*
X1770770Y3370660D01*
X1773030Y3370870D01*
X1775280Y3371210D01*
X1777470Y3371690D01*
X1779590Y3372240D01*
X1781640Y3372850D01*
X1783620Y3373600D01*
X1785610Y3374420D01*
X1787450Y3375310D01*
X1789300Y3376340D01*
X1791070Y3377500D01*
X1792710Y3378730D01*
X1794360Y3380030D01*
X1796000Y3381460D01*
X1797500Y3382970D01*
X1798870Y3384470D01*
X1800170Y3386110D01*
X1801400Y3387750D01*
X1802490Y3389390D01*
X1803520Y3391170D01*
X1804470Y3392950D01*
X1805290Y3394790D01*
X1806040Y3396710D01*
X1806730Y3398690D01*
X1807280Y3400740D01*
X1807820Y3402790D01*
X1808230Y3404910D01*
X1808510Y3407100D01*
X1808710Y3409360D01*
X1808850Y3411680D01*
X1808920Y3414000D01*
X1808780Y3417830D01*
X1808440Y3421460D01*
X1807890Y3425010D01*
X1807070Y3428430D01*
X1805980Y3431710D01*
X1804750Y3434920D01*
X1803240Y3437930D01*
X1801460Y3440870D01*
X1799760Y3443330D01*
X1797840Y3445590D01*
X1795860Y3447710D01*
X1793740Y3449620D01*
X1791420Y3451330D01*
X1789020Y3452900D01*
X1786430Y3454340D01*
X1783760Y3455570D01*
X1781850Y3456320D01*
X1779930Y3456930D01*
X1777950Y3457480D01*
X1775900Y3457890D01*
X1773850Y3458230D01*
X1771800Y3458510D01*
X1769680Y3458640D01*
X1767560Y3458710D01*
X1764210Y3458570D01*
X1760930Y3458230D01*
X1757850Y3457620D01*
X1754840Y3456800D01*
X1751970Y3455700D01*
X1749240Y3454400D01*
X1746570Y3452830D01*
X1744110Y3451050D01*
X1741720Y3449000D01*
X1739460Y3446750D01*
X1737480Y3444360D01*
X1735700Y3441690D01*
X1734130Y3438890D01*
X1732700Y3435880D01*
X1731530Y3432670D01*
X1730580Y3429250D01*
X1729890Y3426040D01*
X1729410Y3422690D01*
X1729070Y3419340D01*
X1729000Y3415850D01*
Y3411060D01*
X1747320Y3424390D02*
X1747530Y3426100D01*
X1747730Y3427740D01*
X1748080Y3429320D01*
X1748490Y3430820D01*
X1749030Y3432260D01*
X1749580Y3433620D01*
X1750260Y3434920D01*
X1751020Y3436150D01*
X1752590Y3438200D01*
X1754300Y3439980D01*
X1756210Y3441420D01*
X1758260Y3442650D01*
X1760450Y3443600D01*
X1762840Y3444290D01*
X1765370Y3444700D01*
X1768110Y3444830D01*
X1770570Y3444700D01*
X1772890Y3444360D01*
X1775080Y3443670D01*
X1777200Y3442780D01*
X1779180Y3441690D01*
X1781090Y3440320D01*
X1782870Y3438680D01*
X1784510Y3436770D01*
X1785470Y3435470D01*
X1786290Y3434100D01*
X1787040Y3432670D01*
X1787720Y3431160D01*
X1788270Y3429590D01*
X1788750Y3427950D01*
X1789160Y3426170D01*
X1789430Y3424390D01*
X1747320D01*
X1692090Y3431160D02*
X1691540D01*
X1690380Y3434440D01*
X1689080Y3437520D01*
X1687780Y3440390D01*
X1686420Y3443060D01*
X1684910Y3445450D01*
X1683340Y3447710D01*
X1681700Y3449690D01*
X1679990Y3451530D01*
X1678210Y3453110D01*
X1676370Y3454470D01*
X1674380Y3455630D01*
X1672400Y3456590D01*
X1670280Y3457340D01*
X1668160Y3457890D01*
X1665910Y3458160D01*
X1663580Y3458300D01*
X1660850Y3458160D01*
X1658180Y3457750D01*
X1655590Y3457140D01*
X1653060Y3456180D01*
X1657770Y3438960D01*
X1659690Y3439500D01*
X1661670Y3439910D01*
X1663650Y3440190D01*
X1665630Y3440250D01*
X1666930Y3440190D01*
X1668160Y3440120D01*
X1669460Y3439910D01*
X1670620Y3439570D01*
X1671860Y3439230D01*
X1673020Y3438750D01*
X1674110Y3438200D01*
X1675210Y3437590D01*
X1676300Y3436900D01*
X1677320Y3436150D01*
X1678350Y3435260D01*
X1679370Y3434310D01*
X1680330Y3433280D01*
X1681290Y3432190D01*
X1682180Y3431030D01*
X1683070Y3429730D01*
X1684160Y3427950D01*
X1685190Y3426040D01*
X1686140Y3423980D01*
X1687030Y3421800D01*
X1687780Y3419540D01*
X1688470Y3417150D01*
X1689080Y3414620D01*
X1689560Y3411950D01*
Y3373330D01*
X1707740D01*
Y3455910D01*
X1690520D01*
X1692090Y3431160D01*
X1638700Y3486740D02*
X1601650D01*
X1598710Y3486670D01*
X1595840Y3486600D01*
X1593040Y3486400D01*
X1590300Y3486120D01*
X1587640Y3485780D01*
X1585040Y3485370D01*
X1582510Y3484890D01*
X1580050Y3484280D01*
X1577660Y3483660D01*
X1575330Y3482910D01*
X1573080Y3482090D01*
X1570890Y3481200D01*
X1568770Y3480310D01*
X1566720Y3479220D01*
X1564740Y3478120D01*
X1562820Y3476960D01*
X1559880Y3474910D01*
X1557220Y3472660D01*
X1554690Y3470260D01*
X1552290Y3467600D01*
X1550180Y3464860D01*
X1548260Y3461860D01*
X1546480Y3458710D01*
X1544910Y3455360D01*
X1543750Y3452490D01*
X1542720Y3449550D01*
X1541900Y3446470D01*
X1541220Y3443400D01*
X1540670Y3440190D01*
X1540260Y3436970D01*
X1540060Y3433620D01*
X1539990Y3430210D01*
X1540060Y3427330D01*
X1540200Y3424460D01*
X1540470Y3421730D01*
X1540810Y3418990D01*
X1541290Y3416400D01*
X1541840Y3413800D01*
X1542520Y3411270D01*
X1543340Y3408880D01*
X1544230Y3406480D01*
X1545190Y3404160D01*
X1546280Y3401900D01*
X1547510Y3399720D01*
X1548810Y3397600D01*
X1550180Y3395550D01*
X1551680Y3393500D01*
X1553320Y3391580D01*
X1555920Y3388850D01*
X1558720Y3386320D01*
X1561660Y3383990D01*
X1564740Y3381940D01*
X1568090Y3380100D01*
X1571570Y3378460D01*
X1575200Y3377090D01*
X1579020Y3375930D01*
X1581620Y3375310D01*
X1584290Y3374770D01*
X1587090Y3374360D01*
X1589960Y3373950D01*
X1592970Y3373670D01*
X1596110Y3373470D01*
X1599390Y3373400D01*
X1602740Y3373330D01*
X1638700D01*
Y3486740D01*
X1620520Y3471490D02*
Y3388850D01*
X1605270D01*
X1602810D01*
X1600420Y3388980D01*
X1598100Y3389120D01*
X1595910Y3389260D01*
X1593720Y3389530D01*
X1591670Y3389870D01*
X1589620Y3390210D01*
X1587710Y3390620D01*
X1585790Y3391100D01*
X1584010Y3391650D01*
X1582300Y3392200D01*
X1580660Y3392810D01*
X1579090Y3393560D01*
X1577590Y3394320D01*
X1576220Y3395070D01*
X1574850Y3395960D01*
X1572940Y3397320D01*
X1571230Y3398830D01*
X1569590Y3400400D01*
X1568090Y3402110D01*
X1566650Y3403890D01*
X1565420Y3405800D01*
X1564260Y3407780D01*
X1563230Y3409830D01*
X1562280Y3412020D01*
X1561520Y3414350D01*
X1560840Y3416740D01*
X1560290Y3419200D01*
X1559880Y3421800D01*
X1559610Y3424530D01*
X1559400Y3427330D01*
X1559340Y3430210D01*
X1559400Y3433280D01*
X1559610Y3436220D01*
X1559950Y3439020D01*
X1560430Y3441760D01*
X1561040Y3444360D01*
X1561800Y3446880D01*
X1562690Y3449280D01*
X1563710Y3451530D01*
X1564870Y3453650D01*
X1566170Y3455700D01*
X1567610Y3457690D01*
X1569180Y3459460D01*
X1570890Y3461170D01*
X1572730Y3462740D01*
X1574720Y3464250D01*
X1576840Y3465620D01*
X1579430Y3466980D01*
X1582240Y3468210D01*
X1585310Y3469170D01*
X1588660Y3469990D01*
X1592220Y3470670D01*
X1596040Y3471150D01*
X1600150Y3471430D01*
X1604450Y3471490D01*
X1620520D01*
X1482980Y3458570D02*
X1480650Y3458510D01*
X1478400Y3458370D01*
X1476140Y3458100D01*
X1473960Y3457750D01*
X1471840Y3457340D01*
X1469790Y3456800D01*
X1467800Y3456110D01*
X1465820Y3455360D01*
X1463910Y3454540D01*
X1462060Y3453580D01*
X1460210Y3452560D01*
X1458440Y3451400D01*
X1456730Y3450100D01*
X1455090Y3448800D01*
X1453520Y3447360D01*
X1451940Y3445790D01*
X1450510Y3444220D01*
X1449210Y3442650D01*
X1447980Y3441010D01*
X1446880Y3439300D01*
X1445790Y3437520D01*
X1444830Y3435740D01*
X1444010Y3433830D01*
X1443190Y3431910D01*
X1442510Y3429930D01*
X1441960Y3427880D01*
X1441480Y3425830D01*
X1441070Y3423710D01*
X1440730Y3421460D01*
X1440530Y3419200D01*
X1440390Y3416940D01*
X1440320Y3414550D01*
X1440390Y3412290D01*
X1440460Y3410040D01*
X1440660Y3407920D01*
X1440940Y3405800D01*
X1441350Y3403750D01*
X1441760Y3401700D01*
X1442300Y3399720D01*
X1442920Y3397800D01*
X1443600Y3395960D01*
X1444360Y3394180D01*
X1445240Y3392400D01*
X1446130Y3390690D01*
X1447160Y3388980D01*
X1448250Y3387410D01*
X1449480Y3385840D01*
X1450710Y3384340D01*
X1452290Y3382700D01*
X1453860Y3381120D01*
X1455570Y3379620D01*
X1457280Y3378320D01*
X1459120Y3377020D01*
X1460970Y3375930D01*
X1462880Y3374900D01*
X1464930Y3373950D01*
X1466980Y3373190D01*
X1469100Y3372440D01*
X1471290Y3371890D01*
X1473540Y3371420D01*
X1475870Y3371010D01*
X1478260Y3370730D01*
X1480650Y3370600D01*
X1483180Y3370530D01*
X1485780Y3370600D01*
X1488240Y3370730D01*
X1490700Y3371010D01*
X1493100Y3371420D01*
X1495420Y3371960D01*
X1497610Y3372580D01*
X1499790Y3373330D01*
X1501910Y3374150D01*
X1503960Y3375180D01*
X1505880Y3376270D01*
X1507790Y3377430D01*
X1509640Y3378730D01*
X1511420Y3380170D01*
X1513060Y3381740D01*
X1514700Y3383380D01*
X1516270Y3385160D01*
X1517430Y3386660D01*
X1518530Y3388160D01*
X1519550Y3389740D01*
X1520510Y3391380D01*
X1521400Y3393090D01*
X1522150Y3394790D01*
X1522900Y3396570D01*
X1523520Y3398350D01*
X1524130Y3400260D01*
X1524610Y3402180D01*
X1525020Y3404090D01*
X1525360Y3406070D01*
X1525630Y3408120D01*
X1525840Y3410240D01*
X1525910Y3412360D01*
X1525980Y3414550D01*
X1525910Y3417560D01*
X1525700Y3420500D01*
X1525360Y3423300D01*
X1524810Y3426040D01*
X1524200Y3428700D01*
X1523380Y3431230D01*
X1522490Y3433690D01*
X1521400Y3436020D01*
X1520170Y3438270D01*
X1518870Y3440390D01*
X1517360Y3442440D01*
X1515720Y3444420D01*
X1513950Y3446270D01*
X1512030Y3448050D01*
X1509910Y3449760D01*
X1507720Y3451330D01*
X1504990Y3453040D01*
X1502120Y3454470D01*
X1499180Y3455770D01*
X1496100Y3456730D01*
X1492960Y3457550D01*
X1489750Y3458100D01*
X1486400Y3458440D01*
X1482980Y3458570D01*
X1483250Y3444560D02*
X1485230Y3444490D01*
X1487150Y3444220D01*
X1488990Y3443810D01*
X1490840Y3443190D01*
X1492620Y3442370D01*
X1494330Y3441420D01*
X1495970Y3440320D01*
X1497610Y3439020D01*
X1498770Y3437930D01*
X1499860Y3436840D01*
X1500820Y3435670D01*
X1501780Y3434440D01*
X1502600Y3433080D01*
X1503420Y3431710D01*
X1504100Y3430270D01*
X1504720Y3428770D01*
X1505260Y3427270D01*
X1505740Y3425620D01*
X1506150Y3423920D01*
X1506490Y3422210D01*
X1506770Y3420360D01*
X1506970Y3418520D01*
X1507040Y3416530D01*
X1507110Y3414550D01*
X1507040Y3412640D01*
X1506970Y3410790D01*
X1506770Y3409010D01*
X1506490Y3407240D01*
X1506220Y3405600D01*
X1505810Y3403890D01*
X1505330Y3402310D01*
X1504790Y3400740D01*
X1503550Y3397940D01*
X1502050Y3395340D01*
X1500340Y3393020D01*
X1498360Y3390970D01*
X1496720Y3389600D01*
X1495010Y3388370D01*
X1493230Y3387410D01*
X1491390Y3386520D01*
X1489400Y3385910D01*
X1487350Y3385430D01*
X1485230Y3385160D01*
X1483050Y3385090D01*
X1481540Y3385160D01*
X1480110Y3385220D01*
X1478740Y3385430D01*
X1477370Y3385700D01*
X1476070Y3386040D01*
X1474840Y3386520D01*
X1473610Y3387000D01*
X1472380Y3387620D01*
X1471220Y3388230D01*
X1470130Y3388980D01*
X1469100Y3389800D01*
X1468080Y3390760D01*
X1467050Y3391720D01*
X1466160Y3392740D01*
X1465270Y3393910D01*
X1464380Y3395140D01*
X1463150Y3397190D01*
X1462130Y3399310D01*
X1461240Y3401560D01*
X1460490Y3403960D01*
X1459940Y3406420D01*
X1459530Y3409010D01*
X1459260Y3411750D01*
X1459190Y3414620D01*
X1459330Y3417900D01*
X1459600Y3421040D01*
X1460150Y3423980D01*
X1460900Y3426790D01*
X1461920Y3429450D01*
X1463090Y3431910D01*
X1464520Y3434240D01*
X1466160Y3436430D01*
X1467940Y3438340D01*
X1469790Y3439980D01*
X1471770Y3441350D01*
X1473820Y3442510D01*
X1476010Y3443400D01*
X1478330Y3444010D01*
X1480720Y3444420D01*
X1483250Y3444560D01*
X1412430Y3491460D02*
X1392400D01*
Y3472720D01*
X1412430D01*
Y3491460D01*
X1411680Y3455910D02*
X1393220D01*
Y3395270D01*
Y3392540D01*
X1393360Y3390010D01*
X1393500Y3387620D01*
X1393630Y3385430D01*
X1393910Y3383380D01*
X1394250Y3381530D01*
X1394590Y3379820D01*
X1395000Y3378250D01*
X1395890Y3375860D01*
X1397050Y3373670D01*
X1398550Y3371620D01*
X1400260Y3369640D01*
X1402250Y3367930D01*
X1404500Y3366290D01*
X1407030Y3364790D01*
X1409830Y3363490D01*
X1411610Y3362800D01*
X1413530Y3362190D01*
X1415580Y3361640D01*
X1417760Y3361160D01*
X1420090Y3360820D01*
X1422620Y3360480D01*
X1425210Y3360270D01*
X1427950Y3360140D01*
X1434100Y3375380D01*
X1432050Y3375450D01*
X1430070Y3375650D01*
X1428090Y3375930D01*
X1426240Y3376270D01*
X1424390Y3376680D01*
X1422620Y3377160D01*
X1420910Y3377770D01*
X1419270Y3378460D01*
X1418040Y3379070D01*
X1416940Y3379820D01*
X1415920Y3380640D01*
X1415030Y3381530D01*
X1414280Y3382560D01*
X1413590Y3383720D01*
X1413050Y3384950D01*
X1412640Y3386250D01*
X1412430Y3387210D01*
X1412230Y3388230D01*
X1412020Y3389330D01*
X1411880Y3390560D01*
X1411820Y3391860D01*
X1411750Y3393220D01*
X1411680Y3394730D01*
Y3396300D01*
Y3455910D01*
X1328960Y3458570D02*
X1326640Y3458510D01*
X1324380Y3458370D01*
X1322130Y3458100D01*
X1319940Y3457750D01*
X1317820Y3457340D01*
X1315770Y3456800D01*
X1313790Y3456110D01*
X1311810Y3455360D01*
X1309890Y3454540D01*
X1308050Y3453580D01*
X1306200Y3452560D01*
X1304420Y3451400D01*
X1302710Y3450100D01*
X1301070Y3448800D01*
X1299500Y3447360D01*
X1297930Y3445790D01*
X1296490Y3444220D01*
X1295200Y3442650D01*
X1293960Y3441010D01*
X1292870Y3439300D01*
X1291780Y3437520D01*
X1290820Y3435740D01*
X1290000Y3433830D01*
X1289180Y3431910D01*
X1288500Y3429930D01*
X1287950Y3427880D01*
X1287470Y3425830D01*
X1287060Y3423710D01*
X1286720Y3421460D01*
X1286510Y3419200D01*
X1286380Y3416940D01*
X1286310Y3414550D01*
X1286380Y3412290D01*
X1286450Y3410040D01*
X1286650Y3407920D01*
X1286920Y3405800D01*
X1287330Y3403750D01*
X1287740Y3401700D01*
X1288290Y3399720D01*
X1288910Y3397800D01*
X1289590Y3395960D01*
X1290340Y3394180D01*
X1291230Y3392400D01*
X1292120Y3390690D01*
X1293140Y3388980D01*
X1294240Y3387410D01*
X1295470Y3385840D01*
X1296700Y3384340D01*
X1298270Y3382700D01*
X1299840Y3381120D01*
X1301550Y3379620D01*
X1303260Y3378320D01*
X1305110Y3377020D01*
X1306950Y3375930D01*
X1308870Y3374900D01*
X1310920Y3373950D01*
X1312970Y3373190D01*
X1315090Y3372440D01*
X1317280Y3371890D01*
X1319530Y3371420D01*
X1321860Y3371010D01*
X1324250Y3370730D01*
X1326640Y3370600D01*
X1329170Y3370530D01*
X1331770Y3370600D01*
X1334230Y3370730D01*
X1336690Y3371010D01*
X1339080Y3371420D01*
X1341410Y3371960D01*
X1343590Y3372580D01*
X1345780Y3373330D01*
X1347900Y3374150D01*
X1349950Y3375180D01*
X1351870Y3376270D01*
X1353780Y3377430D01*
X1355620Y3378730D01*
X1357400Y3380170D01*
X1359040Y3381740D01*
X1360680Y3383380D01*
X1362260Y3385160D01*
X1363420Y3386660D01*
X1364510Y3388160D01*
X1365540Y3389740D01*
X1366490Y3391380D01*
X1367380Y3393090D01*
X1368130Y3394790D01*
X1368890Y3396570D01*
X1369500Y3398350D01*
X1370120Y3400260D01*
X1370600Y3402180D01*
X1371010Y3404090D01*
X1371350Y3406070D01*
X1371620Y3408120D01*
X1371830Y3410240D01*
X1371890Y3412360D01*
X1371960Y3414550D01*
X1371890Y3417560D01*
X1371690Y3420500D01*
X1371350Y3423300D01*
X1370800Y3426040D01*
X1370190Y3428700D01*
X1369370Y3431230D01*
X1368480Y3433690D01*
X1367380Y3436020D01*
X1366150Y3438270D01*
X1364850Y3440390D01*
X1363350Y3442440D01*
X1361710Y3444420D01*
X1359930Y3446270D01*
X1358020Y3448050D01*
X1355900Y3449760D01*
X1353710Y3451330D01*
X1350980Y3453040D01*
X1348110Y3454470D01*
X1345170Y3455770D01*
X1342090Y3456730D01*
X1338950Y3457550D01*
X1335730Y3458100D01*
X1332380Y3458440D01*
X1328960Y3458570D01*
X1329240Y3444560D02*
X1331220Y3444490D01*
X1333130Y3444220D01*
X1334980Y3443810D01*
X1336830Y3443190D01*
X1338600Y3442370D01*
X1340310Y3441420D01*
X1341950Y3440320D01*
X1343590Y3439020D01*
X1344760Y3437930D01*
X1345850Y3436840D01*
X1346810Y3435670D01*
X1347760Y3434440D01*
X1348580Y3433080D01*
X1349400Y3431710D01*
X1350090Y3430270D01*
X1350700Y3428770D01*
X1351250Y3427270D01*
X1351730Y3425620D01*
X1352140Y3423920D01*
X1352480Y3422210D01*
X1352750Y3420360D01*
X1352960Y3418520D01*
X1353030Y3416530D01*
X1353100Y3414550D01*
X1353030Y3412640D01*
X1352960Y3410790D01*
X1352750Y3409010D01*
X1352480Y3407240D01*
X1352210Y3405600D01*
X1351800Y3403890D01*
X1351320Y3402310D01*
X1350770Y3400740D01*
X1349540Y3397940D01*
X1348040Y3395340D01*
X1346330Y3393020D01*
X1344350Y3390970D01*
X1342710Y3389600D01*
X1341000Y3388370D01*
X1339220Y3387410D01*
X1337370Y3386520D01*
X1335390Y3385910D01*
X1333340Y3385430D01*
X1331220Y3385160D01*
X1329030Y3385090D01*
X1327530Y3385160D01*
X1326090Y3385220D01*
X1324730Y3385430D01*
X1323360Y3385700D01*
X1322060Y3386040D01*
X1320830Y3386520D01*
X1319600Y3387000D01*
X1318370Y3387620D01*
X1317210Y3388230D01*
X1316110Y3388980D01*
X1315090Y3389800D01*
X1314060Y3390760D01*
X1313040Y3391720D01*
X1312150Y3392740D01*
X1311260Y3393910D01*
X1310370Y3395140D01*
X1309140Y3397190D01*
X1308120Y3399310D01*
X1307230Y3401560D01*
X1306470Y3403960D01*
X1305930Y3406420D01*
X1305520Y3409010D01*
X1305240Y3411750D01*
X1305180Y3414620D01*
X1305310Y3417900D01*
X1305590Y3421040D01*
X1306130Y3423980D01*
X1306880Y3426790D01*
X1307910Y3429450D01*
X1309070Y3431910D01*
X1310510Y3434240D01*
X1312150Y3436430D01*
X1313930Y3438340D01*
X1315770Y3439980D01*
X1317750Y3441350D01*
X1319800Y3442510D01*
X1321990Y3443400D01*
X1324320Y3444010D01*
X1326710Y3444420D01*
X1329240Y3444560D01*
X1202980Y3419610D02*
X1204960Y3415230D01*
X1207080Y3410930D01*
X1209340Y3406690D01*
X1211730Y3402520D01*
X1214190Y3398490D01*
X1216790Y3394520D01*
X1219520Y3390620D01*
X1222320Y3386870D01*
X1230870Y3401150D01*
X1226770Y3405800D01*
X1222870Y3410650D01*
X1219250Y3415640D01*
X1215830Y3420840D01*
X1212690Y3426240D01*
X1209810Y3431850D01*
X1207150Y3437590D01*
X1204760Y3443540D01*
X1204410Y3444490D01*
X1228890D01*
Y3457340D01*
X1202980D01*
Y3476620D01*
X1208040Y3475730D01*
X1212890Y3474910D01*
X1217540Y3474230D01*
X1221910Y3473610D01*
X1227660Y3485640D01*
X1220410Y3486600D01*
X1213370Y3487700D01*
X1206460Y3488990D01*
X1199770Y3490430D01*
X1193270Y3492000D01*
X1186910Y3493710D01*
X1180760Y3495620D01*
X1174750Y3497680D01*
X1166470Y3485640D01*
X1172290Y3483940D01*
X1177890Y3482360D01*
X1183220Y3480930D01*
X1188420Y3479700D01*
Y3457340D01*
X1166610D01*
Y3444490D01*
X1188420D01*
Y3433490D01*
X1185210Y3431500D01*
X1182060Y3429380D01*
X1178980Y3427200D01*
X1175980Y3424940D01*
X1173040Y3422620D01*
X1170170Y3420220D01*
X1167360Y3417700D01*
X1164630Y3415100D01*
X1173170Y3401490D01*
X1176870Y3405940D01*
X1180620Y3410240D01*
X1184450Y3414350D01*
X1188420Y3418310D01*
Y3363490D01*
X1202980D01*
Y3419610D01*
X1102760Y3482910D02*
Y3367310D01*
X1117600D01*
Y3377090D01*
X1147270D01*
Y3366290D01*
X1161830D01*
Y3482910D01*
X1102760D01*
X1147270Y3469030D02*
Y3390830D01*
X1117600D01*
Y3469030D01*
X1147270D01*
X1024900Y3377230D02*
X1021550Y3380370D01*
X1018480Y3383790D01*
X1015540Y3387480D01*
X1012870Y3391380D01*
X1010410Y3395620D01*
X1008150Y3399990D01*
X1006170Y3404710D01*
X1004330Y3409630D01*
X1003300Y3412770D01*
X1002410Y3416050D01*
X1001590Y3419400D01*
X1000770Y3422960D01*
X1000160Y3426580D01*
X999540Y3430340D01*
X998990Y3434240D01*
X998580Y3438270D01*
X998310Y3441210D01*
X998170Y3444080D01*
X998040Y3446750D01*
Y3449350D01*
Y3461100D01*
X1002820D01*
X1002960Y3460620D01*
X1003030Y3460010D01*
X1003230Y3459390D01*
X1003370Y3458640D01*
X1004190Y3455020D01*
X1005150Y3451530D01*
X1006240Y3448120D01*
X1007400Y3444830D01*
X1008630Y3441620D01*
X1010000Y3438480D01*
X1011440Y3435470D01*
X1013010Y3432530D01*
X1022240Y3444150D01*
X1021010Y3446820D01*
X1019840Y3449550D01*
X1018750Y3452420D01*
X1017720Y3455360D01*
X1016700Y3458370D01*
X1015740Y3461450D01*
X1014850Y3464660D01*
X1013960Y3467940D01*
X1013210Y3471290D01*
X1012460Y3474710D01*
X1011780Y3478260D01*
X1011160Y3481880D01*
X1010550Y3485580D01*
X1010000Y3489400D01*
X1009520Y3493300D01*
X1009110Y3497270D01*
X995640Y3495280D01*
X996050Y3492340D01*
X996400Y3489540D01*
X996870Y3486810D01*
X997290Y3484210D01*
X997760Y3481610D01*
X998170Y3479220D01*
X998720Y3476830D01*
X999200Y3474570D01*
X964130D01*
X956750Y3468550D01*
X957980Y3463700D01*
X959210Y3458980D01*
X960510Y3454470D01*
X961870Y3450100D01*
X963310Y3445860D01*
X964810Y3441830D01*
X966320Y3437930D01*
X967890Y3434240D01*
X979990Y3439090D01*
X978490Y3442440D01*
X977190Y3445650D01*
X975960Y3448660D01*
X974930Y3451530D01*
X973970Y3454200D01*
X973220Y3456660D01*
X972610Y3458980D01*
X972130Y3461100D01*
X985120D01*
Y3448940D01*
X985050Y3446470D01*
X984980Y3443950D01*
X984780Y3441480D01*
X984500Y3438960D01*
X984160Y3436430D01*
X983820Y3433960D01*
X983340Y3431440D01*
X982720Y3428910D01*
X982110Y3426380D01*
X981430Y3423850D01*
X980670Y3421320D01*
X979790Y3418790D01*
X978900Y3416260D01*
X977870Y3413730D01*
X976850Y3411130D01*
X975680Y3408600D01*
X973770Y3404710D01*
X971650Y3400880D01*
X969330Y3397050D01*
X966800Y3393360D01*
X964130Y3389670D01*
X961190Y3386110D01*
X958050Y3382560D01*
X954770Y3379070D01*
X963860Y3363490D01*
X967210Y3367590D01*
X970490Y3371830D01*
X973560Y3376270D01*
X976570Y3380920D01*
X979370Y3385770D01*
X982110Y3390760D01*
X984710Y3395960D01*
X987170Y3401360D01*
X988400Y3404300D01*
X989420Y3407170D01*
X990310Y3409970D01*
X991000Y3412770D01*
X991750Y3409080D01*
X992640Y3405460D01*
X993590Y3401900D01*
X994690Y3398490D01*
X995920Y3395070D01*
X997290Y3391720D01*
X998790Y3388440D01*
X1000360Y3385220D01*
X1002070Y3382080D01*
X1003920Y3379070D01*
X1005900Y3376060D01*
X1008020Y3373120D01*
X1010210Y3370250D01*
X1012530Y3367450D01*
X1014990Y3364790D01*
X1017590Y3362120D01*
X1025040Y3372300D01*
X1025180Y3371070D01*
X1025450Y3369910D01*
X1025720Y3368890D01*
X1026060Y3368000D01*
X1026540Y3367180D01*
X1027090Y3366430D01*
X1027640Y3365810D01*
X1028320Y3365260D01*
X1029070Y3364850D01*
X1029960Y3364510D01*
X1030920Y3364170D01*
X1032080Y3363900D01*
X1033380Y3363760D01*
X1034810Y3363620D01*
X1036390Y3363490D01*
X1038100D01*
X1040690D01*
X1043090Y3363550D01*
X1045340Y3363620D01*
X1047460Y3363760D01*
X1049440Y3363900D01*
X1051220Y3364030D01*
X1052860Y3364240D01*
X1054370Y3364510D01*
X1056960Y3377360D01*
X1054020Y3377160D01*
X1051900Y3377020D01*
X1049920Y3376880D01*
X1048140Y3376750D01*
X1046500Y3376680D01*
X1045000Y3376610D01*
X1043700D01*
X1042610Y3376540D01*
X1041650D01*
X1040490Y3376610D01*
X1039600Y3376820D01*
X1038980Y3377160D01*
X1038640Y3377640D01*
X1038440Y3378120D01*
X1038300Y3378660D01*
X1038230Y3379350D01*
Y3380170D01*
Y3420220D01*
X1090600D01*
Y3431850D01*
X1015540D01*
Y3420220D01*
X1024900D01*
Y3377230D01*
X1026200Y3478470D02*
Y3444150D01*
Y3442850D01*
X1026340Y3441690D01*
X1026470Y3440600D01*
X1026750Y3439640D01*
X1027020Y3438750D01*
X1027360Y3437930D01*
X1027840Y3437250D01*
X1028320Y3436700D01*
X1028940Y3436150D01*
X1029690Y3435670D01*
X1030510Y3435330D01*
X1031460Y3434990D01*
X1032560Y3434790D01*
X1033720Y3434580D01*
X1035020Y3434440D01*
X1036390D01*
X1037690D01*
X1039050Y3434510D01*
X1040490Y3434580D01*
X1042060Y3434650D01*
X1043630Y3434790D01*
X1045340Y3434920D01*
X1047050Y3435130D01*
X1048900Y3435330D01*
X1050200Y3442300D01*
X1082460D01*
Y3471290D01*
X1047050D01*
Y3446060D01*
X1045410Y3445930D01*
X1043970Y3445860D01*
X1042680Y3445790D01*
X1041580D01*
X1040970Y3445860D01*
X1040490Y3445930D01*
X1040010Y3446130D01*
X1039670Y3446410D01*
X1039390Y3446750D01*
X1039190Y3447230D01*
X1039120Y3447710D01*
X1039050Y3448320D01*
Y3478470D01*
X1089020D01*
Y3490220D01*
X1017380D01*
Y3478470D01*
X1026200D01*
X1070840Y3461790D02*
Y3451940D01*
X1058120D01*
Y3461790D01*
X1070840D01*
X1046500Y3412360D02*
Y3382150D01*
X1070840D01*
Y3373880D01*
X1082870D01*
Y3412360D01*
X1046500D01*
X1070840Y3402860D02*
Y3391920D01*
X1057990D01*
Y3402860D01*
X1070840D01*
X876150Y3392060D02*
X841700D01*
Y3467260D01*
X826180D01*
Y3364650D01*
X841700D01*
Y3377230D01*
X925300D01*
Y3364650D01*
X940680D01*
Y3467260D01*
X925300D01*
Y3392060D01*
X891670D01*
Y3495150D01*
X876150D01*
Y3392060D01*
X763840Y3451460D02*
X695620D01*
Y3377360D01*
X695680Y3375790D01*
X695750Y3374360D01*
X695960Y3372990D01*
X696230Y3371760D01*
X696640Y3370660D01*
X697050Y3369640D01*
X697600Y3368750D01*
X698210Y3367930D01*
X699100Y3367110D01*
X700130Y3366360D01*
X701430Y3365740D01*
X702860Y3365200D01*
X704500Y3364790D01*
X706280Y3364510D01*
X708330Y3364370D01*
X710520Y3364310D01*
X715920Y3364370D01*
X721460Y3364510D01*
X727270Y3364790D01*
X733280Y3365200D01*
X736360Y3379070D01*
X733210Y3378730D01*
X730210Y3378530D01*
X727330Y3378250D01*
X724600Y3378120D01*
X722070Y3377980D01*
X719610Y3377840D01*
X717290Y3377770D01*
X715170D01*
X714410D01*
X713800Y3377840D01*
X713180Y3377910D01*
X712710Y3378050D01*
X712230Y3378250D01*
X711880Y3378460D01*
X711610Y3378660D01*
X711410Y3378940D01*
X711200Y3379480D01*
X711060Y3380230D01*
X710930Y3381120D01*
Y3382290D01*
Y3394590D01*
X764660D01*
Y3363490D01*
X780040D01*
Y3432260D01*
X782710Y3429730D01*
X785440Y3427270D01*
X788170Y3424870D01*
X790910Y3422620D01*
X793640Y3420430D01*
X796450Y3418380D01*
X799250Y3416400D01*
X802050Y3414480D01*
X811420Y3426380D01*
X806560Y3429380D01*
X801910Y3432670D01*
X797400Y3436150D01*
X793030Y3439910D01*
X788860Y3443950D01*
X784820Y3448120D01*
X780930Y3452630D01*
X777240Y3457340D01*
X775660Y3459530D01*
X774160Y3461860D01*
X772660Y3464250D01*
X771220Y3466850D01*
X809020D01*
Y3479420D01*
X765480D01*
X763840Y3483870D01*
X762330Y3488310D01*
X761040Y3492820D01*
X759800Y3497330D01*
X743810Y3495560D01*
X745110Y3491180D01*
X746410Y3487010D01*
X747770Y3483120D01*
X749140Y3479420D01*
X677980D01*
Y3466850D01*
X754750D01*
X755430Y3465550D01*
X756460Y3463560D01*
X757550Y3461580D01*
X758570Y3459740D01*
X759600Y3457960D01*
X760690Y3456250D01*
X761720Y3454540D01*
X762740Y3452970D01*
X763840Y3451460D01*
X764660Y3439430D02*
Y3428770D01*
X710930D01*
Y3439430D01*
X764660D01*
Y3417560D02*
Y3405800D01*
X710930D01*
Y3417560D01*
X764660D01*
X545290Y3486460D02*
Y3367180D01*
X560540D01*
Y3376950D01*
X646260D01*
Y3367310D01*
X661500D01*
Y3486460D01*
X545290D01*
X646260Y3472720D02*
Y3439980D01*
X611260D01*
Y3472720D01*
X646260D01*
Y3426510D02*
Y3391100D01*
X611260D01*
Y3426510D01*
X646260D01*
X560540Y3391100D02*
Y3426510D01*
X596430D01*
Y3391100D01*
X560540D01*
Y3439980D02*
Y3472720D01*
X596430D01*
Y3439980D01*
X560540D01*
X1017340Y3362380D02*
X1017780D01*
X1412930D02*
X1428850D01*
X704500Y3364760D02*
X726830D01*
X764660D02*
X780040D01*
X826180D02*
X841700D01*
X925300D02*
X940680D01*
X963120D02*
X964900D01*
X1014990D02*
X1019520D01*
X1029310D02*
X1054420D01*
X1188420D02*
X1202980D01*
X1407030D02*
X1429810D01*
X545290Y3367140D02*
X560540D01*
X699100D02*
X733710D01*
X764660D02*
X780040D01*
X826180D02*
X841700D01*
X925300D02*
X940680D01*
X961730D02*
X966840D01*
X1012820D02*
X1021260D01*
X1026540D02*
X1054900D01*
X1147270D02*
X1161830D01*
X1188420D02*
X1202980D01*
X1403330D02*
X1430770D01*
X545290Y3369520D02*
X560540D01*
X646260D02*
X661500D01*
X697120D02*
X734240D01*
X764660D02*
X780040D01*
X826180D02*
X841700D01*
X925300D02*
X940680D01*
X960340D02*
X968700D01*
X1010810D02*
X1023010D01*
X1025550D02*
X1055380D01*
X1102760D02*
X1117600D01*
X1147270D02*
X1161830D01*
X1188420D02*
X1202980D01*
X1400400D02*
X1431740D01*
X545290Y3371900D02*
X560540D01*
X646260D02*
X661500D01*
X696200D02*
X734770D01*
X764660D02*
X780040D01*
X826180D02*
X841700D01*
X925300D02*
X940680D01*
X958950D02*
X970540D01*
X1008950D02*
X1024750D01*
X1025090D02*
X1055860D01*
X1102760D02*
X1117600D01*
X1147270D02*
X1161830D01*
X1188420D02*
X1202980D01*
X1317280D02*
X1341150D01*
X1398350D02*
X1432700D01*
X1471290D02*
X1495160D01*
X1752950D02*
X1778280D01*
X1864550D02*
X1883800D01*
X1955750D02*
X1979620D01*
X2052210D02*
X2079060D01*
X545290Y3374280D02*
X560540D01*
X646260D02*
X661500D01*
X695760D02*
X735300D01*
X764660D02*
X780040D01*
X826180D02*
X841700D01*
X925300D02*
X940680D01*
X957560D02*
X972180D01*
X1007180D02*
X1056340D01*
X1070840D02*
X1082870D01*
X1102760D02*
X1117600D01*
X1147270D02*
X1161830D01*
X1188420D02*
X1202980D01*
X1310210D02*
X1348160D01*
X1396730D02*
X1433660D01*
X1464220D02*
X1502170D01*
X1587650D02*
X1638700D01*
X1689560D02*
X1707740D01*
X1745700D02*
X1785270D01*
X1828810D02*
X1845900D01*
X1857880D02*
X1890550D01*
X1948680D02*
X1986640D01*
X2043010D02*
X2087600D01*
X545290Y3376660D02*
X560540D01*
X646260D02*
X661500D01*
X695650D02*
X735820D01*
X764660D02*
X780040D01*
X826180D02*
X841700D01*
X925300D02*
X940680D01*
X956180D02*
X973810D01*
X1005510D02*
X1040280D01*
X1046500D02*
X1056820D01*
X1070840D02*
X1082870D01*
X1102760D02*
X1117600D01*
X1147270D02*
X1161830D01*
X1188420D02*
X1202980D01*
X1305720D02*
X1352510D01*
X1395590D02*
X1424460D01*
X1459730D02*
X1506520D01*
X1576620D02*
X1638700D01*
X1689560D02*
X1707740D01*
X1740930D02*
X1789790D01*
X1828810D02*
X1845900D01*
X1853640D02*
X1894700D01*
X1944190D02*
X1990990D01*
X2037100D02*
X2093010D01*
X545290Y3379040D02*
X661500D01*
X695620D02*
X711370D01*
X764660D02*
X780040D01*
X826180D02*
X940680D01*
X954770D02*
X975350D01*
X1003920D02*
X1022970D01*
X1024900D02*
X1038260D01*
X1070840D02*
X1082870D01*
X1102760D02*
X1161830D01*
X1188420D02*
X1202980D01*
X1302310D02*
X1356000D01*
X1394790D02*
X1418080D01*
X1456330D02*
X1510020D01*
X1570340D02*
X1638700D01*
X1689560D02*
X1707740D01*
X1737300D02*
X1793100D01*
X1828810D02*
X1845900D01*
X1850560D02*
X1897820D01*
X1940790D02*
X1994480D01*
X2032690D02*
X2097140D01*
X545290Y3381420D02*
X661500D01*
X695620D02*
X710930D01*
X764660D02*
X780040D01*
X826180D02*
X940680D01*
X956980D02*
X976860D01*
X1002480D02*
X1020610D01*
X1024900D02*
X1038230D01*
X1070840D02*
X1082870D01*
X1102760D02*
X1161830D01*
X1188420D02*
X1202980D01*
X1299540D02*
X1358710D01*
X1394270D02*
X1415140D01*
X1453560D02*
X1512730D01*
X1565690D02*
X1638700D01*
X1689560D02*
X1707740D01*
X1734350D02*
X1795960D01*
X1828810D02*
X1845900D01*
X1848170D02*
X1900340D01*
X1938020D02*
X1997190D01*
X2028940D02*
X2100570D01*
X545290Y3383800D02*
X661500D01*
X695620D02*
X710930D01*
X764660D02*
X780040D01*
X826180D02*
X940680D01*
X959150D02*
X978230D01*
X1001130D02*
X1018470D01*
X1024900D02*
X1038230D01*
X1046500D02*
X1082870D01*
X1102760D02*
X1161830D01*
X1188420D02*
X1202980D01*
X1297220D02*
X1361050D01*
X1393850D02*
X1413550D01*
X1451230D02*
X1515070D01*
X1561950D02*
X1638700D01*
X1689560D02*
X1707740D01*
X1731880D02*
X1798260D01*
X1828810D02*
X1845900D01*
X1846260D02*
X1902450D01*
X1935700D02*
X1999530D01*
X2025720D02*
X2103510D01*
X545290Y3386180D02*
X661500D01*
X695620D02*
X710930D01*
X764660D02*
X780040D01*
X826180D02*
X940680D01*
X961250D02*
X979600D01*
X999890D02*
X1016580D01*
X1024900D02*
X1038230D01*
X1046500D02*
X1082870D01*
X1102760D02*
X1161830D01*
X1188420D02*
X1202980D01*
X1295200D02*
X1321700D01*
X1336270D02*
X1363050D01*
X1393590D02*
X1412660D01*
X1449210D02*
X1475710D01*
X1490280D02*
X1517060D01*
X1558900D02*
X1638700D01*
X1689560D02*
X1707740D01*
X1729690D02*
X1757850D01*
X1771100D02*
X1800220D01*
X1828810D02*
X1863090D01*
X1877320D02*
X1904180D01*
X1933680D02*
X1960180D01*
X1974750D02*
X2001520D01*
X2023110D02*
X2106000D01*
X545290Y3388560D02*
X661500D01*
X695620D02*
X710930D01*
X764660D02*
X780040D01*
X826180D02*
X940680D01*
X963210D02*
X980900D01*
X998740D02*
X1014800D01*
X1024900D02*
X1038230D01*
X1046500D02*
X1082870D01*
X1102760D02*
X1161830D01*
X1188420D02*
X1202980D01*
X1221060D02*
X1223330D01*
X1293430D02*
X1316730D01*
X1341260D02*
X1364770D01*
X1393440D02*
X1412170D01*
X1447450D02*
X1470740D01*
X1495270D02*
X1518790D01*
X1556240D02*
X1638700D01*
X1689560D02*
X1707740D01*
X1729800D02*
X1751430D01*
X1777400D02*
X1801940D01*
X1828810D02*
X1858110D01*
X1882200D02*
X1905720D01*
X1931910D02*
X1955200D01*
X1979730D02*
X2003250D01*
X2024600D02*
X2051380D01*
X2078530D02*
X2108260D01*
X545290Y3390940D02*
X661500D01*
X695620D02*
X710930D01*
X764660D02*
X780040D01*
X826180D02*
X940680D01*
X965050D02*
X982200D01*
X997650D02*
X1013170D01*
X1024900D02*
X1038230D01*
X1046500D02*
X1082870D01*
X1102760D02*
X1117600D01*
X1147270D02*
X1161830D01*
X1188420D02*
X1202980D01*
X1219300D02*
X1224760D01*
X1291990D02*
X1313870D01*
X1344350D02*
X1366240D01*
X1393310D02*
X1411860D01*
X1446000D02*
X1467890D01*
X1498360D02*
X1520250D01*
X1553930D02*
X1586430D01*
X1620520D02*
X1638700D01*
X1689560D02*
X1707740D01*
X1732150D02*
X1747540D01*
X1780950D02*
X1803390D01*
X1828810D02*
X1855000D01*
X1885050D02*
X1907010D01*
X1930470D02*
X1952350D01*
X1982820D02*
X2004710D01*
X2026100D02*
X2045430D01*
X2083540D02*
X2110270D01*
X545290Y3393320D02*
X560540D01*
X596430D02*
X611260D01*
X646260D02*
X661500D01*
X695620D02*
X710930D01*
X764660D02*
X780040D01*
X826180D02*
X841700D01*
X876150D02*
X891670D01*
X925300D02*
X940680D01*
X966800D02*
X983390D01*
X996640D02*
X1011740D01*
X1024900D02*
X1038230D01*
X1046500D02*
X1057990D01*
X1070840D02*
X1082870D01*
X1102760D02*
X1117600D01*
X1147270D02*
X1161830D01*
X1188420D02*
X1202980D01*
X1217630D02*
X1226180D01*
X1290770D02*
X1311710D01*
X1346550D02*
X1367480D01*
X1393220D02*
X1411750D01*
X1444790D02*
X1465720D01*
X1500560D02*
X1521500D01*
X1551830D02*
X1579590D01*
X1620520D02*
X1638700D01*
X1689560D02*
X1707740D01*
X1734500D02*
X1744500D01*
X1783640D02*
X1804630D01*
X1828810D02*
X1852610D01*
X1887080D02*
X1908130D01*
X1929250D02*
X1950180D01*
X1985020D02*
X2005960D01*
X2027590D02*
X2041190D01*
X2087090D02*
X2112070D01*
X545290Y3395700D02*
X560540D01*
X596430D02*
X611260D01*
X646260D02*
X661500D01*
X695620D02*
X780040D01*
X826180D02*
X841700D01*
X876150D02*
X891670D01*
X925300D02*
X940680D01*
X968400D02*
X984580D01*
X995690D02*
X1010370D01*
X1024900D02*
X1038230D01*
X1046500D02*
X1057990D01*
X1070840D02*
X1082870D01*
X1102760D02*
X1117600D01*
X1147270D02*
X1161830D01*
X1188420D02*
X1202980D01*
X1216020D02*
X1227610D01*
X1289700D02*
X1310030D01*
X1348250D02*
X1368520D01*
X1393220D02*
X1411680D01*
X1443710D02*
X1464040D01*
X1502260D02*
X1522530D01*
X1550080D02*
X1575250D01*
X1620520D02*
X1638700D01*
X1689560D02*
X1707740D01*
X1736850D02*
X1742070D01*
X1785610D02*
X1805650D01*
X1828810D02*
X1850700D01*
X1888620D02*
X1909090D01*
X1928180D02*
X1948510D01*
X1986720D02*
X2006990D01*
X2029090D02*
X2037840D01*
X2089820D02*
X2113620D01*
X545290Y3398080D02*
X560540D01*
X596430D02*
X611260D01*
X646260D02*
X661500D01*
X695620D02*
X780040D01*
X826180D02*
X841700D01*
X876150D02*
X891670D01*
X925300D02*
X940680D01*
X969950D02*
X985680D01*
X994840D02*
X1009140D01*
X1024900D02*
X1038230D01*
X1046500D02*
X1057990D01*
X1070840D02*
X1082870D01*
X1102760D02*
X1117600D01*
X1147270D02*
X1161830D01*
X1188420D02*
X1202980D01*
X1214460D02*
X1229030D01*
X1288820D02*
X1308710D01*
X1349600D02*
X1369410D01*
X1393220D02*
X1411680D01*
X1442830D02*
X1462720D01*
X1503610D02*
X1523430D01*
X1548520D02*
X1572080D01*
X1620520D02*
X1638700D01*
X1689560D02*
X1707740D01*
X1739200D02*
X1739960D01*
X1787140D02*
X1806520D01*
X1828810D02*
X1849180D01*
X1889890D02*
X1909880D01*
X1927290D02*
X1947190D01*
X1988080D02*
X2007890D01*
X2030580D02*
X2034990D01*
X2092100D02*
X2114980D01*
X545290Y3400460D02*
X560540D01*
X596430D02*
X611260D01*
X646260D02*
X661500D01*
X695620D02*
X780040D01*
X826180D02*
X841700D01*
X876150D02*
X891670D01*
X925300D02*
X940680D01*
X971400D02*
X986760D01*
X994050D02*
X1007950D01*
X1024900D02*
X1038230D01*
X1046500D02*
X1057990D01*
X1070840D02*
X1082870D01*
X1102760D02*
X1117600D01*
X1147270D02*
X1161830D01*
X1188420D02*
X1202980D01*
X1212990D02*
X1230460D01*
X1288080D02*
X1307670D01*
X1350650D02*
X1370170D01*
X1393220D02*
X1411680D01*
X1442100D02*
X1461680D01*
X1504670D02*
X1524180D01*
X1547090D02*
X1569540D01*
X1620520D02*
X1638700D01*
X1689560D02*
X1707740D01*
X1788290D02*
X1807200D01*
X1828810D02*
X1847890D01*
X1890880D02*
X1910510D01*
X1926560D02*
X1946140D01*
X1989130D02*
X2008640D01*
X2032070D02*
X2032530D01*
X2093960D02*
X2116220D01*
X545290Y3402840D02*
X560540D01*
X596430D02*
X611260D01*
X646260D02*
X661500D01*
X695620D02*
X780040D01*
X826180D02*
X841700D01*
X876150D02*
X891670D01*
X925300D02*
X940680D01*
X972730D02*
X987790D01*
X993340D02*
X1006950D01*
X1024900D02*
X1038230D01*
X1046500D02*
X1082870D01*
X1102760D02*
X1117600D01*
X1147270D02*
X1161830D01*
X1172320D02*
X1174290D01*
X1188420D02*
X1202980D01*
X1211550D02*
X1229380D01*
X1287510D02*
X1306820D01*
X1351480D02*
X1370740D01*
X1393220D02*
X1411680D01*
X1441530D02*
X1460840D01*
X1505490D02*
X1524750D01*
X1545830D02*
X1567500D01*
X1620520D02*
X1638700D01*
X1689560D02*
X1707740D01*
X1789200D02*
X1807830D01*
X1828810D02*
X1847130D01*
X1891560D02*
X1911040D01*
X1925990D02*
X1945300D01*
X1989950D02*
X2009210D01*
X2095590D02*
X2117330D01*
X545290Y3405220D02*
X560540D01*
X596430D02*
X611260D01*
X646260D02*
X661500D01*
X695620D02*
X780040D01*
X826180D02*
X841700D01*
X876150D02*
X891670D01*
X925300D02*
X940680D01*
X974020D02*
X988730D01*
X992700D02*
X1005980D01*
X1024900D02*
X1038230D01*
X1046500D02*
X1082870D01*
X1102760D02*
X1117600D01*
X1147270D02*
X1161830D01*
X1170830D02*
X1176270D01*
X1188420D02*
X1202980D01*
X1210180D02*
X1227280D01*
X1287040D02*
X1306190D01*
X1352120D02*
X1371200D01*
X1393220D02*
X1411680D01*
X1441060D02*
X1460210D01*
X1506130D02*
X1525210D01*
X1544750D02*
X1565790D01*
X1620520D02*
X1638700D01*
X1689560D02*
X1707740D01*
X1789830D02*
X1808270D01*
X1828810D02*
X1847130D01*
X1892090D02*
X1911410D01*
X1925520D02*
X1944670D01*
X1990590D02*
X2009670D01*
X2097000D02*
X2118280D01*
X545290Y3407600D02*
X560540D01*
X596430D02*
X611260D01*
X646260D02*
X661500D01*
X695620D02*
X710930D01*
X764660D02*
X780040D01*
X826180D02*
X841700D01*
X876150D02*
X891670D01*
X925300D02*
X940680D01*
X975190D02*
X989560D01*
X992110D02*
X1005090D01*
X1024900D02*
X1038230D01*
X1046500D02*
X1082870D01*
X1102760D02*
X1117600D01*
X1147270D02*
X1161830D01*
X1169340D02*
X1178320D01*
X1188420D02*
X1202980D01*
X1208850D02*
X1225320D01*
X1286690D02*
X1305740D01*
X1352530D02*
X1371550D01*
X1393220D02*
X1411680D01*
X1440700D02*
X1459750D01*
X1506550D02*
X1525560D01*
X1543810D02*
X1564370D01*
X1620520D02*
X1638700D01*
X1689560D02*
X1707740D01*
X1790260D02*
X1808550D01*
X1828810D02*
X1847130D01*
X1892500D02*
X1911690D01*
X1925170D02*
X1944210D01*
X1991010D02*
X2010030D01*
X2098200D02*
X2119100D01*
X545290Y3409980D02*
X560540D01*
X596430D02*
X611260D01*
X646260D02*
X661500D01*
X695620D02*
X710930D01*
X764660D02*
X780040D01*
X826180D02*
X841700D01*
X876150D02*
X891670D01*
X925300D02*
X940680D01*
X976320D02*
X990310D01*
X991570D02*
X1004220D01*
X1024900D02*
X1038230D01*
X1046500D02*
X1082870D01*
X1102760D02*
X1117600D01*
X1147270D02*
X1161830D01*
X1167840D02*
X1180390D01*
X1188420D02*
X1202980D01*
X1207590D02*
X1223410D01*
X1286460D02*
X1305420D01*
X1352860D02*
X1371800D01*
X1393220D02*
X1411680D01*
X1440470D02*
X1459430D01*
X1506880D02*
X1525810D01*
X1542960D02*
X1563160D01*
X1620520D02*
X1638700D01*
X1689560D02*
X1707740D01*
X1790510D02*
X1808750D01*
X1828810D02*
X1847130D01*
X1892770D02*
X1911920D01*
X1924930D02*
X1943890D01*
X1991340D02*
X2010280D01*
X2099150D02*
X2119820D01*
X545290Y3412360D02*
X560540D01*
X596430D02*
X611260D01*
X646260D02*
X661500D01*
X695620D02*
X710930D01*
X764660D02*
X780040D01*
X826180D02*
X841700D01*
X876150D02*
X891670D01*
X925300D02*
X940680D01*
X977330D02*
X990900D01*
X991080D02*
X1003430D01*
X1024900D02*
X1038230D01*
X1102760D02*
X1117600D01*
X1147270D02*
X1161830D01*
X1166350D02*
X1182600D01*
X1188420D02*
X1202980D01*
X1206370D02*
X1221630D01*
X1286380D02*
X1305230D01*
X1353020D02*
X1371890D01*
X1393220D02*
X1411680D01*
X1440390D02*
X1459250D01*
X1507030D02*
X1525910D01*
X1542230D02*
X1562170D01*
X1620520D02*
X1638700D01*
X1689490D02*
X1707740D01*
X1729000D02*
X1808870D01*
X1828810D02*
X1847130D01*
X1892880D02*
X1912010D01*
X1924850D02*
X1943710D01*
X1991490D02*
X2010370D01*
X2099980D02*
X2120410D01*
X545290Y3414740D02*
X560540D01*
X596430D02*
X611260D01*
X646260D02*
X661500D01*
X695620D02*
X710930D01*
X764660D02*
X780040D01*
X801670D02*
X802250D01*
X826180D02*
X841700D01*
X876150D02*
X891670D01*
X925300D02*
X940680D01*
X978280D02*
X1002770D01*
X1024900D02*
X1038230D01*
X1102760D02*
X1117600D01*
X1147270D02*
X1161830D01*
X1164860D02*
X1184840D01*
X1188420D02*
X1202980D01*
X1205200D02*
X1219900D01*
X1286320D02*
X1305180D01*
X1353090D02*
X1371960D01*
X1393220D02*
X1411680D01*
X1440330D02*
X1459200D01*
X1507100D02*
X1525980D01*
X1541640D02*
X1561410D01*
X1620520D02*
X1638700D01*
X1689050D02*
X1707740D01*
X1729000D02*
X1808890D01*
X1828810D02*
X1847130D01*
X1892910D02*
X1912060D01*
X1924790D02*
X1943660D01*
X1991560D02*
X2010440D01*
X2100710D02*
X2120890D01*
X545290Y3417120D02*
X560540D01*
X596430D02*
X611260D01*
X646260D02*
X661500D01*
X695620D02*
X710930D01*
X764660D02*
X780040D01*
X798230D02*
X804130D01*
X826180D02*
X841700D01*
X876150D02*
X891670D01*
X925300D02*
X940680D01*
X979200D02*
X1002150D01*
X1024900D02*
X1038230D01*
X1102760D02*
X1117600D01*
X1147270D02*
X1161830D01*
X1166750D02*
X1187230D01*
X1188420D02*
X1202980D01*
X1204110D02*
X1218280D01*
X1286390D02*
X1305280D01*
X1353010D02*
X1371900D01*
X1393220D02*
X1411680D01*
X1440400D02*
X1459300D01*
X1507020D02*
X1525920D01*
X1541160D02*
X1560760D01*
X1620520D02*
X1638700D01*
X1688470D02*
X1707740D01*
X1729030D02*
X1808810D01*
X1828810D02*
X1847130D01*
X1892840D02*
X1912010D01*
X1924860D02*
X1943760D01*
X1991480D02*
X2010380D01*
X2101300D02*
X2121300D01*
X545290Y3419500D02*
X560540D01*
X596430D02*
X611260D01*
X646260D02*
X661500D01*
X695620D02*
X780040D01*
X794910D02*
X806000D01*
X826180D02*
X841700D01*
X876150D02*
X891670D01*
X925300D02*
X940680D01*
X980040D02*
X1001570D01*
X1024900D02*
X1038230D01*
X1102760D02*
X1117600D01*
X1147270D02*
X1161830D01*
X1169370D02*
X1202980D01*
X1203030D02*
X1216710D01*
X1286540D02*
X1305450D01*
X1352850D02*
X1371760D01*
X1393220D02*
X1411680D01*
X1440560D02*
X1459470D01*
X1506860D02*
X1525770D01*
X1540750D02*
X1560240D01*
X1620520D02*
X1638700D01*
X1687780D02*
X1707740D01*
X1729090D02*
X1808620D01*
X1828810D02*
X1847130D01*
X1892660D02*
X1911870D01*
X1925020D02*
X1943930D01*
X1991330D02*
X2010240D01*
X2101730D02*
X2121660D01*
X545290Y3421880D02*
X560540D01*
X596430D02*
X611260D01*
X646260D02*
X661500D01*
X695620D02*
X780040D01*
X791830D02*
X807880D01*
X826180D02*
X841700D01*
X876150D02*
X891670D01*
X925300D02*
X940680D01*
X980840D02*
X1001020D01*
X1015540D02*
X1090600D01*
X1102760D02*
X1117600D01*
X1147270D02*
X1161830D01*
X1172160D02*
X1215230D01*
X1286780D02*
X1305740D01*
X1352530D02*
X1371520D01*
X1393220D02*
X1411680D01*
X1440790D02*
X1459760D01*
X1506540D02*
X1525530D01*
X1540460D02*
X1559870D01*
X1620520D02*
X1638700D01*
X1687000D02*
X1707740D01*
X1729330D02*
X1808370D01*
X1828810D02*
X1847130D01*
X1892290D02*
X1911640D01*
X1925260D02*
X1944220D01*
X1991010D02*
X2010000D01*
X2102080D02*
X2121930D01*
X545290Y3424260D02*
X560540D01*
X596430D02*
X611260D01*
X646260D02*
X661500D01*
X695620D02*
X780040D01*
X788910D02*
X809750D01*
X826180D02*
X841700D01*
X876150D02*
X891670D01*
X925300D02*
X940680D01*
X981540D02*
X1000550D01*
X1015540D02*
X1090600D01*
X1102760D02*
X1117600D01*
X1147270D02*
X1161830D01*
X1175120D02*
X1213840D01*
X1287170D02*
X1306200D01*
X1352060D02*
X1371160D01*
X1393220D02*
X1411680D01*
X1441180D02*
X1460220D01*
X1506070D02*
X1525170D01*
X1540220D02*
X1559640D01*
X1620520D02*
X1638700D01*
X1686010D02*
X1707740D01*
X1729630D02*
X1808010D01*
X1828810D02*
X1847130D01*
X1891780D02*
X1911290D01*
X1925650D02*
X1944680D01*
X1990540D02*
X2009630D01*
X2102290D02*
X2122110D01*
X545290Y3426640D02*
X661500D01*
X695620D02*
X780040D01*
X786160D02*
X811000D01*
X826180D02*
X841700D01*
X876150D02*
X891670D01*
X925300D02*
X940680D01*
X982170D02*
X1000150D01*
X1015540D02*
X1090600D01*
X1102760D02*
X1117600D01*
X1147270D02*
X1161830D01*
X1178240D02*
X1212480D01*
X1287660D02*
X1306840D01*
X1351430D02*
X1370660D01*
X1393220D02*
X1411680D01*
X1441670D02*
X1460860D01*
X1505440D02*
X1524670D01*
X1540090D02*
X1559450D01*
X1620520D02*
X1638700D01*
X1684870D02*
X1707740D01*
X1730020D02*
X1747600D01*
X1789050D02*
X1807500D01*
X1828810D02*
X1847130D01*
X1891170D02*
X1910800D01*
X1926140D02*
X1945320D01*
X1989910D02*
X2009140D01*
X2102430D02*
X2122210D01*
X545290Y3429020D02*
X661500D01*
X695620D02*
X710930D01*
X764660D02*
X780040D01*
X783500D02*
X807140D01*
X826180D02*
X841700D01*
X876150D02*
X891670D01*
X925300D02*
X940680D01*
X982750D02*
X999760D01*
X1015540D02*
X1090600D01*
X1102760D02*
X1117600D01*
X1147270D02*
X1161830D01*
X1181550D02*
X1211260D01*
X1288260D02*
X1307740D01*
X1350600D02*
X1370090D01*
X1393220D02*
X1411680D01*
X1442270D02*
X1461760D01*
X1504620D02*
X1524100D01*
X1540020D02*
X1559360D01*
X1620520D02*
X1638700D01*
X1683500D02*
X1707740D01*
X1730530D02*
X1748010D01*
X1788440D02*
X1806870D01*
X1828810D02*
X1847130D01*
X1890340D02*
X1910230D01*
X1926730D02*
X1946220D01*
X1989080D02*
X2008560D01*
X2102510D02*
X2122270D01*
X545290Y3431400D02*
X661500D01*
X695620D02*
X710930D01*
X764660D02*
X780040D01*
X780950D02*
X803700D01*
X826180D02*
X841700D01*
X876150D02*
X891670D01*
X925300D02*
X940680D01*
X983340D02*
X999390D01*
X1015540D02*
X1090600D01*
X1102760D02*
X1117600D01*
X1147270D02*
X1161830D01*
X1185060D02*
X1210040D01*
X1289000D02*
X1308830D01*
X1349550D02*
X1369310D01*
X1393220D02*
X1411680D01*
X1443010D02*
X1462850D01*
X1503570D02*
X1523320D01*
X1540010D02*
X1559360D01*
X1620520D02*
X1638700D01*
X1681900D02*
X1691460D01*
X1692070D02*
X1707740D01*
X1731180D02*
X1748710D01*
X1787610D02*
X1806080D01*
X1828810D02*
X1848240D01*
X1889240D02*
X1909550D01*
X1927480D02*
X1947310D01*
X1988030D02*
X2007780D01*
X2102460D02*
X2122240D01*
X545290Y3433780D02*
X661500D01*
X695620D02*
X710930D01*
X764660D02*
X800470D01*
X826180D02*
X841700D01*
X876150D02*
X891670D01*
X925300D02*
X940680D01*
X983790D02*
X999050D01*
X1012340D02*
X1014000D01*
X1102760D02*
X1117600D01*
X1147270D02*
X1161830D01*
X1188420D02*
X1208920D01*
X1289980D02*
X1310230D01*
X1348160D02*
X1368440D01*
X1393220D02*
X1411680D01*
X1443990D02*
X1464240D01*
X1502180D02*
X1522450D01*
X1540070D02*
X1559440D01*
X1620520D02*
X1638700D01*
X1679860D02*
X1690610D01*
X1691920D02*
X1707740D01*
X1731930D02*
X1749660D01*
X1786460D02*
X1805190D01*
X1828810D02*
X1850210D01*
X1887910D02*
X1908710D01*
X1928460D02*
X1948700D01*
X1986640D02*
X2006910D01*
X2102390D02*
X2122150D01*
X545290Y3436160D02*
X661500D01*
X695620D02*
X710930D01*
X764660D02*
X797390D01*
X826180D02*
X841700D01*
X876150D02*
X891670D01*
X925300D02*
X940680D01*
X967070D02*
X972680D01*
X984120D02*
X998790D01*
X1011110D02*
X1015890D01*
X1028940D02*
X1049050D01*
X1102760D02*
X1117600D01*
X1147270D02*
X1161830D01*
X1188420D02*
X1207810D01*
X1291050D02*
X1311950D01*
X1346410D02*
X1367300D01*
X1393220D02*
X1411680D01*
X1445060D02*
X1465960D01*
X1500420D02*
X1521320D01*
X1540210D02*
X1559610D01*
X1620520D02*
X1638700D01*
X1677320D02*
X1689650D01*
X1691770D02*
X1707740D01*
X1732830D02*
X1751030D01*
X1784960D02*
X1804130D01*
X1828810D02*
X1852460D01*
X1886230D02*
X1907690D01*
X1929520D02*
X1950420D01*
X1984880D02*
X2005780D01*
X2102220D02*
X2122000D01*
X545290Y3438540D02*
X661500D01*
X695620D02*
X710930D01*
X764660D02*
X794620D01*
X826180D02*
X841700D01*
X876150D02*
X891670D01*
X925300D02*
X940680D01*
X966080D02*
X978620D01*
X984440D02*
X998560D01*
X1009970D02*
X1017780D01*
X1027110D02*
X1049500D01*
X1102760D02*
X1117600D01*
X1147270D02*
X1161830D01*
X1188420D02*
X1206770D01*
X1292400D02*
X1314150D01*
X1344110D02*
X1365980D01*
X1393220D02*
X1411680D01*
X1446410D02*
X1468170D01*
X1498120D02*
X1520000D01*
X1540460D02*
X1559890D01*
X1620520D02*
X1638700D01*
X1673440D02*
X1688620D01*
X1691620D02*
X1707740D01*
X1733960D02*
X1752920D01*
X1782990D02*
X1802870D01*
X1828810D02*
X1855070D01*
X1884080D02*
X1906530D01*
X1930880D02*
X1952630D01*
X1982580D02*
X2004460D01*
X2101950D02*
X2121770D01*
X545290Y3440920D02*
X560540D01*
X596430D02*
X611260D01*
X646260D02*
X661500D01*
X695620D02*
X791990D01*
X826180D02*
X841700D01*
X876150D02*
X891670D01*
X925300D02*
X940680D01*
X965160D02*
X979170D01*
X984720D02*
X998340D01*
X1008940D02*
X1019670D01*
X1026430D02*
X1049940D01*
X1102760D02*
X1117600D01*
X1147270D02*
X1161830D01*
X1188420D02*
X1205810D01*
X1293900D02*
X1317130D01*
X1341060D02*
X1364460D01*
X1393220D02*
X1411680D01*
X1447920D02*
X1471150D01*
X1495080D02*
X1518480D01*
X1540800D02*
X1560280D01*
X1620520D02*
X1638700D01*
X1657230D02*
X1687510D01*
X1691470D02*
X1707740D01*
X1735270D02*
X1755550D01*
X1780250D02*
X1801430D01*
X1828810D02*
X1858600D01*
X1881070D02*
X1905170D01*
X1932380D02*
X1955610D01*
X1979540D02*
X2002940D01*
X2101600D02*
X2121480D01*
X545290Y3443300D02*
X560540D01*
X596430D02*
X611260D01*
X646260D02*
X661500D01*
X695620D02*
X789530D01*
X826180D02*
X841700D01*
X876150D02*
X891670D01*
X925300D02*
X940680D01*
X964260D02*
X978140D01*
X984930D02*
X998210D01*
X1007990D02*
X1021560D01*
X1026200D02*
X1082460D01*
X1102760D02*
X1117600D01*
X1147270D02*
X1161830D01*
X1188420D02*
X1204860D01*
X1295730D02*
X1321740D01*
X1336500D02*
X1362640D01*
X1393220D02*
X1411680D01*
X1449750D02*
X1475760D01*
X1490510D02*
X1516650D01*
X1541200D02*
X1560790D01*
X1620520D02*
X1638700D01*
X1656580D02*
X1686270D01*
X1691320D02*
X1707740D01*
X1736770D02*
X1759760D01*
X1775960D02*
X1799790D01*
X1828810D02*
X1864320D01*
X1875500D02*
X1903630D01*
X1934210D02*
X1960220D01*
X1974970D02*
X2001120D01*
X2101170D02*
X2121070D01*
X545290Y3445680D02*
X560540D01*
X596430D02*
X611260D01*
X646260D02*
X661500D01*
X695620D02*
X787180D01*
X826180D02*
X841700D01*
X876150D02*
X891670D01*
X925300D02*
X940680D01*
X963380D02*
X977180D01*
X985030D02*
X998090D01*
X1007100D02*
X1021540D01*
X1026200D02*
X1082460D01*
X1102760D02*
X1117600D01*
X1147270D02*
X1161830D01*
X1166610D02*
X1228890D01*
X1297830D02*
X1360500D01*
X1393220D02*
X1411680D01*
X1451840D02*
X1514510D01*
X1541730D02*
X1561440D01*
X1620520D02*
X1638700D01*
X1655930D02*
X1684750D01*
X1691170D02*
X1707740D01*
X1738570D02*
X1797760D01*
X1828810D02*
X1901770D01*
X1936310D02*
X1998980D01*
X2100570D02*
X2120590D01*
X545290Y3448060D02*
X560540D01*
X596430D02*
X611260D01*
X646260D02*
X661500D01*
X695620D02*
X784880D01*
X826180D02*
X841700D01*
X876150D02*
X891670D01*
X925300D02*
X940680D01*
X962560D02*
X976210D01*
X985100D02*
X998040D01*
X1006260D02*
X1020480D01*
X1026200D02*
X1039080D01*
X1047050D02*
X1082460D01*
X1102760D02*
X1117600D01*
X1147270D02*
X1161830D01*
X1166610D02*
X1228890D01*
X1300260D02*
X1358010D01*
X1393220D02*
X1411680D01*
X1454280D02*
X1512020D01*
X1542320D02*
X1562240D01*
X1620520D02*
X1638700D01*
X1655280D02*
X1683050D01*
X1691020D02*
X1707740D01*
X1740780D02*
X1795470D01*
X1828810D02*
X1847130D01*
X1849070D02*
X1899540D01*
X1938740D02*
X1996480D01*
X2099890D02*
X2120010D01*
X545290Y3450440D02*
X560540D01*
X596430D02*
X611260D01*
X646260D02*
X661500D01*
X695620D02*
X782820D01*
X826180D02*
X841700D01*
X876150D02*
X891670D01*
X925300D02*
X940680D01*
X961760D02*
X975320D01*
X985120D02*
X998040D01*
X1005500D02*
X1019500D01*
X1026200D02*
X1039050D01*
X1047050D02*
X1082460D01*
X1102760D02*
X1117600D01*
X1147270D02*
X1161830D01*
X1166610D02*
X1228890D01*
X1303160D02*
X1354950D01*
X1393220D02*
X1411680D01*
X1457180D02*
X1508960D01*
X1543030D02*
X1563220D01*
X1620520D02*
X1638700D01*
X1654630D02*
X1681000D01*
X1690870D02*
X1707740D01*
X1743400D02*
X1792630D01*
X1828810D02*
X1847130D01*
X1851490D02*
X1896930D01*
X1941640D02*
X1993430D01*
X2099050D02*
X2119310D01*
X545290Y3452820D02*
X560540D01*
X596430D02*
X611260D01*
X646260D02*
X661500D01*
X762850D02*
X780780D01*
X826180D02*
X841700D01*
X876150D02*
X891670D01*
X925300D02*
X940680D01*
X961020D02*
X974470D01*
X985120D02*
X998040D01*
X1004800D02*
X1018610D01*
X1026200D02*
X1039050D01*
X1047050D02*
X1058120D01*
X1070840D02*
X1082460D01*
X1102760D02*
X1117600D01*
X1147270D02*
X1161830D01*
X1166610D02*
X1228890D01*
X1306670D02*
X1351330D01*
X1393220D02*
X1411680D01*
X1460680D02*
X1505340D01*
X1543880D02*
X1564420D01*
X1620520D02*
X1638700D01*
X1653980D02*
X1678540D01*
X1690720D02*
X1707740D01*
X1746570D02*
X1789140D01*
X1828810D02*
X1847130D01*
X1854650D02*
X1893500D01*
X1945150D02*
X1989800D01*
X2098110D02*
X2118530D01*
X545290Y3455200D02*
X560540D01*
X596430D02*
X611260D01*
X646260D02*
X661500D01*
X761320D02*
X778920D01*
X826180D02*
X841700D01*
X876150D02*
X891670D01*
X925300D02*
X940680D01*
X960300D02*
X973670D01*
X985120D02*
X998040D01*
X1004150D02*
X1017780D01*
X1026200D02*
X1039050D01*
X1047050D02*
X1058120D01*
X1070840D02*
X1082460D01*
X1102760D02*
X1117600D01*
X1147270D02*
X1161830D01*
X1166610D02*
X1228890D01*
X1311440D02*
X1346460D01*
X1393220D02*
X1411680D01*
X1465450D02*
X1500470D01*
X1544850D02*
X1565850D01*
X1620520D02*
X1638700D01*
X1653330D02*
X1675120D01*
X1690570D02*
X1707740D01*
X1750920D02*
X1784560D01*
X1828810D02*
X1847130D01*
X1859110D02*
X1888970D01*
X1949910D02*
X1984930D01*
X2096980D02*
X2117650D01*
X545290Y3457580D02*
X560540D01*
X596430D02*
X611260D01*
X646260D02*
X661500D01*
X759840D02*
X777070D01*
X826180D02*
X841700D01*
X876150D02*
X891670D01*
X925300D02*
X940680D01*
X959610D02*
X972980D01*
X985120D02*
X998040D01*
X1003610D02*
X1016970D01*
X1026200D02*
X1039050D01*
X1047050D02*
X1058120D01*
X1070840D02*
X1082460D01*
X1102760D02*
X1117600D01*
X1147270D02*
X1161830D01*
X1188420D02*
X1202980D01*
X1319060D02*
X1338770D01*
X1473080D02*
X1492780D01*
X1545950D02*
X1567530D01*
X1620520D02*
X1638700D01*
X1657460D02*
X1669350D01*
X1757850D02*
X1777450D01*
X1828810D02*
X1847130D01*
X1867090D02*
X1881070D01*
X1957540D02*
X1977240D01*
X2095600D02*
X2116600D01*
X545290Y3459960D02*
X560540D01*
X596430D02*
X611260D01*
X646260D02*
X661500D01*
X758450D02*
X775380D01*
X826180D02*
X841700D01*
X876150D02*
X891670D01*
X925300D02*
X940680D01*
X958950D02*
X972390D01*
X985120D02*
X998040D01*
X1003050D02*
X1016200D01*
X1026200D02*
X1039050D01*
X1047050D02*
X1058120D01*
X1070840D02*
X1082460D01*
X1102760D02*
X1117600D01*
X1147270D02*
X1161830D01*
X1188420D02*
X1202980D01*
X1547190D02*
X1569680D01*
X1620520D02*
X1638700D01*
X1828810D02*
X1847130D01*
X2035590D02*
X2035880D01*
X2093980D02*
X2115470D01*
X545290Y3462340D02*
X560540D01*
X596430D02*
X611260D01*
X646260D02*
X661500D01*
X757130D02*
X773860D01*
X826180D02*
X841700D01*
X876150D02*
X891670D01*
X925300D02*
X940680D01*
X958330D02*
X1015490D01*
X1026200D02*
X1039050D01*
X1047050D02*
X1082460D01*
X1102760D02*
X1117600D01*
X1147270D02*
X1161830D01*
X1188420D02*
X1202980D01*
X1548570D02*
X1572260D01*
X1620520D02*
X1638700D01*
X1828810D02*
X1847130D01*
X2033520D02*
X2038100D01*
X2092140D02*
X2114190D01*
X545290Y3464720D02*
X560540D01*
X596430D02*
X611260D01*
X646260D02*
X661500D01*
X755860D02*
X772400D01*
X826180D02*
X841700D01*
X876150D02*
X891670D01*
X925300D02*
X940680D01*
X957720D02*
X1014830D01*
X1026200D02*
X1039050D01*
X1047050D02*
X1082460D01*
X1102760D02*
X1117600D01*
X1147270D02*
X1161830D01*
X1188420D02*
X1202980D01*
X1550090D02*
X1575450D01*
X1620520D02*
X1638700D01*
X1828810D02*
X1847130D01*
X2031450D02*
X2040590D01*
X2089940D02*
X2112720D01*
X545290Y3467100D02*
X560540D01*
X596430D02*
X611260D01*
X646260D02*
X661500D01*
X677980D02*
X809020D01*
X826180D02*
X841700D01*
X876150D02*
X891670D01*
X925300D02*
X940680D01*
X957120D02*
X1014190D01*
X1026200D02*
X1039050D01*
X1047050D02*
X1082460D01*
X1102760D02*
X1117600D01*
X1147270D02*
X1161830D01*
X1188420D02*
X1202980D01*
X1551900D02*
X1579700D01*
X1620520D02*
X1638700D01*
X1828810D02*
X1847130D01*
X2029390D02*
X2043700D01*
X2087280D02*
X2111120D01*
X545290Y3469480D02*
X560540D01*
X596430D02*
X611260D01*
X646260D02*
X661500D01*
X677980D02*
X809020D01*
X876150D02*
X891670D01*
X957890D02*
X1013620D01*
X1026200D02*
X1039050D01*
X1047050D02*
X1082460D01*
X1102760D02*
X1161830D01*
X1188420D02*
X1202980D01*
X1553990D02*
X1586580D01*
X1620520D02*
X1638700D01*
X1828810D02*
X1847130D01*
X2027320D02*
X2047570D01*
X2083910D02*
X2109350D01*
X545290Y3471860D02*
X560540D01*
X596430D02*
X611260D01*
X646260D02*
X661500D01*
X677980D02*
X809020D01*
X876150D02*
X891670D01*
X960810D02*
X1013080D01*
X1026200D02*
X1039050D01*
X1102760D02*
X1161830D01*
X1188420D02*
X1202980D01*
X1556380D02*
X1638700D01*
X1828810D02*
X1847130D01*
X2025250D02*
X2053020D01*
X2078900D02*
X2107360D01*
X545290Y3474240D02*
X661500D01*
X677980D02*
X809020D01*
X876150D02*
X891670D01*
X963730D02*
X1012560D01*
X1026200D02*
X1039050D01*
X1102760D02*
X1161830D01*
X1188420D02*
X1202980D01*
X1217540D02*
X1222210D01*
X1392400D02*
X1412430D01*
X1559090D02*
X1638700D01*
X1828810D02*
X1847130D01*
X2027070D02*
X2105150D01*
X545290Y3476620D02*
X661500D01*
X677980D02*
X809020D01*
X876150D02*
X891670D01*
X998760D02*
X1012090D01*
X1026200D02*
X1039050D01*
X1102760D02*
X1161830D01*
X1188420D02*
X1223350D01*
X1392400D02*
X1412430D01*
X1562330D02*
X1638700D01*
X1828810D02*
X1847130D01*
X2029880D02*
X2102640D01*
X545290Y3479000D02*
X661500D01*
X677980D02*
X809020D01*
X876150D02*
X891670D01*
X998220D02*
X1011650D01*
X1017380D02*
X1089020D01*
X1102760D02*
X1161830D01*
X1188420D02*
X1224490D01*
X1392400D02*
X1412430D01*
X1566320D02*
X1638700D01*
X1828810D02*
X1847130D01*
X2033070D02*
X2099750D01*
X545290Y3481380D02*
X661500D01*
X748410D02*
X764760D01*
X876150D02*
X891670D01*
X997800D02*
X1011250D01*
X1017380D02*
X1089020D01*
X1102760D02*
X1161830D01*
X1181540D02*
X1225620D01*
X1392400D02*
X1412430D01*
X1571330D02*
X1638700D01*
X1828810D02*
X1847130D01*
X2036620D02*
X2096390D01*
X545290Y3483760D02*
X661500D01*
X747550D02*
X763880D01*
X876150D02*
X891670D01*
X997370D02*
X1010850D01*
X1017380D02*
X1089020D01*
X1172930D02*
X1226760D01*
X1392400D02*
X1412430D01*
X1578050D02*
X1638700D01*
X1828810D02*
X1847130D01*
X2041000D02*
X2092270D01*
X545290Y3486140D02*
X661500D01*
X746710D02*
X763070D01*
X876150D02*
X891670D01*
X996980D02*
X1010470D01*
X1017380D02*
X1089020D01*
X1166810D02*
X1223880D01*
X1392400D02*
X1412430D01*
X1590300D02*
X1638700D01*
X1828810D02*
X1847130D01*
X2046630D02*
X2086700D01*
X745940Y3488520D02*
X762270D01*
X876150D02*
X891670D01*
X996580D02*
X1010130D01*
X1017380D02*
X1089020D01*
X1168450D02*
X1208980D01*
X1392400D02*
X1412430D01*
X1828810D02*
X1847130D01*
X2056390D02*
X2077750D01*
X745200Y3490900D02*
X761590D01*
X876150D02*
X891670D01*
X996230D02*
X1009820D01*
X1170090D02*
X1197820D01*
X1392400D02*
X1412430D01*
X1828810D02*
X1847130D01*
X744490Y3493280D02*
X760910D01*
X876150D02*
X891670D01*
X995920D02*
X1009520D01*
X1171720D02*
X1188510D01*
X744710Y3495660D02*
X760260D01*
X998210D02*
X1009280D01*
X1173360D02*
X1180640D01*
X0Y0D02*
M02*
