G04 DesignSpark PCB Gerber Version 13.0 Build *
%FSLAX35Y35*%
%MOMM*%
%ADD20R,0.63500X2.03200*%
%ADD11C,0.20000*%
%ADD12C,0.25400*%
%ADD13C,0.80000*%
%ADD16C,1.30000*%
%ADD14C,2.20000*%
%AMT17*0 Bullet Pad at angle 90*21,1,1.30000,1.95000,0,0,90*%
%ADD17T17*%
%AMT15*0 Bullet Pad at angle 270*21,1,1.30000,1.95000,0,0,270*%
%ADD15T15*%
%ADD21R,0.80000X0.80000*%
X0Y0D02*
D02*
D11*
X490640Y1849600D02*
Y1796400D01*
X635000D01*
G75*
G02*
X735400Y1696000I0J-100400D01*
G01*
G75*
G02*
X635000Y1595600I-100400J0D01*
G01*
X490640D01*
Y1555100D01*
X635000D01*
G75*
G02*
X735400Y1454700I0J-100400D01*
G01*
G75*
G02*
X635000Y1354300I-100400J0D01*
G01*
X490640D01*
Y1288400D01*
X635000D01*
G75*
G02*
X735400Y1188000I0J-100400D01*
G01*
G75*
G02*
X635000Y1087600I-100400J0D01*
G01*
X490640D01*
Y1034400D01*
X635000D01*
G75*
G02*
X735400Y934000I0J-100400D01*
G01*
G75*
G02*
X635000Y833600I-100400J0D01*
G01*
X490640D01*
Y780400D01*
X635000D01*
G75*
G02*
X735400Y680000I0J-100400D01*
G01*
G75*
G02*
X635000Y579600I-100400J0D01*
G01*
X490640D01*
Y526400D01*
X635000D01*
G75*
G02*
X701340Y350640I0J-100400D01*
G01*
X1962660D01*
G75*
G02*
X2029000Y526400I66340J75360D01*
G01*
X2179360D01*
Y579600D01*
X2029000D01*
G75*
G02*
X1928600Y680000I0J100400D01*
G01*
G75*
G02*
X2029000Y780400I100400J0D01*
G01*
X2179360D01*
Y833600D01*
X2029000D01*
G75*
G02*
X1928600Y934000I0J100400D01*
G01*
G75*
G02*
X2029000Y1034400I100400J0D01*
G01*
X2179360D01*
Y1087600D01*
X2029000D01*
G75*
G02*
X1928600Y1188000I0J100400D01*
G01*
G75*
G02*
X2029000Y1288400I100400J0D01*
G01*
X2179360D01*
Y1341600D01*
X2029000D01*
G75*
G02*
X1928600Y1442000I0J100400D01*
G01*
G75*
G02*
X2029000Y1542400I100400J0D01*
G01*
X2179360D01*
Y1595600D01*
X2029000D01*
G75*
G02*
X1928600Y1696000I0J100400D01*
G01*
G75*
G02*
X2029000Y1796400I100400J0D01*
G01*
X2179360D01*
Y1849600D01*
X2029000D01*
G75*
G02*
X1928600Y1950000I0J100400D01*
G01*
G75*
G02*
X2029000Y2050400I100400J0D01*
G01*
X2179360D01*
Y2090900D01*
X2029000D01*
G75*
G02*
X1928600Y2191300I0J100400D01*
G01*
G75*
G02*
X2029000Y2291700I100400J0D01*
G01*
X2179360D01*
Y2357600D01*
X2029000D01*
G75*
G02*
X1928600Y2458000I0J100400D01*
G01*
G75*
G02*
X2029000Y2558400I100400J0D01*
G01*
X2179360D01*
Y2611600D01*
X2029000D01*
G75*
G02*
X1928600Y2712000I0J100400D01*
G01*
G75*
G02*
X2029000Y2812400I100400J0D01*
G01*
X2179360D01*
Y2865600D01*
X2029000D01*
G75*
G02*
X1928600Y2966000I0J100400D01*
G01*
G75*
G02*
X2029000Y3066400I100400J0D01*
G01*
X2179360D01*
Y3119600D01*
X2029000D01*
G75*
G02*
X1962710Y3144600I0J100390D01*
G01*
X1951240D01*
X1895400Y3088760D01*
Y2105840D01*
G75*
G02*
X1895410Y2104900I-75430J-1270D01*
G01*
G75*
G02*
X1873320Y2051580I-75410J0D01*
G01*
X1823320Y2001580D01*
G75*
G02*
X1769060Y1979500I-53320J53320D01*
G01*
X1715400D01*
Y1380000D01*
G75*
G02*
X1692520Y1325900I-75400J0D01*
G01*
X1574100Y1207480D01*
G75*
G02*
X1520000Y1184600I-54100J52520D01*
G01*
X1070940D01*
G75*
G02*
X1016680Y1206680I-940J75400D01*
G01*
X966680Y1256680D01*
G75*
G02*
X944590Y1310000I53320J53320D01*
G01*
G75*
G02*
X944600Y1310940I75330J-330D01*
G01*
Y1877550D01*
G75*
G02*
X952850Y1911840I75390J0D01*
G01*
Y2014550D01*
X1225900D01*
Y2030080D01*
X1214080Y2041900D01*
X909920D01*
X784360Y1916340D01*
G75*
G02*
X750000Y1901900I-34360J33650D01*
G01*
X723130D01*
G75*
G02*
X635000Y1849600I-88130J48100D01*
G01*
X490640D01*
G36*
X490640Y1849600D02*
Y1796400D01*
X635000D01*
G75*
G02*
X735400Y1696000I0J-100400D01*
G01*
G75*
G02*
X635000Y1595600I-100400J0D01*
G01*
X490640D01*
Y1555100D01*
X635000D01*
G75*
G02*
X735400Y1454700I0J-100400D01*
G01*
G75*
G02*
X635000Y1354300I-100400J0D01*
G01*
X490640D01*
Y1288400D01*
X635000D01*
G75*
G02*
X735400Y1188000I0J-100400D01*
G01*
G75*
G02*
X635000Y1087600I-100400J0D01*
G01*
X490640D01*
Y1034400D01*
X635000D01*
G75*
G02*
X735400Y934000I0J-100400D01*
G01*
G75*
G02*
X635000Y833600I-100400J0D01*
G01*
X490640D01*
Y780400D01*
X635000D01*
G75*
G02*
X735400Y680000I0J-100400D01*
G01*
G75*
G02*
X635000Y579600I-100400J0D01*
G01*
X490640D01*
Y526400D01*
X635000D01*
G75*
G02*
X701340Y350640I0J-100400D01*
G01*
X1962660D01*
G75*
G02*
X2029000Y526400I66340J75360D01*
G01*
X2179360D01*
Y579600D01*
X2029000D01*
G75*
G02*
X1928600Y680000I0J100400D01*
G01*
G75*
G02*
X2029000Y780400I100400J0D01*
G01*
X2179360D01*
Y833600D01*
X2029000D01*
G75*
G02*
X1928600Y934000I0J100400D01*
G01*
G75*
G02*
X2029000Y1034400I100400J0D01*
G01*
X2179360D01*
Y1087600D01*
X2029000D01*
G75*
G02*
X1928600Y1188000I0J100400D01*
G01*
G75*
G02*
X2029000Y1288400I100400J0D01*
G01*
X2179360D01*
Y1341600D01*
X2029000D01*
G75*
G02*
X1928600Y1442000I0J100400D01*
G01*
G75*
G02*
X2029000Y1542400I100400J0D01*
G01*
X2179360D01*
Y1595600D01*
X2029000D01*
G75*
G02*
X1928600Y1696000I0J100400D01*
G01*
G75*
G02*
X2029000Y1796400I100400J0D01*
G01*
X2179360D01*
Y1849600D01*
X2029000D01*
G75*
G02*
X1928600Y1950000I0J100400D01*
G01*
G75*
G02*
X2029000Y2050400I100400J0D01*
G01*
X2179360D01*
Y2090900D01*
X2029000D01*
G75*
G02*
X1928600Y2191300I0J100400D01*
G01*
G75*
G02*
X2029000Y2291700I100400J0D01*
G01*
X2179360D01*
Y2357600D01*
X2029000D01*
G75*
G02*
X1928600Y2458000I0J100400D01*
G01*
G75*
G02*
X2029000Y2558400I100400J0D01*
G01*
X2179360D01*
Y2611600D01*
X2029000D01*
G75*
G02*
X1928600Y2712000I0J100400D01*
G01*
G75*
G02*
X2029000Y2812400I100400J0D01*
G01*
X2179360D01*
Y2865600D01*
X2029000D01*
G75*
G02*
X1928600Y2966000I0J100400D01*
G01*
G75*
G02*
X2029000Y3066400I100400J0D01*
G01*
X2179360D01*
Y3119600D01*
X2029000D01*
G75*
G02*
X1962710Y3144600I0J100390D01*
G01*
X1951240D01*
X1895400Y3088760D01*
Y2105840D01*
G75*
G02*
X1895410Y2104900I-75430J-1270D01*
G01*
G75*
G02*
X1873320Y2051580I-75410J0D01*
G01*
X1823320Y2001580D01*
G75*
G02*
X1769060Y1979500I-53320J53320D01*
G01*
X1715400D01*
Y1380000D01*
G75*
G02*
X1692520Y1325900I-75400J0D01*
G01*
X1574100Y1207480D01*
G75*
G02*
X1520000Y1184600I-54100J52520D01*
G01*
X1070940D01*
G75*
G02*
X1016680Y1206680I-940J75400D01*
G01*
X966680Y1256680D01*
G75*
G02*
X944590Y1310000I53320J53320D01*
G01*
G75*
G02*
X944600Y1310940I75330J-330D01*
G01*
Y1877550D01*
G75*
G02*
X952850Y1911840I75390J0D01*
G01*
Y2014550D01*
X1225900D01*
Y2030080D01*
X1214080Y2041900D01*
X909920D01*
X784360Y1916340D01*
G75*
G02*
X750000Y1901900I-34360J33650D01*
G01*
X723130D01*
G75*
G02*
X635000Y1849600I-88130J48100D01*
G01*
X490640D01*
G37*
Y3549360D02*
Y3320400D01*
X635000D01*
G75*
G02*
X735400Y3220000I0J-100400D01*
G01*
G75*
G02*
X635000Y3119600I-100400J0D01*
G01*
X490640D01*
Y3066400D01*
X635000D01*
G75*
G02*
X735400Y2966000I0J-100400D01*
G01*
G75*
G02*
X635000Y2865600I-100400J0D01*
G01*
X490640D01*
Y2812400D01*
X635000D01*
G75*
G02*
X735400Y2712000I0J-100400D01*
G01*
G75*
G02*
X635000Y2611600I-100400J0D01*
G01*
X490640D01*
Y2558400D01*
X635000D01*
G75*
G02*
X735400Y2458000I0J-100400D01*
G01*
G75*
G02*
X635000Y2357600I-100400J0D01*
G01*
X490640D01*
Y2304400D01*
X635000D01*
G75*
G02*
X725200Y2248100I0J-100400D01*
G01*
X1327000D01*
G75*
G02*
X1361360Y2233660I0J-48090D01*
G01*
X1434660Y2160360D01*
G75*
G02*
X1449100Y2126000I-33650J-34360D01*
G01*
Y2014550D01*
X1468150D01*
Y1740550D01*
X1095400D01*
Y1341240D01*
X1101240Y1335400D01*
X1488780D01*
X1564600Y1411220D01*
Y2130300D01*
X1738760D01*
X1744600Y2136140D01*
Y3119060D01*
G75*
G02*
X1744590Y3120000I75320J1270D01*
G01*
G75*
G02*
X1766680Y3173320I75410J0D01*
G01*
X1866680Y3273320D01*
G75*
G02*
X1920940Y3295400I53320J-53320D01*
G01*
X1962710D01*
G75*
G02*
X2029000Y3320400I66290J-75390D01*
G01*
X2179360D01*
Y3549360D01*
X490640D01*
X952850Y2554300D02*
X1468150D01*
Y2280300D01*
X952850D01*
Y2554300D01*
X1364600Y2780000D02*
G75*
G02*
X1655400I145400J0D01*
G01*
G75*
G02*
X1364600I-145400J0D01*
G01*
X1564600Y2295400D02*
X1715400D01*
Y2144600D01*
X1564600D01*
Y2295400D01*
X1214600Y1500000D02*
G75*
G02*
X1505400I145400J0D01*
G01*
G75*
G02*
X1214600I-145400J0D01*
G01*
X1095400D02*
G36*
X1095400Y1500000D02*
Y1345400D01*
X1498780D01*
X1564600Y1411220D01*
Y1500000D01*
X1505400D01*
G75*
G02*
X1214600I-145400J0D01*
G01*
X1095400D01*
G37*
Y1740550D02*
G36*
X1095400Y1740550D02*
Y1500000D01*
X1214600D01*
G75*
G02*
X1505400I145400J0D01*
G01*
X1564600D01*
Y2130300D01*
X1738760D01*
X1744600Y2136140D01*
Y2220000D01*
X1715400D01*
Y2144600D01*
X1564600D01*
Y2220000D01*
X1375020D01*
X1434660Y2160360D01*
G75*
G02*
X1449100Y2126000I-33720J-34390D01*
G01*
Y2014550D01*
X1468150D01*
Y1740550D01*
X1095400D01*
G37*
X500640Y2357600D02*
G36*
X500640Y2357600D02*
Y2304400D01*
X635000D01*
G75*
G02*
X725200Y2248100I-10J-100420D01*
G01*
X1327000D01*
G75*
G02*
X1361360Y2233660I-30J-48160D01*
G01*
X1375020Y2220000D01*
X1564600D01*
Y2295400D01*
X1715400D01*
Y2220000D01*
X1744600D01*
Y2417300D01*
X1468150D01*
Y2280300D01*
X952850D01*
Y2417300D01*
X726780D01*
G75*
G02*
X635000Y2357600I-91780J40690D01*
G01*
X500640D01*
G37*
Y2611600D02*
G36*
X500640Y2611600D02*
Y2558400D01*
X635000D01*
G75*
G02*
X735400Y2458000I0J-100400D01*
G01*
G75*
G02*
Y2457990I-286480J0D01*
G01*
G75*
G02*
X726780Y2417300I-100390J10D01*
G01*
X952850D01*
Y2554300D01*
X1468150D01*
Y2417300D01*
X1744600D01*
Y2780000D01*
X1655400D01*
G75*
G02*
X1364600I-145400J0D01*
G01*
X708860D01*
G75*
G02*
X735400Y2712000I-73870J-68010D01*
G01*
G75*
G02*
Y2711990I-286480J0D01*
G01*
G75*
G02*
X635000Y2611600I-100400J0D01*
G01*
X500640D01*
G37*
Y2865600D02*
G36*
X500640Y2865600D02*
Y2812400D01*
X635000D01*
G75*
G02*
X708860Y2780000I-10J-100410D01*
G01*
X1364600D01*
G75*
G02*
X1655400I145400J0D01*
G01*
X1744600D01*
Y3119060D01*
G75*
G02*
X1744590Y3119760I21630J660D01*
G01*
G75*
G02*
Y3120000I21650J120D01*
G01*
G75*
G02*
X1766680Y3173320I75420J-10D01*
G01*
X1866680Y3273320D01*
G75*
G02*
X1920940Y3295400I53330J-53330D01*
G01*
X1962710D01*
G75*
G02*
X2029000Y3320400I66290J-75390D01*
G01*
X2169360D01*
Y3539360D01*
X500640D01*
Y3320400D01*
X635000D01*
G75*
G02*
X735400Y3220000I0J-100400D01*
G01*
G75*
G02*
Y3219990I-286480J0D01*
G01*
G75*
G02*
X635000Y3119600I-100400J0D01*
G01*
X500640D01*
Y3066400D01*
X635000D01*
G75*
G02*
X735400Y2966000I0J-100400D01*
G01*
G75*
G02*
Y2965990I-286480J0D01*
G01*
G75*
G02*
X635000Y2865600I-100400J0D01*
G01*
X500640D01*
G37*
D02*
D12*
X570000Y2405700D02*
Y2354900D01*
Y2510300D02*
Y2561100D01*
Y2659700D02*
Y2608900D01*
Y2764300D02*
Y2815100D01*
X687300Y2458000D02*
X738100D01*
X687300Y2712000D02*
X738100D01*
X1147000Y1788650D02*
Y1737850D01*
Y1966450D02*
Y2017250D01*
Y2328400D02*
Y2277600D01*
Y2506200D02*
Y2557000D01*
X1262700Y1500000D02*
X1211900D01*
X1274000Y1877550D02*
Y2050000D01*
X1234000Y2090000D01*
X890000D01*
X750000Y1950000D01*
X570000D01*
X1274000Y2328400D02*
Y2277600D01*
Y2506200D02*
Y2557000D01*
X1360000Y1402700D02*
Y1351900D01*
Y1597300D02*
Y1648100D01*
X1401000Y1877550D02*
Y2126000D01*
X1327000Y2200000D01*
X570000D01*
Y2204000D01*
X1401000Y2328400D02*
Y2277600D01*
Y2506200D02*
Y2557000D01*
X1412700Y2780000D02*
X1361900D01*
X1420050Y2417300D02*
X1470850D01*
X1457300Y1500000D02*
X1508100D01*
X1510000Y2682700D02*
Y2631900D01*
Y2877300D02*
Y2928100D01*
X1607300Y2780000D02*
X1658100D01*
X1612700Y2220000D02*
X1561900D01*
X1640000Y2192700D02*
Y2141900D01*
Y2247300D02*
Y2298100D01*
X1667300Y2220000D02*
X1718100D01*
X1976700Y2966000D02*
X1925900D01*
X2094000Y2913700D02*
Y2862900D01*
Y3018300D02*
Y3069100D01*
D02*
D13*
X570000Y2458000D02*
X748000D01*
X850000Y2560000D01*
Y2630000D01*
X920000Y2700000D01*
X1067000D01*
X1147000Y2620000D01*
Y2417300D01*
X570000Y2712000D02*
Y2458000D01*
X1147000Y2417300D02*
X1274000D01*
X1401000D01*
X1360000Y1500000D02*
X1330000D01*
X1150000Y1680000D01*
Y1864550D01*
X1147000Y1867550D01*
Y1877550D01*
X1401000Y2417300D02*
X1602700D01*
X1640000Y2380000D01*
Y2220000D01*
X1510000Y2780000D02*
X1640000Y2650000D01*
Y2220000D01*
Y2054900D02*
Y1380000D01*
X1520000Y1260000D01*
X1070000D01*
X1020000Y1310000D01*
Y1877550D01*
X2094000Y3220000D02*
X1920000D01*
X1820000Y3120000D01*
Y2104900D01*
X1770000Y2054900D01*
X1640000D01*
D02*
D14*
X1360000Y1500000D03*
X1510000Y2780000D03*
D02*
D15*
X537500Y426000D03*
D02*
D16*
X635000D03*
D02*
D15*
X537500Y680000D03*
D02*
D16*
X635000D03*
D02*
D15*
X537500Y934000D03*
D02*
D16*
X635000D03*
D02*
D15*
X537500Y1188000D03*
D02*
D16*
X635000D03*
D02*
D15*
X537500Y1454700D03*
D02*
D16*
X635000D03*
D02*
D15*
X537500Y1696000D03*
D02*
D16*
X635000D03*
D02*
D15*
X537500Y1950000D03*
D02*
D16*
X635000D03*
D02*
D15*
X537500Y2204000D03*
D02*
D16*
X635000D03*
D02*
D15*
X537500Y2458000D03*
D02*
D16*
X635000D03*
D02*
D15*
X537500Y2712000D03*
D02*
D16*
X635000D03*
D02*
D15*
X537500Y2966000D03*
D02*
D16*
X635000D03*
D02*
D15*
X537500Y3220000D03*
D02*
D16*
X635000D03*
D02*
D17*
X2126500Y426000D03*
D02*
D16*
X2029000D03*
D02*
D17*
X2126500Y680000D03*
D02*
D16*
X2029000D03*
D02*
D17*
X2126500Y934000D03*
D02*
D16*
X2029000D03*
D02*
D17*
X2126500Y1188000D03*
D02*
D16*
X2029000D03*
D02*
D17*
X2126500Y1442000D03*
D02*
D16*
X2029000D03*
D02*
D17*
X2126500Y1696000D03*
D02*
D16*
X2029000D03*
D02*
D17*
X2126500Y1950000D03*
D02*
D16*
X2029000D03*
D02*
D17*
X2126500Y2191300D03*
D02*
D16*
X2029000D03*
D02*
D17*
X2126500Y2458000D03*
D02*
D16*
X2029000D03*
D02*
D17*
X2126500Y2712000D03*
D02*
D16*
X2029000D03*
D02*
D17*
X2126500Y2966000D03*
D02*
D16*
X2029000D03*
D02*
D17*
X2126500Y3220000D03*
D02*
D16*
X2029000D03*
D02*
D20*
X1020000Y1877550D03*
Y2417300D03*
X1147000Y1877550D03*
Y2417300D03*
X1274000Y1877550D03*
Y2417300D03*
X1401000Y1877550D03*
Y2417300D03*
D02*
D21*
X1640000Y2054900D03*
Y2220000D03*
X0Y0D02*
M02*
