  0
SECTION
  2
HEADER
  9
$ACADVER
  1
AC1009
  9
$INSBASE
 10
0
 20
0
 30
0
  9
$EXTMIN
 10
0
 20
0
  9
$EXTMAX
 10
420
 20
297
  9
$LIMMIN
 10
0
 20
0
  9
$LIMMAX
 10
420
 20
297
  9
$LTSCALE
 40
1
  0
ENDSEC
  0
SECTION
  2
TABLES
  0
TABLE
  2
LTYPE
 70
     9
  0
LTYPE
  2
CONTINUOUS
 70
    64
  3
実線
 72
    65
 73
     0
 40
0.0
  0
LTYPE
  2
DASHED1
 70
    64
  3
--  --  --  --  --  --  --  --  
 72
    65
 73
     2
 40
2.5
 49
1.25
 49
-1.25
  0
LTYPE
  2
DASHED2
 70
    64
  3
----    ----    ----    ----    
 72
    65
 73
     2
 40
5.0
 49
2.5
 49
-2.5
  0
LTYPE
  2
DASHED3
 70
    64
  3
------  ------  ------  ------  
 72
    65
 73
     2
 40
5.0
 49
3.75
 49
-1.25
  0
LTYPE
  2
CENTER1
 70
    64
  3
----- - ----- - ----- - ----- - 
 72
    65
 73
     4
 40
10.0
 49
6.25
 49
-1.25
 49
1.25
 49
-1.25
  0
LTYPE
  2
CENTER2
 70
    64
  3
----------  --  ----------  --  
 72
    65
 73
     4
 40
20.0
 49
12.5
 49
-2.5
 49
2.5
 49
-2.5
  0
LTYPE
  2
PHANTOM1
 70
    64
  3
--- - - --- - - --- - - --- - - 
 72
    65
 73
     6
 40
10.0
 49
3.25
 49
-1.25
 49
1.25
 49
-1.25
 49
1.25
 49
-1.25
  0
LTYPE
  2
PHANTOM2
 70
    64
  3
--------  -  -  --------  -  -  
 72
    65
 73
     6
 40
20.0
 49
10.0
 49
-2.5
 49
1.25
 49
-2.5
 49
1.25
 49
-2.5
  0
LTYPE
  2
DOT
 70
    64
  3
-   -   -   -   -   -   -   -   
 72
    65
 73
     2
 40
2.5
 49
0.625
 49
-1.875
  0
LTYPE
  2
DUMMY
 70
    64
  3
ダミー
 72
    65
 73
     0
 40
0.0
  0
LTYPE
  2
RAND1
 70
    64
  3
ランダム線1
 72
    65
 73
     4
 40
10.0
 49
1.0
 49
-2.0
 49
3.0
 49
-4.0
  0
LTYPE
  2
RAND2
 70
    64
  3
ランダム線2
 72
    65
 73
     4
 40
14.0
 49
2.0
 49
-3.0
 49
4.0
 49
-5.0
  0
LTYPE
  2
RAND3
 70
    64
  3
ランダム線3
 72
    65
 73
     4
 40
18.0
 49
3.0
 49
-4.0
 49
5.0
 49
-6.0
  0
LTYPE
  2
RAND4
 70
    64
  3
ランダム線4
 72
    65
 73
     4
 40
22.0
 49
4.0
 49
-5.0
 49
6.0
 49
-7.0
  0
LTYPE
  2
RAND5
 70
    64
  3
ランダム線5
 72
    65
 73
     4
 40
26.0
 49
5.0
 49
-6.0
 49
7.0
 49
-8.0
  0
LTYPE
  2
LONG1
 70
    64
  3
----------  --  ----------  --  
 72
    65
 73
     4
 40
40.0
 49
32.5
 49
-2.5
 49
2.5
 49
-2.5
  0
LTYPE
  2
LONG2
 70
    64
  3
--------  -  -  --------  -  -  
 72
    65
 73
     6
 40
40.0
 49
30.0
 49
-2.5
 49
1.25
 49
-2.5
 49
1.25
 49
-2.5
  0
LTYPE
  2
LONG3
 70
    64
  3
+++++++++++++++..+++++++++++++++
 72
    65
 73
     2
 40
40.0
 49
37.5
 49
-2.5
  0
LTYPE
  2
LONG4
 70
    64
  3
+++++++++++++++..+++++++++++++++
 72
    65
 73
     2
 40
80.0
 49
75.0
 49
-5.0
  0
LTYPE
  2
LONG5
 70
    64
  3
----------  --  ----------  --  
 72
    65
 73
     4
 40
60.0
 49
37.5
 49
-7.5
 49
7.5
 49
-7.5
  0
LTYPE
  2
dashed
 70
   64
  3
-------   -------------   ------
 72
   65
 73
    2
 40
7.5
 49
6
 49
-1.5
  0
LTYPE
  2
dashed_spaced
 70
   64
  3
----        --------        ----
 72
   65
 73
    2
 40
12
 49
6
 49
-6
  0
LTYPE
  2
long_dashed_dotted
 70
   64
  3
------------- --- --------------
 72
   65
 73
    4
 40
15.25
 49
12
 49
-1.5
 49
0.25
 49
-1.5
  0
LTYPE
  2
long_dashed_double-dotted
 70
   64
  3
----------- --- --- ------------
 72
   65
 73
    6
 40
17
 49
12
 49
-1.5
 49
0.25
 49
-1.5
 49
0.25
 49
-1.5
  0
LTYPE
  2
long_dashed_triplicate-dotted
 70
   64
  3
--------- --- --- --- ----------
 72
   65
 73
    8
 40
18.75
 49
12
 49
-1.5
 49
0.25
 49
-1.5
 49
0.25
 49
-1.5
 49
0.25
 49
-1.5
  0
LTYPE
  2
dotted
 70
   64
  3
   -       -       -       -    
 72
   65
 73
    2
 40
1.75
 49
0.25
 49
-1.5
  0
LTYPE
  2
chain
 70
   64
  3
-------------- -- --------------
 72
   65
 73
    4
 40
18.5
 49
12
 49
-1.5
 49
3.5
 49
-1.5
  0
LTYPE
  2
chain_double_dash
 70
   64
  3
------------ -- -- -------------
 72
   65
 73
    6
 40
23.5
 49
12
 49
-1.5
 49
3.5
 49
-1.5
 49
3.5
 49
-1.5
  0
LTYPE
  2
dashed_dotted
 70
   64
  3
-----------     -     ----------
 72
   65
 73
    4
 40
9.25
 49
6
 49
-1.5
 49
0.25
 49
-1.5
  0
LTYPE
  2
double-dashed_dotted
 70
   64
  3
------   -----------   -   -----
 72
   65
 73
    6
 40
16.75
 49
6
 49
-1.5
 49
6
 49
-1.5
 49
0.25
 49
-1.5
  0
LTYPE
  2
dashed_double-dotted
 70
   64
  3
---------    -    -    ---------
 72
   65
 73
    6
 40
11
 49
6
 49
-1.5
 49
0.25
 49
-1.5
 49
0.25
 49
-1.5
  0
LTYPE
  2
double-dashed_double-dotted
 70
   64
  3
-----   ---------   -   -   ----
 72
   65
 73
    8
 40
18.5
 49
6
 49
-1.5
 49
6
 49
-1.5
 49
0.25
 49
-1.5
 49
0.25
 49
-1.5
  0
LTYPE
  2
dashed_triplicate-dotted
 70
   64
  3
-------    -    -    -    ------
 72
   65
 73
    8
 40
12.75
 49
6
 49
-1.5
 49
0.25
 49
-1.5
 49
0.25
 49
-1.5
 49
0.25
 49
-1.5
  0
LTYPE
  2
double-dashed_triplicate-dotted
 70
   64
  3
-----  ---------  -  -  -  -----
 72
   65
 73
   10
 40
20.25
 49
6
 49
-1.5
 49
6
 49
-1.5
 49
0.25
 49
-1.5
 49
0.25
 49
-1.5
 49
0.25
 49
-1.5
  0
LTYPE
  2
undefined
 70
   64
  3
--------------------------------
 72
   65
 73
    0
 40
0
  0
LTYPE
  2
_
 70
   64
  3
                                
 72
   65
 73
    0
 40
0
  0
LTYPE
  2
__18
 70
   64
  3
                                
 72
   65
 73
    0
 40
0
  0
LTYPE
  2
__19
 70
   64
  3
                                
 72
   65
 73
    0
 40
0
  0
LTYPE
  2
__20
 70
   64
  3
                                
 72
   65
 73
    0
 40
0
  0
LTYPE
  2
__21
 70
   64
  3
                                
 72
   65
 73
    0
 40
0
  0
LTYPE
  2
__22
 70
   64
  3
                                
 72
   65
 73
    0
 40
0
  0
LTYPE
  2
__23
 70
   64
  3
                                
 72
   65
 73
    0
 40
0
  0
LTYPE
  2
__24
 70
   64
  3
                                
 72
   65
 73
    0
 40
0
  0
LTYPE
  2
__25
 70
   64
  3
                                
 72
   65
 73
    0
 40
0
  0
LTYPE
  2
__26
 70
   64
  3
                                
 72
   65
 73
    0
 40
0
  0
LTYPE
  2
__27
 70
   64
  3
                                
 72
   65
 73
    0
 40
0
  0
LTYPE
  2
__28
 70
   64
  3
                                
 72
   65
 73
    0
 40
0
  0
LTYPE
  2
__29
 70
   64
  3
                                
 72
   65
 73
    0
 40
0
  0
LTYPE
  2
__30
 70
   64
  3
                                
 72
   65
 73
    0
 40
0
  0
LTYPE
  2
__31
 70
   64
  3
                                
 72
   65
 73
    0
 40
0
  0
LTYPE
  2
__32
 70
   64
  3
                                
 72
   65
 73
    0
 40
0
  0
ENDTAB
  0
TABLE
  2
STYLE
  5
3
100
AcDbSymbolTable
 70
     1
  0
STYLE
  5
10
100
AcDbSymbolTableRecord
100
AcDbTextStyleTableRecord
  2
STANDARD
 70
     0
 40
0.0
 41
1.0
 50
0.0
 71
     0
 42
0.2
  3
txt
  4
bigfont.shx
  0
STYLE
  5
26
100
AcDbSymbolTableRecord
100
AcDbTextStyleTableRecord
  2
TATEGAKI
 70
    68
 40
0.0
 41
1.0
 50
0.0
 71
     0
 42
1.0
  3
txt
  4
bigfont.shx
  0
ENDTAB
  0
TABLE
  2
LAYER
 70
    2
  0
LAYER
  2
_0-1_
 70
   64
 62
    7
  6
CONTINUOUS
  0
LAYER
  2
ADD_LINE
 70
   64
 62
    7
  6
CONTINUOUS
  0
ENDTAB
  0
ENDSEC
  0
SECTION
  2
BLOCKS
  0
ENDSEC
  0
SECTION
  2
ENTITIES
  0
LINE
  8
_0-1_
  6
CONTINUOUS
 62
    7
 10
221.01261206267986
 20
115.98561230600175
 11
180.93362128983915
 21
139.12522841754991
  0
LINE
  8
_0-1_
  6
CONTINUOUS
 62
    7
 10
221.01261206267986
 20
209.21268633890159
 11
180.93362128983915
 21
186.07307022735344
  0
LINE
  8
_0-1_
  6
CONTINUOUS
 62
    7
 10
180.93362128983915
 20
139.12522841754991
 11
180.93362128983915
 21
186.07307022735344
  0
LINE
  8
_0-1_
  6
CONTINUOUS
 62
    7
 10
221.01261206267986
 20
209.21268633890159
 11
261.09160283552068
 21
186.07307022735344
  0
LINE
  8
_0-1_
  6
CONTINUOUS
 62
    7
 10
221.01261206267986
 20
115.98561230600175
 11
261.09160283552068
 21
139.12522841754991
  0
LINE
  8
_0-1_
  6
CONTINUOUS
 62
    7
 10
261.09160283552068
 20
186.07307022735344
 11
261.09160283552068
 21
139.12522841754991
  0
LINE
  8
_0-1_
  6
CONTINUOUS
 62
    7
 10
257.48461075446743
 20
183.85883159287365
 11
221.01261206267986
 21
204.91594985546092
  0
LINE
  8
_0-1_
  6
CONTINUOUS
 62
    7
 10
221.09349767485281
 20
204.96264918542257
 11
184.54061337089223
 21
183.85883159287365
  0
LINE
  8
_0-1_
  6
CONTINUOUS
 62
    7
 10
184.54061337089223
 20
141.60533962756738
 11
184.54061337089223
 21
183.85883159287365
  0
LINE
  8
_0-1_
  6
CONTINUOUS
 62
    7
 10
184.54061337089223
 20
141.60533962756738
 11
221.01261206267986
 21
120.54822136498012
  0
LINE
  8
_0-1_
  6
CONTINUOUS
 62
    7
 10
221.01261206267986
 20
120.54822136498012
 11
257.48461075446743
 21
141.60533962756736
  0
LINE
  8
_0-1_
  6
CONTINUOUS
 62
    7
 10
257.48461075446743
 20
141.60533962756738
 11
257.48461075446743
 21
183.85883159287365
  0
LINE
  8
_0-1_
  6
CONTINUOUS
 62
    7
 10
254.99180414409454
 20
182.28663163098883
 11
221.0126120626798
 21
201.90452732603964
  0
LINE
  8
_0-1_
  6
CONTINUOUS
 62
    7
 10
221.01261206267986
 20
201.90452732603964
 11
187.03341998126512
 21
182.28663163098883
  0
LINE
  8
_0-1_
  6
CONTINUOUS
 62
    7
 10
187.03341998126512
 20
143.21382789551367
 11
187.03341998126512
 21
182.28663163098883
  0
LINE
  8
_0-1_
  6
CONTINUOUS
 62
    7
 10
221.01261206267986
 20
123.59593220046292
 11
187.03341998126512
 21
143.21382789551367
  0
LINE
  8
_0-1_
  6
CONTINUOUS
 62
    7
 10
221.01261206267986
 20
123.59593220046292
 11
254.99180414409454
 21
143.21382789551367
  0
LINE
  8
_0-1_
  6
CONTINUOUS
 62
    7
 10
254.99180414409454
 20
143.21382789551367
 11
254.99180414409454
 21
182.28663163098883
  0
LINE
  8
_0-1_
  6
CONTINUOUS
 62
    7
 10
206.94746550489486
 20
184.15257238761876
 11
208.1833082488435
 21
184.06091939286918
  0
LINE
  8
_0-1_
  6
CONTINUOUS
 62
    7
 10
208.1833082488435
 20
184.06091939286918
 11
209.0128284913049
 21
183.79188580071954
  0
LINE
  8
_0-1_
  6
CONTINUOUS
 62
    7
 10
209.0128284913049
 20
183.79188580071954
 11
209.67420273867276
 21
183.28744781543898
  0
LINE
  8
_0-1_
  6
CONTINUOUS
 62
    7
 10
209.67420273867276
 20
183.28744781543898
 11
210.42525485009053
 21
182.62607356807109
  0
LINE
  8
_0-1_
  6
CONTINUOUS
 62
    7
 10
210.42525485009053
 20
182.62607356807109
 11
210.92969283537109
 21
181.95348958769699
  0
LINE
  8
_0-1_
  6
CONTINUOUS
 62
    7
 10
210.92969283537109
 20
181.95348958769699
 11
211.34445295660179
 21
181.37058347137278
  0
LINE
  8
_0-1_
  6
CONTINUOUS
 62
    7
 10
211.34445295660179
 20
181.37058347137278
 11
211.79284227685121
 21
180.8773552190984
  0
LINE
  8
_0-1_
  6
CONTINUOUS
 62
    7
 10
211.79284227685121
 20
180.8773552190984
 11
212.31969972814425
 21
180.47380483087394
  0
LINE
  8
_0-1_
  6
CONTINUOUS
 62
    7
 10
212.31969972814425
 20
180.47380483087394
 11
213.26131730066799
 21
180.56348269492383
  0
LINE
  8
_0-1_
  6
CONTINUOUS
 62
    7
 10
213.26131730066799
 20
180.56348269492383
 11
214.50559766436009
 21
180.85493575308595
  0
LINE
  8
_0-1_
  6
CONTINUOUS
 62
    7
 10
214.50559766436009
 20
180.85493575308595
 11
215.30148870780277
 21
180.96703308314829
  0
LINE
  8
_0-1_
  6
CONTINUOUS
 62
    7
 10
215.30148870780277
 20
180.96703308314829
 11
216.35520361038885
 21
180.89977468511088
  0
LINE
  8
_0-1_
  6
CONTINUOUS
 62
    7
 10
216.35520361038885
 20
180.89977468511088
 11
217.54343530904975
 21
180.5186437628989
  0
LINE
  8
_0-1_
  6
CONTINUOUS
 62
    7
 10
217.54343530904975
 20
180.5186437628989
 11
218.55231127961093
 21
179.91331818056218
  0
LINE
  8
_0-1_
  6
CONTINUOUS
 62
    7
 10
218.55231127961093
 20
179.91331818056218
 11
219.31457312403489
 21
178.94928114202596
  0
LINE
  8
_0-1_
  6
CONTINUOUS
 62
    7
 10
219.31457312403489
 20
178.94928114202596
 11
219.71812351225935
 21
177.78346890937754
  0
LINE
  8
_0-1_
  6
CONTINUOUS
 62
    7
 10
219.71812351225935
 20
177.78346890937754
 11
219.89747924035913
 21
176.72975400679143
  0
LINE
  8
_0-1_
  6
CONTINUOUS
 62
    7
 10
219.89747924035913
 20
176.72975400679143
 11
219.89747924035913
 21
175.83297536629262
  0
LINE
  8
_0-1_
  6
CONTINUOUS
 62
    7
 10
219.89747924035913
 20
175.83297536629262
 11
219.69570404624693
 21
174.84651886174395
  0
LINE
  8
_0-1_
  6
CONTINUOUS
 62
    7
 10
219.69570404624693
 20
174.84651886174395
 11
219.40425098808481
 21
173.99457915327008
  0
LINE
  8
_0-1_
  6
CONTINUOUS
 62
    7
 10
219.40425098808481
 20
173.99457915327008
 11
218.95586166783539
 21
173.2995757068835
  0
LINE
  8
_0-1_
  6
CONTINUOUS
 62
    7
 10
218.95586166783539
 20
173.2995757068835
 11
218.48505288157349
 21
172.49247493043458
  0
LINE
  8
_0-1_
  6
CONTINUOUS
 62
    7
 10
218.48505288157349
 20
172.49247493043458
 11
217.92456623126179
 21
171.9544077461353
  0
LINE
  8
_0-1_
  6
CONTINUOUS
 62
    7
 10
217.92456623126179
 20
171.9544077461353
 11
217.20714331886273
 21
171.46117949386095
  0
LINE
  8
_0-1_
  6
CONTINUOUS
 62
    7
 10
217.20714331886273
 20
171.46117949386095
 11
216.31316711161548
 21
171.26570977456472
  0
LINE
  8
_0-1_
  6
CONTINUOUS
 62
    7
 10
216.31316711161548
 20
171.26570977456472
 11
215.13801343479514
 21
171.2397872669878
  0
LINE
  8
_0-1_
  6
CONTINUOUS
 62
    7
 10
215.13801343479514
 20
171.2397872669878
 11
214.00606393726968
 21
171.35211813315444
  0
LINE
  8
_0-1_
  6
CONTINUOUS
 62
    7
 10
214.00606393726968
 20
171.35211813315444
 11
212.79634691701352
 21
171.51629401447493
  0
LINE
  8
_0-1_
  6
CONTINUOUS
 62
    7
 10
212.79634691701352
 20
171.51629401447493
 11
211.34468649270604
 21
171.82736410539797
  0
LINE
  8
_0-1_
  6
CONTINUOUS
 62
    7
 10
211.34468649270604
 20
171.82736410539797
 11
209.97079359112939
 21
172.04338500187228
  0
LINE
  8
_0-1_
  6
CONTINUOUS
 62
    7
 10
209.97079359112939
 20
172.04338500187228
 11
208.35495728550142
 21
172.35445509279531
  0
LINE
  8
_0-1_
  6
CONTINUOUS
 62
    7
 10
208.35495728550142
 20
172.35445509279531
 11
207.3015313838444
 21
172.39992749150314
  0
LINE
  8
_0-1_
  6
CONTINUOUS
 62
    7
 10
207.3015313838444
 20
172.39992749150314
 11
205.94502816443394
 21
172.48718793251785
  0
LINE
  8
_0-1_
  6
CONTINUOUS
 62
    7
 10
205.94502816443394
 20
172.48718793251785
 11
204.75511305968785
 21
172.32853258521839
  0
LINE
  8
_0-1_
  6
CONTINUOUS
 62
    7
 10
204.75511305968785
 20
172.32853258521839
 11
203.6841894654164
 21
172.01122189061945
  0
LINE
  8
_0-1_
  6
CONTINUOUS
 62
    7
 10
203.6841894654164
 20
172.01122189061945
 11
202.81158505526929
 21
171.60665075500577
  0
LINE
  8
_0-1_
  6
CONTINUOUS
 62
    7
 10
202.81158505526929
 20
171.60665075500577
 11
201.70893039153799
 21
171.4162643382464
  0
LINE
  8
_0-1_
  6
CONTINUOUS
 62
    7
 10
201.70893039153799
 20
171.4162643382464
 11
200.43968761314215
 21
171.26554175831191
  0
LINE
  8
_0-1_
  6
CONTINUOUS
 62
    7
 10
200.43968761314215
 20
171.26554175831191
 11
199.36050071953218
 21
171.22253954855429
  0
LINE
  8
_0-1_
  6
CONTINUOUS
 62
    7
 10
199.36050071953218
 20
171.22253954855429
 11
198.2131250797808
 21
171.34331593168602
  0
LINE
  8
_0-1_
  6
CONTINUOUS
 62
    7
 10
198.2131250797808
 20
171.34331593168602
 11
197.36098059879589
 21
171.56473930076083
  0
LINE
  8
_0-1_
  6
CONTINUOUS
 62
    7
 10
197.36098059879589
 20
171.56473930076083
 11
196.46857732343369
 21
171.92706845015601
  0
LINE
  8
_0-1_
  6
CONTINUOUS
 62
    7
 10
196.46857732343369
 20
171.92706845015601
 11
195.55604465088288
 21
172.59133855738051
  0
LINE
  8
_0-1_
  6
CONTINUOUS
 62
    7
 10
195.55604465088288
 20
172.59133855738051
 11
194.87835494553263
 21
173.41664384211392
  0
LINE
  8
_0-1_
  6
CONTINUOUS
 62
    7
 10
194.87835494553263
 20
173.41664384211392
 11
194.48918659988595
 21
174.28220792122462
  0
LINE
  8
_0-1_
  6
CONTINUOUS
 62
    7
 10
194.48918659988595
 20
174.28220792122462
 11
194.21619745796874
 21
175.14000589144217
  0
LINE
  8
_0-1_
  6
CONTINUOUS
 62
    7
 10
194.21619745796874
 20
175.14000589144217
 11
194.13788175449434
 21
176.07979433313528
  0
LINE
  8
_0-1_
  6
CONTINUOUS
 62
    7
 10
194.13788175449434
 20
176.07979433313528
 11
194.14767121742863
 21
177.05874062656562
  0
LINE
  8
_0-1_
  6
CONTINUOUS
 62
    7
 10
194.14767121742863
 20
177.05874062656562
 11
194.56861812360369
 21
178.24326564161631
  0
LINE
  8
_0-1_
  6
CONTINUOUS
 62
    7
 10
194.56861812360369
 20
178.24326564161631
 11
195.2440910660706
 21
179.14389623157225
  0
LINE
  8
_0-1_
  6
CONTINUOUS
 62
    7
 10
195.2440910660706
 20
179.14389623157225
 11
196.14472165602649
 21
179.87810595164498
  0
LINE
  8
_0-1_
  6
CONTINUOUS
 62
    7
 10
196.14472165602649
 20
179.87810595164498
 11
197.38798344868303
 21
180.32842124662295
  0
LINE
  8
_0-1_
  6
CONTINUOUS
 62
    7
 10
197.38798344868303
 20
180.32842124662295
 11
198.34735081624478
 21
180.50463157944042
  0
LINE
  8
_0-1_
  6
CONTINUOUS
 62
    7
 10
198.34735081624478
 20
180.50463157944042
 11
199.46334959075539
 21
180.46547372770319
  0
LINE
  8
_0-1_
  6
CONTINUOUS
 62
    7
 10
199.46334959075539
 20
180.46547372770319
 11
200.05071736681355
 21
180.33821070955727
  0
LINE
  8
_0-1_
  6
CONTINUOUS
 62
    7
 10
200.05071736681355
 20
180.33821070955727
 11
200.65766406874035
 21
180.29905285782004
  0
LINE
  8
_0-1_
  6
CONTINUOUS
 62
    7
 10
200.65766406874035
 20
180.29905285782004
 11
201.2015544739396
 21
180.30886402688059
  0
LINE
  8
_0-1_
  6
CONTINUOUS
 62
    7
 10
201.2015544739396
 20
180.30886402688059
 11
201.70600484776042
 21
180.66017768007728
  0
LINE
  8
_0-1_
  6
CONTINUOUS
 62
    7
 10
201.70600484776042
 20
180.66017768007728
 11
202.14739892485368
 21
181.24570043540504
  0
LINE
  8
_0-1_
  6
CONTINUOUS
 62
    7
 10
202.14739892485368
 20
181.24570043540504
 11
202.62482517150561
 21
181.95733578418807
  0
LINE
  8
_0-1_
  6
CONTINUOUS
 62
    7
 10
202.62482517150561
 20
181.95733578418807
 11
203.1382835877161
 21
182.63293896341244
  0
LINE
  8
_0-1_
  6
CONTINUOUS
 62
    7
 10
203.1382835877161
 20
182.63293896341244
 11
203.86793502127846
 21
183.19143759157125
  0
LINE
  8
_0-1_
  6
CONTINUOUS
 62
    7
 10
203.86793502127846
 20
183.19143759157125
 11
204.58857841245111
 21
183.66886383822313
  0
LINE
  8
_0-1_
  6
CONTINUOUS
 62
    7
 10
204.58857841245111
 20
183.66886383822313
 11
205.57045503292386
 21
183.96612923708187
  0
LINE
  8
_0-1_
  6
CONTINUOUS
 62
    7
 10
205.57045503292386
 20
183.96612923708187
 11
206.52530752622766
 21
184.14629008487503
  0
LINE
  8
_0-1_
  6
CONTINUOUS
 62
    7
 10
206.52530752622766
 20
184.14629008487503
 11
206.94746550489486
 21
184.15257238761876
  0
LINE
  8
_0-1_
  6
CONTINUOUS
 62
    7
 10
209.82329760503205
 20
153.7465441838099
 11
208.36788305746222
 21
153.48318345615442
  0
LINE
  8
_0-1_
  6
CONTINUOUS
 62
    7
 10
208.36788305746222
 20
153.48318345615442
 11
207.75799505657585
 21
153.1366561829235
  0
LINE
  8
_0-1_
  6
CONTINUOUS
 62
    7
 10
207.75799505657585
 20
153.1366561829235
 11
207.17582923754793
 21
152.54062927296635
  0
LINE
  8
_0-1_
  6
CONTINUOUS
 62
    7
 10
207.17582923754793
 20
152.54062927296635
 11
206.35802487272297
 21
151.66738054442447
  0
LINE
  8
_0-1_
  6
CONTINUOUS
 62
    7
 10
206.35802487272297
 20
151.66738054442447
 11
205.99763650856289
 21
151.50104745327362
  0
LINE
  8
_0-1_
  6
CONTINUOUS
 62
    7
 10
205.99763650856289
 20
151.50104745327362
 11
205.41547068953497
 21
151.83371363557532
  0
LINE
  8
_0-1_
  6
CONTINUOUS
 62
    7
 10
205.41547068953497
 20
151.83371363557532
 11
204.50063868820535
 21
152.30499072716932
  0
LINE
  8
_0-1_
  6
CONTINUOUS
 62
    7
 10
204.50063868820535
 20
152.30499072716932
 11
203.57194559594654
 21
152.55449036389561
  0
LINE
  8
_0-1_
  6
CONTINUOUS
 62
    7
 10
203.57194559594654
 20
152.55449036389561
 11
202.43533613974915
 21
152.69310127318794
  0
LINE
  8
_0-1_
  6
CONTINUOUS
 62
    7
 10
202.43533613974915
 20
152.69310127318794
 11
201.46505977470263
 21
152.44360163646169
  0
LINE
  8
_0-1_
  6
CONTINUOUS
 62
    7
 10
201.46505977470263
 20
152.44360163646169
 11
200.66111650080694
 21
152.1386576360185
  0
LINE
  8
_0-1_
  6
CONTINUOUS
 62
    7
 10
200.66111650080694
 20
152.1386576360185
 11
199.82945104505279
 21
151.3347143621228
  0
LINE
  8
_0-1_
  6
CONTINUOUS
 62
    7
 10
199.82945104505279
 20
151.3347143621228
 11
199.46906268089264
 21
150.29513254243011
  0
LINE
  8
_0-1_
  6
CONTINUOUS
 62
    7
 10
199.46906268089264
 20
150.29513254243011
 11
199.42747940810494
 21
149.18624526809119
  0
LINE
  8
_0-1_
  6
CONTINUOUS
 62
    7
 10
199.42747940810494
 20
149.18624526809119
 11
199.66311795390191
 21
148.00805253910613
  0
LINE
  8
_0-1_
  6
CONTINUOUS
 62
    7
 10
199.66311795390191
 20
148.00805253910613
 11
200.24528377292983
 21
146.59422126432403
  0
LINE
  8
_0-1_
  6
CONTINUOUS
 62
    7
 10
200.24528377292983
 20
146.59422126432403
 11
199.67697904483117
 21
145.95661108157918
  0
LINE
  8
_0-1_
  6
CONTINUOUS
 62
    7
 10
199.67697904483117
 20
145.95661108157918
 11
199.26200687248848
 21
145.49504597387348
  0
LINE
  8
_0-1_
  6
CONTINUOUS
 62
    7
 10
199.26200687248848
 20
145.49504597387348
 11
198.76353007918191
 21
144.88466622696742
  0
LINE
  8
_0-1_
  6
CONTINUOUS
 62
    7
 10
198.76353007918191
 20
144.88466622696742
 11
198.40747522681999
 21
144.30480546740668
  0
LINE
  8
_0-1_
  6
CONTINUOUS
 62
    7
 10
198.40747522681999
 20
144.30480546740668
 11
198.15315033227585
 21
143.57234977111943
  0
LINE
  8
_0-1_
  6
CONTINUOUS
 62
    7
 10
198.15315033227585
 20
143.57234977111943
 11
198.07176636602173
 21
142.89075905374099
  0
LINE
  8
_0-1_
  6
CONTINUOUS
 62
    7
 10
198.07176636602173
 20
142.89075905374099
 11
198.12263134493053
 21
142.18882234479903
  0
LINE
  8
_0-1_
  6
CONTINUOUS
 62
    7
 10
198.12263134493053
 20
142.18882234479903
 11
198.31591826478415
 21
141.35463669069409
  0
LINE
  8
_0-1_
  6
CONTINUOUS
 62
    7
 10
198.31591826478415
 20
141.35463669069409
 11
198.84491404543604
 21
140.70356496066096
  0
LINE
  8
_0-1_
  6
CONTINUOUS
 62
    7
 10
198.84491404543604
 20
140.70356496066096
 11
199.51633176703268
 21
140.14405019266376
  0
LINE
  8
_0-1_
  6
CONTINUOUS
 62
    7
 10
199.51633176703268
 20
140.14405019266376
 11
200.45224737895529
 21
139.77782234452013
  0
LINE
  8
_0-1_
  6
CONTINUOUS
 62
    7
 10
200.45224737895529
 20
139.77782234452013
 11
201.73404484745805
 21
139.6862653824842
  0
LINE
  8
_0-1_
  6
CONTINUOUS
 62
    7
 10
201.73404484745805
 20
139.6862653824842
 11
202.91411235814308
 21
139.82868732342896
  0
LINE
  8
_0-1_
  6
CONTINUOUS
 62
    7
 10
202.91411235814308
 20
139.82868732342896
 11
204.21625581820933
 21
140.1949151715726
  0
LINE
  8
_0-1_
  6
CONTINUOUS
 62
    7
 10
204.21625581820933
 20
140.1949151715726
 11
204.47058071275347
 21
139.3810755090312
  0
LINE
  8
_0-1_
  6
CONTINUOUS
 62
    7
 10
204.47058071275347
 20
139.3810755090312
 11
204.87005688857414
 21
138.64744687309726
  0
LINE
  8
_0-1_
  6
CONTINUOUS
 62
    7
 10
204.87005688857414
 20
138.64744687309726
 11
205.27169849143479
 21
138.1488572971323
  0
LINE
  8
_0-1_
  6
CONTINUOUS
 62
    7
 10
205.27169849143479
 20
138.1488572971323
 11
205.71488922562582
 21
137.67796714205431
  0
LINE
  8
_0-1_
  6
CONTINUOUS
 62
    7
 10
205.71488922562582
 20
137.67796714205431
 11
206.37275047169072
 21
137.24170126308499
  0
LINE
  8
_0-1_
  6
CONTINUOUS
 62
    7
 10
206.37275047169072
 20
137.24170126308499
 11
207.14833425652506
 21
136.93700763332861
  0
LINE
  8
_0-1_
  6
CONTINUOUS
 62
    7
 10
207.14833425652506
 20
136.93700763332861
 11
208.00701630402022
 21
136.82620994978086
  0
LINE
  8
_0-1_
  6
CONTINUOUS
 62
    7
 10
208.00701630402022
 20
136.82620994978086
 11
208.96957117984146
 21
136.97855676465903
  0
LINE
  8
_0-1_
  6
CONTINUOUS
 62
    7
 10
208.96957117984146
 20
136.97855676465903
 11
209.65513184679326
 21
137.33172438096752
  0
LINE
  8
_0-1_
  6
CONTINUOUS
 62
    7
 10
209.65513184679326
 20
137.33172438096752
 11
210.49303932862324
 21
138.01036019269761
  0
LINE
  8
_0-1_
  6
CONTINUOUS
 62
    7
 10
210.49303932862324
 20
138.01036019269761
 11
211.10242658813592
 21
138.86904224019278
  0
LINE
  8
_0-1_
  6
CONTINUOUS
 62
    7
 10
211.10242658813592
 20
138.86904224019278
 11
211.265920730932
 21
139.64563941847421
  0
LINE
  8
_0-1_
  6
CONTINUOUS
 62
    7
 10
211.265920730932
 20
139.64563941847421
 11
211.27706805884992
 21
140.44824702856413
  0
LINE
  8
_0-1_
  6
CONTINUOUS
 62
    7
 10
211.27706805884992
 20
140.44824702856413
 11
211.24362607509618
 21
141.22855998281821
  0
LINE
  8
_0-1_
  6
CONTINUOUS
 62
    7
 10
211.24362607509618
 20
141.22855998281821
 11
211.21575775530141
 21
141.57412714827358
  0
LINE
  8
_0-1_
  6
CONTINUOUS
 62
    7
 10
211.21575775530141
 20
141.57412714827358
 11
212.06295467706297
 21
141.52953783660191
  0
LINE
  8
_0-1_
  6
CONTINUOUS
 62
    7
 10
212.06295467706297
 20
141.52953783660191
 11
212.99933022216788
 21
141.49609585284818
  0
LINE
  8
_0-1_
  6
CONTINUOUS
 62
    7
 10
212.99933022216788
 20
141.49609585284818
 11
213.82980615205258
 21
141.56297982035567
  0
LINE
  8
_0-1_
  6
CONTINUOUS
 62
    7
 10
213.82980615205258
 20
141.56297982035567
 11
214.7327397134037
 21
142.02002026499022
  0
LINE
  8
_0-1_
  6
CONTINUOUS
 62
    7
 10
214.7327397134037
 20
142.02002026499022
 11
215.29010610929947
 21
142.47706070962473
  0
LINE
  8
_0-1_
  6
CONTINUOUS
 62
    7
 10
215.29010610929947
 20
142.47706070962473
 11
215.68026258642652
 21
143.09016374511008
  0
LINE
  8
_0-1_
  6
CONTINUOUS
 62
    7
 10
215.68026258642652
 20
143.09016374511008
 11
215.93665112853858
 21
143.72556143643126
  0
LINE
  8
_0-1_
  6
CONTINUOUS
 62
    7
 10
215.93665112853858
 20
143.72556143643126
 11
216.0498298747384
 21
144.49015443379889
  0
LINE
  8
_0-1_
  6
CONTINUOUS
 62
    7
 10
216.0498298747384
 20
144.49015443379889
 11
216.02343221128757
 21
145.22268959455999
  0
LINE
  8
_0-1_
  6
CONTINUOUS
 62
    7
 10
216.02343221128757
 20
145.22268959455999
 11
215.66706375470107
 21
145.90902884428211
  0
LINE
  8
_0-1_
  6
CONTINUOUS
 62
    7
 10
215.66706375470107
 20
145.90902884428211
 11
215.00052275256712
 21
146.56897043055337
  0
LINE
  8
_0-1_
  6
CONTINUOUS
 62
    7
 10
215.00052275256712
 20
146.56897043055337
 11
214.30098467111957
 21
147.21571318509921
  0
LINE
  8
_0-1_
  6
CONTINUOUS
 62
    7
 10
214.30098467111957
 20
147.21571318509921
 11
213.60804600553473
 21
147.5258857306467
  0
LINE
  8
_0-1_
  6
CONTINUOUS
 62
    7
 10
213.60804600553473
 20
147.5258857306467
 11
213.06029448892957
 21
147.75686528584165
  0
LINE
  8
_0-1_
  6
CONTINUOUS
 62
    7
 10
213.06029448892957
 20
147.75686528584165
 11
212.50594355646171
 21
147.71066937480267
  0
LINE
  8
_0-1_
  6
CONTINUOUS
 62
    7
 10
212.50594355646171
 20
147.71066937480267
 11
212.61072940345263
 21
148.45871535776882
  0
LINE
  8
_0-1_
  6
CONTINUOUS
 62
    7
 10
212.61072940345263
 20
148.45871535776882
 11
212.82472021847769
 21
149.63566484040674
  0
LINE
  8
_0-1_
  6
CONTINUOUS
 62
    7
 10
212.82472021847769
 20
149.63566484040674
 11
212.79797136659959
 21
150.62537235989773
  0
LINE
  8
_0-1_
  6
CONTINUOUS
 62
    7
 10
212.79797136659959
 20
150.62537235989773
 11
212.70435038502608
 21
151.65520315720593
  0
LINE
  8
_0-1_
  6
CONTINUOUS
 62
    7
 10
212.70435038502608
 20
151.65520315720593
 11
212.31649203279317
 21
152.33729888009835
  0
LINE
  8
_0-1_
  6
CONTINUOUS
 62
    7
 10
212.31649203279317
 20
152.33729888009835
 11
211.82163827304765
 21
153.00602017705173
  0
LINE
  8
_0-1_
  6
CONTINUOUS
 62
    7
 10
211.82163827304765
 20
153.00602017705173
 11
210.45744682726279
 21
153.64799262212696
  0
LINE
  8
_0-1_
  6
CONTINUOUS
 62
    7
 10
210.45744682726279
 20
153.64799262212696
 11
209.82329760503205
 21
153.7465441838099
  0
LINE
  8
_0-1_
  6
CONTINUOUS
 62
    7
 10
221.01261206267986
 20
207.06431809718125
 11
259.28810679499406
 21
184.96595091011351
  0
LINE
  8
_0-1_
  6
CONTINUOUS
 62
    7
 10
259.28810679499406
 20
140.36528402255868
 11
259.28810679499406
 21
184.96595091011351
  0
LINE
  8
_0-1_
  6
CONTINUOUS
 62
    7
 10
221.01261206267986
 20
207.06431809718125
 11
182.73711733036566
 21
184.96595091011354
  0
LINE
  8
_0-1_
  6
CONTINUOUS
 62
    7
 10
182.73711733036566
 20
184.96595091011354
 11
182.73711733036566
 21
140.36528402255868
  0
LINE
  8
_0-1_
  6
CONTINUOUS
 62
    7
 10
221.01261206267986
 20
118.26691683549094
 11
182.73711733036566
 21
140.36528402255868
  0
LINE
  8
_0-1_
  6
CONTINUOUS
 62
    7
 10
221.01261206267986
 20
118.26691683549094
 11
259.28810679499406
 21
140.36528402255868
  0
LINE
  8
_0-1_
  6
CONTINUOUS
 62
    7
 10
208.08630681609542
 20
183.56674011865837
 11
208.77743193123717
 21
183.34259143266646
  0
LINE
  8
_0-1_
  6
CONTINUOUS
 62
    7
 10
208.77743193123717
 20
183.34259143266646
 11
209.35697741523813
 21
182.90056521605552
  0
LINE
  8
_0-1_
  6
CONTINUOUS
 62
    7
 10
209.35697741523813
 20
182.90056521605552
 11
210.0561590778268
 21
182.28486793108942
  0
LINE
  8
_0-1_
  6
CONTINUOUS
 62
    7
 10
210.0561590778268
 20
182.28486793108942
 11
210.5259316711643
 21
181.65850447330606
  0
LINE
  8
_0-1_
  6
CONTINUOUS
 62
    7
 10
210.5259316711643
 20
181.65850447330606
 11
210.95438193105508
 21
181.05635816210821
  0
LINE
  8
_0-1_
  6
CONTINUOUS
 62
    7
 10
210.95438193105508
 20
181.05635816210821
 11
211.45311353003796
 21
180.50775340322704
  0
LINE
  8
_0-1_
  6
CONTINUOUS
 62
    7
 10
211.45311353003796
 20
180.50775340322704
 11
212.17158339664166
 21
179.95743605859445
  0
LINE
  8
_0-1_
  6
CONTINUOUS
 62
    7
 10
212.17158339664166
 20
179.95743605859445
 11
213.34240455114877
 21
180.06894283521418
  0
LINE
  8
_0-1_
  6
CONTINUOUS
 62
    7
 10
213.34240455114877
 20
180.06894283521418
 11
214.5976671287151
 21
180.36296830383332
  0
LINE
  8
_0-1_
  6
CONTINUOUS
 62
    7
 10
214.5976671287151
 20
180.36296830383332
 11
215.32062859831512
 21
180.46479386293191
  0
LINE
  8
_0-1_
  6
CONTINUOUS
 62
    7
 10
215.32062859831512
 20
180.46479386293191
 11
216.26150387642076
 21
180.40473799411665
  0
LINE
  8
_0-1_
  6
CONTINUOUS
 62
    7
 10
216.26150387642076
 20
180.40473799411665
 11
217.33571875887884
 21
180.06017850351688
  0
LINE
  8
_0-1_
  6
CONTINUOUS
 62
    7
 10
217.33571875887884
 20
180.06017850351688
 11
218.21674916877657
 21
179.53156025757826
  0
LINE
  8
_0-1_
  6
CONTINUOUS
 62
    7
 10
218.21674916877657
 20
179.53156025757826
 11
218.86980189786032
 21
178.70564062961935
  0
LINE
  8
_0-1_
  6
CONTINUOUS
 62
    7
 10
218.86980189786032
 20
178.70564062961935
 11
219.23213550295008
 21
177.65889910380454
  0
LINE
  8
_0-1_
  6
CONTINUOUS
 62
    7
 10
219.23213550295008
 20
177.65889910380454
 11
219.39747924035913
 21
176.6875046465264
  0
LINE
  8
_0-1_
  6
CONTINUOUS
 62
    7
 10
219.39747924035913
 20
176.6875046465264
 11
219.39747924035913
 21
175.88358776327999
  0
LINE
  8
_0-1_
  6
CONTINUOUS
 62
    7
 10
219.39747924035913
 20
175.88358776327999
 11
219.21226109061512
 21
174.97807680897599
  0
LINE
  8
_0-1_
  6
CONTINUOUS
 62
    7
 10
219.21226109061512
 20
174.97807680897599
 11
218.95095842543378
 21
174.21426901844583
  0
LINE
  8
_0-1_
  6
CONTINUOUS
 62
    7
 10
218.95095842543378
 20
174.21426901844583
 11
218.52962807328674
 21
173.56120697261795
  0
LINE
  8
_0-1_
  6
CONTINUOUS
 62
    7
 10
218.52962807328674
 20
173.56120697261795
 11
218.0883749595282
 21
172.80477306331766
  0
LINE
  8
_0-1_
  6
CONTINUOUS
 62
    7
 10
218.0883749595282
 20
172.80477306331766
 11
217.60770864197951
 21
172.34333339847086
  0
LINE
  8
_0-1_
  6
CONTINUOUS
 62
    7
 10
217.60770864197951
 20
172.34333339847086
 11
217.00462008604739
 21
171.92871001626753
  0
LINE
  8
_0-1_
  6
CONTINUOUS
 62
    7
 10
217.00462008604739
 20
171.92871001626753
 11
216.25369910377241
 21
171.76451961340333
  0
LINE
  8
_0-1_
  6
CONTINUOUS
 62
    7
 10
216.25369910377241
 20
171.76451961340333
 11
215.15725828409483
 21
171.74033341885163
  0
LINE
  8
_0-1_
  6
CONTINUOUS
 62
    7
 10
215.15725828409483
 20
171.74033341885163
 11
214.06439107345596
 21
171.84878589013641
  0
LINE
  8
_0-1_
  6
CONTINUOUS
 62
    7
 10
214.06439107345596
 20
171.84878589013641
 11
212.88247453077457
 21
172.0091888495003
  0
LINE
  8
_0-1_
  6
CONTINUOUS
 62
    7
 10
212.88247453077457
 20
172.0091888495003
 11
211.43596923818449
 21
172.31915426934102
  0
LINE
  8
_0-1_
  6
CONTINUOUS
 62
    7
 10
211.43596923818449
 20
172.31915426934102
 11
210.05691046701093
 21
172.53598740946264
  0
LINE
  8
_0-1_
  6
CONTINUOUS
 62
    7
 10
210.05691046701093
 20
172.53598740946264
 11
208.41331422883109
 21
172.852401658524
  0
LINE
  8
_0-1_
  6
CONTINUOUS
 62
    7
 10
208.41331422883109
 20
172.852401658524
 11
207.32836458215064
 21
172.89923481768042
  0
LINE
  8
_0-1_
  6
CONTINUOUS
 62
    7
 10
207.32836458215064
 20
172.89923481768042
 11
205.92787035497468
 21
172.98932508960402
  0
LINE
  8
_0-1_
  6
CONTINUOUS
 62
    7
 10
205.92787035497468
 20
172.98932508960402
 11
204.65041840401761
 21
172.81899816280974
  0
LINE
  8
_0-1_
  6
CONTINUOUS
 62
    7
 10
204.65041840401761
 20
172.81899816280974
 11
203.5070674878886
 21
172.48022752099373
  0
LINE
  8
_0-1_
  6
CONTINUOUS
 62
    7
 10
203.5070674878886
 20
172.48022752099373
 11
202.66130547618666
 21
172.08810149738647
  0
LINE
  8
_0-1_
  6
CONTINUOUS
 62
    7
 10
202.66130547618666
 20
172.08810149738647
 11
201.63686376768743
 21
171.91121947577511
  0
LINE
  8
_0-1_
  6
CONTINUOUS
 62
    7
 10
201.63686376768743
 20
171.91121947577511
 11
200.40019281611114
 21
171.76436480027541
  0
LINE
  8
_0-1_
  6
CONTINUOUS
 62
    7
 10
200.40019281611114
 20
171.76436480027541
 11
199.37680329015103
 21
171.72358594045078
  0
LINE
  8
_0-1_
  6
CONTINUOUS
 62
    7
 10
199.37680329015103
 20
171.72358594045078
 11
198.30266739599483
 21
171.83665287667776
  0
LINE
  8
_0-1_
  6
CONTINUOUS
 62
    7
 10
198.30266739599483
 20
171.83665287667776
 11
197.51858083888589
 21
172.04039190332812
  0
LINE
  8
_0-1_
  6
CONTINUOUS
 62
    7
 10
197.51858083888589
 20
172.04039190332812
 11
196.71336835006297
 21
172.36732028224869
  0
LINE
  8
_0-1_
  6
CONTINUOUS
 62
    7
 10
196.71336835006297
 20
172.36732028224869
 11
195.90193680042921
 21
172.95799471911445
  0
LINE
  8
_0-1_
  6
CONTINUOUS
 62
    7
 10
195.90193680042921
 20
172.95799471911445
 11
195.30705804412571
 21
173.68245102629597
  0
LINE
  8
_0-1_
  6
CONTINUOUS
 62
    7
 10
195.30705804412571
 20
173.68245102629597
 11
194.95695658809097
 21
174.4611249543731
  0
LINE
  8
_0-1_
  6
CONTINUOUS
 62
    7
 10
194.95695658809097
 20
174.4611249543731
 11
194.7097798921626
 21
175.2378139705128
  0
LINE
  8
_0-1_
  6
CONTINUOUS
 62
    7
 10
194.7097798921626
 20
175.2378139705128
 11
194.63808976544879
 21
176.09809549107808
  0
LINE
  8
_0-1_
  6
CONTINUOUS
 62
    7
 10
194.63808976544879
 20
176.09809549107808
 11
194.64680995871663
 21
176.9701148178652
  0
LINE
  8
_0-1_
  6
CONTINUOUS
 62
    7
 10
194.64680995871663
 20
176.9701148178652
 11
195.01427305768697
 21
178.00413888706069
  0
LINE
  8
_0-1_
  6
CONTINUOUS
 62
    7
 10
195.01427305768697
 20
178.00413888706069
 11
195.60740826735587
 21
178.79498583328594
  0
LINE
  8
_0-1_
  6
CONTINUOUS
 62
    7
 10
195.60740826735587
 20
178.79498583328594
 11
196.39483670660581
 21
179.43691119137014
  0
LINE
  8
_0-1_
  6
CONTINUOUS
 62
    7
 10
196.39483670660581
 20
179.43691119137014
 11
197.51918503787976
 21
179.84415546883943
  0
LINE
  8
_0-1_
  6
CONTINUOUS
 62
    7
 10
197.51918503787976
 20
179.84415546883943
 11
198.38417789956804
 21
180.00303170874136
  0
LINE
  8
_0-1_
  6
CONTINUOUS
 62
    7
 10
198.38417789956804
 20
180.00303170874136
 11
199.40115172164183
 21
179.96734841673878
  0
LINE
  8
_0-1_
  6
CONTINUOUS
 62
    7
 10
199.40115172164183
 20
179.96734841673878
 11
199.98129918438939
 21
179.84164979981014
  0
LINE
  8
_0-1_
  6
CONTINUOUS
 62
    7
 10
199.98129918438939
 20
179.84164979981014
 11
200.64605776320399
 21
179.79876214956402
  0
LINE
  8
_0-1_
  6
CONTINUOUS
 62
    7
 10
200.64605776320399
 20
179.79876214956402
 11
201.36255950315916
 21
179.81168703228982
  0
LINE
  8
_0-1_
  6
CONTINUOUS
 62
    7
 10
201.36255950315916
 20
179.81168703228982
 11
202.05723249125429
 21
180.29547714899899
  0
LINE
  8
_0-1_
  6
CONTINUOUS
 62
    7
 10
202.05723249125429
 20
180.29547714899899
 11
202.55494574124384
 21
180.95570901122999
  0
LINE
  8
_0-1_
  6
CONTINUOUS
 62
    7
 10
202.55494574124384
 20
180.95570901122999
 11
203.03182663023414
 21
181.6665314684042
  0
LINE
  8
_0-1_
  6
CONTINUOUS
 62
    7
 10
203.03182663023414
 20
181.6665314684042
 11
203.49563804864669
 21
182.27680965052596
  0
LINE
  8
_0-1_
  6
CONTINUOUS
 62
    7
 10
203.49563804864669
 20
182.27680965052596
 11
204.1582992142421
 21
182.78403177727801
  0
LINE
  8
_0-1_
  6
CONTINUOUS
 62
    7
 10
204.1582992142421
 20
182.78403177727801
 11
204.80361708971776
 21
183.21155486978065
  0
LINE
  8
_0-1_
  6
CONTINUOUS
 62
    7
 10
204.80361708971776
 20
183.21155486978065
 11
205.68959173568032
 21
183.47978572589775
  0
LINE
  8
_0-1_
  6
CONTINUOUS
 62
    7
 10
205.68959173568032
 20
183.47978572589775
 11
206.57574988632512
 21
183.64698537696281
  0
LINE
  8
_0-1_
  6
CONTINUOUS
 62
    7
 10
206.93266640981994
 20
183.65229679536096
 11
208.08630681609542
 21
183.56674011865837
  0
LINE
  8
_0-1_
  6
CONTINUOUS
 62
    7
 10
206.57574988632512
 20
183.64698537696281
 11
206.93266640981994
 21
183.65229679536096
  0
LINE
  8
_0-1_
  6
CONTINUOUS
 62
    7
 10
208.54078275833654
 20
153.00635006215665
 11
208.06636606318301
 21
152.7367951217285
  0
LINE
  8
_0-1_
  6
CONTINUOUS
 62
    7
 10
208.06636606318301
 20
152.7367951217285
 11
207.5371877629405
 21
152.19501733814689
  0
LINE
  8
_0-1_
  6
CONTINUOUS
 62
    7
 10
207.5371877629405
 20
152.19501733814689
 11
206.65622114140342
 21
151.25432416599713
  0
LINE
  8
_0-1_
  6
CONTINUOUS
 62
    7
 10
206.65622114140342
 20
151.25432416599713
 11
205.97325032087701
 21
150.93910686421568
  0
LINE
  8
_0-1_
  6
CONTINUOUS
 62
    7
 10
205.97325032087701
 20
150.93910686421568
 11
205.17683418999405
 21
151.39420179614882
  0
LINE
  8
_0-1_
  6
CONTINUOUS
 62
    7
 10
205.17683418999405
 20
151.39420179614882
 11
204.31923108588199
 21
151.83599733463077
  0
LINE
  8
_0-1_
  6
CONTINUOUS
 62
    7
 10
204.31923108588199
 20
151.83599733463077
 11
203.4763427693017
 21
152.06244494207024
  0
LINE
  8
_0-1_
  6
CONTINUOUS
 62
    7
 10
203.4763427693017
 20
152.06244494207024
 11
202.46847230886879
 21
152.18535597383035
  0
LINE
  8
_0-1_
  6
CONTINUOUS
 62
    7
 10
202.46847230886879
 20
152.18535597383035
 11
201.61644820765656
 21
151.96626406209006
  0
LINE
  8
_0-1_
  6
CONTINUOUS
 62
    7
 10
201.61644820765656
 20
151.96626406209006
 11
200.93464852180034
 21
151.7076503881446
  0
LINE
  8
_0-1_
  6
CONTINUOUS
 62
    7
 10
200.93464852180034
 20
151.7076503881446
 11
200.26277576442259
 21
151.0581733893461
  0
LINE
  8
_0-1_
  6
CONTINUOUS
 62
    7
 10
200.26277576442259
 20
151.0581733893461
 11
199.96591590750495
 21
150.20184687900663
  0
LINE
  8
_0-1_
  6
CONTINUOUS
 62
    7
 10
199.96591590750495
 20
150.20184687900663
 11
199.92933882273274
 21
149.22645795174855
  0
LINE
  8
_0-1_
  6
CONTINUOUS
 62
    7
 10
199.92933882273274
 20
149.22645795174855
 11
200.14390573957689
 21
148.15362336752761
  0
LINE
  8
_0-1_
  6
CONTINUOUS
 62
    7
 10
200.14390573957689
 20
148.15362336752761
 11
200.82679233172717
 21
146.49518450087694
  0
LINE
  8
_0-1_
  6
CONTINUOUS
 62
    7
 10
200.82679233172717
 20
146.49518450087694
 11
200.04952000470603
 21
145.62312286568251
  0
LINE
  8
_0-1_
  6
CONTINUOUS
 62
    7
 10
200.04952000470603
 20
145.62312286568251
 11
199.64176472980545
 21
145.16958496622632
  0
LINE
  8
_0-1_
  6
CONTINUOUS
 62
    7
 10
199.64176472980545
 20
145.16958496622632
 11
199.17204095843459
 21
144.59441300128239
  0
LINE
  8
_0-1_
  6
CONTINUOUS
 62
    7
 10
199.17204095843459
 20
144.59441300128239
 11
198.86199061992584
 21
144.08947387856812
  0
LINE
  8
_0-1_
  6
CONTINUOUS
 62
    7
 10
198.86199061992584
 20
144.08947387856812
 11
198.64321569733061
 21
143.45940210149387
  0
LINE
  8
_0-1_
  6
CONTINUOUS
 62
    7
 10
198.64321569733061
 20
143.45940210149387
 11
198.57392362981113
 21
142.87908103601807
  0
LINE
  8
_0-1_
  6
CONTINUOUS
 62
    7
 10
198.57392362981113
 20
142.87908103601807
 11
198.61851109635011
 21
142.26377399777956
  0
LINE
  8
_0-1_
  6
CONTINUOUS
 62
    7
 10
198.61851109635011
 20
142.26377399777956
 11
198.77690692106057
 21
141.58017096481879
  0
LINE
  8
_0-1_
  6
CONTINUOUS
 62
    7
 10
198.77690692106057
 20
141.58017096481879
 11
199.20233215804489
 21
141.05657067314581
  0
LINE
  8
_0-1_
  6
CONTINUOUS
 62
    7
 10
199.20233215804489
 20
141.05657067314581
 11
199.77409139099262
 21
140.58010464568937
  0
LINE
  8
_0-1_
  6
CONTINUOUS
 62
    7
 10
199.77409139099262
 20
140.58010464568937
 11
200.56367509493185
 21
140.27113710936529
  0
LINE
  8
_0-1_
  6
CONTINUOUS
 62
    7
 10
200.56367509493185
 20
140.27113710936529
 11
201.72178965418578
 21
140.18841464084718
  0
LINE
  8
_0-1_
  6
CONTINUOUS
 62
    7
 10
201.72178965418578
 20
140.18841464084718
 11
202.81588926678779
 21
140.32046114581638
  0
LINE
  8
_0-1_
  6
CONTINUOUS
 62
    7
 10
202.81588926678779
 20
140.32046114581638
 11
204.54858081486082
 21
140.8077806437119
  0
LINE
  8
_0-1_
  6
CONTINUOUS
 62
    7
 10
204.54858081486082
 20
140.8077806437119
 11
204.93317767735544
 21
139.57707068372891
  0
LINE
  8
_0-1_
  6
CONTINUOUS
 62
    7
 10
204.93317767735544
 20
139.57707068372891
 11
205.28765988227291
 21
138.92607242101095
  0
LINE
  8
_0-1_
  6
CONTINUOUS
 62
    7
 10
205.28765988227291
 20
138.92607242101095
 11
205.64899572317602
 21
138.47751758402776
  0
LINE
  8
_0-1_
  6
CONTINUOUS
 62
    7
 10
205.64899572317602
 20
138.47751758402776
 11
206.03938484915448
 21
138.06272913767563
  0
LINE
  8
_0-1_
  6
CONTINUOUS
 62
    7
 10
206.03938484915448
 20
138.06272913767563
 11
206.60491227612828
 21
137.68769515978777
  0
LINE
  8
_0-1_
  6
CONTINUOUS
 62
    7
 10
206.60491227612828
 20
137.68769515978777
 11
207.27362634658959
 21
137.42498606067798
  0
LINE
  8
_0-1_
  6
CONTINUOUS
 62
    7
 10
207.27362634658959
 20
137.42498606067798
 11
207.99978104580605
 21
137.33128868013389
  0
LINE
  8
_0-1_
  6
CONTINUOUS
 62
    7
 10
207.99978104580605
 20
137.33128868013389
 11
208.81203304772685
 21
137.4598465509415
  0
LINE
  8
_0-1_
  6
CONTINUOUS
 62
    7
 10
208.81203304772685
 20
137.4598465509415
 11
209.38041906997216
 21
137.75265147149212
  0
LINE
  8
_0-1_
  6
CONTINUOUS
 62
    7
 10
209.38041906997216
 20
137.75265147149212
 11
210.12500970288294
 21
138.35570834773395
  0
LINE
  8
_0-1_
  6
CONTINUOUS
 62
    7
 10
210.12500970288294
 20
138.35570834773395
 11
210.63455225142359
 21
139.07370012067755
  0
LINE
  8
_0-1_
  6
CONTINUOUS
 62
    7
 10
210.63455225142359
 20
139.07370012067755
 11
210.7666432428291
 21
139.7011323298538
  0
LINE
  8
_0-1_
  6
CONTINUOUS
 62
    7
 10
210.7666432428291
 20
139.7011323298538
 11
210.7769193026416
 21
140.44100863635583
  0
LINE
  8
_0-1_
  6
CONTINUOUS
 62
    7
 10
210.7769193026416
 20
140.44100863635583
 11
210.74448759146491
 21
141.19774856381246
  0
LINE
  8
_0-1_
  6
CONTINUOUS
 62
    7
 10
210.74448759146491
 20
141.19774856381246
 11
210.67144576681101
 21
142.10346718952152
  0
LINE
  8
_0-1_
  6
CONTINUOUS
 62
    7
 10
210.67144576681101
 20
142.10346718952152
 11
212.08501884037968
 21
142.02906860670211
  0
LINE
  8
_0-1_
  6
CONTINUOUS
 62
    7
 10
212.08501884037968
 20
142.02906860670211
 11
212.98814623665737
 21
141.99681405683506
  0
LINE
  8
_0-1_
  6
CONTINUOUS
 62
    7
 10
212.98814623665737
 20
141.99681405683506
 11
213.69169479604613
 21
142.05347568577911
  0
LINE
  8
_0-1_
  6
CONTINUOUS
 62
    7
 10
213.69169479604613
 20
142.05347568577911
 11
214.45805844102375
 21
142.44138814805174
  0
LINE
  8
_0-1_
  6
CONTINUOUS
 62
    7
 10
214.45805844102375
 20
142.44138814805174
 11
214.91121699897422
 21
142.81297816557113
  0
LINE
  8
_0-1_
  6
CONTINUOUS
 62
    7
 10
214.91121699897422
 20
142.81297816557113
 11
215.23377371156936
 21
143.31985299964918
  0
LINE
  8
_0-1_
  6
CONTINUOUS
 62
    7
 10
215.23377371156936
 20
143.31985299964918
 11
215.45074136323319
 21
143.85755544072912
  0
LINE
  8
_0-1_
  6
CONTINUOUS
 62
    7
 10
215.45074136323319
 20
143.85755544072912
 11
215.54850221376051
 21
144.51799093979309
  0
LINE
  8
_0-1_
  6
CONTINUOUS
 62
    7
 10
215.54850221376051
 20
144.51799093979309
 11
215.52781046847616
 21
145.0921868714345
  0
LINE
  8
_0-1_
  6
CONTINUOUS
 62
    7
 10
215.52781046847616
 20
145.0921868714345
 11
215.25948996062476
 21
145.60895229396314
  0
LINE
  8
_0-1_
  6
CONTINUOUS
 62
    7
 10
215.25948996062476
 20
145.60895229396314
 11
214.65481269252944
 21
146.20764265841395
  0
LINE
  8
_0-1_
  6
CONTINUOUS
 62
    7
 10
214.65481269252944
 20
146.20764265841395
 11
214.0218096407172
 21
146.79287189499507
  0
LINE
  8
_0-1_
  6
CONTINUOUS
 62
    7
 10
214.0218096407172
 20
146.79287189499507
 11
213.40874482675553
 21
147.06729138314935
  0
LINE
  8
_0-1_
  6
CONTINUOUS
 62
    7
 10
213.40874482675553
 20
147.06729138314935
 11
212.97929987625605
 21
147.24838262733587
  0
LINE
  8
_0-1_
  6
CONTINUOUS
 62
    7
 10
212.97929987625605
 20
147.24838262733587
 11
211.92398598788884
 21
147.16043980330525
  0
LINE
  8
_0-1_
  6
CONTINUOUS
 62
    7
 10
211.92398598788884
 20
147.16043980330525
 11
212.11697494749199
 21
148.53815082186011
  0
LINE
  8
_0-1_
  6
CONTINUOUS
 62
    7
 10
212.11697494749199
 20
148.53815082186011
 11
212.32350044212012
 21
149.67404104231476
  0
LINE
  8
_0-1_
  6
CONTINUOUS
 62
    7
 10
212.32350044212012
 20
149.67404104231476
 11
212.29858386603308
 21
150.59595435753539
  0
LINE
  8
_0-1_
  6
CONTINUOUS
 62
    7
 10
212.29858386603308
 20
150.59595435753539
 11
212.21620316688625
 21
151.50214204815026
  0
LINE
  8
_0-1_
  6
CONTINUOUS
 62
    7
 10
212.21620316688625
 20
151.50214204815026
 11
211.89669862015773
 21
152.06402935446604
  0
LINE
  8
_0-1_
  6
CONTINUOUS
 62
    7
 10
211.89669862015773
 20
152.06402935446604
 11
211.49469334679525
 21
152.60727972387476
  0
LINE
  8
_0-1_
  6
CONTINUOUS
 62
    7
 10
211.49469334679525
 20
152.60727972387476
 11
210.30961088702423
 21
153.16496558729642
  0
LINE
  8
_0-1_
  6
CONTINUOUS
 62
    7
 10
209.82959488943049
 20
153.2395636858784
 11
208.54078275833654
 21
153.00635006215665
  0
LINE
  8
_0-1_
  6
CONTINUOUS
 62
    7
 10
210.30961088702423
 20
153.16496558729642
 11
209.82959488943049
 21
153.2395636858784
  0
LINE
  8
_0-1_
  6
CONTINUOUS
 62
    7
 10
199.0312413051854
 20
176.98120432919617
 11
199.42668912357032
 21
176.93036103826094
  0
LINE
  8
_0-1_
  6
CONTINUOUS
 62
    7
 10
199.42668912357032
 20
176.93036103826094
 11
199.8560324692454
 21
176.48406992894078
  0
LINE
  8
_0-1_
  6
CONTINUOUS
 62
    7
 10
199.8560324692454
 20
176.48406992894078
 11
200.38141314224259
 21
175.90784596500844
  0
LINE
  8
_0-1_
  6
CONTINUOUS
 62
    7
 10
200.38141314224259
 20
175.90784596500844
 11
200.85595052430448
 21
175.30337572833431
  0
LINE
  8
_0-1_
  6
CONTINUOUS
 62
    7
 10
200.85595052430448
 20
175.30337572833431
 11
201.08192070623874
 21
174.80624132807892
  0
LINE
  8
_0-1_
  6
CONTINUOUS
 62
    7
 10
201.08192070623874
 20
174.80624132807892
 11
201.07627145169038
 21
174.331703946017
  0
LINE
  8
_0-1_
  6
CONTINUOUS
 62
    7
 10
201.07627145169038
 20
174.331703946017
 11
200.8672490334012
 21
174.20742034595315
  0
LINE
  8
_0-1_
  6
CONTINUOUS
 62
    7
 10
200.8672490334012
 20
174.20742034595315
 11
200.38141314224259
 21
174.33735320056536
  0
LINE
  8
_0-1_
  6
CONTINUOUS
 62
    7
 10
200.38141314224259
 20
174.33735320056536
 11
199.91817426927735
 21
174.72150250985359
  0
LINE
  8
_0-1_
  6
CONTINUOUS
 62
    7
 10
199.91817426927735
 20
174.72150250985359
 11
199.52272645089237
 21
175.23558467375403
  0
LINE
  8
_0-1_
  6
CONTINUOUS
 62
    7
 10
199.52272645089237
 20
175.23558467375403
 11
199.13857714160417
 21
175.72142056491267
  0
LINE
  8
_0-1_
  6
CONTINUOUS
 62
    7
 10
199.13857714160417
 20
175.72142056491267
 11
198.81656963234786
 21
176.33154005613516
  0
LINE
  8
_0-1_
  6
CONTINUOUS
 62
    7
 10
198.81656963234786
 20
176.33154005613516
 11
198.72053230502575
 21
176.90776402006753
  0
LINE
  8
_0-1_
  6
CONTINUOUS
 62
    7
 10
198.72053230502575
 20
176.90776402006753
 11
199.0312413051854
 21
176.98120432919617
  0
LINE
  8
_0-1_
  6
CONTINUOUS
 62
    7
 10
206.90505982952242
 20
178.99589682254585
 11
207.17373594395286
 21
179.00810937320179
  0
LINE
  8
_0-1_
  6
CONTINUOUS
 62
    7
 10
207.17373594395286
 20
179.00810937320179
 11
207.50347481166301
 21
178.79438973672304
  0
LINE
  8
_0-1_
  6
CONTINUOUS
 62
    7
 10
207.50347481166301
 20
178.79438973672304
 11
207.60728149223837
 21
178.13491200130278
  0
LINE
  8
_0-1_
  6
CONTINUOUS
 62
    7
 10
207.60728149223837
 20
178.13491200130278
 11
207.68666307150192
 21
175.59470146486927
  0
LINE
  8
_0-1_
  6
CONTINUOUS
 62
    7
 10
207.68666307150192
 20
175.59470146486927
 11
207.58285639092656
 21
175.11230571396001
  0
LINE
  8
_0-1_
  6
CONTINUOUS
 62
    7
 10
207.58285639092656
 20
175.11230571396001
 11
207.37524302977573
 21
174.7276103682982
  0
LINE
  8
_0-1_
  6
CONTINUOUS
 62
    7
 10
207.37524302977573
 20
174.7276103682982
 11
207.17373594395286
 21
174.60548486173891
  0
LINE
  8
_0-1_
  6
CONTINUOUS
 62
    7
 10
207.17373594395286
 20
174.60548486173891
 11
206.84399707624277
 21
174.6909727163304
  0
LINE
  8
_0-1_
  6
CONTINUOUS
 62
    7
 10
206.84399707624277
 20
174.6909727163304
 11
206.4287703539411
 21
175.05124296068035
  0
LINE
  8
_0-1_
  6
CONTINUOUS
 62
    7
 10
206.4287703539411
 20
175.05124296068035
 11
206.37381387598941
 21
178.44022576770103
  0
LINE
  8
_0-1_
  6
CONTINUOUS
 62
    7
 10
206.37381387598941
 20
178.44022576770103
 11
206.63638371509193
 21
178.82492111336284
  0
LINE
  8
_0-1_
  6
CONTINUOUS
 62
    7
 10
206.63638371509193
 20
178.82492111336284
 11
206.90505982952242
 21
178.99589682254585
  0
LINE
  8
_0-1_
  6
CONTINUOUS
 62
    7
 10
215.37281190100657
 20
177.06788439083359
 11
215.75739893136324
 21
177.03238404956991
  0
LINE
  8
_0-1_
  6
CONTINUOUS
 62
    7
 10
215.75739893136324
 20
177.03238404956991
 11
215.86389995515429
 21
176.64779701921324
  0
LINE
  8
_0-1_
  6
CONTINUOUS
 62
    7
 10
215.86389995515429
 20
176.64779701921324
 11
215.51481326606131
 21
175.83720589369229
  0
LINE
  8
_0-1_
  6
CONTINUOUS
 62
    7
 10
215.51481326606131
 20
175.83720589369229
 11
214.9882248706499
 21
175.11536562133056
  0
LINE
  8
_0-1_
  6
CONTINUOUS
 62
    7
 10
214.9882248706499
 20
175.11536562133056
 11
214.46755319878241
 21
174.5946939494631
  0
LINE
  8
_0-1_
  6
CONTINUOUS
 62
    7
 10
214.46755319878241
 20
174.5946939494631
 11
214.10071633905761
 21
174.30477449580962
  0
LINE
  8
_0-1_
  6
CONTINUOUS
 62
    7
 10
214.10071633905761
 20
174.30477449580962
 11
213.72796275578889
 21
174.22785708973827
  0
LINE
  8
_0-1_
  6
CONTINUOUS
 62
    7
 10
213.72796275578889
 20
174.22785708973827
 11
213.36704261960801
 21
174.34619156061725
  0
LINE
  8
_0-1_
  6
CONTINUOUS
 62
    7
 10
213.36704261960801
 20
174.34619156061725
 11
213.23095797809719
 21
174.61244412009494
  0
LINE
  8
_0-1_
  6
CONTINUOUS
 62
    7
 10
213.23095797809719
 20
174.61244412009494
 11
213.66287879680544
 21
175.36386801017638
  0
LINE
  8
_0-1_
  6
CONTINUOUS
 62
    7
 10
213.66287879680544
 20
175.36386801017638
 11
214.49122009295825
 21
176.38154445973555
  0
LINE
  8
_0-1_
  6
CONTINUOUS
 62
    7
 10
214.49122009295825
 20
176.38154445973555
 11
215.01780848836966
 21
177.02055060248198
  0
LINE
  8
_0-1_
  6
CONTINUOUS
 62
    7
 10
215.01780848836966
 20
177.02055060248198
 11
215.37281190100657
 21
177.06788439083359
  0
LINE
  8
_0-1_
  6
CONTINUOUS
 62
    7
 10
199.66500466920018
 20
177.40383618206837
 11
200.22100124429744
 21
176.82589237374355
  0
LINE
  8
_0-1_
  6
CONTINUOUS
 62
    7
 10
200.22100124429744
 20
176.82589237374355
 11
200.76331409117528
 21
176.23109763845823
  0
LINE
  8
_0-1_
  6
CONTINUOUS
 62
    7
 10
200.76331409117528
 20
176.23109763845823
 11
201.28629813449231
 21
175.5649155832805
  0
LINE
  8
_0-1_
  6
CONTINUOUS
 62
    7
 10
201.28629813449231
 20
175.5649155832805
 11
201.58321166543123
 21
174.91170581521495
  0
LINE
  8
_0-1_
  6
CONTINUOUS
 62
    7
 10
201.58321166543123
 20
174.91170581521495
 11
201.57289713927826
 21
174.04528561836573
  0
LINE
  8
_0-1_
  6
CONTINUOUS
 62
    7
 10
201.57289713927826
 20
174.04528561836573
 11
200.9416505068379
 21
173.66994978286064
  0
LINE
  8
_0-1_
  6
CONTINUOUS
 62
    7
 10
200.9416505068379
 20
173.66994978286064
 11
200.14649658014906
 21
173.88260722837046
  0
LINE
  8
_0-1_
  6
CONTINUOUS
 62
    7
 10
200.14649658014906
 20
173.88260722837046
 11
199.55595914306576
 21
174.37232120058587
  0
LINE
  8
_0-1_
  6
CONTINUOUS
 62
    7
 10
199.55595914306576
 20
174.37232120058587
 11
199.12844899562236
 21
174.92808439226223
  0
LINE
  8
_0-1_
  6
CONTINUOUS
 62
    7
 10
199.12844899562236
 20
174.92808439226223
 11
198.71784829624715
 21
175.44737351206029
  0
LINE
  8
_0-1_
  6
CONTINUOUS
 62
    7
 10
198.71784829624715
 20
175.44737351206029
 11
198.33665794515832
 21
176.16962891412333
  0
LINE
  8
_0-1_
  6
CONTINUOUS
 62
    7
 10
198.33665794515832
 20
176.16962891412333
 11
198.15046317416545
 21
177.28679754008035
  0
LINE
  8
_0-1_
  6
CONTINUOUS
 62
    7
 10
199.00476695473213
 20
177.48872388821425
 11
199.66500466920018
 21
177.40383618206837
  0
LINE
  8
_0-1_
  6
CONTINUOUS
 62
    7
 10
198.15046317416545
 20
177.28679754008035
 11
199.00476695473213
 21
177.48872388821425
  0
LINE
  8
_0-1_
  6
CONTINUOUS
 62
    7
 10
207.311167138335
 20
179.5148725080725
 11
207.96269265458528
 21
179.09258745124367
  0
LINE
  8
_0-1_
  6
CONTINUOUS
 62
    7
 10
207.96269265458528
 20
179.09258745124367
 11
208.10606106083571
 21
178.18177639976983
  0
LINE
  8
_0-1_
  6
CONTINUOUS
 62
    7
 10
208.10606106083571
 20
178.18177639976983
 11
208.18832757839209
 21
175.54924783796619
  0
LINE
  8
_0-1_
  6
CONTINUOUS
 62
    7
 10
208.18832757839209
 20
175.54924783796619
 11
208.05668652508614
 21
174.93750411966178
  0
LINE
  8
_0-1_
  6
CONTINUOUS
 62
    7
 10
208.05668652508614
 20
174.93750411966178
 11
207.75067667577053
 21
174.37048586945945
  0
LINE
  8
_0-1_
  6
CONTINUOUS
 62
    7
 10
207.75067667577053
 20
174.37048586945945
 11
207.25246921221503
 21
174.06854195215308
  0
LINE
  8
_0-1_
  6
CONTINUOUS
 62
    7
 10
207.25246921221503
 20
174.06854195215308
 11
206.6049417531982
 21
174.23641944152782
  0
LINE
  8
_0-1_
  6
CONTINUOUS
 62
    7
 10
206.6049417531982
 20
174.23641944152782
 11
205.93245613057371
 21
174.81989961409908
  0
LINE
  8
_0-1_
  6
CONTINUOUS
 62
    7
 10
205.93245613057371
 20
174.81989961409908
 11
205.87130446273425
 21
178.59091913086331
  0
LINE
  8
_0-1_
  6
CONTINUOUS
 62
    7
 10
205.87130446273425
 20
178.59091913086331
 11
206.28130391729132
 21
179.19161600614449
  0
LINE
  8
_0-1_
  6
CONTINUOUS
 62
    7
 10
206.74913313431994
 20
179.48932550788995
 11
207.311167138335
 21
179.5148725080725
  0
LINE
  8
_0-1_
  6
CONTINUOUS
 62
    7
 10
206.28130391729132
 20
179.19161600614449
 11
206.74913313431994
 21
179.48932550788995
  0
LINE
  8
_0-1_
  6
CONTINUOUS
 62
    7
 10
216.14712856790106
 20
177.4985346652854
 11
216.39272778567772
 21
176.61164860109164
  0
LINE
  8
_0-1_
  6
CONTINUOUS
 62
    7
 10
216.39272778567772
 20
176.61164860109164
 11
215.95183476151419
 21
175.58788005345763
  0
LINE
  8
_0-1_
  6
CONTINUOUS
 62
    7
 10
215.95183476151419
 20
175.58788005345763
 11
215.3692587706659
 21
174.78929274016002
  0
LINE
  8
_0-1_
  6
CONTINUOUS
 62
    7
 10
215.3692587706659
 20
174.78929274016002
 11
214.8004735244213
 21
174.22050749391542
  0
LINE
  8
_0-1_
  6
CONTINUOUS
 62
    7
 10
214.8004735244213
 20
174.22050749391542
 11
214.31779280032156
 21
173.83903401841726
  0
LINE
  8
_0-1_
  6
CONTINUOUS
 62
    7
 10
214.31779280032156
 20
173.83903401841726
 11
213.69865895834249
 21
173.71127624150091
  0
LINE
  8
_0-1_
  6
CONTINUOUS
 62
    7
 10
213.69865895834249
 20
173.71127624150091
 11
213.01555932295428
 21
173.93524333507079
  0
LINE
  8
_0-1_
  6
CONTINUOUS
 62
    7
 10
213.01555932295428
 20
173.93524333507079
 11
212.66228445520522
 21
174.62643329371022
  0
LINE
  8
_0-1_
  6
CONTINUOUS
 62
    7
 10
212.66228445520522
 20
174.62643329371022
 11
213.2495538568362
 21
175.64812115682158
  0
LINE
  8
_0-1_
  6
CONTINUOUS
 62
    7
 10
213.2495538568362
 20
175.64812115682158
 11
214.10439506105848
 21
176.69835463629465
  0
LINE
  8
_0-1_
  6
CONTINUOUS
 62
    7
 10
214.10439506105848
 20
176.69835463629465
 11
214.75692711348045
 21
177.49019128417748
  0
LINE
  8
_0-1_
  6
CONTINUOUS
 62
    7
 10
215.36262223838076
 20
177.5709506341642
 11
216.14712856790106
 21
177.4985346652854
  0
LINE
  8
_0-1_
  6
CONTINUOUS
 62
    7
 10
214.75692711348045
 20
177.49019128417748
 11
215.36262223838076
 21
177.5709506341642
  0
LINE
  8
_0-1_
  6
CONTINUOUS
 62
    7
 10
205.96175600009519
 20
147.6351487010379
 11
206.49243719667532
 21
147.48589461449975
  0
LINE
  8
_0-1_
  6
CONTINUOUS
 62
    7
 10
206.49243719667532
 20
147.48589461449975
 11
206.74672193670335
 21
147.07129992967148
  0
LINE
  8
_0-1_
  6
CONTINUOUS
 62
    7
 10
206.74672193670335
 20
147.07129992967148
 11
206.77988951148961
 21
146.54614666222238
  0
LINE
  8
_0-1_
  6
CONTINUOUS
 62
    7
 10
206.77988951148961
 20
146.54614666222238
 11
206.55324441711684
 21
146.09838440260787
  0
LINE
  8
_0-1_
  6
CONTINUOUS
 62
    7
 10
206.55324441711684
 20
146.09838440260787
 11
206.21604074012316
 21
146.04863304042848
  0
LINE
  8
_0-1_
  6
CONTINUOUS
 62
    7
 10
206.21604074012316
 20
146.04863304042848
 11
205.76275055137762
 21
146.17024748131143
  0
LINE
  8
_0-1_
  6
CONTINUOUS
 62
    7
 10
205.76275055137762
 20
146.17024748131143
 11
205.54163338613591
 21
146.55167459135341
  0
LINE
  8
_0-1_
  6
CONTINUOUS
 62
    7
 10
205.54163338613591
 20
146.55167459135341
 11
205.50293788221858
 21
147.14316300837506
  0
LINE
  8
_0-1_
  6
CONTINUOUS
 62
    7
 10
205.50293788221858
 20
147.14316300837506
 11
205.6466640396257
 21
147.54117390581015
  0
LINE
  8
_0-1_
  6
CONTINUOUS
 62
    7
 10
205.6466640396257
 20
147.54117390581015
 11
205.96175600009519
 21
147.6351487010379
  0
LINE
  8
_0-1_
  6
CONTINUOUS
 62
    7
 10
208.42168446340946
 20
145.90490688302134
 11
208.85839086476187
 21
145.88832309562823
  0
LINE
  8
_0-1_
  6
CONTINUOUS
 62
    7
 10
208.85839086476187
 20
145.88832309562823
 11
209.28404140785221
 21
145.6561500721244
  0
LINE
  8
_0-1_
  6
CONTINUOUS
 62
    7
 10
209.28404140785221
 20
145.6561500721244
 11
209.5493820061423
 21
145.4129211903585
  0
LINE
  8
_0-1_
  6
CONTINUOUS
 62
    7
 10
209.5493820061423
 20
145.4129211903585
 11
209.5493820061423
 21
145.01491029292336
  0
LINE
  8
_0-1_
  6
CONTINUOUS
 62
    7
 10
209.5493820061423
 20
145.01491029292336
 11
209.27851347872115
 21
144.71087419071599
  0
LINE
  8
_0-1_
  6
CONTINUOUS
 62
    7
 10
209.27851347872115
 20
144.71087419071599
 11
208.83627914823767
 21
144.62795525375034
  0
LINE
  8
_0-1_
  6
CONTINUOUS
 62
    7
 10
208.83627914823767
 20
144.62795525375034
 11
208.3111258807886
 21
144.66665075766763
  0
LINE
  8
_0-1_
  6
CONTINUOUS
 62
    7
 10
208.3111258807886
 20
144.66665075766763
 11
207.91864291248452
 21
144.97068685987503
  0
LINE
  8
_0-1_
  6
CONTINUOUS
 62
    7
 10
207.91864291248452
 20
144.97068685987503
 11
207.80808432986367
 21
145.40739326122744
  0
LINE
  8
_0-1_
  6
CONTINUOUS
 62
    7
 10
207.80808432986367
 20
145.40739326122744
 11
208.07342492815371
 21
145.79434830040048
  0
LINE
  8
_0-1_
  6
CONTINUOUS
 62
    7
 10
208.07342492815371
 20
145.79434830040048
 11
208.42168446340946
 21
145.90490688302134
  0
LINE
  8
_0-1_
  6
CONTINUOUS
 62
    7
 10
206.20498488186109
 20
144.9043517103025
 11
206.47032548015118
 21
144.61689939548827
  0
LINE
  8
_0-1_
  6
CONTINUOUS
 62
    7
 10
206.47032548015118
 20
144.61689939548827
 11
206.58641199190304
 21
144.06963441151495
  0
LINE
  8
_0-1_
  6
CONTINUOUS
 62
    7
 10
206.58641199190304
 20
144.06963441151495
 11
206.39293447231653
 21
143.6771514432109
  0
LINE
  8
_0-1_
  6
CONTINUOUS
 62
    7
 10
206.39293447231653
 20
143.6771514432109
 11
206.1054821575023
 21
143.38969912839664
  0
LINE
  8
_0-1_
  6
CONTINUOUS
 62
    7
 10
206.1054821575023
 20
143.38969912839664
 11
205.65771989788777
 21
143.23491711272743
  0
LINE
  8
_0-1_
  6
CONTINUOUS
 62
    7
 10
205.65771989788777
 20
143.23491711272743
 11
205.24865314219061
 21
143.37864327013454
  0
LINE
  8
_0-1_
  6
CONTINUOUS
 62
    7
 10
205.24865314219061
 20
143.37864327013454
 11
204.97225668563839
 21
143.58870457711421
  0
LINE
  8
_0-1_
  6
CONTINUOUS
 62
    7
 10
204.97225668563839
 20
143.58870457711421
 11
204.96120082737633
 21
143.99777133281139
  0
LINE
  8
_0-1_
  6
CONTINUOUS
 62
    7
 10
204.96120082737633
 20
143.99777133281139
 11
205.23206935479748
 21
144.43447773416383
  0
LINE
  8
_0-1_
  6
CONTINUOUS
 62
    7
 10
205.23206935479748
 20
144.43447773416383
 11
205.66877575614989
 21
144.80484898594372
  0
LINE
  8
_0-1_
  6
CONTINUOUS
 62
    7
 10
205.66877575614989
 20
144.80484898594372
 11
206.20498488186109
 21
144.9043517103025
  0
LINE
  8
_0-1_
  6
CONTINUOUS
 62
    7
 10
208.99471830949983
 20
146.38350649332303
 11
209.5769746478868
 21
146.06591212693015
  0
LINE
  8
_0-1_
  6
CONTINUOUS
 62
    7
 10
209.5769746478868
 20
146.06591212693015
 11
210.0493820061423
 21
145.63287204852932
  0
LINE
  8
_0-1_
  6
CONTINUOUS
 62
    7
 10
210.0493820061423
 20
145.63287204852932
 11
210.0493820061423
 21
144.82448797207831
  0
LINE
  8
_0-1_
  6
CONTINUOUS
 62
    7
 10
210.0493820061423
 20
144.82448797207831
 11
209.53834976103775
 21
144.25088035002224
  0
LINE
  8
_0-1_
  6
CONTINUOUS
 62
    7
 10
209.53834976103775
 20
144.25088035002224
 11
208.86444945869538
 21
144.12452404333305
  0
LINE
  8
_0-1_
  6
CONTINUOUS
 62
    7
 10
208.86444945869538
 20
144.12452404333305
 11
208.12407523089365
 21
144.17907793380265
  0
LINE
  8
_0-1_
  6
CONTINUOUS
 62
    7
 10
208.12407523089365
 20
144.17907793380265
 11
207.47622361260562
 21
144.68093482120889
  0
LINE
  8
_0-1_
  6
CONTINUOUS
 62
    7
 10
207.47622361260562
 20
144.68093482120889
 11
207.26791103455991
 21
145.50376950448949
  0
LINE
  8
_0-1_
  6
CONTINUOUS
 62
    7
 10
207.26791103455991
 20
145.50376950448949
 11
207.75828170600101
 21
146.21889340034124
  0
LINE
  8
_0-1_
  6
CONTINUOUS
 62
    7
 10
208.35351397385392
 20
146.40785602505641
 11
208.99471830949983
 21
146.38350649332303
  0
LINE
  8
_0-1_
  6
CONTINUOUS
 62
    7
 10
207.75828170600101
 20
146.21889340034124
 11
208.35351397385392
 21
146.40785602505641
  0
LINE
  8
_0-1_
  6
CONTINUOUS
 62
    7
 10
206.81629007680288
 20
147.91421005879496
 11
207.23789660478422
 21
147.22680811099937
  0
LINE
  8
_0-1_
  6
CONTINUOUS
 62
    7
 10
207.23789660478422
 20
147.22680811099937
 11
207.28747607367978
 21
146.44179985348668
  0
LINE
  8
_0-1_
  6
CONTINUOUS
 62
    7
 10
207.28747607367978
 20
146.44179985348668
 11
206.8824043452999
 21
145.64153619498017
  0
LINE
  8
_0-1_
  6
CONTINUOUS
 62
    7
 10
206.8824043452999
 20
145.64153619498017
 11
206.18653427751939
 21
145.5388668407175
  0
LINE
  8
_0-1_
  6
CONTINUOUS
 62
    7
 10
206.18653427751939
 20
145.5388668407175
 11
205.43374423985864
 21
145.7408348996021
  0
LINE
  8
_0-1_
  6
CONTINUOUS
 62
    7
 10
205.43374423985864
 20
145.7408348996021
 11
205.05034316265965
 21
146.40220175777042
  0
LINE
  8
_0-1_
  6
CONTINUOUS
 62
    7
 10
205.05034316265965
 20
146.40220175777042
 11
204.99718599958038
 21
147.21474696483883
  0
LINE
  8
_0-1_
  6
CONTINUOUS
 62
    7
 10
204.99718599958038
 20
147.21474696483883
 11
205.26205481318862
 21
147.94822983329257
  0
LINE
  8
_0-1_
  6
CONTINUOUS
 62
    7
 10
205.95767507955616
 20
148.15569552677058
 11
206.81629007680288
 21
147.91421005879496
  0
LINE
  8
_0-1_
  6
CONTINUOUS
 62
    7
 10
205.26205481318862
 20
147.94822983329257
 11
205.95767507955616
 21
148.15569552677058
  0
LINE
  8
_0-1_
  6
CONTINUOUS
 62
    7
 10
206.93092945548181
 20
144.85507033941982
 11
207.11147416911273
 21
144.00393097515956
  0
LINE
  8
_0-1_
  6
CONTINUOUS
 62
    7
 10
207.11147416911273
 20
144.00393097515956
 11
206.80488718100536
 21
143.3819973707132
  0
LINE
  8
_0-1_
  6
CONTINUOUS
 62
    7
 10
206.80488718100536
 20
143.3819973707132
 11
206.37763614908681
 21
142.95474633879459
  0
LINE
  8
_0-1_
  6
CONTINUOUS
 62
    7
 10
206.37763614908681
 20
142.95474633879459
 11
205.65638081223795
 21
142.70542350630364
  0
LINE
  8
_0-1_
  6
CONTINUOUS
 62
    7
 10
205.65638081223795
 20
142.70542350630364
 11
205.0087192941965
 21
142.9329802558858
  0
LINE
  8
_0-1_
  6
CONTINUOUS
 62
    7
 10
205.0087192941965
 20
142.9329802558858
 11
204.47891389356891
 21
143.33563236036266
  0
LINE
  8
_0-1_
  6
CONTINUOUS
 62
    7
 10
204.47891389356891
 20
143.33563236036266
 11
204.45733602841778
 21
144.13401337095515
  0
LINE
  8
_0-1_
  6
CONTINUOUS
 62
    7
 10
204.45733602841778
 20
144.13401337095515
 11
204.84864705456453
 21
144.7649025763753
  0
LINE
  8
_0-1_
  6
CONTINUOUS
 62
    7
 10
204.84864705456453
 20
144.7649025763753
 11
205.44679498729266
 21
145.27219259527132
  0
LINE
  8
_0-1_
  6
CONTINUOUS
 62
    7
 10
206.38515873717443
 20
145.44632195091949
 11
206.93092945548181
 21
144.85507033941982
  0
LINE
  8
_0-1_
  6
CONTINUOUS
 62
    7
 10
205.44679498729266
 20
145.27219259527132
 11
206.38515873717443
 21
145.44632195091949
  0
LINE
  8
_0-1_
  6
CONTINUOUS
 62
    7
 10
203.05183449423549
 20
136.14654306444882
 11
203.8594759716251
 21
137.85684266362676
  0
LINE
  8
_0-1_
  6
CONTINUOUS
 62
    7
 10
203.8594759716251
 20
137.85684266362676
 11
204.58793691201572
 21
136.92251232703881
  0
LINE
  8
_0-1_
  6
CONTINUOUS
 62
    7
 10
204.58793691201572
 20
136.92251232703881
 11
205.53810335600348
 21
136.1148708496492
  0
LINE
  8
_0-1_
  6
CONTINUOUS
 62
    7
 10
205.53810335600348
 20
136.1148708496492
 11
206.50410590739102
 21
135.70313205725452
  0
LINE
  8
_0-1_
  6
CONTINUOUS
 62
    7
 10
206.50410590739102
 20
135.70313205725452
 11
207.66014174757611
 21
135.65562373505514
  0
LINE
  8
_0-1_
  6
CONTINUOUS
 62
    7
 10
207.66014174757611
 20
135.65562373505514
 11
208.8953581247602
 21
135.7348042720541
  0
LINE
  8
_0-1_
  6
CONTINUOUS
 62
    7
 10
208.8953581247602
 20
135.7348042720541
 11
207.99270000297184
 21
134.34122682087206
  0
LINE
  8
_0-1_
  6
CONTINUOUS
 62
    7
 10
207.99270000297184
 20
134.34122682087206
 11
207.59679731797695
 21
132.83679661789145
  0
LINE
  8
_0-1_
  6
CONTINUOUS
 62
    7
 10
207.10073852526551
 20
132.91646147602685
 11
207.52953143954113
 21
134.54587455027413
  0
LINE
  8
_0-1_
  6
CONTINUOUS
 62
    7
 10
207.52953143954113
 20
134.54587455027413
 11
207.9352402573499
 21
135.17223202338246
  0
LINE
  8
_0-1_
  6
CONTINUOUS
 62
    7
 10
207.9352402573499
 20
135.17223202338246
 11
207.66588509806837
 21
135.15496566701824
  0
LINE
  8
_0-1_
  6
CONTINUOUS
 62
    7
 10
207.66588509806837
 20
135.15496566701824
 11
206.39219265661171
 21
135.20730919200963
  0
LINE
  8
_0-1_
  6
CONTINUOUS
 62
    7
 10
206.39219265661171
 20
135.20730919200963
 11
205.27216543792076
 21
135.6846978425992
  0
LINE
  8
_0-1_
  6
CONTINUOUS
 62
    7
 10
205.27216543792076
 20
135.6846978425992
 11
204.22510177095023
 21
136.57470195952416
  0
LINE
  8
_0-1_
  6
CONTINUOUS
 62
    7
 10
204.22510177095023
 20
136.57470195952416
 11
203.96469071063785
 21
136.90870744992477
  0
LINE
  8
_0-1_
  6
CONTINUOUS
 62
    7
 10
203.96469071063785
 20
136.90870744992477
 11
203.52746677941303
 21
135.98282147791928
  0
LINE
  8
_0-1_
  6
CONTINUOUS
 62
    7
 10
233.86175592828948
 20
193.51160635779129
 11
233.28422808397294
 21
192.46483713996767
  0
LINE
  8
_0-1_
  6
CONTINUOUS
 62
    7
 10
233.28422808397294
 20
192.46483713996767
 11
232.88717769100537
 21
191.74292733457207
  0
LINE
  8
_0-1_
  6
CONTINUOUS
 62
    7
 10
232.88717769100537
 20
191.74292733457207
 11
232.74279572992628
 21
190.69615811674842
  0
LINE
  8
_0-1_
  6
CONTINUOUS
 62
    7
 10
232.74279572992628
 20
190.69615811674842
 11
231.87650396345151
 21
189.75767536973413
  0
LINE
  8
_0-1_
  6
CONTINUOUS
 62
    7
 10
231.87650396345151
 20
189.75767536973413
 11
230.50487533319989
 21
188.96357458379898
  0
LINE
  8
_0-1_
  6
CONTINUOUS
 62
    7
 10
230.50487533319989
 20
188.96357458379898
 11
229.42201062510645
 21
188.34995124921269
  0
LINE
  8
_0-1_
  6
CONTINUOUS
 62
    7
 10
229.42201062510645
 20
188.34995124921269
 11
227.22018571864987
 21
187.80851889516597
  0
LINE
  8
_0-1_
  6
CONTINUOUS
 62
    7
 10
227.22018571864987
 20
187.80851889516597
 11
225.48760218570038
 21
186.83394065788192
  0
LINE
  8
_0-1_
  6
CONTINUOUS
 62
    7
 10
225.48760218570038
 20
186.83394065788192
 11
223.89940061383003
 21
185.13745261520224
  0
LINE
  8
_0-1_
  6
CONTINUOUS
 62
    7
 10
223.89940061383003
 20
185.13745261520224
 11
222.92482237654598
 21
183.65753751414123
  0
LINE
  8
_0-1_
  6
CONTINUOUS
 62
    7
 10
222.92482237654598
 20
183.65753751414123
 11
222.23900806142012
 21
181.60009456876375
  0
LINE
  8
_0-1_
  6
CONTINUOUS
 62
    7
 10
222.23900806142012
 20
181.60009456876375
 11
221.80586217818279
 21
179.68703358446538
  0
LINE
  8
_0-1_
  6
CONTINUOUS
 62
    7
 10
221.80586217818279
 20
179.68703358446538
 11
222.1668170808806
 21
177.91835456124613
  0
LINE
  8
_0-1_
  6
CONTINUOUS
 62
    7
 10
222.1668170808806
 20
177.91835456124613
 11
222.92482237654598
 21
175.93310259640821
  0
LINE
  8
_0-1_
  6
CONTINUOUS
 62
    7
 10
222.92482237654598
 20
175.93310259640821
 11
223.57454120140204
 21
174.41709200507742
  0
LINE
  8
_0-1_
  6
CONTINUOUS
 62
    7
 10
223.57454120140204
 20
174.41709200507742
 11
224.07987806517894
 21
172.90108141374665
  0
LINE
  8
_0-1_
  6
CONTINUOUS
 62
    7
 10
224.07987806517894
 20
172.90108141374665
 11
224.54911943868609
 21
171.92650317646257
  0
LINE
  8
_0-1_
  6
CONTINUOUS
 62
    7
 10
224.54911943868609
 20
171.92650317646257
 11
224.26035551652785
 21
170.0134421921642
  0
LINE
  8
_0-1_
  6
CONTINUOUS
 62
    7
 10
224.26035551652785
 20
170.0134421921642
 11
223.14139531816465
 21
168.31695414948453
  0
LINE
  8
_0-1_
  6
CONTINUOUS
 62
    7
 10
223.14139531816465
 20
168.31695414948453
 11
221.48436420830756
 21
167.07177978669685
  0
LINE
  8
_0-1_
  6
CONTINUOUS
 62
    7
 10
221.48436420830756
 20
167.07177978669685
 11
219.86398882914579
 21
165.81828185187353
  0
LINE
  8
_0-1_
  6
CONTINUOUS
 62
    7
 10
219.86398882914579
 20
165.81828185187353
 11
218.51877153323783
 21
164.71764951885799
  0
LINE
  8
_0-1_
  6
CONTINUOUS
 62
    7
 10
218.51877153323783
 20
164.71764951885799
 11
217.26527359841458
 21
163.6781634265655
  0
LINE
  8
_0-1_
  6
CONTINUOUS
 62
    7
 10
217.26527359841458
 20
163.6781634265655
 11
215.95062942286818
 21
162.36351925101914
  0
LINE
  8
_0-1_
  6
CONTINUOUS
 62
    7
 10
215.95062942286818
 20
162.36351925101914
 11
214.54426588623721
 21
161.29346003836511
  0
LINE
  8
_0-1_
  6
CONTINUOUS
 62
    7
 10
214.54426588623721
 20
161.29346003836511
 11
213.6270722753909
 21
160.19282770534954
  0
LINE
  8
_0-1_
  6
CONTINUOUS
 62
    7
 10
213.6270722753909
 20
160.19282770534954
 11
212.37357434056758
 21
158.81703728908007
  0
LINE
  8
_0-1_
  6
CONTINUOUS
 62
    7
 10
212.37357434056758
 20
158.81703728908007
 11
211.08638496268514
 21
156.37878009802906
  0
LINE
  8
_0-1_
  6
CONTINUOUS
 62
    7
 10
211.08638496268514
 20
156.37878009802906
 11
210.69117145557254
 21
155.48954970702564
  0
LINE
  8
_0-1_
  6
CONTINUOUS
 62
    7
 10
210.69117145557254
 20
155.48954970702564
 11
210.21511882200502
 21
154.69912269280038
  0
LINE
  8
_0-1_
  6
CONTINUOUS
 62
    7
 10
210.21511882200502
 20
154.69912269280038
 11
211.12231346333174
 21
154.61828356634552
  0
LINE
  8
_0-1_
  6
CONTINUOUS
 62
    7
 10
211.12231346333174
 20
154.61828356634552
 11
212.2091506078915
 21
154.18714155858626
  0
LINE
  8
_0-1_
  6
CONTINUOUS
 62
    7
 10
212.2091506078915
 20
154.18714155858626
 11
212.9456848711469
 21
153.47755367081586
  0
LINE
  8
_0-1_
  6
CONTINUOUS
 62
    7
 10
212.9456848711469
 20
153.47755367081586
 11
213.38580900406776
 21
152.77694790820709
  0
LINE
  8
_0-1_
  6
CONTINUOUS
 62
    7
 10
213.38580900406776
 20
152.77694790820709
 11
213.94270076409009
 21
151.96855664365853
  0
LINE
  8
_0-1_
  6
CONTINUOUS
 62
    7
 10
213.94270076409009
 20
151.96855664365853
 11
214.28402152023284
 21
150.83680887329052
  0
LINE
  8
_0-1_
  6
CONTINUOUS
 62
    7
 10
214.28402152023284
 20
150.83680887329052
 11
214.19420026861632
 21
149.79488235453902
  0
LINE
  8
_0-1_
  6
CONTINUOUS
 62
    7
 10
214.19420026861632
 20
149.79488235453902
 11
214.15827176796972
 21
148.78888433643413
  0
LINE
  8
_0-1_
  6
CONTINUOUS
 62
    7
 10
214.15827176796972
 20
148.78888433643413
 11
214.94869878219498
 21
148.5373848319079
  0
LINE
  8
_0-1_
  6
CONTINUOUS
 62
    7
 10
214.94869878219498
 20
148.5373848319079
 11
215.23823788552113
 21
148.23251039293992
  0
LINE
  8
_0-1_
  6
CONTINUOUS
 62
    7
 10
215.23823788552113
 20
148.23251039293992
 11
215.90849163317125
 21
147.70385954972294
  0
LINE
  8
_0-1_
  6
CONTINUOUS
 62
    7
 10
215.90849163317125
 20
147.70385954972294
 11
216.37106112098609
 21
147.23184986827922
  0
LINE
  8
_0-1_
  6
CONTINUOUS
 62
    7
 10
216.37106112098609
 20
147.23184986827922
 11
216.81475022154319
 21
146.61823728240236
  0
LINE
  8
_0-1_
  6
CONTINUOUS
 62
    7
 10
216.81475022154319
 20
146.61823728240236
 11
217.04131486863622
 21
145.91966295386563
  0
LINE
  8
_0-1_
  6
CONTINUOUS
 62
    7
 10
217.04131486863622
 20
145.91966295386563
 11
218.05141558692577
 21
145.8535815984635
  0
LINE
  8
_0-1_
  6
CONTINUOUS
 62
    7
 10
218.05141558692577
 20
145.8535815984635
 11
218.78775068997799
 21
145.88190217935013
  0
LINE
  8
_0-1_
  6
CONTINUOUS
 62
    7
 10
218.78775068997799
 20
145.88190217935013
 11
220.20377973430919
 21
145.95742372838114
  0
LINE
  8
_0-1_
  6
CONTINUOUS
 62
    7
 10
220.20377973430919
 20
145.95742372838114
 11
221.23276083985655
 21
146.06126585829875
  0
LINE
  8
_0-1_
  6
CONTINUOUS
 62
    7
 10
221.23276083985655
 20
146.06126585829875
 11
222.34670368806376
 21
146.27839031176287
  0
LINE
  8
_0-1_
  6
CONTINUOUS
 62
    7
 10
222.34670368806376
 20
146.27839031176287
 11
223.49840731078649
 21
146.67487844417561
  0
LINE
  8
_0-1_
  6
CONTINUOUS
 62
    7
 10
223.49840731078649
 20
146.67487844417561
 11
223.97985718585908
 21
147.14688812561934
  0
LINE
  8
_0-1_
  6
CONTINUOUS
 62
    7
 10
223.97985718585908
 20
147.14688812561934
 11
224.38578551190073
 21
147.73218013060957
  0
LINE
  8
_0-1_
  6
CONTINUOUS
 62
    7
 10
224.38578551190073
 20
147.73218013060957
 11
224.53682860996269
 21
148.24195058656883
  0
LINE
  8
_0-1_
  6
CONTINUOUS
 62
    7
 10
224.53682860996269
 20
148.24195058656883
 11
224.44242667367399
 21
149.61077866275564
  0
LINE
  8
_0-1_
  6
CONTINUOUS
 62
    7
 10
224.44242667367399
 20
149.61077866275564
 11
224.59346977173595
 21
150.57367841290087
  0
LINE
  8
_0-1_
  6
CONTINUOUS
 62
    7
 10
224.59346977173595
 20
150.57367841290087
 11
224.80115403157122
 21
151.64986048659258
  0
LINE
  8
_0-1_
  6
CONTINUOUS
 62
    7
 10
224.80115403157122
 20
151.64986048659258
 11
225.36756564930368
 21
152.48059752593357
  0
LINE
  8
_0-1_
  6
CONTINUOUS
 62
    7
 10
225.36756564930368
 20
152.48059752593357
 11
226.42486733573764
 21
153.57565998688303
  0
LINE
  8
_0-1_
  6
CONTINUOUS
 62
    7
 10
226.42486733573764
 20
153.57565998688303
 11
227.55392286642836
 21
154.08685379797921
  0
LINE
  8
_0-1_
  6
CONTINUOUS
 62
    7
 10
227.55392286642836
 20
154.08685379797921
 11
228.61591325213697
 21
154.9592030433827
  0
LINE
  8
_0-1_
  6
CONTINUOUS
 62
    7
 10
228.61591325213697
 20
154.9592030433827
 11
227.49070915299336
 21
155.83155228878621
  0
LINE
  8
_0-1_
  6
CONTINUOUS
 62
    7
 10
227.49070915299336
 20
155.83155228878621
 11
226.56778893684179
 21
156.60275959269367
  0
LINE
  8
_0-1_
  6
CONTINUOUS
 62
    7
 10
226.56778893684179
 20
156.60275959269367
 11
225.74601066218633
 21
157.3739668966011
  0
LINE
  8
_0-1_
  6
CONTINUOUS
 62
    7
 10
225.74601066218633
 20
157.3739668966011
 11
225.08858804246193
 21
157.84174837602037
  0
LINE
  8
_0-1_
  6
CONTINUOUS
 62
    7
 10
225.08858804246193
 20
157.84174837602037
 11
224.40587993736352
 21
158.60031293724082
  0
LINE
  8
_0-1_
  6
CONTINUOUS
 62
    7
 10
224.40587993736352
 20
158.60031293724082
 11
224.26680976780647
 21
159.23245007159121
  0
LINE
  8
_0-1_
  6
CONTINUOUS
 62
    7
 10
224.26680976780647
 20
159.23245007159121
 11
224.50702187885957
 21
159.86458720594157
  0
LINE
  8
_0-1_
  6
CONTINUOUS
 62
    7
 10
224.50702187885957
 20
159.86458720594157
 11
229.47561975485348
 21
164.52975925744729
  0
LINE
  8
_0-1_
  6
CONTINUOUS
 62
    7
 10
229.47561975485348
 20
164.52975925744729
 11
230.28475528682196
 21
165.21246736254568
  0
LINE
  8
_0-1_
  6
CONTINUOUS
 62
    7
 10
230.28475528682196
 20
165.21246736254568
 11
231.72602795314077
 21
165.36418027478978
  0
LINE
  8
_0-1_
  6
CONTINUOUS
 62
    7
 10
231.72602795314077
 20
165.36418027478978
 11
238.37611060650664
 21
165.28832381866774
  0
LINE
  8
_0-1_
  6
CONTINUOUS
 62
    7
 10
238.37611060650664
 20
165.28832381866774
 11
243.23092379831751
 21
165.31360930404176
  0
LINE
  8
_0-1_
  6
CONTINUOUS
 62
    7
 10
243.23092379831751
 20
165.31360930404176
 11
244.26869394082973
 21
165.47272284615141
  0
LINE
  8
_0-1_
  6
CONTINUOUS
 62
    7
 10
244.26869394082973
 20
165.47272284615141
 11
244.90851203193449
 21
166.3258136342911
  0
LINE
  8
_0-1_
  6
CONTINUOUS
 62
    7
 10
244.90851203193449
 20
166.3258136342911
 11
245.67273919630963
 21
167.30331349570118
  0
LINE
  8
_0-1_
  6
CONTINUOUS
 62
    7
 10
245.67273919630963
 20
167.30331349570118
 11
246.401420911179
 21
168.8317678244515
  0
LINE
  8
_0-1_
  6
CONTINUOUS
 62
    7
 10
246.401420911179
 20
168.8317678244515
 11
247.07678445178953
 21
170.32467670369598
  0
LINE
  8
_0-1_
  6
CONTINUOUS
 62
    7
 10
247.07678445178953
 20
170.32467670369598
 11
247.52110257061235
 21
171.67540378491719
  0
LINE
  8
_0-1_
  6
CONTINUOUS
 62
    7
 10
247.52110257061235
 20
171.67540378491719
 11
247.50332984585941
 21
173.45267626020824
  0
LINE
  8
_0-1_
  6
CONTINUOUS
 62
    7
 10
247.50332984585941
 20
173.45267626020824
 11
247.34337532308325
 21
174.66122154340618
  0
LINE
  8
_0-1_
  6
CONTINUOUS
 62
    7
 10
247.34337532308325
 20
174.66122154340618
 11
246.69804019990442
 21
176.05163184818874
  0
LINE
  8
_0-1_
  6
CONTINUOUS
 62
    7
 10
246.69804019990442
 20
176.05163184818874
 11
245.85748095604731
 21
176.92332291589249
  0
LINE
  8
_0-1_
  6
CONTINUOUS
 62
    7
 10
245.85748095604731
 20
176.92332291589249
 11
244.86126259295724
 21
177.63935486436341
  0
LINE
  8
_0-1_
  6
CONTINUOUS
 62
    7
 10
244.86126259295724
 20
177.63935486436341
 11
242.8221281310075
 21
177.99737083859886
  0
LINE
  8
_0-1_
  6
CONTINUOUS
 62
    7
 10
242.8221281310075
 20
177.99737083859886
 11
241.71694838445455
 21
178.05963448629196
  0
LINE
  8
_0-1_
  6
CONTINUOUS
 62
    7
 10
241.71694838445455
 20
178.05963448629196
 11
240.47167543059208
 21
178.65113913937665
  0
LINE
  8
_0-1_
  6
CONTINUOUS
 62
    7
 10
240.47167543059208
 20
178.65113913937665
 11
239.36649568403913
 21
180.51904857017038
  0
LINE
  8
_0-1_
  6
CONTINUOUS
 62
    7
 10
239.36649568403913
 20
180.51904857017038
 11
238.69716147133806
 21
182.44922164865718
  0
LINE
  8
_0-1_
  6
CONTINUOUS
 62
    7
 10
238.69716147133806
 20
182.44922164865718
 11
237.98302780480901
 21
184.30574138779971
  0
LINE
  8
_0-1_
  6
CONTINUOUS
 62
    7
 10
237.98302780480901
 20
184.30574138779971
 11
237.6280490816805
 21
185.95534839527911
  0
LINE
  8
_0-1_
  6
CONTINUOUS
 62
    7
 10
237.6280490816805
 20
185.95534839527911
 11
237.98302780480901
 21
187.8137664163635
  0
LINE
  8
_0-1_
  6
CONTINUOUS
 62
    7
 10
237.98302780480901
 20
187.8137664163635
 11
238.21271991977448
 21
190.15244976873938
  0
LINE
  8
_0-1_
  6
CONTINUOUS
 62
    7
 10
237.71406541617562
 20
190.19064401253589
 11
237.48764324083174
 21
187.88525459085295
  0
LINE
  8
_0-1_
  6
CONTINUOUS
 62
    7
 10
237.48764324083174
 20
187.88525459085295
 11
237.11787805274019
 21
185.94942507672666
  0
LINE
  8
_0-1_
  6
CONTINUOUS
 62
    7
 10
237.11787805274019
 20
185.94942507672666
 11
237.50239930096961
 21
184.16253221730775
  0
LINE
  8
_0-1_
  6
CONTINUOUS
 62
    7
 10
237.50239930096961
 20
184.16253221730775
 11
238.22749646656967
 21
182.27751087770954
  0
LINE
  8
_0-1_
  6
CONTINUOUS
 62
    7
 10
238.22749646656967
 20
182.27751087770954
 11
238.91056882463914
 21
180.3077208218813
  0
LINE
  8
_0-1_
  6
CONTINUOUS
 62
    7
 10
238.91056882463914
 20
180.3077208218813
 11
240.11914953877766
 21
178.26504919235136
  0
LINE
  8
_0-1_
  6
CONTINUOUS
 62
    7
 10
240.11914953877766
 20
178.26504919235136
 11
241.59095919874846
 21
177.56593960386524
  0
LINE
  8
_0-1_
  6
CONTINUOUS
 62
    7
 10
241.59095919874846
 20
177.56593960386524
 11
242.76463577573298
 21
177.49981697980982
  0
LINE
  8
_0-1_
  6
CONTINUOUS
 62
    7
 10
242.76463577573298
 20
177.49981697980982
 11
244.66224117207434
 21
177.16664962014678
  0
LINE
  8
_0-1_
  6
CONTINUOUS
 62
    7
 10
244.66224117207434
 20
177.16664962014678
 11
245.52894576524931
 21
176.54370569380225
  0
LINE
  8
_0-1_
  6
CONTINUOUS
 62
    7
 10
245.52894576524931
 20
176.54370569380225
 11
246.27984947346703
 21
175.76499073713213
  0
LINE
  8
_0-1_
  6
CONTINUOUS
 62
    7
 10
246.27984947346703
 20
175.76499073713213
 11
246.85771228048815
 21
174.51995327864844
  0
LINE
  8
_0-1_
  6
CONTINUOUS
 62
    7
 10
246.85771228048815
 20
174.51995327864844
 11
247.00365917499618
 21
173.41724340903218
  0
LINE
  8
_0-1_
  6
CONTINUOUS
 62
    7
 10
247.00365917499618
 20
173.41724340903218
 11
247.02030069820727
 21
171.75309108792339
  0
LINE
  8
_0-1_
  6
CONTINUOUS
 62
    7
 10
247.02030069820727
 20
171.75309108792339
 11
246.61019093884533
 21
170.50635741946291
  0
LINE
  8
_0-1_
  6
CONTINUOUS
 62
    7
 10
246.61019093884533
 20
170.50635741946291
 11
245.94793180578994
 21
169.042416177972
  0
LINE
  8
_0-1_
  6
CONTINUOUS
 62
    7
 10
245.94793180578994
 20
169.042416177972
 11
245.24502750845272
 21
167.56803155428906
  0
LINE
  8
_0-1_
  6
CONTINUOUS
 62
    7
 10
245.24502750845272
 20
167.56803155428906
 11
244.51152032539812
 21
166.62982469224249
  0
LINE
  8
_0-1_
  6
CONTINUOUS
 62
    7
 10
244.51152032539812
 20
166.62982469224249
 11
243.99116214114775
 21
165.9360137799087
  0
LINE
  8
_0-1_
  6
CONTINUOUS
 62
    7
 10
243.99116214114775
 20
165.9360137799087
 11
243.19152156987826
 21
165.81341086573999
  0
LINE
  8
_0-1_
  6
CONTINUOUS
 62
    7
 10
243.19152156987826
 20
165.81341086573999
 11
238.37766017328686
 21
165.78833867096608
  0
LINE
  8
_0-1_
  6
CONTINUOUS
 62
    7
 10
238.37766017328686
 20
165.78833867096608
 11
231.70262927353348
 21
165.86447970784539
  0
LINE
  8
_0-1_
  6
CONTINUOUS
 62
    7
 10
231.70262927353348
 20
165.86447970784539
 11
230.07968972757691
 21
165.69364396616575
  0
LINE
  8
_0-1_
  6
CONTINUOUS
 62
    7
 10
230.07968972757691
 20
165.69364396616575
 11
229.14304394255469
 21
164.90334908505329
  0
LINE
  8
_0-1_
  6
CONTINUOUS
 62
    7
 10
229.14304394255469
 20
164.90334908505329
 11
224.08062976509989
 21
160.15008997187055
  0
LINE
  8
_0-1_
  6
CONTINUOUS
 62
    7
 10
224.08062976509989
 20
160.15008997187055
 11
223.74644648872555
 21
159.27066029720091
  0
LINE
  8
_0-1_
  6
CONTINUOUS
 62
    7
 10
223.74644648872555
 20
159.27066029720091
 11
223.94592190503362
 21
158.3639538594366
  0
LINE
  8
_0-1_
  6
CONTINUOUS
 62
    7
 10
223.94592190503362
 20
158.3639538594366
 11
224.75380752223213
 21
157.46630317366049
  0
LINE
  8
_0-1_
  6
CONTINUOUS
 62
    7
 10
224.75380752223213
 20
157.46630317366049
 11
225.42854407356867
 21
156.98620216597876
  0
LINE
  8
_0-1_
  6
CONTINUOUS
 62
    7
 10
225.42854407356867
 20
156.98620216597876
 11
226.2361311346471
 21
156.22831277019739
  0
LINE
  8
_0-1_
  6
CONTINUOUS
 62
    7
 10
226.2361311346471
 20
156.22831277019739
 11
227.17712212696608
 21
155.4420052286706
  0
LINE
  8
_0-1_
  6
CONTINUOUS
 62
    7
 10
227.17712212696608
 20
155.4420052286706
 11
227.81443697140309
 21
154.94790720320818
  0
LINE
  8
_0-1_
  6
CONTINUOUS
 62
    7
 10
227.81443697140309
 20
154.94790720320818
 11
227.28756095544275
 21
154.51511619009792
  0
LINE
  8
_0-1_
  6
CONTINUOUS
 62
    7
 10
227.28756095544275
 20
154.51511619009792
 11
226.1315611575244
 21
153.99172302983166
  0
LINE
  8
_0-1_
  6
CONTINUOUS
 62
    7
 10
226.1315611575244
 20
153.99172302983166
 11
224.97837178632994
 21
152.79734832395169
  0
LINE
  8
_0-1_
  6
CONTINUOUS
 62
    7
 10
224.97837178632994
 20
152.79734832395169
 11
224.3298017286375
 21
151.84611223933612
  0
LINE
  8
_0-1_
  6
CONTINUOUS
 62
    7
 10
224.3298017286375
 20
151.84611223933612
 11
224.10086782314641
 21
150.65981836542772
  0
LINE
  8
_0-1_
  6
CONTINUOUS
 62
    7
 10
224.10086782314641
 20
150.65981836542772
 11
223.93973453946279
 21
149.63259368194437
  0
LINE
  8
_0-1_
  6
CONTINUOUS
 62
    7
 10
223.93973453946279
 20
149.63259368194437
 11
224.03180836342198
 21
148.2975232345351
  0
LINE
  8
_0-1_
  6
CONTINUOUS
 62
    7
 10
224.03180836342198
 20
148.2975232345351
 11
223.92918760029175
 21
147.95117815897046
  0
LINE
  8
_0-1_
  6
CONTINUOUS
 62
    7
 10
223.92918760029175
 20
147.95117815897046
 11
223.59599588365011
 21
147.47076219544072
  0
LINE
  8
_0-1_
  6
CONTINUOUS
 62
    7
 10
223.59599588365011
 20
147.47076219544072
 11
223.22895136885114
 21
147.11091463191226
  0
LINE
  8
_0-1_
  6
CONTINUOUS
 62
    7
 10
223.22895136885114
 20
147.11091463191226
 11
222.21687013186152
 21
146.76249322245681
  0
LINE
  8
_0-1_
  6
CONTINUOUS
 62
    7
 10
222.21687013186152
 20
146.76249322245681
 11
221.15967596576632
 21
146.55642995279421
  0
LINE
  8
_0-1_
  6
CONTINUOUS
 62
    7
 10
221.15967596576632
 20
146.55642995279421
 11
220.16534197505882
 21
146.45608432070446
  0
LINE
  8
_0-1_
  6
CONTINUOUS
 62
    7
 10
220.16534197505882
 20
146.45608432070446
 11
218.76482673659188
 21
146.38139017465289
  0
LINE
  8
_0-1_
  6
CONTINUOUS
 62
    7
 10
218.76482673659188
 20
146.38139017465289
 11
218.05814566124576
 21
146.35421013329343
  0
LINE
  8
_0-1_
  6
CONTINUOUS
 62
    7
 10
218.05814566124576
 20
146.35421013329343
 11
217.41231699025803
 21
146.39646060709637
  0
LINE
  8
_0-1_
  6
CONTINUOUS
 62
    7
 10
217.41231699025803
 20
146.39646060709637
 11
217.26606748410705
 21
146.84739658439511
  0
LINE
  8
_0-1_
  6
CONTINUOUS
 62
    7
 10
217.26606748410705
 20
146.84739658439511
 11
216.75433238466951
 21
147.55511533893647
  0
LINE
  8
_0-1_
  6
CONTINUOUS
 62
    7
 10
216.75433238466951
 20
147.55511533893647
 11
216.24322834873134
 21
148.07665006948562
  0
LINE
  8
_0-1_
  6
CONTINUOUS
 62
    7
 10
216.24322834873134
 20
148.07665006948562
 11
215.57606914756019
 21
148.60286014364876
  0
LINE
  8
_0-1_
  6
CONTINUOUS
 62
    7
 10
215.57606914756019
 20
148.60286014364876
 11
215.22275838557692
 21
148.97488388449616
  0
LINE
  8
_0-1_
  6
CONTINUOUS
 62
    7
 10
215.22275838557692
 20
148.97488388449616
 11
214.67149771075509
 21
149.15028500830311
  0
LINE
  8
_0-1_
  6
CONTINUOUS
 62
    7
 10
214.67149771075509
 20
149.15028500830311
 11
214.69343282318891
 21
149.76446815644973
  0
LINE
  8
_0-1_
  6
CONTINUOUS
 62
    7
 10
214.69343282318891
 20
149.76446815644973
 11
214.79040857931619
 21
150.88938692752597
  0
LINE
  8
_0-1_
  6
CONTINUOUS
 62
    7
 10
214.79040857931619
 20
150.88938692752597
 11
214.39882235682819
 21
152.18780440209124
  0
LINE
  8
_0-1_
  6
CONTINUOUS
 62
    7
 10
214.39882235682819
 20
152.18780440209124
 11
213.80356707342474
 21
153.05188465219308
  0
LINE
  8
_0-1_
  6
CONTINUOUS
 62
    7
 10
213.80356707342474
 20
153.05188465219308
 11
213.33657975358255
 21
153.79525222255421
  0
LINE
  8
_0-1_
  6
CONTINUOUS
 62
    7
 10
213.33657975358255
 20
153.79525222255421
 11
212.48510255083942
 21
154.61557782031886
  0
LINE
  8
_0-1_
  6
CONTINUOUS
 62
    7
 10
212.48510255083942
 20
154.61557782031886
 11
211.23910586586384
 21
155.10985749700338
  0
LINE
  8
_0-1_
  6
CONTINUOUS
 62
    7
 10
211.23910586586384
 20
155.10985749700338
 11
211.05600071280736
 21
155.1261737977708
  0
LINE
  8
_0-1_
  6
CONTINUOUS
 62
    7
 10
211.05600071280736
 20
155.1261737977708
 11
211.13548457908387
 21
155.25814700970161
  0
LINE
  8
_0-1_
  6
CONTINUOUS
 62
    7
 10
211.13548457908387
 20
155.25814700970161
 11
211.53643413342859
 21
156.16028350697726
  0
LINE
  8
_0-1_
  6
CONTINUOUS
 62
    7
 10
211.53643413342859
 20
156.16028350697726
 11
212.7860322261572
 21
158.52733344374067
  0
LINE
  8
_0-1_
  6
CONTINUOUS
 62
    7
 10
212.7860322261572
 20
158.52733344374067
 11
214.00411064700256
 21
159.86424878369288
  0
LINE
  8
_0-1_
  6
CONTINUOUS
 62
    7
 10
214.00411064700256
 20
159.86424878369288
 11
214.89211026623388
 21
160.92984832677043
  0
LINE
  8
_0-1_
  6
CONTINUOUS
 62
    7
 10
214.89211026623388
 20
160.92984832677043
 11
216.28028577753582
 21
161.98606882450019
  0
LINE
  8
_0-1_
  6
CONTINUOUS
 62
    7
 10
216.28028577753582
 20
161.98606882450019
 11
217.60236360662548
 21
163.30814665358983
  0
LINE
  8
_0-1_
  6
CONTINUOUS
 62
    7
 10
217.60236360662548
 20
163.30814665358983
 11
218.83666841525536
 21
164.3317164948927
  0
LINE
  8
_0-1_
  6
CONTINUOUS
 62
    7
 10
218.83666841525536
 20
164.3317164948927
 11
220.17532433697624
 21
165.4269804308461
  0
LINE
  8
_0-1_
  6
CONTINUOUS
 62
    7
 10
220.17532433697624
 20
165.4269804308461
 11
221.78753237359876
 21
166.67416023276169
  0
LINE
  8
_0-1_
  6
CONTINUOUS
 62
    7
 10
221.78753237359876
 20
166.67416023276169
 11
223.51105836572543
 21
167.96930210802761
  0
LINE
  8
_0-1_
  6
CONTINUOUS
 62
    7
 10
223.51105836572543
 20
167.96930210802761
 11
224.73833086885446
 21
169.83000558051364
  0
LINE
  8
_0-1_
  6
CONTINUOUS
 62
    7
 10
224.73833086885446
 20
169.83000558051364
 11
225.06654376782961
 21
172.00441603622388
  0
LINE
  8
_0-1_
  6
CONTINUOUS
 62
    7
 10
225.06654376782961
 20
172.00441603622388
 11
224.54416812578904
 21
173.08935006200039
  0
LINE
  8
_0-1_
  6
CONTINUOUS
 62
    7
 10
224.54416812578904
 20
173.08935006200039
 11
224.04230617006226
 21
174.59493592918093
  0
LINE
  8
_0-1_
  6
CONTINUOUS
 62
    7
 10
224.04230617006226
 20
174.59493592918093
 11
223.38835007463717
 21
176.12083348517279
  0
LINE
  8
_0-1_
  6
CONTINUOUS
 62
    7
 10
223.38835007463717
 20
176.12083348517279
 11
222.64853162975612
 21
178.05845322176602
  0
LINE
  8
_0-1_
  6
CONTINUOUS
 62
    7
 10
222.64853162975612
 20
178.05845322176602
 11
222.31728217584384
 21
179.68157554593616
  0
LINE
  8
_0-1_
  6
CONTINUOUS
 62
    7
 10
222.31728217584384
 20
179.68157554593616
 11
222.72118984832462
 21
181.46550109939309
  0
LINE
  8
_0-1_
  6
CONTINUOUS
 62
    7
 10
222.72118984832462
 20
181.46550109939309
 11
223.37844420142107
 21
183.43726415868235
  0
LINE
  8
_0-1_
  6
CONTINUOUS
 62
    7
 10
223.37844420142107
 20
183.43726415868235
 11
224.29354250879731
 21
184.82685788469817
  0
LINE
  8
_0-1_
  6
CONTINUOUS
 62
    7
 10
224.29354250879731
 20
184.82685788469817
 11
225.79992544630476
 21
186.43594874976295
  0
LINE
  8
_0-1_
  6
CONTINUOUS
 62
    7
 10
225.79992544630476
 20
186.43594874976295
 11
227.4058427141536
 21
187.33927721292789
  0
LINE
  8
_0-1_
  6
CONTINUOUS
 62
    7
 10
227.4058427141536
 20
187.33927721292789
 11
229.60844911258726
 21
187.88090173713291
  0
LINE
  8
_0-1_
  6
CONTINUOUS
 62
    7
 10
229.60844911258726
 20
187.88090173713291
 11
230.75339285601745
 21
188.52970319174337
  0
LINE
  8
_0-1_
  6
CONTINUOUS
 62
    7
 10
230.75339285601745
 20
188.52970319174337
 11
232.19254889147293
 21
189.36289879121758
  0
LINE
  8
_0-1_
  6
CONTINUOUS
 62
    7
 10
232.19254889147293
 20
189.36289879121758
 11
233.21665979071593
 21
190.47235226539746
  0
LINE
  8
_0-1_
  6
CONTINUOUS
 62
    7
 10
233.21665979071593
 20
190.47235226539746
 11
233.36985235213211
 21
191.58299833566496
  0
LINE
  8
_0-1_
  6
CONTINUOUS
 62
    7
 10
233.36985235213211
 20
191.58299833566496
 11
233.72217667370802
 21
192.22358801125753
  0
LINE
  8
_0-1_
  6
CONTINUOUS
 62
    7
 10
233.72217667370802
 20
192.22358801125753
 11
234.30443881439606
 21
193.27893814125457
  0
LINE
  8
_0-1_
  6
CONTINUOUS
 62
    7
 10
230.7750002433587
 20
163.85013008126114
 11
225.80236899938182
 21
159.27759560404106
  0
LINE
  8
_0-1_
  6
CONTINUOUS
 62
    7
 10
225.80236899938182
 20
159.27759560404106
 11
231.97529054362894
 21
159.20138669608738
  0
LINE
  8
_0-1_
  6
CONTINUOUS
 62
    7
 10
231.97529054362894
 20
159.20138669608738
 11
230.7750002433587
 21
163.85013008126114
  0
LINE
  8
_0-1_
  6
CONTINUOUS
 62
    7
 10
231.17509701011545
 20
164.09780903211057
 11
237.10033960351313
 21
164.09780903211057
  0
LINE
  8
_0-1_
  6
CONTINUOUS
 62
    7
 10
237.10033960351313
 20
164.09780903211057
 11
232.41349176436256
 21
160.09684136454299
  0
LINE
  8
_0-1_
  6
CONTINUOUS
 62
    7
 10
232.41349176436256
 20
160.09684136454299
 11
231.17509701011545
 21
164.09780903211057
  0
LINE
  8
_0-1_
  6
CONTINUOUS
 62
    7
 10
232.50875289930462
 20
159.31570005801788
 11
243.86388018440118
 21
159.25854337705263
  0
LINE
  8
_0-1_
  6
CONTINUOUS
 62
    7
 10
243.86388018440118
 20
159.25854337705263
 11
238.60546553559811
 21
163.54529444944648
  0
LINE
  8
_0-1_
  6
CONTINUOUS
 62
    7
 10
238.60546553559811
 20
163.54529444944648
 11
239.25324125320429
 21
164.19307016705266
  0
LINE
  8
_0-1_
  6
CONTINUOUS
 62
    7
 10
239.25324125320429
 20
164.19307016705266
 11
237.17654851146681
 21
164.19307016705266
  0
LINE
  8
_0-1_
  6
CONTINUOUS
 62
    7
 10
237.17654851146681
 20
164.19307016705266
 11
237.40517523532781
 21
163.50718999546964
  0
LINE
  8
_0-1_
  6
CONTINUOUS
 62
    7
 10
237.40517523532781
 20
163.50718999546964
 11
232.37538731038569
 21
159.52527455489047
  0
LINE
  8
_0-1_
  6
CONTINUOUS
 62
    7
 10
232.37538731038569
 20
159.52527455489047
 11
232.50875289930462
 21
159.31570005801788
  0
LINE
  8
_0-1_
  6
CONTINUOUS
 62
    7
 10
225.59279450250926
 20
159.01086442620319
 11
237.82428198466726
 21
148.07040822784344
  0
LINE
  8
_0-1_
  6
CONTINUOUS
 62
    7
 10
237.82428198466726
 20
148.07040822784344
 11
232.1354813301923
 21
158.75984816730039
  0
LINE
  8
_0-1_
  6
CONTINUOUS
 62
    7
 10
232.1354813301923
 20
158.75984816730039
 11
226.30904840181875
 21
158.89748044119897
  0
LINE
  8
_0-1_
  6
CONTINUOUS
 62
    7
 10
226.30904840181875
 20
158.89748044119897
 11
225.59279450250926
 21
159.01086442620319
  0
LINE
  8
_0-1_
  6
CONTINUOUS
 62
    7
 10
232.68841240014955
 20
158.76465715334566
 11
243.48630815841977
 21
158.73252055882701
  0
LINE
  8
_0-1_
  6
CONTINUOUS
 62
    7
 10
243.48630815841977
 20
158.73252055882701
 11
238.02308709024731
 21
148.33633223204006
  0
LINE
  8
_0-1_
  6
CONTINUOUS
 62
    7
 10
238.02308709024731
 20
148.33633223204006
 11
232.68841240014955
 21
158.76465715334566
  0
LINE
  8
_0-1_
  6
CONTINUOUS
 62
    7
 10
249.91362706215204
 20
158.84499863964234
 11
238.36052133269328
 21
148.4648786101147
  0
LINE
  8
_0-1_
  6
CONTINUOUS
 62
    7
 10
238.36052133269328
 20
148.4648786101147
 11
244.11297175153367
 21
158.74858885608634
  0
LINE
  8
_0-1_
  6
CONTINUOUS
 62
    7
 10
244.11297175153367
 20
158.74858885608634
 11
249.91362706215204
 21
158.84499863964234
  0
LINE
  8
_0-1_
  6
CONTINUOUS
 62
    7
 10
250.26791342123578
 20
159.24553034205783
 11
244.15412226890509
 21
159.29255950476809
  0
LINE
  8
_0-1_
  6
CONTINUOUS
 62
    7
 10
244.15412226890509
 20
159.29255950476809
 11
245.09470552310983
 21
164.23062158934286
  0
LINE
  8
_0-1_
  6
CONTINUOUS
 62
    7
 10
245.09470552310983
 20
164.23062158934286
 11
250.22088425852552
 21
159.26120672962792
  0
LINE
  8
_0-1_
  6
CONTINUOUS
 62
    7
 10
244.87523609712866
 20
164.12088687635232
 11
243.90330006778384
 21
160.02934972056178
  0
LINE
  8
_0-1_
  6
CONTINUOUS
 62
    7
 10
243.90330006778384
 20
160.02934972056178
 11
239.1063254713398
 21
163.6035660865397
  0
LINE
  8
_0-1_
  6
CONTINUOUS
 62
    7
 10
239.1063254713398
 20
163.6035660865397
 11
239.38850044760118
 21
164.08953410121216
  0
LINE
  8
_0-1_
  6
CONTINUOUS
 62
    7
 10
239.38850044760118
 20
164.08953410121216
 11
244.87523609712866
 21
164.12088687635232
  0
LINE
  8
_0-1_
  6
CONTINUOUS
 62
    7
 10
226.26385522290172
 20
158.39840851578236
 11
227.19172957150635
 21
158.25152472034415
  0
LINE
  8
_0-1_
  6
CONTINUOUS
 62
    7
 10
227.19172957150635
 20
158.25152472034415
 11
236.06200389900089
 21
150.31750623821366
  0
LINE
  8
_0-1_
  6
CONTINUOUS
 62
    7
 10
231.83143003406223
 20
158.2668910005581
 11
226.26385522290172
 21
158.39840851578236
  0
LINE
  8
_0-1_
  6
CONTINUOUS
 62
    7
 10
236.06200389900089
 20
150.31750623821366
 11
231.83143003406223
 21
158.2668910005581
  0
LINE
  8
_0-1_
  6
CONTINUOUS
 62
    7
 10
227.06786081247139
 20
159.76201035081967
 11
231.32772063378365
 21
159.70941948882816
  0
LINE
  8
_0-1_
  6
CONTINUOUS
 62
    7
 10
230.49941455741742
 20
162.91746207031022
 11
227.06786081247139
 21
159.76201035081967
  0
LINE
  8
_0-1_
  6
CONTINUOUS
 62
    7
 10
231.32772063378365
 20
159.70941948882816
 11
230.49941455741742
 21
162.91746207031022
  0
LINE
  8
_0-1_
  6
CONTINUOUS
 62
    7
 10
235.74452063368778
 20
163.59780903211057
 11
232.66654791233946
 21
160.97027134315464
  0
LINE
  8
_0-1_
  6
CONTINUOUS
 62
    7
 10
231.8532624371864
 20
163.59780903211057
 11
235.74452063368778
 21
163.59780903211057
  0
LINE
  8
_0-1_
  6
CONTINUOUS
 62
    7
 10
232.66654791233946
 20
160.97027134315464
 11
231.8532624371864
 21
163.59780903211057
  0
LINE
  8
_0-1_
  6
CONTINUOUS
 62
    7
 10
244.24168656061601
 20
163.61725843008784
 11
243.59251338334973
 21
160.88444876449923
  0
LINE
  8
_0-1_
  6
CONTINUOUS
 62
    7
 10
245.41239052122068
 20
163.22627303862066
 11
244.75746864176971
 21
159.78793317150356
  0
LINE
  8
_0-1_
  6
CONTINUOUS
 62
    7
 10
242.66001351523874
 20
158.23497755465203
 11
238.0290563418826
 21
149.42253846300079
  0
LINE
  8
_0-1_
  6
CONTINUOUS
 62
    7
 10
233.50706286672306
 20
158.2622184792012
 11
242.66001351523874
 21
158.23497755465203
  0
LINE
  8
_0-1_
  6
CONTINUOUS
 62
    7
 10
238.0290563418826
 20
149.42253846300079
 11
233.50706286672306
 21
158.2622184792012
  0
LINE
  8
_0-1_
  6
CONTINUOUS
 62
    7
 10
248.58433148326253
 20
158.32283602883964
 11
240.26817990434847
 21
150.85102251009354
  0
LINE
  8
_0-1_
  6
CONTINUOUS
 62
    7
 10
244.40890628161025
 20
158.25343838005869
 11
248.58433148326253
 21
158.32283602883964
  0
LINE
  8
_0-1_
  6
CONTINUOUS
 62
    7
 10
240.26817990434847
 20
150.85102251009354
 11
244.40890628161025
 21
158.25343838005869
  0
LINE
  8
_0-1_
  6
CONTINUOUS
 62
    7
 10
233.54122226389029
 20
159.81050939870598
 11
242.45049820237517
 21
159.76566405002236
  0
LINE
  8
_0-1_
  6
CONTINUOUS
 62
    7
 10
242.45049820237517
 20
159.76566405002236
 11
238.03323978344474
 21
163.36668993502001
  0
LINE
  8
_0-1_
  6
CONTINUOUS
 62
    7
 10
238.03323978344474
 20
163.36668993501999
 11
233.54122226389029
 21
159.81050939870598
  0
LINE
  8
_0-1_
  6
CONTINUOUS
 62
    7
 10
243.59251338334973
 20
160.88444876449923
 11
239.95765016392908
 21
163.5927782221068
  0
LINE
  8
_0-1_
  6
CONTINUOUS
 62
    7
 10
239.95765016392908
 20
163.5927782221068
 11
244.24168656061601
 21
163.61725843008784
  0
LINE
  8
_0-1_
  6
CONTINUOUS
 62
    7
 10
244.75746864176971
 20
159.78793317150356
 11
248.99280260462273
 21
159.7553536794816
  0
LINE
  8
_0-1_
  6
CONTINUOUS
 62
    7
 10
248.99280260462285
 20
159.7553536794816
 11
245.41239052122068
 21
163.22627303862066
  0
LINE
  8
_0-1_
  6
CONTINUOUS
 62
    7
 10
234.06396604337652
 20
193.91602658796543
 11
233.86175592828948
 21
193.51160635779129
  0
LINE
  8
_0-1_
  6
CONTINUOUS
 62
    7
 10
234.30443881439606
 20
193.27893814125457
 11
234.49953931859062
 21
193.66913914964368
  0
LINE
  8
_0-1_
  6
CONTINUOUS
 62
    7
 10
237.80613768876239
 20
191.86329029786219
 11
237.71406541617562
 21
190.19064401253589
  0
LINE
  8
_0-1_
  6
CONTINUOUS
 62
    7
 10
238.21271991977448
 20
190.15244976873938
 11
238.2961314021231
 21
191.66775836473962
  0
LINE
  8
_0-1_
  6
CONTINUOUS
 62
    7
 10
202.74617704843359
 20
134.79146172139368
 11
203.05183449423549
 21
136.14654306444882
  0
LINE
  8
_0-1_
  6
CONTINUOUS
 62
    7
 10
203.52746677941303
 20
135.98282147791928
 11
203.19992223261508
 21
134.5307073204483
  0
LINE
  8
_0-1_
  6
CONTINUOUS
 62
    7
 10
207.06362936295744
 20
132.310345158328
 11
207.10073852526551
 21
132.91646147602685
  0
LINE
  8
_0-1_
  6
CONTINUOUS
 62
    7
 10
207.59679731797695
 20
132.83679661789145
 11
207.54753971071161
 21
132.03225569922435
  0
ENDSEC
  0
EOF
