G04 DesignSpark PCB Gerber Version 13.0 Build *
%FSLAX35Y35*%
%MOMM*%
%AMT70*0 Bullet Pad at angle 90*21,1,1.45240,1.52620,0,0,90*%
%ADD70T70*%
%AMT18*0 Bullet Pad at angle 270*21,1,1.45240,1.52620,0,0,270*%
%ADD18T18*%
%ADD19C,1.45240*%
%ADD71R,1.95240X1.60240*%
X0Y0D02*
D02*
D18*
X233690Y316000D03*
D02*
D19*
X310000D03*
D02*
D18*
X233690Y570000D03*
D02*
D19*
X310000D03*
D02*
D18*
X233690Y824000D03*
D02*
D19*
X310000D03*
D02*
D18*
X233690Y1078000D03*
D02*
D19*
X310000D03*
D02*
D18*
X233690Y1344700D03*
D02*
D19*
X310000D03*
D02*
D18*
X233690Y1586000D03*
D02*
D19*
X310000D03*
D02*
D18*
X233690Y1840000D03*
D02*
D19*
X310000D03*
D02*
D18*
X233690Y2094000D03*
D02*
D19*
X310000D03*
D02*
D18*
X233690Y2348000D03*
D02*
D19*
X310000D03*
D02*
D18*
X233690Y2602000D03*
D02*
D19*
X310000D03*
D02*
D18*
X233690Y2856000D03*
D02*
D19*
X310000D03*
D02*
D18*
X233690Y3110000D03*
D02*
D19*
X310000D03*
D02*
D70*
X1830310Y2081300D03*
D02*
D19*
X1754000D03*
D02*
D70*
X1830310Y2348000D03*
D02*
D19*
X1754000D03*
D02*
D70*
X1830310Y2602000D03*
D02*
D19*
X1754000D03*
D02*
D70*
X1830310Y2856000D03*
D02*
D19*
X1754000D03*
D02*
D70*
X1830310Y3110000D03*
D02*
D19*
X1754000D03*
D02*
D71*
X1819400Y316000D03*
Y570000D03*
Y824000D03*
Y1078000D03*
Y1332000D03*
Y1586000D03*
Y1840000D03*
X0Y0D02*
M02*
