G04 DesignSpark PCB Gerber Version 13.0 Build *
%FSLAX35Y35*%
%MOMM*%
%ADD24R,0.70000X1.20000*%
%ADD23R,1.00000X1.20000*%
%ADD26R,1.00000X2.80000*%
%ADD22R,1.30000X1.90000*%
%ADD11C,0.20000*%
%ADD12C,0.25400*%
%ADD20C,0.80000*%
%ADD13C,1.01600*%
%AMT16*0 Bullet Pad at angle 90*21,1,1.30000,1.45000,0,0,90*%
%ADD16T16*%
%AMT14*0 Bullet Pad at angle 270*21,1,1.30000,1.45000,0,0,270*%
%ADD14T14*%
%ADD15C,1.30000*%
%ADD21R,0.80000X0.80000*%
%ADD25R,1.00000X0.80000*%
X0Y0D02*
D02*
D11*
X170640Y1244300D02*
Y1178400D01*
X310000D01*
G75*
G02*
X410400Y1078000I0J-100400D01*
G01*
G75*
G02*
X310000Y977600I-100400J0D01*
G01*
X170640D01*
Y924400D01*
X310000D01*
G75*
G02*
X410400Y824000I0J-100400D01*
G01*
G75*
G02*
X310000Y723600I-100400J0D01*
G01*
X170640D01*
Y670400D01*
X310000D01*
G75*
G02*
X410400Y570000I0J-100400D01*
G01*
G75*
G02*
X310000Y469600I-100400J0D01*
G01*
X170640D01*
Y416400D01*
X310000D01*
G75*
G02*
X379600Y388360I0J-100400D01*
G01*
Y420400D01*
X580400D01*
Y210640D01*
X1744600D01*
Y390000D01*
X1670000D01*
Y1090000D01*
X1482100D01*
G75*
G02*
X1498100Y938470I-32100J-80000D01*
G01*
Y791530D01*
G75*
G02*
X1536200Y720000I-48100J-71530D01*
G01*
G75*
G02*
X1363800I-86200J0D01*
G01*
G75*
G02*
X1401900Y791530I86200J0D01*
G01*
Y938470D01*
G75*
G02*
X1417900Y1090000I48100J71530D01*
G01*
X790000D01*
Y1440000D01*
X341590D01*
G75*
G02*
X310000Y1244300I-31590J-95300D01*
G01*
X170640D01*
G36*
X170640Y1244300D02*
Y1178400D01*
X310000D01*
G75*
G02*
X410400Y1078000I0J-100400D01*
G01*
G75*
G02*
X310000Y977600I-100400J0D01*
G01*
X170640D01*
Y924400D01*
X310000D01*
G75*
G02*
X410400Y824000I0J-100400D01*
G01*
G75*
G02*
X310000Y723600I-100400J0D01*
G01*
X170640D01*
Y670400D01*
X310000D01*
G75*
G02*
X410400Y570000I0J-100400D01*
G01*
G75*
G02*
X310000Y469600I-100400J0D01*
G01*
X170640D01*
Y416400D01*
X310000D01*
G75*
G02*
X379600Y388360I0J-100400D01*
G01*
Y420400D01*
X580400D01*
Y210640D01*
X1744600D01*
Y390000D01*
X1670000D01*
Y1090000D01*
X1482100D01*
G75*
G02*
X1498100Y938470I-32100J-80000D01*
G01*
Y791530D01*
G75*
G02*
X1536200Y720000I-48100J-71530D01*
G01*
G75*
G02*
X1363800I-86200J0D01*
G01*
G75*
G02*
X1401900Y791530I86200J0D01*
G01*
Y938470D01*
G75*
G02*
X1417900Y1090000I48100J71530D01*
G01*
X790000D01*
Y1440000D01*
X341590D01*
G75*
G02*
X310000Y1244300I-31590J-95300D01*
G01*
X170640D01*
G37*
Y3459360D02*
Y3210400D01*
X310000D01*
G75*
G02*
X410400Y3110000I0J-100400D01*
G01*
G75*
G02*
X310000Y3009600I-100400J0D01*
G01*
X170640D01*
Y2956400D01*
X310000D01*
G75*
G02*
X410400Y2856000I0J-100400D01*
G01*
G75*
G02*
X310000Y2755600I-100400J0D01*
G01*
X170640D01*
Y2702400D01*
X310000D01*
G75*
G02*
X410400Y2602000I0J-100400D01*
G01*
G75*
G02*
X310000Y2501600I-100400J0D01*
G01*
X170640D01*
Y2448400D01*
X310000D01*
G75*
G02*
X410400Y2348000I0J-100400D01*
G01*
G75*
G02*
X310000Y2247600I-100400J0D01*
G01*
X170640D01*
Y2194400D01*
X310000D01*
G75*
G02*
X410400Y2094000I0J-100400D01*
G01*
G75*
G02*
X310000Y1993600I-100400J0D01*
G01*
X170640D01*
Y1940400D01*
X310000D01*
G75*
G02*
X410400Y1840000I0J-100400D01*
G01*
G75*
G02*
X310000Y1739600I-100400J0D01*
G01*
X170640D01*
Y1686400D01*
X310000D01*
G75*
G02*
X410400Y1586000I0J-100400D01*
G01*
G75*
G02*
X310000Y1485600I-100400J0D01*
G01*
X170640D01*
Y1445100D01*
X310000D01*
G75*
G02*
X404210Y1310000I0J-100400D01*
G01*
X1744600D01*
Y1465400D01*
X1770000D01*
Y1704600D01*
X1583420D01*
X1613660Y1674360D01*
G75*
G02*
X1626410Y1652640I-33650J-34360D01*
G01*
G75*
G02*
X1666200Y1580000I-46410J-72640D01*
G01*
G75*
G02*
X1493800I-86200J0D01*
G01*
G75*
G02*
X1515170Y1636810I86200J0D01*
G01*
X1496340Y1655640D01*
G75*
G02*
X1481900Y1690000I33650J34360D01*
G01*
Y1704600D01*
X1358100D01*
Y1670000D01*
G75*
G02*
X1343660Y1635640I-48090J0D01*
G01*
X1334590Y1626570D01*
G75*
G02*
X1166220Y1589730I-84590J-16570D01*
G01*
G75*
G02*
X1003800Y1630000I-76220J40270D01*
G01*
G75*
G02*
X1041900Y1701530I86200J0D01*
G01*
Y1704600D01*
X629600D01*
Y1895400D01*
X931900D01*
Y1958470D01*
G75*
G02*
X893800Y2030000I48100J71530D01*
G01*
G75*
G02*
X1066200I86200J0D01*
G01*
G75*
G02*
X1028100Y1958470I-86200J0D01*
G01*
Y1895400D01*
X1124600D01*
Y2078760D01*
X816680Y2386680D01*
G75*
G02*
X794590Y2440000I53320J53320D01*
G01*
G75*
G02*
X794600Y2440940I75330J-330D01*
G01*
Y2539060D01*
G75*
G02*
X794590Y2540000I75320J1270D01*
G01*
G75*
G02*
X816680Y2593320I75410J0D01*
G01*
X906680Y2683320D01*
G75*
G02*
X960940Y2705400I53320J-53320D01*
G01*
X1105100D01*
G75*
G02*
X1131840Y2700500I0J-75400D01*
G01*
X1493960D01*
G75*
G02*
X1548220Y2678420I940J-75400D01*
G01*
X1633320Y2593320D01*
G75*
G02*
X1655410Y2540000I-53320J-53320D01*
G01*
G75*
G02*
X1655400Y2539060I-75440J330D01*
G01*
Y2423400D01*
X1687710D01*
G75*
G02*
X1754000Y2448400I66290J-75390D01*
G01*
X1919360D01*
Y2501600D01*
X1754000D01*
G75*
G02*
X1653600Y2602000I0J100400D01*
G01*
G75*
G02*
X1754000Y2702400I100400J0D01*
G01*
X1919360D01*
Y2755600D01*
X1754000D01*
G75*
G02*
X1653600Y2856000I0J100400D01*
G01*
G75*
G02*
X1754000Y2956400I100400J0D01*
G01*
X1919360D01*
Y3009600D01*
X1754000D01*
G75*
G02*
X1653600Y3110000I0J100400D01*
G01*
G75*
G02*
X1754000Y3210400I100400J0D01*
G01*
X1919360D01*
Y3459360D01*
X170640D01*
G36*
X170640Y3459360D02*
Y3210400D01*
X310000D01*
G75*
G02*
X410400Y3110000I0J-100400D01*
G01*
G75*
G02*
X310000Y3009600I-100400J0D01*
G01*
X170640D01*
Y2956400D01*
X310000D01*
G75*
G02*
X410400Y2856000I0J-100400D01*
G01*
G75*
G02*
X310000Y2755600I-100400J0D01*
G01*
X170640D01*
Y2702400D01*
X310000D01*
G75*
G02*
X410400Y2602000I0J-100400D01*
G01*
G75*
G02*
X310000Y2501600I-100400J0D01*
G01*
X170640D01*
Y2448400D01*
X310000D01*
G75*
G02*
X410400Y2348000I0J-100400D01*
G01*
G75*
G02*
X310000Y2247600I-100400J0D01*
G01*
X170640D01*
Y2194400D01*
X310000D01*
G75*
G02*
X410400Y2094000I0J-100400D01*
G01*
G75*
G02*
X310000Y1993600I-100400J0D01*
G01*
X170640D01*
Y1940400D01*
X310000D01*
G75*
G02*
X410400Y1840000I0J-100400D01*
G01*
G75*
G02*
X310000Y1739600I-100400J0D01*
G01*
X170640D01*
Y1686400D01*
X310000D01*
G75*
G02*
X410400Y1586000I0J-100400D01*
G01*
G75*
G02*
X310000Y1485600I-100400J0D01*
G01*
X170640D01*
Y1445100D01*
X310000D01*
G75*
G02*
X404210Y1310000I0J-100400D01*
G01*
X1744600D01*
Y1465400D01*
X1770000D01*
Y1704600D01*
X1583420D01*
X1613660Y1674360D01*
G75*
G02*
X1626410Y1652640I-33650J-34360D01*
G01*
G75*
G02*
X1666200Y1580000I-46410J-72640D01*
G01*
G75*
G02*
X1493800I-86200J0D01*
G01*
G75*
G02*
X1515170Y1636810I86200J0D01*
G01*
X1496340Y1655640D01*
G75*
G02*
X1481900Y1690000I33650J34360D01*
G01*
Y1704600D01*
X1358100D01*
Y1670000D01*
G75*
G02*
X1343660Y1635640I-48090J0D01*
G01*
X1334590Y1626570D01*
G75*
G02*
X1166220Y1589730I-84590J-16570D01*
G01*
G75*
G02*
X1003800Y1630000I-76220J40270D01*
G01*
G75*
G02*
X1041900Y1701530I86200J0D01*
G01*
Y1704600D01*
X629600D01*
Y1895400D01*
X931900D01*
Y1958470D01*
G75*
G02*
X893800Y2030000I48100J71530D01*
G01*
G75*
G02*
X1066200I86200J0D01*
G01*
G75*
G02*
X1028100Y1958470I-86200J0D01*
G01*
Y1895400D01*
X1124600D01*
Y2078760D01*
X816680Y2386680D01*
G75*
G02*
X794590Y2440000I53320J53320D01*
G01*
G75*
G02*
X794600Y2440940I75330J-330D01*
G01*
Y2539060D01*
G75*
G02*
X794590Y2540000I75320J1270D01*
G01*
G75*
G02*
X816680Y2593320I75410J0D01*
G01*
X906680Y2683320D01*
G75*
G02*
X960940Y2705400I53320J-53320D01*
G01*
X1105100D01*
G75*
G02*
X1131840Y2700500I0J-75400D01*
G01*
X1493960D01*
G75*
G02*
X1548220Y2678420I940J-75400D01*
G01*
X1633320Y2593320D01*
G75*
G02*
X1655410Y2540000I-53320J-53320D01*
G01*
G75*
G02*
X1655400Y2539060I-75440J330D01*
G01*
Y2423400D01*
X1687710D01*
G75*
G02*
X1754000Y2448400I66290J-75390D01*
G01*
X1919360D01*
Y2501600D01*
X1754000D01*
G75*
G02*
X1653600Y2602000I0J100400D01*
G01*
G75*
G02*
X1754000Y2702400I100400J0D01*
G01*
X1919360D01*
Y2755600D01*
X1754000D01*
G75*
G02*
X1653600Y2856000I0J100400D01*
G01*
G75*
G02*
X1754000Y2956400I100400J0D01*
G01*
X1919360D01*
Y3009600D01*
X1754000D01*
G75*
G02*
X1653600Y3110000I0J100400D01*
G01*
G75*
G02*
X1754000Y3210400I100400J0D01*
G01*
X1919360D01*
Y3459360D01*
X170640D01*
G37*
X1275090Y2116890D02*
G75*
G02*
X1275410Y2110000I-75100J-6940D01*
G01*
G75*
G02*
X1275400Y2109060I-75440J330D01*
G01*
Y1895400D01*
X1481900D01*
Y1910080D01*
X1275090Y2116890D01*
G36*
X1275090Y2116890D02*
G75*
G02*
X1275410Y2110000I-75100J-6940D01*
G01*
G75*
G02*
X1275400Y2109060I-75440J330D01*
G01*
Y1895400D01*
X1481900D01*
Y1910080D01*
X1275090Y2116890D01*
G37*
D02*
D12*
X270000Y2295700D02*
Y2244900D01*
Y2400300D02*
Y2451100D01*
Y2549700D02*
Y2498900D01*
Y2654300D02*
Y2705100D01*
X362300Y2348000D02*
X413100D01*
X362300Y2602000D02*
X413100D01*
X480000Y372300D02*
Y423100D01*
X532300Y290000D02*
X583100D01*
X980000Y1800000D02*
Y2030000D01*
X1090000Y1630000D02*
Y1800000D01*
X1110000Y2460000D02*
Y2350000D01*
X1530000Y1930000D01*
Y1800000D01*
X1310000D02*
Y1670000D01*
X1250000Y1610000D01*
X1360000Y2460000D02*
Y2240000D01*
X1660000Y1940000D01*
X1695000D01*
X1735000Y1900000D01*
Y1800000D01*
X1420000Y1752700D02*
Y1701900D01*
Y1847300D02*
Y1898100D01*
X1450000Y1010000D02*
Y720000D01*
X1580000Y1580000D02*
Y1640000D01*
X1530000Y1690000D01*
Y1800000D01*
X1701700Y2856000D02*
X1650900D01*
X1792700Y335000D02*
X1741900D01*
X1792700Y1370000D02*
X1741900D01*
X1794000Y2803700D02*
Y2752900D01*
Y2908300D02*
Y2959100D01*
D02*
D13*
X980000Y2030000D03*
X1090000Y1630000D03*
X1250000Y1610000D03*
X1450000Y720000D03*
Y1010000D03*
X1580000Y1580000D03*
D02*
D14*
X237500Y316000D03*
D02*
D15*
X310000D03*
D02*
D14*
X237500Y570000D03*
D02*
D15*
X310000D03*
D02*
D14*
X237500Y824000D03*
D02*
D15*
X310000D03*
D02*
D14*
X237500Y1078000D03*
D02*
D15*
X310000D03*
D02*
D14*
X237500Y1344700D03*
D02*
D15*
X310000D03*
D02*
D14*
X237500Y1586000D03*
D02*
D15*
X310000D03*
D02*
D14*
X237500Y1840000D03*
D02*
D15*
X310000D03*
D02*
D14*
X237500Y2094000D03*
D02*
D15*
X310000D03*
D02*
D14*
X237500Y2348000D03*
D02*
D15*
X310000D03*
D02*
D14*
X237500Y2602000D03*
D02*
D15*
X310000D03*
D02*
D14*
X237500Y2856000D03*
D02*
D15*
X310000D03*
D02*
D14*
X237500Y3110000D03*
D02*
D15*
X310000D03*
D02*
D16*
X1826500Y2081300D03*
D02*
D15*
X1754000D03*
D02*
D16*
X1826500Y2348000D03*
D02*
D15*
X1754000D03*
D02*
D16*
X1826500Y2602000D03*
D02*
D15*
X1754000D03*
D02*
D16*
X1826500Y2856000D03*
D02*
D15*
X1754000D03*
D02*
D16*
X1826500Y3110000D03*
D02*
D15*
X1754000D03*
D02*
D20*
X270000Y2602000D02*
Y2348000D01*
X480000Y290000D02*
X500000Y310000D01*
Y1570000D01*
X480000Y290000D02*
X1785000D01*
X1830000Y335000D01*
X500000Y1570000D02*
Y2258000D01*
X410000Y2348000D01*
X270000D01*
X1110000Y2625100D02*
X1360000D01*
X1200000Y1800000D02*
Y2110000D01*
X870000Y2440000D01*
Y2540000D01*
X960000Y2630000D01*
X1105100D01*
X1110000Y2625100D01*
X1360000D02*
X1494900D01*
X1580000Y2540000D01*
Y2388000D01*
X1620000Y2348000D01*
X1794000D01*
X1420000Y1610000D02*
Y1590000D01*
X1280000Y1450000D01*
X620000D01*
X500000Y1570000D01*
X1420000Y1610000D02*
Y1480000D01*
X1530000Y1370000D01*
X1830000D01*
X1420000Y1800000D02*
Y1610000D01*
X1794000Y2856000D02*
X766000D01*
X510000Y2600000D01*
X282000D01*
X280000Y2602000D01*
X270000D01*
X1830000Y335000D02*
Y750000D01*
D02*
D21*
X1110000Y2460000D03*
Y2625100D03*
X1360000Y2460000D03*
Y2625100D03*
D02*
D22*
X480000Y290000D03*
D02*
D23*
X715000Y1800000D03*
X1830000Y1370000D03*
D02*
D24*
X870000Y1800000D03*
X980000D03*
X1090000D03*
X1200000D03*
X1310000D03*
X1420000D03*
X1530000D03*
X1640000D03*
X1735000D03*
D02*
D25*
X1830000Y750000D03*
D02*
D26*
Y335000D03*
X0Y0D02*
M02*
