  0
SECTION
  2
HEADER
  9
$ACADVER
  1
AC1009
  9
$INSBASE
 10
0
 20
0
 30
0
  9
$EXTMIN
 10
0
 20
0
  9
$EXTMAX
 10
42
 20
29.700000000000002
  9
$LIMMIN
 10
0
 20
0
  9
$LIMMAX
 10
42
 20
29.700000000000002
  9
$LTSCALE
 40
0.1
  0
ENDSEC
  0
SECTION
  2
TABLES
  0
TABLE
  2
LTYPE
 70
     9
  0
LTYPE
  2
CONTINUOUS
 70
    64
  3
実線
 72
    65
 73
     0
 40
0.0
  0
LTYPE
  2
DASHED1
 70
    64
  3
--  --  --  --  --  --  --  --  
 72
    65
 73
     2
 40
2.5
 49
1.25
 49
-1.25
  0
LTYPE
  2
DASHED2
 70
    64
  3
----    ----    ----    ----    
 72
    65
 73
     2
 40
5.0
 49
2.5
 49
-2.5
  0
LTYPE
  2
DASHED3
 70
    64
  3
------  ------  ------  ------  
 72
    65
 73
     2
 40
5.0
 49
3.75
 49
-1.25
  0
LTYPE
  2
CENTER1
 70
    64
  3
----- - ----- - ----- - ----- - 
 72
    65
 73
     4
 40
10.0
 49
6.25
 49
-1.25
 49
1.25
 49
-1.25
  0
LTYPE
  2
CENTER2
 70
    64
  3
----------  --  ----------  --  
 72
    65
 73
     4
 40
20.0
 49
12.5
 49
-2.5
 49
2.5
 49
-2.5
  0
LTYPE
  2
PHANTOM1
 70
    64
  3
--- - - --- - - --- - - --- - - 
 72
    65
 73
     6
 40
10.0
 49
3.25
 49
-1.25
 49
1.25
 49
-1.25
 49
1.25
 49
-1.25
  0
LTYPE
  2
PHANTOM2
 70
    64
  3
--------  -  -  --------  -  -  
 72
    65
 73
     6
 40
20.0
 49
10.0
 49
-2.5
 49
1.25
 49
-2.5
 49
1.25
 49
-2.5
  0
LTYPE
  2
DOT
 70
    64
  3
-   -   -   -   -   -   -   -   
 72
    65
 73
     2
 40
2.5
 49
0.625
 49
-1.875
  0
LTYPE
  2
DUMMY
 70
    64
  3
ダミー
 72
    65
 73
     0
 40
0.0
  0
LTYPE
  2
RAND1
 70
    64
  3
ランダム線1
 72
    65
 73
     4
 40
10.0
 49
1.0
 49
-2.0
 49
3.0
 49
-4.0
  0
LTYPE
  2
RAND2
 70
    64
  3
ランダム線2
 72
    65
 73
     4
 40
14.0
 49
2.0
 49
-3.0
 49
4.0
 49
-5.0
  0
LTYPE
  2
RAND3
 70
    64
  3
ランダム線3
 72
    65
 73
     4
 40
18.0
 49
3.0
 49
-4.0
 49
5.0
 49
-6.0
  0
LTYPE
  2
RAND4
 70
    64
  3
ランダム線4
 72
    65
 73
     4
 40
22.0
 49
4.0
 49
-5.0
 49
6.0
 49
-7.0
  0
LTYPE
  2
RAND5
 70
    64
  3
ランダム線5
 72
    65
 73
     4
 40
26.0
 49
5.0
 49
-6.0
 49
7.0
 49
-8.0
  0
LTYPE
  2
LONG1
 70
    64
  3
----------  --  ----------  --  
 72
    65
 73
     4
 40
40.0
 49
32.5
 49
-2.5
 49
2.5
 49
-2.5
  0
LTYPE
  2
LONG2
 70
    64
  3
--------  -  -  --------  -  -  
 72
    65
 73
     6
 40
40.0
 49
30.0
 49
-2.5
 49
1.25
 49
-2.5
 49
1.25
 49
-2.5
  0
LTYPE
  2
LONG3
 70
    64
  3
+++++++++++++++..+++++++++++++++
 72
    65
 73
     2
 40
40.0
 49
37.5
 49
-2.5
  0
LTYPE
  2
LONG4
 70
    64
  3
+++++++++++++++..+++++++++++++++
 72
    65
 73
     2
 40
80.0
 49
75.0
 49
-5.0
  0
LTYPE
  2
LONG5
 70
    64
  3
----------  --  ----------  --  
 72
    65
 73
     4
 40
60.0
 49
37.5
 49
-7.5
 49
7.5
 49
-7.5
  0
LTYPE
  2
dashed
 70
   64
  3
-------   -------------   ------
 72
   65
 73
    2
 40
7.5
 49
6
 49
-1.5
  0
LTYPE
  2
dashed_spaced
 70
   64
  3
----        --------        ----
 72
   65
 73
    2
 40
12
 49
6
 49
-6
  0
LTYPE
  2
long_dashed_dotted
 70
   64
  3
------------- --- --------------
 72
   65
 73
    4
 40
15.25
 49
12
 49
-1.5
 49
0.25
 49
-1.5
  0
LTYPE
  2
long_dashed_double-dotted
 70
   64
  3
----------- --- --- ------------
 72
   65
 73
    6
 40
17
 49
12
 49
-1.5
 49
0.25
 49
-1.5
 49
0.25
 49
-1.5
  0
LTYPE
  2
long_dashed_triplicate-dotted
 70
   64
  3
--------- --- --- --- ----------
 72
   65
 73
    8
 40
18.75
 49
12
 49
-1.5
 49
0.25
 49
-1.5
 49
0.25
 49
-1.5
 49
0.25
 49
-1.5
  0
LTYPE
  2
dotted
 70
   64
  3
   -       -       -       -    
 72
   65
 73
    2
 40
1.75
 49
0.25
 49
-1.5
  0
LTYPE
  2
chain
 70
   64
  3
-------------- -- --------------
 72
   65
 73
    4
 40
18.5
 49
12
 49
-1.5
 49
3.5
 49
-1.5
  0
LTYPE
  2
chain_double_dash
 70
   64
  3
------------ -- -- -------------
 72
   65
 73
    6
 40
23.5
 49
12
 49
-1.5
 49
3.5
 49
-1.5
 49
3.5
 49
-1.5
  0
LTYPE
  2
dashed_dotted
 70
   64
  3
-----------     -     ----------
 72
   65
 73
    4
 40
9.25
 49
6
 49
-1.5
 49
0.25
 49
-1.5
  0
LTYPE
  2
double-dashed_dotted
 70
   64
  3
------   -----------   -   -----
 72
   65
 73
    6
 40
16.75
 49
6
 49
-1.5
 49
6
 49
-1.5
 49
0.25
 49
-1.5
  0
LTYPE
  2
dashed_double-dotted
 70
   64
  3
---------    -    -    ---------
 72
   65
 73
    6
 40
11
 49
6
 49
-1.5
 49
0.25
 49
-1.5
 49
0.25
 49
-1.5
  0
LTYPE
  2
double-dashed_double-dotted
 70
   64
  3
-----   ---------   -   -   ----
 72
   65
 73
    8
 40
18.5
 49
6
 49
-1.5
 49
6
 49
-1.5
 49
0.25
 49
-1.5
 49
0.25
 49
-1.5
  0
LTYPE
  2
dashed_triplicate-dotted
 70
   64
  3
-------    -    -    -    ------
 72
   65
 73
    8
 40
12.75
 49
6
 49
-1.5
 49
0.25
 49
-1.5
 49
0.25
 49
-1.5
 49
0.25
 49
-1.5
  0
LTYPE
  2
double-dashed_triplicate-dotted
 70
   64
  3
-----  ---------  -  -  -  -----
 72
   65
 73
   10
 40
20.25
 49
6
 49
-1.5
 49
6
 49
-1.5
 49
0.25
 49
-1.5
 49
0.25
 49
-1.5
 49
0.25
 49
-1.5
  0
LTYPE
  2
undefined
 70
   64
  3
--------------------------------
 72
   65
 73
    0
 40
0
  0
LTYPE
  2
_
 70
   64
  3
                                
 72
   65
 73
    0
 40
0
  0
LTYPE
  2
__18
 70
   64
  3
                                
 72
   65
 73
    0
 40
0
  0
LTYPE
  2
__19
 70
   64
  3
                                
 72
   65
 73
    0
 40
0
  0
LTYPE
  2
__20
 70
   64
  3
                                
 72
   65
 73
    0
 40
0
  0
LTYPE
  2
__21
 70
   64
  3
                                
 72
   65
 73
    0
 40
0
  0
LTYPE
  2
__22
 70
   64
  3
                                
 72
   65
 73
    0
 40
0
  0
LTYPE
  2
__23
 70
   64
  3
                                
 72
   65
 73
    0
 40
0
  0
LTYPE
  2
__24
 70
   64
  3
                                
 72
   65
 73
    0
 40
0
  0
LTYPE
  2
__25
 70
   64
  3
                                
 72
   65
 73
    0
 40
0
  0
LTYPE
  2
__26
 70
   64
  3
                                
 72
   65
 73
    0
 40
0
  0
LTYPE
  2
__27
 70
   64
  3
                                
 72
   65
 73
    0
 40
0
  0
LTYPE
  2
__28
 70
   64
  3
                                
 72
   65
 73
    0
 40
0
  0
LTYPE
  2
__29
 70
   64
  3
                                
 72
   65
 73
    0
 40
0
  0
LTYPE
  2
__30
 70
   64
  3
                                
 72
   65
 73
    0
 40
0
  0
LTYPE
  2
__31
 70
   64
  3
                                
 72
   65
 73
    0
 40
0
  0
LTYPE
  2
__32
 70
   64
  3
                                
 72
   65
 73
    0
 40
0
  0
ENDTAB
  0
TABLE
  2
STYLE
  5
3
100
AcDbSymbolTable
 70
     1
  0
STYLE
  5
10
100
AcDbSymbolTableRecord
100
AcDbTextStyleTableRecord
  2
STANDARD
 70
     0
 40
0.0
 41
1.0
 50
0.0
 71
     0
 42
0.2
  3
txt
  4
bigfont.shx
  0
STYLE
  5
26
100
AcDbSymbolTableRecord
100
AcDbTextStyleTableRecord
  2
TATEGAKI
 70
    68
 40
0.0
 41
1.0
 50
0.0
 71
     0
 42
1.0
  3
txt
  4
bigfont.shx
  0
ENDTAB
  0
TABLE
  2
LAYER
 70
    4
  0
LAYER
  2
_0-0_0
 70
   64
 62
    7
  6
CONTINUOUS
  0
LAYER
  2
_0-1__BOARD
 70
   64
 62
    7
  6
CONTINUOUS
  0
LAYER
  2
_0-2__DRILL
 70
   64
 62
    7
  6
CONTINUOUS
  0
LAYER
  2
ADD_LINE
 70
   64
 62
    7
  6
CONTINUOUS
  0
ENDTAB
  0
ENDSEC
  0
SECTION
  2
BLOCKS
  0
BLOCK
  2
-000-_HOLE
 70
   64
 10
0
 20
0
 30
0
  0
CIRCLE
  8
_0-0_0
  6
CONTINUOUS
 62
    7
 10
0
 20
0
 40
0.5
  0
ENDBLK
  0
ENDSEC
  0
SECTION
  2
ENTITIES
  0
LINE
  8
_0-1__BOARD
  6
CONTINUOUS
 62
    3
 10
11.199999999999988
 20
-1.7500000000000228
 11
29.699999999999988
 21
-1.7500000000000228
  0
LINE
  8
_0-1__BOARD
  6
CONTINUOUS
 62
    3
 10
29.699999999999988
 20
-1.7500000000000228
 11
29.699999999999988
 21
31.749999999999978
  0
LINE
  8
_0-1__BOARD
  6
CONTINUOUS
 62
    3
 10
29.699999999999988
 20
31.749999999999978
 11
11.199999999999988
 21
31.749999999999978
  0
LINE
  8
_0-1__BOARD
  6
CONTINUOUS
 62
    3
 10
11.199999999999988
 20
31.749999999999978
 11
11.199999999999988
 21
-1.7500000000000228
  0
INSERT
  2
-000-_HOLE
  8
_0-2__DRILL
 10
27.939999999999997
 20
27.749999999999978
 41
0.9399999999999999
 42
0.9399999999999999
 50
0
  0
INSERT
  2
-000-_HOLE
  8
_0-2__DRILL
 10
27.939999999999997
 20
25.210000000000015
 41
0.9399999999999999
 42
0.9399999999999999
 50
0
  0
INSERT
  2
-000-_HOLE
  8
_0-2__DRILL
 10
27.939999999999997
 20
22.670000000000051
 41
0.9399999999999999
 42
0.9399999999999999
 50
0
  0
INSERT
  2
-000-_HOLE
  8
_0-2__DRILL
 10
27.939999999999997
 20
20.129999999999974
 41
0.9399999999999999
 42
0.9399999999999999
 50
0
  0
INSERT
  2
-000-_HOLE
  8
_0-2__DRILL
 10
27.939999999999997
 20
17.463000000000057
 41
0.9399999999999999
 42
0.9399999999999999
 50
0
  0
INSERT
  2
-000-_HOLE
  8
_0-2__DRILL
 10
12.699999999999988
 20
-0.1899999999999636
 41
0.9399999999999999
 42
0.9399999999999999
 50
0
  0
INSERT
  2
-000-_HOLE
  8
_0-2__DRILL
 10
12.699999999999988
 20
2.35
 41
0.9399999999999999
 42
0.9399999999999999
 50
0
  0
INSERT
  2
-000-_HOLE
  8
_0-2__DRILL
 10
12.699999999999988
 20
4.8899999999999641
 41
0.9399999999999999
 42
0.9399999999999999
 50
0
  0
INSERT
  2
-000-_HOLE
  8
_0-2__DRILL
 10
12.699999999999988
 20
7.4300000000000414
 41
0.9399999999999999
 42
0.9399999999999999
 50
0
  0
INSERT
  2
-000-_HOLE
  8
_0-2__DRILL
 10
12.699999999999988
 20
10.096999999999958
 41
0.9399999999999999
 42
0.9399999999999999
 50
0
  0
INSERT
  2
-000-_HOLE
  8
_0-2__DRILL
 10
12.699999999999988
 20
12.509999999999969
 41
0.9399999999999999
 42
0.9399999999999999
 50
0
  0
INSERT
  2
-000-_HOLE
  8
_0-2__DRILL
 10
12.699999999999988
 20
15.050000000000046
 41
0.9399999999999999
 42
0.9399999999999999
 50
0
  0
INSERT
  2
-000-_HOLE
  8
_0-2__DRILL
 10
12.699999999999988
 20
17.59000000000001
 41
0.9399999999999999
 42
0.9399999999999999
 50
0
  0
INSERT
  2
-000-_HOLE
  8
_0-2__DRILL
 10
12.699999999999988
 20
20.129999999999974
 41
0.9399999999999999
 42
0.9399999999999999
 50
0
  0
INSERT
  2
-000-_HOLE
  8
_0-2__DRILL
 10
12.699999999999988
 20
22.670000000000051
 41
0.9399999999999999
 42
0.9399999999999999
 50
0
  0
INSERT
  2
-000-_HOLE
  8
_0-2__DRILL
 10
12.699999999999988
 20
25.210000000000015
 41
0.9399999999999999
 42
0.9399999999999999
 50
0
  0
INSERT
  2
-000-_HOLE
  8
_0-2__DRILL
 10
12.699999999999988
 20
27.749999999999978
 41
0.9399999999999999
 42
0.9399999999999999
 50
0
  0
LINE
  8
_0-0_0
  6
CONTINUOUS
 62
    4
 10
11.199999999999988
 20
32.981844512195117
 11
29.699999999999988
 21
32.981844512195117
  0
POINT
  8
_0-0_0
 62
    4
 10
11.199999999999988
 20
32.981844512195117
  0
POINT
  8
_0-0_0
 62
    4
 10
29.699999999999988
 20
32.981844512195117
  0
LINE
  8
_0-0_0
  6
CONTINUOUS
 62
    4
 10
11.199999999999988
 20
32.981844512195117
 11
11.199999999999988
 21
31.930884146341465
  0
LINE
  8
_0-0_0
  6
CONTINUOUS
 62
    4
 10
29.699999999999988
 20
32.981844512195117
 11
29.699999999999988
 21
31.930884146341465
  0
TEXT
  8
_0-0_0
 62
    7
 10
20.11249999999999
 20
33.031844512195121
 40
0.3
 41
1
 50
0
  1
18.5
  0
LINE
  8
_0-0_0
  6
CONTINUOUS
 62
    4
 10
10.278018292682926
 20
31.749999999999978
 11
10.278018292682924
 21
-1.7500000000000228
  0
POINT
  8
_0-0_0
 62
    4
 10
10.278018292682926
 20
31.749999999999978
  0
POINT
  8
_0-0_0
 62
    4
 10
10.278018292682924
 20
-1.7500000000000228
  0
LINE
  8
_0-0_0
  6
CONTINUOUS
 62
    4
 10
10.278018292682926
 20
31.749999999999978
 11
10.857118902439024
 21
31.749999999999978
  0
LINE
  8
_0-0_0
  6
CONTINUOUS
 62
    4
 10
10.278018292682924
 20
-1.7500000000000228
 11
10.857118902439022
 21
-1.7500000000000228
  0
TEXT
  8
_0-0_0
 62
    7
 10
10.228018292682925
 20
14.662499999999978
 40
0.3
 41
1
 50
90
  1
33.5
  0
ENDSEC
  0
EOF
