G04 DesignSpark PCB Gerber Version 13.0 Build *
%FSLAX35Y35*%
%MOMM*%
%ADD10C,0.12700*%
X0Y0D02*
D02*
D10*
X410000Y1905000D02*
Y180000D01*
X1905000D01*
Y1905000D01*
X410000D01*
X800000Y1290000D02*
Y1120000D01*
X1685000D01*
Y1290000D01*
X800000D01*
X1059200Y2409200D02*
Y2675900D01*
X1160800D01*
Y2409200D01*
X1059200D01*
X1193810Y2460000D02*
X1289060D01*
Y2515560D01*
X1281130Y2531440D01*
X1265250Y2539380D01*
X1249380Y2531440D01*
X1241440Y2515560D01*
Y2460000D01*
Y2515560D02*
X1193810Y2539380D01*
Y2650500D02*
Y2587000D01*
X1249380Y2642560D01*
X1265250Y2650500D01*
X1281130Y2642560D01*
X1289060Y2626690D01*
Y2602880D01*
X1281130Y2587000D01*
X1309200Y2409200D02*
Y2675900D01*
X1410800D01*
Y2409200D01*
X1309200D01*
X1443810Y2460000D02*
X1539060D01*
Y2515560D01*
X1531130Y2531440D01*
X1515250Y2539380D01*
X1499380Y2531440D01*
X1491440Y2515560D01*
Y2460000D01*
Y2515560D02*
X1443810Y2539380D01*
Y2602880D02*
Y2634630D01*
Y2618750D02*
X1539060D01*
X1523190Y2602880D01*
X1695000Y1180000D02*
Y405000D01*
X1765000D01*
Y1180000D01*
X1695000D01*
X1770000Y3369060D02*
Y3297630D01*
X1762060Y3281750D01*
X1746190Y3273810D01*
X1714440D01*
X1698560Y3281750D01*
X1690620Y3297630D01*
Y3369060D01*
X1619190Y3273810D02*
X1587440D01*
X1603310D02*
Y3369060D01*
X1619190D02*
X1587440D01*
X1516000Y3273810D02*
X1476310Y3369060D01*
X1436620Y3273810D01*
X1500120Y3313500D02*
X1452500D01*
X1389000Y3273810D02*
Y3369060D01*
X1333440D01*
X1317560Y3361130D01*
X1309620Y3345250D01*
X1317560Y3329380D01*
X1333440Y3321440D01*
X1389000D01*
X1198500Y3313500D02*
X1206440Y3329380D01*
X1222310Y3337310D01*
X1238190D01*
X1254060Y3329380D01*
X1262000Y3313500D01*
Y3297630D01*
X1254060Y3281750D01*
X1238190Y3273810D01*
X1222310D01*
X1206440Y3281750D01*
X1198500Y3297630D01*
Y3273810D02*
Y3369060D01*
X1135000Y3337310D02*
Y3297630D01*
X1127060Y3281750D01*
X1111190Y3273810D01*
X1095310D01*
X1079440Y3281750D01*
X1071500Y3297630D01*
Y3337310D02*
Y3273810D01*
X976250D02*
Y3337310D01*
Y3361130D02*
X881000Y3273810D02*
Y3337310D01*
Y3313500D02*
X873060Y3329380D01*
X857190Y3337310D01*
X841310D01*
X825440Y3329380D01*
X817500Y3313500D01*
Y3273810D01*
X754000Y3297630D02*
X746060Y3281750D01*
X730190Y3273810D01*
X714310D01*
X698440Y3281750D01*
X690500Y3297630D01*
Y3313500D01*
X698440Y3329380D01*
X714310Y3337310D01*
X730190D01*
X746060Y3329380D01*
X754000Y3313500D01*
Y3297630D01*
X500000D02*
X492060Y3281750D01*
X476190Y3273810D01*
X444440D01*
X428560Y3281750D01*
X420620Y3297630D01*
X428560Y3313500D01*
X444440Y3321440D01*
X476190D01*
X492060Y3329380D01*
X500000Y3345250D01*
X492060Y3361130D01*
X476190Y3369060D01*
X444440D01*
X428560Y3361130D01*
X420620Y3345250D01*
X373000Y3273810D02*
Y3369060D01*
X325370D01*
X309500Y3361130D01*
X301560Y3353190D01*
X293620Y3337310D01*
Y3305560D01*
X301560Y3289690D01*
X309500Y3281750D01*
X325370Y3273810D01*
X373000D01*
X1800000Y1300000D02*
Y965000D01*
X1935000D01*
Y1300000D01*
X1800000D01*
Y1735000D02*
Y1435000D01*
X1935000D01*
Y1735000D01*
X1800000D01*
X0Y0D02*
M02*
